/* XPM */
static char *bf6ab0cdced94d0ec89d01c057e6141dw21Ho3hI18M3mNar[] = {
/* columns rows colors chars-per-pixel */
"32 32 254 2 ",
"   c None",
".  c #CD124B",
"X  c #D1174F",
"o  c #D1184E",
"O  c #D1184F",
"+  c #D51E52",
"@  c #D31F54",
"#  c #D62551",
"$  c #D72852",
"%  c #D72952",
"&  c #DC2A59",
"*  c #DE2E5B",
"=  c #DD2F5D",
"-  c #DF2E5C",
";  c #DB3454",
":  c #DB3654",
">  c #DE3956",
",  c #DE3B57",
"<  c #E0305C",
"1  c #E0325E",
"2  c #E2335F",
"3  c #DC3261",
"4  c #D83E6E",
"5  c #E33560",
"6  c #E43761",
"7  c #E53B62",
"8  c #E63D63",
"9  c #E83E65",
"0  c #E45955",
"q  c #E86A55",
"w  c #EA7055",
"e  c #EA7255",
"r  c #EB7454",
"t  c #EB7954",
"y  c #EC7854",
"u  c #EE7F55",
"i  c #F07D58",
"p  c #F37E5E",
"a  c #F37E5F",
"s  c #F47C5F",
"d  c #D44575",
"f  c #EF486B",
"g  c #EF4A6C",
"h  c #F04B6D",
"j  c #F14B6D",
"k  c #F14C6D",
"l  c #F24D6D",
"z  c #F34E6E",
"x  c #F24F6F",
"c  c #F34F6F",
"v  c #F4556E",
"b  c #F4566E",
"n  c #F4596C",
"m  c #F4596D",
"M  c #F45A6D",
"N  c #E25870",
"B  c #E3517A",
"V  c #F05172",
"C  c #F45170",
"Z  c #F45270",
"A  c #F45271",
"S  c #F45372",
"D  c #F45473",
"F  c #F35574",
"G  c #F45674",
"H  c #F25877",
"J  c #F55977",
"K  c #F36469",
"L  c #F47561",
"P  c #F47661",
"I  c #E3637A",
"U  c #F5617D",
"Y  c #F3855B",
"T  c #F3865C",
"R  c #F28B58",
"E  c #F28B59",
"W  c #F3885A",
"Q  c #F4895B",
"!  c #F19352",
"~  c #F39555",
"^  c #F39655",
"/  c #F39953",
"(  c #F39B53",
")  c #F39D52",
"_  c #F39E53",
"`  c #F39F53",
"'  c #F39B54",
"]  c #F3A052",
"[  c #F3A152",
"{  c #F4A053",
"}  c #F4A653",
"|  c #F4A554",
" . c #F5AA55",
".. c #F5A956",
"X. c #F5AC57",
"o. c #F6AD58",
"O. c #F6AD59",
"+. c #F6AE59",
"@. c #F6AF59",
"#. c #F5AC5A",
"$. c #F6B05B",
"%. c #F6B15B",
"&. c #F8B65E",
"*. c #F8B65F",
"=. c #F8B75F",
"-. c #F6B160",
";. c #F8B760",
":. c #F9BB62",
">. c #FFB961",
",. c #FFBA61",
"<. c #FFB962",
"1. c #FFBA62",
"2. c #FFBB62",
"3. c #F9BD63",
"4. c #FABE65",
"5. c #FABF66",
"6. c #FFBD64",
"7. c #FFBD65",
"8. c #FFBE64",
"9. c #FFBE65",
"0. c #FFBF66",
"q. c #FFBF67",
"w. c #FAC167",
"e. c #FFC065",
"r. c #FFC066",
"t. c #FFC166",
"y. c #FFC067",
"u. c #FFC267",
"i. c #FBC369",
"p. c #FFC168",
"a. c #FFC268",
"s. c #FFC269",
"d. c #FFC36A",
"f. c #FBC469",
"g. c #FFC568",
"h. c #FFC469",
"j. c #FCC66A",
"k. c #FCC76B",
"l. c #FFC66B",
"z. c #FFC76B",
"x. c #FCC76C",
"c. c #FFC76C",
"v. c #FCC86C",
"b. c #FFC86C",
"n. c #FFC86D",
"m. c #FDCB6E",
"M. c #FDCB6F",
"N. c #FFCA6E",
"B. c #FFCB6E",
"V. c #FDCC6F",
"C. c #FDCD6F",
"Z. c #FFCC6F",
"A. c #FFCD6F",
"S. c #FFCB70",
"D. c #FDCC70",
"F. c #FDCD70",
"G. c #FDCD71",
"H. c #FFCD70",
"J. c #FFCF71",
"K. c #FECF72",
"L. c #FED072",
"P. c #FFD072",
"I. c #FED073",
"U. c #FED273",
"Y. c #FFD274",
"T. c #FFD374",
"R. c #FFD375",
"E. c #FFD474",
"W. c #FFD475",
"Q. c #FFD575",
"!. c #FFD476",
"~. c #FFD578",
"^. c #FFD579",
"/. c #FFD67A",
"(. c #FFD67B",
"). c #FFD77F",
"_. c #D95D87",
"`. c #E15981",
"'. c #DD658D",
"]. c #F46984",
"[. c #F66C86",
"{. c #F1738F",
"}. c #E97291",
"|. c #EE7D9A",
" X c #EE7E9C",
".X c #F07894",
"XX c #F68198",
"oX c #F1819D",
"OX c #F1829E",
"+X c #DE83A8",
"@X c #DF87AA",
"#X c #EF88A0",
"$X c #E486A8",
"%X c #E594B2",
"&X c #EF9EB3",
"*X c #E09DBF",
"=X c #EEA1BA",
"-X c #FFD987",
";X c #FFDA88",
":X c #FFDB8A",
">X c #FFDB8D",
",X c #FFDC8E",
"<X c #FFDD91",
"1X c #FFDD92",
"2X c #FFDF99",
"3X c #FFDF9A",
"4X c #FEDC9C",
"5X c #FFE09C",
"6X c #F9D3AE",
"7X c #FFE1A0",
"8X c #FFE5AA",
"9X c #FFE5AB",
"0X c #FFE5AC",
"qX c #FFE6AE",
"wX c #FDE2B2",
"eX c #DFA1C2",
"rX c #EFABC2",
"tX c #E5B2CD",
"yX c #E9B1CB",
"uX c #ECB1CA",
"iX c #EBB4CD",
"pX c #ECB6CF",
"aX c #E6B6D0",
"sX c #E6BAD5",
"dX c #E7C4DC",
"fX c #E7C4DD",
"gX c #E5C4DE",
"hX c #ECC5DB",
"jX c #FCE5D0",
"kX c #EACAE1",
"lX c #E8C9E3",
"zX c #ECCFE3",
"xX c #E8E2F8",
"cX c #E8E3F9",
"vX c #E9E7FC",
"bX c #EAE8FC",
"nX c #EBE9FC",
"mX c #ECEAFD",
"MX c #EFEDFD",
"NX c #EFEFFC",
"BX c #EFEEFD",
"VX c #F1EFFC",
"CX c #F0EFFD",
"ZX c #F1F0FD",
"AX c #F2F2FD",
"SX c #F3F2FD",
"DX c #F3F2FE",
"FX c #F3F4FD",
"GX c #F4F5FD",
"HX c #F5F5FD",
"JX c #F6F6FE",
"KX c #F6F7FE",
"LX c #FDFDFF",
"PX c white",
/* pixels */
"                                                                ",
"                                                                ",
"                        W.W.W.(.(.W.W.W.                        ",
"                  W.(.<X7X7X(.5X<XW.W.W.W.W.W.                  ",
"                W.>X9X9X3X;XW.W.W.W.W.W.W.W.W.W.                ",
"            W.W.,X0X3X(.W.D.i.4.4.f.D.W.W.(.W.W.W.S.            ",
"          W.W.W.7X;XR.4. .! q 0 0 q ! X.w.-X(.W.W.R.k.          ",
"          W.W.W.W.M. .w $ . O + + O . $ w o.4X).W.W.M.y.        ",
"        W.W.W.W.k.` : X 5 g C C C C g 5 @ I jXwX0X3X(.6.        ",
"      W.W.W.W.C.` # * c C C c 3 H C C G XX&XLX6XD.W.W.k.6.      ",
"      W.W.W.W.o.: 6 C C C C - sXhXC C U C [.#XN -.W.W.D.,.      ",
"      W.W.W.i.r < C C C C j d JXJX.XC C C C J }.y f.W.W.,.y.    ",
"    W.W.W.W.$.> c C C C c & dXLXJXzXc C C C C ].> $.W.W.6.6.    ",
"    W.W.W.U.( 8 C < 4 _.+XtXSXJXFXSXaX@X'.B C C 7 [ U.W.y.,.    ",
"    W.W.W.M.t c C `.NXFXFXFXFXFXFXFXFXFXFXVX{.C j u M.W.y.,.    ",
"    W.W.W.k.i C C C %XNXFXFXFXFXFXFXFXFXSXrXC C C i k.W.6.,.    ",
"    W.W.W.x.E C C C C $XnXNXSXFXFXSXVXmX=XC C C C E M.W.,.,.    ",
"    W.W.W.D.^ C C C C f *XvXvXvXnXvXvXuXC C C C C ^ C.U.,.,.    ",
"    W.W.W.R.} M C C C 9 eXvXvXvXvXvXvXyXC C C C M | R.M.,.,.    ",
"    W.W.W.W.&.L C C C < dXvXvXvXvXvXvXkXC C C C L &.W.6.,.6.    ",
"      W.W.W.D.` b C C - xXvXkXoX|.dXvXxXD C C b ' C.C.,.,.s.    ",
"      W.W.W.W.&.Y C C V iXoXC C C C  XpXF C C T ;.W.6.,.,.      ",
"      W.W.W.W.R.o.s C C C C C C C C C C C C s o.R.k.,.,.y.      ",
"        W.W.W.W.U.o.E M C C C C C C C C M Q o.U.C.,.,.,.        ",
"          W.W.W.W.R.:.{ p K C C C C K p { :.W.C.,.,.,.s.        ",
"          D.R.W.W.W.W.D.3.X.[ ( ( [ o.3.D.W.k.,.,.,.y.          ",
"            k.M.R.W.W.W.W.W.W.U.U.W.W.W.D.6.,.,.,.y.            ",
"              s.6.x.D.W.W.W.W.W.W.U.M.6.,.,.,.,.s.              ",
"                  6.,.,.6.y.y.6.,.,.,.,.,.,.y.                  ",
"                      s.6.,.,.,.,.,.,.6.y.                      ",
"                                                                ",
"                                                                "
};
