/* XPM */
static char *_f35a5664cfd40d4ec516c5d19aca3e76ClOUMrLrlHt4VXU[] = {
/* columns rows colors chars-per-pixel */
"64 64 2 1 ",
"  c None",
". c black",
/* pixels */
"                                                                ",
"                                                                ",
"                                                                ",
"                 .                                              ",
"              .......                                           ",
"            ..........                                          ",
"           .......  ..                                          ",
"           ........              .                      .....   ",
"          ......  ..         ........                 ......... ",
"         ........  .        ..........              .......  ...",
"         .....  ..        .............            ........     ",
"         ....             ..............          ...........   ",
"        .....            ...............          ........  ... ",
"        ....            .....  .........          ....   ..  .. ",
"        ....            .....  .........         ....     ..    ",
"       ......           .....   ....  ..         ....     ..    ",
"       ......           .....  ...   ...         ....           ",
"       .......         ............  ...        .....           ",
"       ........       ..................       ......           ",
"       .........    ...........   .....        ......           ",
"       ................................      ........           ",
"       .................................    .........           ",
"       ..............................................           ",
"       ...................  ........................            ",
"        ..................  . .. ...................            ",
"         .................         .............                ",
"          ................        ..............                ",
"           .................     ...............                ",
"            ................     ...............                ",
"            .................   ...............                 ",
"            .................   ...............                 ",
"            .................   ...............                 ",
"           ....................................                 ",
"           ....................................                 ",
"            ..................................                  ",
"             .................................                  ",
"               ......................   ....                    ",
"                .....................                           ",
"                 ....................                           ",
"                 ....................                           ",
"                 ....................                           ",
"                 ....................                           ",
"                 ....................                           ",
"                 ...................                            ",
"                  .............  .                              ",
"                  ...........                                   ",
"                   ..........                                   ",
"                   .........                                    ",
"                   .........                                    ",
"                   .........                                    ",
"  ....             .........                                    ",
" ......           ..........                                    ",
".........        ...........                                    ",
"...  ......     ............                                    ",
"..     ....................                                     ",
"..      ...................                                     ",
" .       .................                                      ",
" ..       ...............                                       ",
"  .          ..........                                         ",
"  .                                                             ",
"                                                                ",
"                                                                ",
"                                                                ",
"                                                                "
};
