/* XPM */
static char *cc08298f1c2a4fb4b537e811efac084eBvvlQnQhUf9igcWY[] = {
/* columns rows colors chars-per-pixel */
"64 64 145 2 ",
"   c None",
".  c #2C3E50",
"X  c #324054",
"o  c #4E5D6D",
"O  c #504E6E",
"+  c #634E7D",
"@  c #5E6D7A",
"#  c #812F3F",
"$  c #86353E",
"%  c #8B3C3C",
"&  c #8E403B",
"*  c #92453A",
"=  c #964B38",
"-  c #9A5037",
";  c #A15A35",
":  c #A05735",
">  c #B06E2F",
",  c #B2712E",
"<  c #B97A2D",
"1  c #A76133",
"2  c #AA6631",
"3  c #AE6B30",
"4  c #B06D30",
"5  c #D9783C",
"6  c #802D40",
"7  c #833244",
"8  c #8B3043",
"9  c #873A4C",
"0  c #883D4E",
"q  c #983546",
"w  c #AF3B4D",
"e  c #B13C4E",
"r  c #BD3F51",
"t  c #8B4052",
"y  c #985458",
"u  c #9E6371",
"i  c #AC7871",
"p  c #A6737F",
"a  c #C84354",
"s  c #D54658",
"d  c #DD5951",
"f  c #E15754",
"g  c #DB634A",
"h  c #DA6E42",
"j  c #F24F60",
"k  c #F35160",
"l  c #FF5364",
"z  c #BF812A",
"x  c #DFAD1F",
"c  c #E4B31E",
"v  c #EBB71F",
"b  c #EABC1B",
"n  c #C08429",
"m  c #CD9525",
"M  c #DD8139",
"N  c #D19A24",
"B  c #E29E2A",
"V  c #DDAA20",
"C  c #DBA720",
"Z  c #E3A427",
"A  c #EBBF28",
"S  c #EFC31A",
"D  c #F0C419",
"F  c #EFC82C",
"G  c #EFC620",
"H  c #F0C623",
"J  c #F0C729",
"K  c #F0C82C",
"L  c #EFCA36",
"P  c #DCB34B",
"I  c #DAB154",
"U  c #D2B17F",
"Y  c #EFCD43",
"T  c #EFCF4C",
"R  c #F0CB40",
"E  c #EFCF51",
"W  c #EFD054",
"Q  c #EED464",
"!  c #EFD46B",
"~  c #EED774",
"^  c #EED97D",
"/  c #6E5085",
"(  c #715188",
")  c #7E5592",
"_  c #7C6B92",
"`  c #8C599E",
"'  c #825695",
"]  c #AB7B87",
"[  c #955BA5",
"{  c #9A64A9",
"}  c #9E6AAE",
"|  c #A16EAF",
" . c #A272B1",
".. c #A87CB6",
"X. c #A679B4",
"o. c #788590",
"O. c #AF818D",
"+. c #B28792",
"@. c #BF9FA8",
"#. c #AC82B9",
"$. c #B18BBE",
"%. c #A5AFB5",
"&. c #D2B081",
"*. c #D2B89D",
"=. c #C7AEB6",
"-. c #C8B0B7",
";. c #EEDA85",
":. c #EEDB8D",
">. c #EDDD93",
",. c #EEDE9B",
"<. c #EDE09F",
"1. c #D4C1B6",
"2. c #EDE3B4",
"3. c #EDE5BC",
"4. c #B693C2",
"5. c #BB9CC6",
"6. c #BEA2C9",
"7. c #C5ADCE",
"8. c #C1A6CC",
"9. c #D0BEC4",
"0. c #CBB8D4",
"q. c #C3CACF",
"w. c #D9CBC8",
"e. c #D8CBD0",
"r. c #D4C6DC",
"t. c #D5CADD",
"y. c #D4D6DE",
"u. c #E0DADC",
"i. c #EDE8CB",
"p. c #EDE7C7",
"a. c #ECEAD4",
"s. c #ECECDB",
"d. c #DFD9E5",
"f. c #DDD7E4",
"g. c #E1DDE5",
"h. c #E2DFE9",
"j. c #DEE3E6",
"k. c #E5E3E5",
"l. c #ECEEE5",
"z. c #E6E5EA",
"x. c #EBEDEC",
"c. c #E7E8ED",
"v. c #ECF0EF",
"b. c #EBEFF0",
"n. c #ECF0F1",
/* pixels */
"                                                      D D D D D D D D D D                                                       ",
"                                            D D D D D D D D D D D D D D D D D D D D                                             ",
"                                        D D D D D D D D D D D D D D D D D D D D D D D S                                         ",
"                                  S D D D D D D D D D D D D D D D D D D D D D D D D D D D D S                                   ",
"                                D D D D D D D D D D D D R ! ;.>.>.;.! R D D D D D D D D D D D D                                 ",
"                            S D D D D D D D D D D L >.s.n.n.n.n.n.n.n.n.s.>.L D D D D D D D D D D S                             ",
"                          D D D D D D D D D D J :.x.n.n.n.n.n.n.n.n.n.n.n.n.x.,.F D D D D D D D D D D                           ",
"                      D D D D D D D D D D D E l.n.n.n.n.n.n.n.n.n.n.n.n.n.n.n.n.l.E D D D D D D D D D D D                       ",
"                    D D D D D D D D D D D ~ x.n.n.n.n.n.n.n.n.n.n.n.n.n.n.n.n.n.n.x.~ D D D D D D D D D D D                     ",
"                  D D D D D D D D D D D ! n.n.n.n.n.n.n.n.n.n.n.n.n.n.n.n.n.n.n.n.n.n.! D D D D D D D D D D S                   ",
"                D D D D D D D D D D D T x.n.n.n.n.n.n.n.n.n.n.n.n.n.n.n.n.n.n.n.n.n.n.x.T D D D D D D D D D D D                 ",
"              D D D D D D D D D D D H s.n.n.n.n.n.n.n.n.f.5...7.n.n.n.n.n.n.n.n.n.n.n.n.s.H D D D D D D D D D D D               ",
"              D D D D D D D D D D D ;.n.n.n.n.n.n.n.z.$.[ [ $.n.n.n.n.n.n.n.n.n.n.n.n.n.n.;.D D D D D D D D D D D               ",
"            D D D D D D D D D D D F x.n.n.n.n.n.n.d.} [ [ [ f.n.n.n.n.n.n.n.n.n.n.n.n.n.n.l.F D D D D D D D D D D D             ",
"          S D D D D D D D D D D D ;.n.n.n.n.n.n.z. .[ [ [ } n.n.n.n.n.n.n.n.n.n.n.n.n.n.n.n.^ D D D D D D D D D D D D           ",
"          D D D D D D D D D D D D i.n.n.n.n.n.n.4.[ [ [ [ X.n.n.n.n.n.n.n.n.n.n.n.n.n.n.n.n.p.D D D D D D D D D D D D           ",
"        D D D D D D D D D D D D K n.n.n.n.n.n.g.[ [ [ [ ` O b.n.n.n.n.n.n.n.n.n.n.n.n.n.n.n.v.J D D D D D D D D D D D D         ",
"      S D D D D D D D D D D D D E n.n.n.n.n.n.7.[ [ [ [ O . q.n.n.n.n.n.n.n.n.n.t.n.n.n.n.n.n.T D D D D D D D D D D D D         ",
"      D D D D D D D D D D D D D ! n.n.n.n.n.n.$.[ [ [ ' . . @ b.n.n.n.n.n.n.n.d.$.n.n.n.n.n.n.! D D D D D D D D D D D D D       ",
"      D D D D D D D D D D D D D ~ n.n.n.n.n.n...[ [ [ / . . . o.x.n.n.n.n.n.g. .X.n.n.n.n.n.n.~ D D D D D D D D D D D D D       ",
"    D D D D D D D D D D D D D D ~ n.n.n.n.n.n.#.[ [ [ ( . . . . o %.y.j.y.6.{ [ #.n.n.n.n.n.n.~ D D D D D D D D D D D D D S     ",
"    D D D D D D D D D D D D D D Q n.n.n.n.n.n.4.[ [ [ ` . . . . . . . . ` [ [ [ 4.n.n.n.n.n.n.Q D D D D D D D D D D D D D D     ",
"  D D D D D D D D D D D D D D D T n.n.n.n.n.n.0...r.h.r._ . . . . . . + [ [ [ [ 0.n.n.n.n.n.n.Y D D D D D D D D D D D D D D D   ",
"  D D D D D D D D D D D D D D D G x.n.n.n.n.n.c.x.n.n.n.x._ X . . X + [ [ [ [ { x.n.n.n.n.n.x.H D D D D D D D D D D D D D D D   ",
"  D D D D D D D D D D D D D D D D 2.n.n.n.n.n.n.n.n.n.n.n.0.[ ) ) [ [ [ [ [ [ 7.n.n.n.n.n.n.2.D D D D D D D D D D D D D D D D   ",
"  D D D D D D D D D D D D D D D D ! n.n.n.n.n.n.n.n.n.n.n.t.[ [ [ [ [ [ [ [ #.b.n.n.n.n.n.n.! D D D D D D D D D D D D D D D D   ",
"S D D D D D D D D D D D D D D D D D a.n.n.n.n.n.n.n.n.n.n.7.[ [ [ [ [ [ [ $.x.n.n.n.n.n.n.a.S D D D D D D D D D D D D D D D D   ",
"D D D D D D D D D D D D D D D D D D Q n.n.n.n.n.n.n.n.n.h.{ [ [ [ [ [ | 0.b.n.n.n.n.n.n.n.Q D D D D D D D D D D D D D D D D D S ",
"D D D D D D D D D D D D D D D D D D D 3.n.n.n.n.n.n.n.n.x.t.6.4.4.8.r.x.n.n.n.n.n.n.n.n.3.D D D D D D D D D D D D D D D D D D D ",
"D D D D D D D D D D D D D D D D D D D F s.n.n.n.n.n.n.n.n.n.n.n.n.n.n.n.n.n.n.n.n.n.n.s.K D D D D D D D D D D D D D D D D D D D ",
"D D D D D D D D D D D D D D D D D D D D Y l.n.n.n.n.n.n.n.n.n.n.n.n.n.n.n.n.n.n.n.n.l.Y D D D D D D D D D D D D D D D D D D D D ",
"D D D D D D D D D D D D D D D D D D D D D R a.n.n.n.n.n.n.n.n.n.n.n.n.n.n.n.n.n.n.s.Y D D D D D D D D D D D D D D D D D D D D D ",
"D D D D D D D D D D D D S b S D D D D D D D F 2.n.n.n.n.n.n.n.n.n.n.n.n.n.n.n.n.2.K D D D D D D D S b S D D D D D D D D D D D D ",
"D D D D D D D D D D c 2 $ 6 y *.A D D D D D D D W i.n.n.n.n.n.n.n.n.n.n.n.n.i.Q D D D D D D D A *.y 6 $ 2 c D D D D D D D D D D ",
"D D D D D D D D D c % 6 6 6 6 u.u.P D D D D D D D D W <.s.n.n.n.n.n.n.s.<.W D D D D D D D D P u.u.6 6 6 6 & c D D D D D D D D D ",
"D D D D D D D D D 1 6 6 6 6 6 @.n.c.U S D D D D D D D D D F T W W T F D D D D D D D D D S &.c.n.@.6 6 6 6 6 1 D D D D D D D D D ",
"D D D D D D D D b # 6 6 6 6 6 u n.n.n.w.P D D D D D D D D D D D D D D D D D D D D D D P w.n.n.n.u 6 6 6 6 6 # b D D D D D D D S ",
"  D D D D D D D x 6 6 6 6 6 6 7 z.n.n.n.b.1.I D D D D D D D D D D D D D D D D D S I 1.b.n.n.n.z.7 6 6 6 6 6 6 x D D D D D D D   ",
"  D D D D D D D c 6 6 6 6 6 6 6 =.n.n.n.n.n.b.i < V S D D D D D D D D D D S C < i b.n.n.n.n.n.=.6 6 6 6 6 6 6 c D D D D D D D   ",
"  D D D D D D D b 6 6 6 6 6 6 6 p n.n.n.n.n.+.6 6 6 $ ; , n m m m m n , : $ 6 6 6 +.n.n.n.n.n.p 6 6 6 6 6 6 6 b D D D D D D D   ",
"  D D D D D D D D $ 6 6 6 6 6 6 9 x.n.n.n.=.6 6 6 6 6 6 6 6 6 6 6 6 6 6 6 6 6 6 6 6 -.n.n.n.x.9 6 6 6 6 6 6 $ D D D D D D D D   ",
"  D D D D D D D D - 6 6 6 6 6 6 6 9.n.n.k.0 6 6 6 6 6 6 6 6 6 6 6 6 6 6 6 6 6 6 6 6 0 g.n.n.9.6 6 6 6 6 6 6 - D D D D D D D D   ",
"    D D D D D D D > 6 6 6 6 6 6 6 O.n.n.] 6 6 6 6 6 6 6 6 6 6 6 6 6 6 6 6 6 6 6 6 6 6 ] n.n.O.6 6 6 6 6 6 6 , D D D D D D D     ",
"    D D D D D D D m 6 6 6 6 6 6 6 t k.e.7 6 6 6 6 6 6 6 6 6 6 6 6 6 6 6 6 6 6 6 6 6 6 7 e.k.t 6 6 6 6 6 6 6 N D D D D D D S     ",
"      D D D D D D b $ 6 6 6 6 6 6 6 7 7 6 6 6 6 6 6 6 6 6 6 6 6 6 6 6 6 6 6 6 6 6 6 6 6 7 7 6 6 6 6 6 6 6 $ b D D D D D D       ",
"      D D D D D D D 3 6 6 6 6 6 6 6 6 6 6 6 6 6 6 6 6 6 6 6 6 6 6 6 6 6 6 6 6 6 6 6 6 6 6 6 6 6 6 6 6 6 6 4 D D D D D D D       ",
"      S D D D D D D V # 6 6 6 6 6 6 6 6 6 6 6 6 6 6 6 6 6 6 6 6 6 6 6 6 6 6 6 6 6 6 6 6 6 6 6 6 6 6 6 6 # x D D D D D D         ",
"        D D D D D D D 1 6 6 6 6 6 6 6 6 6 6 6 6 6 6 6 6 6 6 6 6 6 6 6 6 6 6 6 6 6 6 6 6 6 6 6 6 6 6 6 6 2 D D D D D D D         ",
"          D D D D D D c $ 6 6 6 6 6 6 6 6 6 6 6 6 6 6 6 6 6 6 6 6 6 6 6 6 6 6 6 6 6 6 6 6 6 6 6 6 6 6 $ c D D D D D D           ",
"          S D D D D D D z 6 6 6 6 6 6 6 6 6 6 6 6 6 6 6 6 6 6 6 6 6 6 6 6 6 6 6 6 6 6 6 6 6 6 6 6 6 6 z D D D D D D D           ",
"            D D D D D D S ; 6 6 6 6 6 6 6 6 6 6 6 6 6 6 6 6 q q q q 6 6 6 6 6 6 6 6 6 6 6 6 6 6 6 6 ; S D D D D D D             ",
"              D D D D D D b * 6 6 6 6 6 6 6 6 6 6 6 e s k l l l l l l j s e 8 6 6 6 6 6 6 6 6 6 6 * b D D D D D D               ",
"              D D D D D D D c & 6 6 6 6 6 6 6 8 a k l l l l l l l l l l l l k a 8 6 6 6 6 6 6 6 % c D D D D D D D               ",
"                D D D D D D D c * 6 6 6 6 6 w k l l l l l l l l l l l l l l l l k w 6 6 6 6 6 * c D D D D D D D                 ",
"                  D D D D D D D b ; 6 6 6 a l l l l l l l l l l l l l l l l l l l l a 6 6 6 ; b D D D D D D S                   ",
"                    D D D D D D D S z $ r l l l l l l l l l l l l l l l l l l l l l l r $ n S D D D D D D S                     ",
"                      D D D D D D D D c d l l l l l l l l l l l l l l l l l l l l l l d c D D D D D D D D                       ",
"                          D D D D D D D D B d k l l l l l l l l l l l l l l l l k d B D D D D D D D D                           ",
"                            D D D D D D D D D v 5 f k l l l l l l l l l l k f 5 v D D D D D D D D D                             ",
"                                D D D D D D D D D D S Z M h g g g g h M Z S D D D D D D D D D D                                 ",
"                                    D D D D D D D D D D D D D D D D D D D D D D D D D D D D                                     ",
"                                        D D D D D D D D D D D D D D D D D D D D D D D D                                         ",
"                                            D D D D D D D D D D D D D D D D D D D D                                             ",
"                                                      D D D D D D D D D S                                                       "
};
