/* XPM */
static char *ae6cbb2fe0804ad5b20bac3c85dae395lPi7i1AAQkIk4pMK[] = {
/* columns rows colors chars-per-pixel */
"64 64 182 2 ",
"   c None",
".  c #000000",
"X  c #0B0105",
"o  c #0D0900",
"O  c #0B0C0C",
"+  c #080708",
"@  c #130D01",
"#  c #1A0B03",
"$  c #140309",
"%  c #1A030C",
"&  c #100207",
"*  c #1C1501",
"=  c #161101",
"-  c #191919",
";  c #110A14",
":  c #23040F",
">  c #350F0C",
",  c #251C01",
"<  c #271800",
"1  c #331107",
"2  c #250511",
"3  c #2B0513",
"4  c #2F0518",
"5  c #330616",
"6  c #330619",
"7  c #3C071D",
"8  c #3C081A",
"9  c #2C2101",
"0  c #362802",
"q  c #3F3002",
"w  c #061827",
"e  c #3F0720",
"r  c #1C2529",
"t  c #222222",
"y  c #2D2D2D",
"u  c #4B1A0A",
"i  c #47130F",
"p  c #43081C",
"a  c #49091F",
"s  c #541A0F",
"d  c #611B15",
"f  c #462A00",
"g  c #483702",
"h  c #553A02",
"j  c #6A240E",
"k  c #72270F",
"l  c #76211A",
"z  c #653C00",
"x  c #430822",
"c  c #4C0A23",
"v  c #4F0928",
"b  c #540B24",
"n  c #5A0C26",
"m  c #5C0B2C",
"M  c #530A2A",
"N  c #620D2A",
"B  c #6C0E2E",
"V  c #630B32",
"C  c #6B0C36",
"Z  c #730F31",
"A  c #790E3D",
"S  c #7C1035",
"D  c #7F1138",
"F  c #584303",
"G  c #654D03",
"H  c #764B01",
"J  c #765904",
"K  c #1C364B",
"L  c #0D3A5E",
"P  c #0B2F4D",
"I  c #7F0F40",
"U  c #1E415D",
"Y  c #37474F",
"T  c #114976",
"R  c #0F446E",
"E  c #5C5C5C",
"W  c #686868",
"Q  c #757575",
"!  c #7A7A7A",
"~  c #87251D",
"^  c #903113",
"/  c #90281F",
"(  c #B03C17",
")  c #AA3A17",
"_  c #841139",
"`  c #8C123C",
"'  c #811137",
"]  c #92133E",
"[  c #982A21",
"{  c #A82E25",
"}  c #D23A2E",
"|  c #8D5401",
" . c #955901",
".. c #BB4019",
"X. c #8A6804",
"o. c #9A7505",
"O. c #916E05",
"+. c #B96E01",
"@. c #A67E05",
"#. c #A86301",
"$. c #D7491D",
"%. c #E34D1E",
"&. c #D27C01",
"*. c #FF5722",
"=. c #F34335",
"-. c #820F42",
";. c #8A1045",
":. c #8F1148",
">. c #961341",
",. c #9D1443",
"<. c #93114A",
"1. c #9B124C",
"2. c #9F1250",
"3. c #A41546",
"4. c #AB164A",
"5. c #A5144F",
"6. c #B1174B",
"7. c #B9184F",
"8. c #B7184E",
"9. c #A51353",
"0. c #AC1457",
"q. c #AF1558",
"w. c #BD1951",
"e. c #B41659",
"r. c #BC165A",
"t. c #B01557",
"y. c #C41953",
"u. c #CB1A56",
"i. c #C5185C",
"p. c #CD1A5B",
"a. c #C1175B",
"s. c #D31B5B",
"d. c #DB1C5E",
"f. c #DC1C60",
"g. c #D61B60",
"h. c #E51E62",
"j. c #E81E63",
"k. c #B88C06",
"l. c #BD9006",
"z. c #DD8301",
"x. c #CB9B06",
"c. c #C49506",
"v. c #CD9606",
"b. c #FF9701",
"n. c #FA9D03",
"m. c #E89203",
"M. c #D5A207",
"N. c #DDA807",
"B. c #E5AE07",
"V. c #FEAB05",
"C. c #ECB307",
"Z. c #FCBF08",
"A. c #F8B908",
"S. c #FDC008",
"D. c #135388",
"F. c #1F88DD",
"G. c #218DE5",
"H. c #2491EA",
"J. c #4FABF5",
"K. c #54ADF5",
"L. c #64B5F6",
"P. c #6CB8F6",
"I. c #74BCF7",
"U. c #7EC1F7",
"Y. c #868687",
"T. c #ABABAB",
"R. c gray72",
"E. c #81C3F8",
"W. c #95CCF9",
"Q. c #A4D4FA",
"!. c #AED8FA",
"~. c #BCDFFB",
"^. c #C2C2C2",
"/. c #CBCBCB",
"(. c #D5D5D5",
"). c #DADADA",
"_. c #C9E5FC",
"`. c #D4EAFD",
"'. c #E4E4E4",
"]. c #EBEBEB",
"[. c #EEF7FE",
"{. c #F8FAFB",
/* pixels */
"                  . . .                               . . .           . .                               . . .                   ",
"              . . . . . .                             . . . . . X . . . .                             . . . . . .               ",
"          . . . @ F J . .                             . . $ . . . . $ . .                             . . H h o . . .           ",
"        . . @ O.A.S.C.. .                     . . . . . . y._ . . N 2.. . . . . .                     . . C.Z.n.| @ . .         ",
"      . . = N.S.S.S.S.9 .                   . . . . . . 3 j.h.X . s.j.6 . . . . . .                   . 9 S.S.S.V.z.# . .       ",
"    . . . . , x.S.S.S.J . .                   . . % p.] y.j.j.4.3.j.j.u.D 2.% . .                   . . J S.S.S.x.< . . . .     ",
"    . o G @ . @ B.S.S.M.. .                     . . S j.j.j.j.j.j.j.j.j.e.V . .                     . . M.S.S.B.@ . @ z o .     ",
"  . . J S.B., . X.S.S.S.g . . . .             . . . p j.j.j.j.j.j.j.j.f.0.7 . . .             . . . . g S.S.S.X.. , m.b.H . .   ",
"  . . C.S.S.M.G N.S.S.S.c.. . . .           . . . % 3.j.j.j.j.j.j.j.j.j.h.>.$ . . .           . . . . c.S.S.S.N.G M.Z.b.m.. .   ",
". . g S.S.S.S.S.Z.x.A.S.X.. X . .       . . . 3 ,.j.j.j.j.j.j.j.j.j.j.j.j.j.h._ : . . .       . . X . X.S.A.x.Z.S.S.S.n.b.f .   ",
". . X.S.S.S.S.S.o.. G S.* . V 2 . .   . . & ] j.j.j.j.j.j.j.j.j.j.j.j.j.j.j.j.j.d.C X . .   . . 3 V . * S.G . o.S.S.S.V.b.| . . ",
". . k.S.Z.B.S.S.h . . @.. . i.;.. . . . p s.j.j.j.j.j.j.j.j.j.j.j.j.j.j.j.j.j.j.j.h.9.6 . . . . 1.9.. . @.. . F S.S.B.V.b.+.. . ",
". . M.M.0 . l.S.9 . . . . % j.j.4.% . B j.j.j.j.j.j.j.j.j.j.j.j.j.j.j.j.j.j.j.j.j.j.j.j.B . % 4.i.0.$ . . . . 9 S.l.. 9 z.&.. . ",
". . k.= . o x.S.* . 2 . . N j.j.j.d.u.j.j.j.j.j.j.j.j.j.j.j.j.j.j.j.j.j.j.j.j.j.d.h.j.j.j.u.d.j.j.j.N . . % . * S.x.o . # +.. . ",
". . , . , M.S.S., . 4.s.s.j.j.j.j.j.j.j.] p & . $ a ,.j.j.j.j.j.j.j.j.j.h._ 5 . . . 3 S d.j.j.j.j.j.j.s.9.I . , S.S.M., . < . . ",
". . . . x.S.S.S.0 . Z j.j.j.j.j.j.j.y.3 . . . . . . . 5 u.j.j.j.j.j.j.y.3 . . . . . . . % 4.j.j.j.j.j.h.0.M . 0 S.S.S.v.. . . . ",
". . . g S.S.S.J . . B j.j.j.j.j.j.y.& . O ! ^.).^.Q O . % p.j.j.j.j.u.& . O Q ^.).^.! O . X 4.j.j.j.j.j.r.v . . J S.S.V.f . . . ",
". . . o.S.S.k.. . B j.j.j.j.j.j.h.3 . y '.[.Q.J.P._.).t . 8 j.j.j.j.5 . t ).[.!.J.P.~.'.y . % d.j.j.j.j.j.r.v . . k.S.n. .. . . ",
"  . . o.S.S.q . b j.j.j.j.j.j.j.] . O '.{.'.Q K T G.W.).+ . 3.j.j.,.. O ).{.].! K R F.E.'.O . S j.j.j.j.j.f.0.7 . q A.b. .. .   ",
"  . . . @.C.. . y.j.j.j.j.j.j.j.p . ! [.].- . . . w G._.W . b j.j.b . W [.].t . . . O F.~.Q . 3 j.j.j.j.j.j.e.<.. . n.#.. . .   ",
"    . . . 9 . X j.j.j.j.j.j.j.j.& . ^.Q.Q . O r + . D.I.T.. 2 j.j.: . T.Q.Y.. + r O . T P.^.. . j.j.j.j.j.j.a.0.. . < . . .     ",
"      . . . . . _ 5 3 ] j.j.j.j.. . (.K.K . r Y r . L L.^.. % j.j.$ . ^.L.U . r Y r . P K.(.. . d.j.j.j.` 3 2 m . . . . .       ",
"          . . . . . . 5 j.j.j.j.$ . R.I.T . + r + . D.E.T.. 3 j.j.2 . T.U.D.. + r + . T I.R.. . j.j.h.r.3 . . . . . .           ",
"            . . . . . ' j.j.j.j.a . Q _.G.w . . . w H.`.E . n j.j.n . E `.H.w . . . w G._.Q . 5 j.j.j.q.V . . . . .             ",
"              .   . X d.j.j.j.j.,.. O ).W.G.D.L D.H.Q./.. . B ,.,.B . + /.Q.H.D.L D.G.W.(.O . ` j.j.j.i.9.X .   .               ",
"                . . n j.j.j.j.j.j.5 . t (.`.U.L.E.`./.- . . . . . . . . - /.`.E.L.U.`.(.t . 3 h.j.j.j.f.0.x . .                 ",
"                . . 6.j.j.j.j.j.j.u.% . + W T.^.T.E . . . X % 2 2 % X . . . E T.^.T.W + . $ y.j.j.j.j.j.e.-.. .                 ",
"                . & j.j.j.j.j.j.j.j.p.8 . . . . . . . & ;.0.0.0.0.0.0.;.& . . . . . . . 5 y.j.j.j.j.j.j.i.0.X .                 ",
"              . . b j.j.j.j.j.j.j.j.j.j.3.b 2 $ 2 8 . X 9.0.0.0.0.0.0.9.X . 8 3 $ 2 b 3.j.j.j.j.j.j.j.j.g.0.7 . .               ",
"              . . ] j.j.j.j.j.j.j.j.j.j.j.j.j.j.j.h.% . e 0.0.0.0.0.0.7 . % h.j.j.j.j.j.j.j.j.j.j.j.j.j.j.0.C . .               ",
"              . . w.j.j.j.j.j.j.j.j.j.j.j.j.j.j.j.j.3.. . 2 -.0.0.-.2 . . 3.j.j.j.j.j.j.j.j.j.j.j.j.j.j.j.e.;.. .               ",
"              . . h.j.j.j.j.j.j.j.j.j.j.j.j.j.j.j.j.j.` . . . . . . . . ` j.j.j.j.j.j.j.j.j.j.j.j.j.j.j.j.a.9.. .               ",
"              . 3 j.j.j.j.j.j.j.j.j.j.j.j.j.j.j.j.j.j.j.w.c X . . X c y.j.j.j.j.j.j.j.j.j.j.j.j.j.j.j.j.j.i.0.% .               ",
"              . p j.j.j.j.j.j.j.j.j.j.j.j.j.j.j.j.j.j.j.j.j.h.y.y.h.j.j.j.j.j.j.j.j.j.j.j.j.j.j.j.j.j.j.j.s.0.4 .               ",
"            . . b j.j.j.j.j.j.j.j.j.j.j.u.B a c S 4.s.j.j.j.j.j.j.j.j.j.j.s.3.S c a B u.j.j.j.j.j.j.j.j.j.g.0.7 . .             ",
"            . . N j.j.j.j.j.j.j.j.j.j.y.& . . . . . . % 5 8 a c c a 8 5 % . . . . . . & y.j.j.j.j.j.j.j.j.f.0.x . .             ",
"            . . B j.j.j.j.j.j.j.j.j.j.b . % V M 6 X . . . . . . . . . . . . X 6 m V % . b j.j.j.j.j.j.j.j.f.0.v . .             ",
"            . . n j.j.j.j.j.j.j.j.j.j.8 . C 0.0.0.x . . . > d ~ l d > . . . x 0.0.0.C . 8 j.j.j.j.j.j.j.j.f.0.c . .             ",
"            . . a j.j.j.j.j.j.j.j.j.j.n . 4 0.0.v . . d } =.=.=.=.=.=.} d . . v 0.0.4 . n j.j.j.j.j.j.j.j.d.0.e . .             ",
"          . . . 5 j.j.j.j.j.j.j.j.j.j.8.. . m <.. . / =.=.=.=.=.=.=.=.=.=.[ . . <.m . . 7.j.j.j.j.j.j.j.j.p.0.4 . . .           ",
"          . . . % j.j.j.j.j.j.j.j.j.j.j.B . . X . > =.=.=.=.=.=.=.=.=.=.=.=.> . X . . B j.j.j.j.j.j.j.j.j.i.0.& . . .           ",
"          . . . . u.j.j.j.j.j.j.j.j.j.j.j.S X . . . # i l ~ [ { { [ ~ l i # . . . . S j.j.j.j.j.j.j.j.j.j.r.<.. . . .           ",
"          . 3 % . ] j.j.j.j.j.j.j.j.j.j.j.j.s.Z 2 . . . . . . . . . . . . . . 2 B p.j.j.j.j.j.j.j.j.j.j.j.t.C . % % .           ",
"        . . n n . n j.j.j.j.j.j.j.j.j.j.j.j.j.j.j.p.,.S N a 4 2 3 8 c n S 4.d.j.j.j.j.j.j.j.j.j.j.j.j.j.f.0.x . x x . .         ",
"        . . ` 3.. X d.j.j.j.j.j.j.j.j.j.j.j.j.j.j.j.j.j.j.j.j.j.j.j.j.j.j.j.j.j.j.j.j.j.j.j.j.j.j.j.j.j.i.9.X . A C . .         ",
"        . . y.h.$ . _ j.j.j.j.j.j.j.j.j.j.j.j.j.j.j.j.j.j.j.j.j.j.j.j.j.j.j.j.j.j.j.j.j.j.j.j.j.j.j.j.j.e.V . $ 0.:.. .         ",
"        . X j.j.Z . : j.j.j.j.j.j.j.j.j.j.j.j.j.j.j.j.j.3.b : X X : b 3.j.j.j.j.j.j.j.j.j.j.j.j.j.j.j.p.0.% . Z 0.0.X .         ",
"        . 8 j.j.s.X . S j.j.j.j.j.j.j.j.j.j.j.j.j.j.6.3 . . . . . . . . 3 6.j.j.j.j.j.j.j.j.j.j.j.j.j.e.m . X d.e.0.4 .         ",
"      . . Z j.j.j.S . X y.j.j.j.j.j.j.j.j.j.j.j.j._ . . X j ( $.$.( j X . . _ j.j.j.j.j.j.j.j.j.j.j.i.<.. . S j.a.0.M . .       ",
"      . . 3.j.j.j.j.4 . 5 d.j.j.j.j.j.j.j.j.j.j._ . . u %.*.*.*.*.*.*.%.u . . _ j.j.j.j.j.j.j.j.j.f.9.2 . 5 j.j.p.0.A . .       ",
"      . . s.j.j.j.j.y.X . p h.j.j.j.j.j.j.j.j.8.. . j *.*.*.*.*.*.*.*.*.*.j . . 7.j.j.j.j.j.j.j.h.0.6 . X y.j.j.f.0.2.. .       ",
"      . % j.j.j.j.j.j.,.. . b h.j.j.j.j.j.j.j.4 . u *.*.*.*.*.*.*.*.*.*.*.*.u . 5 j.j.j.j.j.j.j.e.7 . . 3.j.j.j.j.q.0.% .       ",
"    . . b j.j.j.j.j.j.j.` . . 5 p.j.j.j.j.j.7.. . %.*.*.*.*.*.*.*.*.*.*.*.*.$.. . 7.j.j.j.j.j.5.2 . . ] j.j.j.j.j.r.0.7 . .     ",
"    . . _ j.j.j.j.j.j.j.j.] . . $ 3.j.j.j.j.S . u *.*.*.*.*.*.*.*.*.*.*.*.*.*.u . S j.j.j.f.A & . . ] j.j.j.j.j.j.i.0.V . .     ",
"    . . >.j.j.j.j.j.j.j.j.j.S . . . p y.j.j.N . j *.*.*.*.*.*.*.*.*.*.*.*.*.*.j . N j.j.4.4 . . . S j.j.j.j.j.j.j.p.0.C . .     ",
"    . . ] j.j.j.j.j.j.j.j.j.N . . . . . a 4.S . 1 *.*.*.*.*.*.*.*.*.*.*.*.*.*.1 . S ,.7 . . . . . N j.j.j.j.j.j.j.i.0.C . .     ",
"    . . b j.j.j.j.j.j.j.j.j.% .     . . . . X . . s %.*.*.*.*.*.*.*.*.*.*.%.s . . X . . . .     . % j.j.j.j.j.j.j.r.0.e . .     ",
"    . . . w.j.j.j.j.j.j.j.] . .     . . 2 . . . . . . 1 k ^ ) ....) ^ k 1 . . . . . . 2 . .     . . ] j.j.j.j.j.h.0.<.. . .     ",
"  . . . . : y.j.j.j.j.j.4.X . .     . . 4.s._ p . . . . . . . . . . . . . . . . p _ s.4.. .     . . X 3.j.j.j.j.r.<.% . . . .   ",
"  . .   . . X N 4.w.,.b . . .       . . 4.j.j.j.h.7._ B p . . . . . . p B _ 7.h.j.j.j.4.. .       . . . c 3.7.;.v X . .   . .   ",
"          . . . . . . . . . .       . . _ j.j.j.j.j.j.j.>.. .     . . >.j.j.j.j.j.j.j._ . .         . . . . . . . . .           ",
"        . . . . . . . . . . .       . . $ 4.h.j.j.j.j.6.% . .     . . % 6.j.j.j.j.h.4.$ . .       . . . . . . . . . . .         ",
"        . .       . .     . .         . . . . . . . . . . .         . . . . . . . . . . .         . .     . .       . .         ",
"                  .                     . . . . . . . . .             . . . . . . . . .                     .                   "
};
