/* XPM */
static char *_87f775445e74b6ab0a45a093c8ee6ceJhbolQgNuUscXQU8[] = {
/* columns rows colors chars-per-pixel */
"64 64 129 2 ",
"   c None",
".  c black",
"X  c #010000",
"o  c #020101",
"O  c #030101",
"+  c #040101",
"@  c #040202",
"#  c #070202",
"$  c #060303",
"%  c #090303",
"&  c #080403",
"*  c #080504",
"=  c #0C0404",
"-  c #0C0504",
";  c #0E0505",
":  c #0D0605",
">  c #0D0707",
",  c #0F0706",
"<  c #110605",
"1  c #110706",
"2  c #130606",
"3  c #150706",
"4  c #110807",
"5  c #150907",
"6  c #170A07",
"7  c #190807",
"8  c #130908",
"9  c #130B0A",
"0  c #170D0C",
"q  c #1A0808",
"w  c #1C0908",
"e  c #1D0908",
"r  c #1D0C09",
"t  c #190E0D",
"y  c #1E0F0C",
"u  c #1E1110",
"i  c #200A09",
"p  c #220B0A",
"a  c #200E0A",
"s  c #220E0B",
"d  c #280D0C",
"f  c #20100D",
"g  c #22110D",
"h  c #25100C",
"j  c #28110D",
"k  c #201211",
"l  c #221312",
"z  c #241413",
"x  c #2D1612",
"c  c #2E1712",
"v  c #2B1816",
"b  c #2D1917",
"n  c #2E1A18",
"m  c #311510",
"M  c #3A1311",
"N  c #301813",
"B  c #381812",
"V  c #301B19",
"C  c #3C1D18",
"Z  c #431613",
"A  c #451614",
"S  c #431C16",
"D  c #401F19",
"F  c #5E1F1B",
"G  c #5F1F1C",
"H  c #44211B",
"J  c #46221C",
"K  c #4D2119",
"L  c #51221A",
"P  c #5E281F",
"I  c #402421",
"U  c #442623",
"Y  c #462824",
"T  c #5D3530",
"R  c #602F26",
"E  c #6F2F24",
"W  c #742622",
"Q  c #613026",
"!  c #663228",
"~  c #6B342A",
"^  c #6D352B",
"/  c #743126",
"(  c #71372D",
")  c #603632",
"_  c #663A35",
"`  c #7F3E32",
"'  c #71403A",
"]  c #802925",
"[  c #802A25",
"{  c #892D28",
"}  c #80362A",
"|  c #84382B",
" . c #8E3C2E",
".. c #99322C",
"X. c #9E332E",
"o. c #A1342F",
"O. c #A3362F",
"+. c #A73630",
"@. c #BB3D36",
"#. c #C13F38",
"$. c #884336",
"%. c #994132",
"&. c #9E4333",
"*. c #A74736",
"=. c #B14B3A",
"-. c #BB4F3D",
";. c #BF513E",
":. c #C1523F",
">. c #884D46",
",. c #9C5851",
"<. c #AE5545",
"1. c #AE625A",
"2. c #DC4840",
"3. c #DD4840",
"4. c #DC5D48",
"5. c #DD5E48",
"6. c #ED4D45",
"7. c #F24F46",
"8. c #FF534A",
"9. c #FF544A",
"0. c #F3594D",
"q. c #F4594F",
"w. c #FF6C53",
"e. c #EF755F",
"r. c #C36E65",
"t. c #FC7C64",
"y. c #FF7D65",
"u. c #EF877C",
"i. c #FF9084",
/* pixels */
"                . . . .           . . . .         . . . . .         . . . . .         . . . .           . . . .                 ",
"            . . . . . . . .   . . . . . . . .   . . . . . . .     . . . . . . .   . . . . . . . .   . . . . . . . .             ",
"      . . . . .         . . . . .         . . . . .         . . . . . .     . . . . .         . . . . .         . . .           ",
"        . . .             . . .             . . .             . .   . .       . . .             . . .         . . . .           ",
"        . .               . . .             . . .   .       . . . .           . . . . .         . . .   .     . .   . . . .     ",
"        . .           . . . . . .       . . . . . . .     . . . . .         . . . . . . .       . . . . .           . . . .     ",
"      . . . .         . . .   . . .     . . .   . .       . . . . . . .     . .   . .     .   . .   . .               . .       ",
"      . . . .           . .   . .         . .   . .       . .     . . .     . .   . .     . . . .   . .               . .       ",
"  . . . .               . .   . .       . .     . .       . .     . .       . .     .       . . .   . .               . .       ",
"    . . .               . .   . .     . . .     . .   . . . .     . .       . .     . .       . .   . .           . . . .       ",
"      . .               . .   . .       . .     . .       . .     . .   . . . .     . .       . .   . . .         . . . .       ",
"      . .               . .   . .         .     . .       . .     . .     . . .     .         . .   . . .             . .       ",
"      . .               . .   . . .       . .   . .       . .     . .       . .   . .         . .   . .               . .       ",
"    . . .             . . .   . . .       . .   . .         . . . . .       . .   . . .     . . .   . .               . .       ",
"    . . . . .         . . . . . .       . . . . . . .     . . . . . . .       . . . . .     . . . . . . .       . . . . . .     ",
"        . . .             . . .           . . . .         . . . . .           . . .             . . .           . . . . . .     ",
"        . . .             . . .             . . .             . . .           . . .             . . .             . . .         ",
"  . . . . . . . . . . . . . . . . . . . . . . . . . . . . . . . . . . . . . . . . . . . . . . . . . . . . . . . . . . . . . .   ",
". . Q ! ! ! ! ! ! ! ! x . Y _ _ _ _ _ _ _ _ _ _ _ _ 9 . R ! ! ! ! ! ! ! ! ! ! ! R . 9 _ _ _ _ _ _ _ _ _ _ _ _ Y . x ! ! ! Q . . ",
". f y.y.y.y.y.y.y.y.y.( . 1.i.i.i.i.i.i.i.i.i.i.i.i.V . e.y.y.y.y.y.y.y.y.y.y.y.e.. V i.i.i.i.i.i.i.i.i.i.i.i.1.. ( y.y.y.y.f . ",
". f y.y.y.y.y.y.y.y.y.( . 1.i.i.i.i.i.i.i.i.i.i.i.i.V . e.y.y.y.y.y.y.y.y.y.y.y.e.. V i.i.i.i.i.i.i.i.i.i.i.i.1.. ( y.y.y.y.f . ",
". f y.y.y.y.y.y.y.y.y.( . 1.i.i.i.i.i.i.i.i.i.i.i.i.V . e.y.y.y.y.y.y.y.y.y.y.y.e.. V i.i.i.i.i.i.i.i.i.i.i.i.1.. ( y.y.y.y.f . ",
". f y.y.y.y.y.y.y.y.y.( . 1.i.i.i.i.i.i.i.i.i.i.i.i.V . e.y.y.y.y.y.y.y.y.y.y.y.e.. V i.i.i.i.i.i.i.i.i.i.i.i.1.. ( y.y.y.y.f . ",
". f y.y.y.y.y.y.y.y.y.( . 1.i.i.i.i.i.i.i.i.i.i.i.i.V . e.y.y.y.y.y.y.y.y.y.y.y.e.. V i.i.i.i.i.i.i.i.i.i.i.i.1.. ( y.y.y.y.f . ",
". & H H H H H H H H H y . n U U U U U U U U U U U U > . D H ~ y.y.^ H H H H H H D . > U U U U U U U U U U U U n . y H H H H & . ",
". . . . . . . . . . . . . . . . . . . . . . . . . . . . . . > 0.q.> . . . . . . . . . . . . . . . . . . . . . . . . . . . . . . ",
". w 3.3.3.3.{ . E 5.5.5.5.5.5.5.5.5.5.5.5.L . +.3.3.3.3.3.3.7.8.8.6.3.3.7 . 5.5.5.5.5.5.5.5.5.5.5.5.;.. M 3.3.3.3.3.3.3.3.3.w . ",
". i 8.8.8.8.X.. } w.w.w.w.w.w.w.w.w.w.w.w.P . #.8.8.8.8.8.8.8.8.8.8.8.8.w . w.w.w.w.w.w.w.w.w.w.w.w.5.. Z 8.8.8.8.8.8.8.8.8.i . ",
". i 8.8.8.8.X.. } w.w.w.w.w.w.w.w.w.w.w.w.P . #.8.8.8.8.8.8.8.8.8.8.8.8.w . w.w.w.w.w.w.w.w.w.w.w.w.5.. Z 8.8.8.8.8.8.8.8.8.i . ",
". i 8.8.8.8.X.. } w.w.w.w.w.w.w.w.w.w.w.w.P . #.8.8.8.8.8.8.8.8.8.8.8.8.w . w.w.w.w.w.w.w.w.w.w.w.w.5.. Z 8.8.8.8.8.8.8.8.8.i . ",
". i 8.8.8.8.X.. } w.w.w.w.w.w.w.w.w.w.w.w.P . #.8.8.8.8.8.8.8.8.8.8.8.8.w . w.w.w.w.w.w.w.w.w.w.w.w.5.. Z 8.8.8.8.8.8.8.8.8.i . ",
". w 3.3.3.3.{ . E 5.5.5.5.5.5.5.5.5.5.5.5.L . +.3.3.3.3.3.3.3.3.3.3.3.3.7 . 5.5.5.5.5.5.5.5.5.5.5.5.;.. M 3.3.3.3.3.3.3.3.3.w . ",
". . . . . . . . . . . . . . . . . . . . . . . . . . . . . . . . . . . . . . . . . . . . . . . . . . . . . . . . . . . . . . . . ",
". * U U U U U U U U U u . x H H H H H H H H H H H H > . I U U U U U U U U U U U I . > H H H H H H H H H H H H x . u U U U U * . ",
". k i.i.i.i.i.i.i.i.i.' . <.y.y.y.y.y.y.y.y.y.y.y.y.N . u.i.i.i.i.i.i.i.i.i.i.i.u.. N y.y.y.y.y.y.y.y.y.y.y.y.<.. ' i.i.i.i.k . ",
". k i.i.i.i.i.i.i.i.i.' . <.y.y.y.y.y.y.y.y.y.y.y.y.N . u.i.i.i.i.i.i.i.i.i.i.i.u.. N y.y.y.y.y.y.y.y.y.y.y.y.<.. ' i.i.i.i.k . ",
". k i.i.i.i.i.i.i.i.i.' . <.y.y.y.y.y.y.y.y.y.y.y.y.N . u.i.i.i.i.i.i.i.i.i.i.i.u.. N y.y.y.y.y.y.y.y.y.y.y.y.<.. ' i.i.i.i.k . ",
". k i.i.i.i.i.i.i.i.i.' . <.y.y.y.y.y.y.y.y.y.y.y.y.N . u.i.i.i.i.i.i.i.i.i.i.i.u.. N y.y.y.y.y.y.y.y.y.y.y.y.<.. ' i.i.i.i.k . ",
". k i.i.i.i.i.i.i.i.i.' . <.y.y.y.y.y.y.y.y.y.y.y.y.N . u.i.i.i.i.i.i.i.i.i.i.i.u.. N y.y.y.y.y.y.y.y.y.y.y.y.<.. ' i.i.i.i.k . ",
". > _ _ _ _ _ _ _ _ _ b . J ! ! ! ! ! ! ! ! ! ! ! ! 9 . ) _ _ _ _ _ _ _ _ _ _ _ ) . 9 ! ! ! ! ! ! ! ! ! ! ! ! J . b _ _ _ _ > . ",
". . . . . . . . . . . . . . . . . . . . . . . . . . . . . . . . . . . . . . . . . . . . . . . . . . . . . . . . . . . . . . . . ",
". 6 -.-.-.-./ . F @.@.@.@.@.@.@.@.@.@.@.@.A .  .-.-.-.-.-.-.-.-.-.-.-.-.6 . @.@.@.@.@.@.@.@.@.@.@.@.O.. m -.-.-.-.-.-.-.-.-.6 . ",
". a w.w.w.w.&.. [ 8.8.8.8.8.8.8.8.8.8.8.8.F . :.w.w.w.w.w.w.w.w.w.w.w.w.r . 8.8.8.8.8.8.8.8.8.8.8.8.3.. S w.w.w.w.w.w.w.w.w.a . ",
". a w.w.w.w.&.. [ 8.8.8.8.8.8.8.8.8.8.8.8.F . :.w.w.w.w.w.w.w.w.w.w.w.w.r . 8.8.8.8.8.8.8.8.8.8.8.8.3.. S w.w.w.w.w.w.w.w.w.a . ",
". a w.w.w.w.&.. [ 8.8.8.8.8.8.8.8.8.8.8.8.F . :.w.w.w.w.w.w.w.w.w.w.w.w.r . 8.8.8.8.8.8.8.8.8.8.8.8.3.. S w.w.w.w.w.w.w.w.w.a . ",
". a w.w.w.w.&.. [ 8.8.8.8.8.8.8.8.8.8.8.8.F . :.w.w.w.w.w.w.w.w.w.w.w.w.r . 8.8.8.8.8.8.8.8.8.8.8.8.3.. S w.w.w.w.w.w.w.w.w.a . ",
". a w.w.w.w.&.. [ 8.8.8.8.8.8.8.8.8.8.8.8.F . :.w.w.w.w.w.w.w.w.w.w.w.w.r . 8.8.8.8.8.8.8.8.8.8.8.8.3.. S w.w.w.w.w.w.w.w.w.a . ",
". . . . . . . . . . . . . . . # O.9.[ . . . . . . . . . . . . . . . . . . . . . . . . . . . . . . . . . . . . . . . . . . . . . ",
". # f f f f f f f f f > . 0 k v r.i.,.z k k k k k k # . f f f f f f f f f f f f f . # k k k k k k k k k k k k 0 . > f f f f # . ",
". f y.y.y.y.y.y.y.y.y.( . 1.i.i.i.i.i.i.i.i.i.i.i.i.V . e.y.y.y.y.y.y.y.y.y.y.y.e.. V i.i.i.i.i.i.i.i.i.i.i.i.1.. ( y.y.y.y.f . ",
". f y.y.y.y.y.y.y.y.y.( . 1.i.i.i.i.i.i.i.i.i.i.i.i.V . e.y.y.y.y.y.y.y.y.y.y.y.e.. V i.i.i.i.i.i.i.i.i.i.i.i.1.. ( y.y.y.y.f . ",
". f y.y.y.y.y.y.y.y.y.( . 1.i.i.i.i.i.i.i.i.i.i.i.i.V . e.y.y.y.y.y.y.y.y.y.y.y.e.. V i.i.i.i.i.i.i.i.i.i.i.i.1.. ( y.y.y.y.f . ",
". f y.y.y.y.y.y.y.y.y.( . 1.i.i.i.i.i.i.i.i.i.i.i.i.V . e.y.y.y.y.y.y.y.y.y.y.y.e.. V i.i.i.i.i.i.i.i.i.i.i.i.1.. ( y.y.y.y.f . ",
". f y.y.y.y.y.y.y.y.y.( . 1.i.i.i.i.i.i.i.i.i.i.i.i.V . e.y.y.y.y.y.y.y.y.y.y.y.e.. V i.i.i.i.i.i.i.i.i.i.i.i.1.. ( y.y.y.y.f . ",
". 4 $.$.$.$.$.$.$.$.$.C . T >.>.>.>.>.>.>.>.>.>.>.>.t . ` $.$.$.$.$.$.$.$.$.$.$.` . t >.>.>.>.>.>.>.>.>.>.>.>.T . C $.$.$.$.4 . ",
". . . . . . . . . . . . . . . . . . . . . . . . . . . . . . . . . . . . . . . . . . . . . . . . . . . . . . . . . . . . . . . . ",
". 2 ........G . K %.%.%.%.%.%.%.%.%.%.%.%.B . W ........................2 . %.%.%.%.%.%.%.%.%.%.%.%.| . d ..................2 . ",
". i 8.8.8.8.X.. } w.w.w.w.w.w.w.w.w.w.w.w.P . #.8.8.8.8.8.8.8.8.8.8.8.8.w . w.w.w.w.w.w.w.w.w.w.w.w.5.. Z 8.8.8.8.8.8.8.8.8.i . ",
". i 8.8.8.8.X.. } w.w.w.w.w.w.w.w.w.w.w.w.P . #.8.8.8.8.8.8.8.8.8.8.8.8.w . w.w.w.w.w.w.w.w.w.w.w.w.5.. Z 8.8.8.8.8.8.8.8.8.i . ",
". i 8.8.8.8.X.. } w.w.w.w.w.w.w.w.w.w.w.w.P . #.8.8.8.8.8.8.8.8.8.8.8.8.w . w.w.w.w.w.w.w.w.w.w.w.w.5.. Z 8.8.8.8.8.8.8.8.8.i . ",
". i 8.8.8.8.X.. } w.w.w.w.w.w.w.w.w.w.w.w.P . #.8.8.8.8.8.8.8.8.8.8.8.8.w . w.w.w.w.w.w.w.w.w.w.w.w.5.. Z 8.8.8.8.8.8.8.8.8.i . ",
". 7 8.8.8.8.X.. } w.w.w.w.w.w.w.w.w.w.w.w.P . #.8.8.8.8.8.8.8.8.8.8.8.8.w . w.w.w.w.w.w.w.w.w.w.w.w.5.. Z 8.8.8.8.8.8.8.8.8.7 . ",
". . q i i i 3 . 2 a a a a a a a a a a a a > . q i i i i i i i i i i i i # . a a a j =.w.*.h a a a a r . % i i i i i i i i q . . ",
"  . . . . . . . . . . . . . . . . . . . . . . . . . . . . . . . . . . . . . . . . .       . . . . . . . . . . . . . . . . . .   "
};
