/* XPM */
static char *result[] = {
/* columns rows colors chars-per-pixel */
"50 50 207 2 ",
"   c #2D1B2D",
".  c #301C2E",
"X  c #2F1E30",
"o  c #321E32",
"O  c #342233",
"+  c #3C2A36",
"@  c #3B2C3B",
"#  c #3B2433",
"$  c #3D323D",
"%  c #501D2B",
"&  c #741B2F",
"*  c #432D3B",
"=  c #4D2C39",
"-  c #482734",
";  c #552533",
":  c #502935",
">  c #5C2935",
",  c #5E2732",
"<  c #42323E",
"1  c #41383E",
"2  c #58353E",
"3  c #49232F",
"4  c #6C232D",
"5  c #67232E",
"6  c #74242D",
"7  c #7A262D",
"8  c #652631",
"9  c #682A37",
"0  c #7D2436",
"q  c #742B35",
"w  c #7B2D35",
"e  c #742F39",
"r  c #7A2A3A",
"t  c #65343C",
"y  c #6D343B",
"u  c #693E3F",
"i  c #7D343D",
"p  c #77383F",
"a  c #723339",
"s  c #3F2F40",
"d  c #3F3341",
"f  c #423542",
"g  c #4A3544",
"h  c #423B45",
"j  c #4B3C44",
"k  c #443E48",
"l  c #4D3B4A",
"z  c #543C4C",
"x  c #5A3945",
"c  c #643442",
"v  c #693643",
"b  c #643B43",
"n  c #6B3C43",
"m  c #673B4B",
"M  c #683F4C",
"N  c #7E3740",
"B  c #7C3B43",
"V  c #733845",
"C  c #74394C",
"Z  c #464449",
"A  c #4B454B",
"S  c #4A484D",
"D  c #464047",
"F  c #51444C",
"G  c #5A444C",
"H  c #54484F",
"J  c #4D4B52",
"K  c #4D4650",
"L  c #544551",
"P  c #5C4555",
"I  c #514D54",
"U  c #5C4A58",
"Y  c #525056",
"T  c #5B535E",
"R  c #6B444A",
"E  c #714143",
"W  c #78474B",
"Q  c #6C4554",
"!  c #664758",
"~  c #644C5D",
"^  c #69485A",
"/  c #7A535C",
"(  c #5A5160",
")  c #684E60",
"_  c #724F64",
"`  c #665462",
"'  c #6C5464",
"]  c #6F5868",
"[  c #725566",
"{  c #755C6C",
"}  c #795C6C",
"|  c #705768",
" . c #7B5F72",
".. c #7C6373",
"X. c #74636F",
"o. c #8E172B",
"O. c #8B192D",
"+. c #951D2F",
"@. c #98172A",
"#. c #951E30",
"$. c #9E0E27",
"%. c #A31326",
"&. c #A41228",
"*. c #AB1529",
"=. c #AC1C2A",
"-. c #A81527",
";. c #B01729",
":. c #B21F2C",
">. c #8E2C2D",
",. c #8B202F",
"<. c #93262A",
"1. c #9D262B",
"2. c #9B2B2C",
"3. c #91292C",
"4. c #892836",
"5. c #872C38",
"6. c #932433",
"7. c #9B2533",
"8. c #9D2A38",
"9. c #893439",
"0. c #9C3233",
"q. c #9B393C",
"w. c #983339",
"e. c #A4252C",
"r. c #AD232A",
"t. c #A32C2D",
"y. c #AD292D",
"u. c #B4232D",
"i. c #BA242F",
"p. c #BA292F",
"a. c #B3292E",
"s. c #AB322E",
"d. c #BA342F",
"f. c #A22C35",
"g. c #A92532",
"h. c #BB2630",
"j. c #BC2931",
"k. c #B22A31",
"l. c #AC3231",
"z. c #AA353B",
"x. c #AE3D3B",
"c. c #A73637",
"v. c #B43431",
"b. c #BC3332",
"n. c #B33A38",
"m. c #C12D31",
"M. c #C33333",
"N. c #C63934",
"B. c #CB3C36",
"V. c #CE3E38",
"C. c #C93635",
"Z. c #D13F37",
"A. c #D23F39",
"S. c #AC433D",
"D. c #B4423C",
"F. c #B9453D",
"G. c #BA4136",
"H. c #CD443A",
"J. c #C8463A",
"K. c #D24237",
"L. c #D24239",
"P. c #D3493A",
"I. c #DB4A3B",
"U. c #843A42",
"Y. c #8B3B43",
"T. c #863442",
"R. c #993D44",
"E. c #8C4546",
"W. c #974444",
"Q. c #814D53",
"!. c #A84643",
"~. c #B54B44",
"^. c #816676",
"/. c #836779",
"(. c #85697B",
"). c #8A6C7E",
"_. c #836875",
"`. c #8D6F82",
"'. c #906F83",
"]. c #8E7084",
"[. c #917386",
"{. c #947589",
"}. c #96798B",
"|. c #9A7B8D",
" X c #99778C",
".X c #9D7E91",
"XX c #A07F93",
"oX c #9F8093",
"OX c #A28296",
"+X c #A68699",
"@X c #A9879C",
"#X c #A6899A",
"$X c #AB899E",
"%X c #AF8CA2",
"&X c #B18DA3",
"*X c #AC90A2",
"=X c #B491A7",
"-X c #B694A8",
";X c #BA98AD",
":X c #B997AA",
">X c #BE9DB1",
",X c #C09FB2",
"<X c #C3A2B6",
"1X c #C6A4B9",
"2X c #CDACBF",
"3X c #D3B3C6",
"4X c None",
/* pixels */
"4X4X4X4X4X4X4X4X4X4X4X4X4X4X4X4X4X4X4X4X4X4X4X4X4X4X4X4X4X4X4X4X4X4X4X4X4X4X4X4X4X4X4X4X4X4X4X4X4X4X",
"4X4X4X4X4X4X4X4X4X4X4X4X4X4X4X4X4X4X4X4X4X4X;X<X<X3X1X1X4X4X4X4X4X4X4X4X4X4X4X4X4X4X4X4X4X4X4X4X4X4X",
"4X4X4X4X4X4X4X4X4X4X4X4X4X4X4X4X4X4X4X4X4X{..X.X%X;X%X&X>X3X4X4X4X4X4X4X4X4X4X4X4X4X4X4X4X4X4X4X4X4X",
"4X4X4X4X4X4X4X4X4X4X4X4X4X4X4X4X4X4X4X`.].`.`.`.{.%X%X%X%X<X3X4X4X4X4X4X4X4X4X4X4X4X4X4X4X4X4X4X4X4X",
"4X4X4X4X4X4X4X4X4X4X4X4X4X4X4X4X4X4X].[.].].`.].[.@X%X%X%X%X;X<X4X4X4X4X4X4X4X4X4X4X4X4X4X4X4X4X4X4X",
"4X4X4X4X4X4X4X4X4X4X4X4X4X4X4X4X4X_.).].].].].].[.OX%X%X=X%X%X%X=X4X4X4X4X4X4X4X4X4X4X4X4X4X4X4X4X4X",
"4X4X4X4X4X4X4X4X4X4X4X4X4X4X4X4X(.].(.].`.(.`.`. .| .X%XOX@X%X%X+X.X#X4X4X4X4X4X4X4X4X4X4X4X4X4X4X4X",
"4X4X4X4X4X4X4X4X4X4X4X4X4X4X4X{ { ).).(._ z T U f + L ` U ^ OX$X[.`.}.OX4X4X4X4X4X4X4X4X4X4X4X4X4X4X",
"4X4X4X4X4X4X4X4X4X4X4X4X4X4X{ } { .. X_ & x Y h 4X4X* A H & C '.[.[.`.}.%X4X4X4X4X4X4X4X4X4X4X4X4X4X",
"4X4X4X4X4X4X4X4X4X4X4X4X4X{ { { {  ._ 0 $.c Y 4X4X4X4XI L o.O.C `.'.].]..X4X4X4X4X4X4X4X4X4X4X4X4X4X",
"4X4X4X4X4X4X4X4X4X4X4X4X{ { { {  .' 9 $.$.c Y 4X4X4X4XY L o.%.O._ '.'.`.[.+X4X4X4X4X4X4X4X4X4X4X4X4X",
"4X4X4X4X4X4X4X4X4X4X4X4X{ { X.{ { c $.*.$.c Y 4X4X4X4XY L O.%.&.r  .[.`.[.}.%X4X4X4X4X4X4X4X4X4X4X4X",
"4X4X4X4X4X4X4X4X4X4X4X(.} { { { ! O.-.*.&.c J 4X4X4X4XY L O.-.-.@.C (.[.].{.*X4X4X4X4X4X4X4X4X4X4X4X",
"4X4X4X4X4X4X4X4X4X4X&X:X[.[ { ' v *.*.*.&.c Y h $ < 1 L H +.-.-.&.O.[ `.].|.-X<X4X4X4X4X4X4X4X4X4X4X",
"4X4X4X4X4X4X4X4X4X4X&X-X<X].] R =.*.*.*.-.c Y 4X4X4X4XI L #.*.*.&.*.N /.[.$X%X&X3X4X4X4X4X4X4X4X4X4X",
"4X4X4X4X4X4X4X4X4X$X&X%X=X;X..0 =.;.*.*.-.c Y 4X4X4X4XI H #.;.*.&.*.@.Q .X&X%X%X<X4X4X4X4X4X4X4X4X4X",
"4X4X4X4X4X4X4X4X4X%X%X%X&X&X^.0 5.T.T.8.=.c J 4X4X4X4XY H +.g.T.N 5.4.v  X%X%X%X;X3X4X4X4X4X4X4X4X4X",
"4X4X4X4X4X4X4X4X%X&X%X%X&XXXg f f k k z 8.c J 4X4X4X4XY H 6.B l k k f f [ %X%X%X%X,X4X4X4X4X4X4X4X4X",
"4X4X4X4X4X4X4X4X%X%X%X%X&X .+ s d d k l 6.c J Z 4X4X4XJ L 6.c h d d @ @ l .X%X%X&X=X1X4X4X4X4X4X4X4X",
"4X4X4X4X4X4X4X$X&X%X%X&XXXc ; > > 9 9 4.:.b J d $ $ $ K L #.e.y 9 > 9 > ; } %X%X&X&X-X4X4X4X4X4X4X4X",
"4X4X4X4X4X4X4X|.%X%X%X%X} 6.=.r.u.r.=.i.u.c Y 4X4X4X4XI A 7.:.:.=.=.u.g.g.v }.%X%X%X%X4X4X4X4X4X4X4X",
"4X4X4X4X4X4X4X$XOX%X%X|.m u.=.u.i.u.=.i.u.v J 4X4X4X4XY L 7.i.:.=.:.i.u.:.0 | %X&X%X%X4X4X4X4X4X4X4X",
"4X4X4X4X4X4X4XOX-X%XXX[ q h.u.u.h.:.=.h.i.v J 4X4X4X4XY F 7.m.:.=.u.i.a.i.7.x }.XX|. X+X4X4X4X4X4X4X",
"4X4X4X4X4X4X'.`. X+X Xg 6.i.r.u.h.u.u.h.i.v J 4X4X4X4XI F g.m.:.=.u.i.r.i.r.; P `.'.`.OX4X4X4X4X4X4X",
"4X4X4X4X4X4X`.].`.[.].= g.j.a.u.j.u.u.j.h.n J k f f h K H f.i.i.=.u.a.r.u.p.4 z `.].]..X4X4X4X4X4X4X",
"4X4X4X4X4X4X`.].`.]...; y.j.a.u.j.u.u.j.p.n S f + @ $ A F f.m.m.r.i.p.r.i.i.& g /.`.].{.#X4X4X4X4X4X",
"4X4X4X4X4X4X`.[.`.[.' ; y.j.p.j.m.h.j.j.j.b J 4X4X4X4XS z f.m.m.r.i.j.=.p.p.7 g  .].].].|.4X4X4X4X4X",
"4X4X4X4X4X4X].`.`.`.~ - 9 9.B U.Y.Y.Y.z.j.v J 4X4X4X4XI F f.h.R.T.Y.U.i i e % * { ].].].[.4X4X4X4X4X",
"4X4X4X4X4X(.`.[.].].P # o f $ d h k Z ! z.n J 4X4X4X4XJ F f.E.A k k f d s @ o * [ `.].`.].4X4X4X4X4X",
"4X4X4X4X4X4X(.`.].(.l O o @ @ d f f h j w.v S 4X4X4X4XK F w.M d h f d @ @ # . + ' _.).`.).4X4X4X4X4X",
"4X4X4X4X].).`.[.{.].L - 4 0 w q y y t 9.b.v J h d d d K H f.c.y t y e q 0 7 % + ] _.].}.oX}.|.4X4X4X",
"4X4X4X_.X.{ { { { ..~ ; 1.M.m.b.b.j.v.c.n.n S d $ $ $ A A c.z.f.r.M.m.a.M.k.4 * ' { X.......).4X4X4X",
"4X4X4X} { { { { { ..U : 1.M.b.M.b.M.U.L v n K 4X4X4X4XS A i z Q f.N.M.j.M.y.4 * ' { { { { { X.4X4X4X",
"4X4X4X}  .{ { { { { P : <.j.M.M.N.z.P T z x J 4X4X4X4XJ A b L U w C.C.b.M.e.4 * ' { { { { X.{ 4X4X4X",
"4X4X4X} { { { { { { L = <.b.b.M.C.c.2 $ W n K 4X4X4X4XS A B l * V N.C.M.M.e.5 * ) { { X.{ { { 4X4X4X",
"4X4X4X4X] ' { ....{ f - <.b.M.C.B.w.9.9.B R K 4X4X4X4XK F U.p w.B M.B.B.M.1.5 + ~ ...._.{ ` 4X4X4X4X",
"4X4X4X4X4X4X[.[.}.}.U - <.v.M.C.V.c.a p q.E S h $ h h A F w.B p 5.N.B.H.M.e.5 < {.=X-X=X-X4X4X4X4X4X",
"4X4X4X4X4X4X].].`.[.) : >.v.C.B.A.N.0.0.N.n S d 4X4X4XA A x.v.w.v.B.B.B.d.1.5 g XX&X%X&X-X4X4X4X4X4X",
"4X4X4X4X4X4X[.].`.[.~ = 3.l.N.B.A.B.B.V.N.E S 4X4X4X4XS F x.K.Z.N.Z.B.B.d.t.8 g .X&X%X%X&X4X4X4X4X4X",
"4X4X4X4X4X4X].`.`.`.P = 3.s.N.K.L.H.B.H.N.n S 4X4X4X4XS A n.K.Z.N.B.B.C.d.2.8 f {.%X$X%X$X4X4X4X4X4X",
"4X4X4X4X<X-X$X$X%X+X) - 4.s.B.K.L.K.K.L.H.n S 4X4X4X4XS A D.P.H.C.Z.K.N.v.2., g [.+XOXOX$X*X*X4X4X4X",
"4X4X4X-X%X%X=X-X=X;X'.@ 3 > i W.!.F.F.H.L.E S 4X4X4X4XS A D.P.J.D.!.!.Y.y % # z [.[.[.[.[.{.|.4X4X4X",
"4X4X4X%X%X%X&X%X%X=X`.*   X @ f j A H E.H.E A 1 $ $ $ A F G.~.R F j f < O   O z ).'.[.`.].].].4X4X4X",
"4X4X4X$X%X%X%X%X%X%X/.@ .   @ d $ 1 D A !.E Z 4X4X4X4XD F D.R D h d $ $ o   O j (.[.`.].].].`.4X4X4X",
"4X4X4X$X$X$X+X$X#X#X] + 4 6 q a u 2 D b D.E Z 4X4X4X4XS F D.Y.j j 2 a a 4 7 : < ..].].).).].`.4X4X4X",
"4X#X#XoX|.OX|.).{.oX..= >.s.d.H.P.G.S.J.H.E Z 4X4X4X4XZ F F.P.G.n.H.P.N.t.t.; l .._.(.`.{.{.}.OXOX$X",
"4X`.`.`.).[.).{ { { ' < w 2.s.P.I.P.H.I.P.u Z 4X4X4X4XS A F.I.I.K.I.I.d.2.>.: g { { { ..].`.`.`.`.{.",
"4X`.].].[.[._.{ { { ~ ! ! R p E.S.S.G.P.P.u S [.=X&X$XT A F.P.J.S.S.W.p b Q ! z ] { {  .(.`.].].].`.",
"4X[.].[.[.`.^. .{ | } `.[.).(.(...} [ / W G T |.$X$X@X} H W Q./ / X.(.].[. X X(.....^.} (.].].].).).",
"4X].[.[.[.[.[.(.{ { { } { } { ..} ....)._. .(.).).).).)._._.).[.[.[.[.].[.`.'.[.[.[.[.^...^.^......."
};
