/* XPM */
static char *result[] = {
/* columns rows colors chars-per-pixel */
"50 50 207 2 ",
"   c #6A2F28",
".  c #723330",
"X  c #704622",
"o  c #1C245D",
"O  c #1B2155",
"+  c #151D68",
"@  c #111D75",
"#  c #1D2562",
"$  c #1C246B",
"%  c #1B246B",
"&  c #1C2575",
"*  c #1B257A",
"=  c #192474",
"-  c #222A6D",
";  c #202864",
":  c #242D74",
">  c #242E7B",
",  c #26307F",
"<  c #273075",
"1  c #2C346C",
"2  c #58595E",
"3  c #785552",
"4  c #4E4E7B",
"5  c #575477",
"6  c #66647A",
"7  c #786E77",
"8  c #861917",
"9  c #921313",
"0  c #9B1414",
"q  c #9C1A18",
"w  c #AB1B1A",
"e  c #A41817",
"r  c #BB1C1B",
"t  c #B31718",
"y  c #96201F",
"u  c #833B18",
"i  c #952422",
"p  c #82302E",
"a  c #8C3533",
"s  c #A62725",
"d  c #BA2928",
"f  c #A63E3B",
"g  c #B73A36",
"h  c #C41D1C",
"j  c #C91A1A",
"k  c #D81B1B",
"l  c #F91E1C",
"z  c #EE1B19",
"x  c #C8211E",
"c  c #EC211F",
"v  c #E1201F",
"b  c #F9211E",
"n  c #CB3330",
"m  c #F13934",
"M  c #EA302C",
"N  c #8A4419",
"B  c #A05219",
"V  c #94532A",
"C  c #97742B",
"Z  c #8F7134",
"A  c #9A7B3F",
"S  c #896829",
"D  c #AF6931",
"F  c #F1403C",
"G  c #894947",
"H  c #974B48",
"J  c #B54946",
"K  c #B6544E",
"L  c #AA5A57",
"P  c #BC5E5E",
"I  c #B8615E",
"U  c #937D60",
"Y  c #967573",
"T  c #A87B79",
"R  c #AB706D",
"E  c #CC5550",
"W  c #ED4F4B",
"Q  c #C36764",
"!  c #A78437",
"~  c #9E8040",
"^  c #AF935E",
"/  c #948378",
"(  c #9E8869",
")  c #AC9466",
"_  c #A08E73",
"`  c #B09971",
"'  c #BDA16C",
"]  c #C5A767",
"[  c #D5B46F",
"{  c #D7BA7D",
"}  c #E3C17A",
"|  c #1C2987",
" . c #232E83",
".. c #242E89",
"X. c #263184",
"o. c #283386",
"O. c #27328C",
"+. c #2A358C",
"@. c #2E398E",
"#. c #333C83",
"$. c #2B3693",
"%. c #2C3895",
"&. c #2D3A9C",
"*. c #273599",
"=. c #313B94",
"-. c #303B9E",
";. c #2E3BA2",
":. c #313EA4",
">. c #323FA9",
",. c #3B438C",
"<. c #3A4599",
"1. c #3441AC",
"2. c #3B47A7",
"3. c #3642B1",
"4. c #3544BB",
"5. c #3A48B9",
"6. c #474C8A",
"7. c #4C5387",
"8. c #5C5B85",
"9. c #414B98",
"0. c #4A5197",
"q. c #4E589F",
"w. c #565F9F",
"e. c #5D6293",
"r. c #6C6884",
"t. c #656998",
"y. c #787798",
"u. c #464FA6",
"i. c #4550AE",
"p. c #5157A5",
"a. c #434DB2",
"s. c #4754BA",
"d. c #5760AA",
"f. c #5A65BB",
"g. c #6F72A9",
"h. c #767AA7",
"j. c #767CB9",
"k. c #3A49C7",
"l. c #3C4DD3",
"z. c #3B4BD7",
"x. c #4956C7",
"c. c #4354D4",
"v. c #4D5DD5",
"b. c #5964C3",
"n. c #7C84C1",
"m. c #9E9D9D",
"M. c #949197",
"N. c #93908C",
"B. c #AA8D8B",
"V. c #A89A9A",
"C. c #B3918C",
"Z. c #B1A38F",
"A. c #8E92B1",
"S. c #9497B2",
"D. c #A19DA9",
"F. c #A5A5A4",
"G. c #AFAEAD",
"H. c #A5A6A8",
"J. c #BFB5A1",
"K. c #B4B4B4",
"L. c #BCBCBD",
"P. c #B7B8B7",
"I. c #B1A9B1",
"U. c #DC9B8F",
"Y. c #E78D8B",
"T. c #CAB38B",
"R. c #C8B284",
"E. c #D1BA88",
"W. c #C1BDBD",
"Q. c #C4B9B7",
"!. c #D1B2B0",
"~. c #DFC387",
"^. c #F0D38F",
"/. c #D2C0BE",
"(. c #D3CAB6",
"). c #EDD7A5",
"_. c #9097C9",
"`. c #B7BCDE",
"'. c #B1B2C7",
"]. c #C4C4C3",
"[. c #C9C9C6",
"{. c #CBCBCB",
"}. c #C3C3CB",
"|. c #D6CBC6",
" X c #CFCFD2",
".X c #C3C6D6",
"XX c #D4D4D4",
"oX c #DBDBDB",
"OX c #D7D6D8",
"+X c #DDD6C4",
"@X c #E7CAC8",
"#X c #E3D7D4",
"$X c #F8D0CF",
"%X c #E5E1DA",
"&X c #F1EAD9",
"*X c #DDDDE0",
"=X c #DEDFE9",
"-X c #E4E4E3",
";X c #EDEDED",
":X c #E6E6EA",
">X c #F1EFEA",
",X c #EFF0EF",
"<X c #EFF0F0",
"1X c #F4F4F5",
"2X c #FDFDFD",
"3X c #F8F3F3",
"4X c None",
/* pixels */
"4X4X4X4X4X4X4X4X4X4X4X4X4X4X4X4X4X4X4X4X4X4X4X4X4X2.2.i.i.2.=.4X4X4X4X4X4X4X4X4X4X4X4X4X4X4X4X4X4X4X",
"4X4X4X4X4X4X4X4X4X4X4X4X4X4X4X4X4X4X4X8.6.0.s.5.4.3.1.;.&.%.$.$. . . .4X4X4X4X4X4X4X4X4X4X4X4X4X4X4X",
"4X4X4X4X4X4X4X4X4X4X4X4X4X4X4X4Xx.b.g.( r.o.O.;.:.:.&.%.+.$.$.+.+.O. .X.* > 4X4X4X4X4X4X4X4X4X4X4X4X",
"4X4X4X4X4X4X4X4X4X4X4X4X4X4X4X4Xv.z.p.^ _ =.O.o.$.:.:.&.%.+.+.o.o.o.o.o.o.> > 4X4X4X4X4X4X4X4X4X4X4X",
"4X4X4X4X4X4X4X4X4X4X4X4X4X4X4X4Xc.z.i./ ' 8.O.$.:.>.3.3.3.:.;.%.o., , > > : & + 4X4X4X4X4X4X4X4X4X4X",
"4X4X4X4X4X4X4X4X4X4X4X4X4X4X4Xc.z.l.k.5.y.t.&.;.>.>.3.3.3.1.1.;.&.+., : 1 % % 4X4X4X4X4X4X4X4X4X4X4X",
"4X4X4X4X4X4X4X4X4X4X4X4X4X4Xl.z.l.k.4.3.4.3.:.>.>.3.3.3.3.3.1.1.:.&.$.o.& 4X4X4X4X4X4X4X4X4X4X4X4X4X",
"4X4X4X4X4X4X4X4X4X4X4X4X4X4Xk.k.d._.j.1.>.4.3.3.3.3.3.3.3.3.3.1.1.>.:.&.+.@ 4X4X4X4X4X4X4X4X4X4X4X4X",
"4X4X4X4X4X4X4X4X4X4X4X4X4Xx.4.p.:X2X1Xn.1.3.3.1.3.3.3.1.3.>.3.>.1.1.>.:.&.+.@ 4X4X4X4X4X4X4X4X4X4X4X",
"4X4X4X4X4X4X4X4X4X4X4X4X4Xs.1.'.2X2X2X`.3.3.1.1.3.>.:.:.:.-.:.:.:.>.:.:.;.&.+.@ 4X4X4X4X4X4X4X4X4X4X",
"4X4X4X4X4X4X4X4X4X4X4X4X4X3.2..X2X2X2X`.1.1.1.1.1.>.-.o., > O.@.%.&.-.:.;.&.&.O.* 4X4X4X4X4X4X4X4X4X",
"4X4X4X4X4X4X4X4X4X4X4X4X4X&.%.m.1X2X2X_.1.1.1.1.1.:.-.- o O # ; - , o.+.&.&.&.%...4X4X4X4X4X4X4X4X4X",
"4X4X4X4X4X4X4X4X4X4X4X4X4Xq.7.6 -X1X:Xf.>.1.1.1.1.1.-.O.- ; ; o o o ; - &  .O.%.$.| 4X4X4X4X4X4X4X4X",
"4X4X4X4X4X4X4X4X4X4X4X4X2 M.(.m.].&XL.u.:.1.1.:.:.:.:.:.+.: - : : ; + 4X4X4X= & o.$.4X4X4X4X4X4X4X4X",
"4X4X4X4X4X4X4X4X4X4X4X4XN.F.%X(.^.^.} _ <.:.1.:.:.:.:.:.:.+.: - > : % 4X4X4X4X4X4XX.X.4X4X4X4X4X4X4X",
"4X4X4X4X4X4X4X4X4X4X4X4X*XoX[.T.[ [ [ ] 5 &.:.:.:.:.:.:.:.-.+.< : > : $ 4X4X4X4X4X4X4X4X4X4X4X4X4X4X",
"4X4X4X4X4X4X4X4X4X4X4X].XX:X{.J.` ) ] ^ 4 o.-.:.:.-.:.:.:.:.&.+.: > , $ 4X4X4X4X4X4X4X4X4X4X4X4X4X4X",
"4X4X4X4X4X4X4X4X4X4XOX-XOX XW. X-X%XZ.U 5 o o > %.=.%.-.:.:.-.%. .: > > & 4X4X4X4X4X4X4X4X4X4X4X4X4X",
"4X4X4X4X4X4X4X4X4X4X{.XX{.{.L.L.].+XD.7./ 7 4 < : < : $.-.:.:.:.@.: : : & 4X4X4X4X4X4X4X4X4X4X4X4X4X",
"4X4X4X4X4X4X4X4X4X4XL.].].].L.G.|.~.T.p.M.{ { 8.O.< - > %.-.:.:.&., 4X& + 4X4X4X4X4X4X4X4X4X4X4X4X4X",
"4X4X4X4X4X4X4X4X4X4X4XK.H.G.H.W.[.R.).j.g.E.[ 6 &.%.o.: > o.%.-.%...4X4X4X4X4X4X4X4X4X4X4X4X4X4X4X4X",
"4X4X4X4X4X4X4X4X4X4X4XH.m.L.oX%XW.(.>X*XT.] 7 %.%.%.-.+.: , , > @.o.4X4X4X4X4X4X4X4X4X4X4X4X4X4X4X4X",
"4X4X4X4X4X4X4X4X4X4X4X4X4XoX1X2X:X*X-XOX(.r.%.+.O.+.$.%.+.@.| 4X4Xu.s.:.4X4X4X4X4X4X4X4X4X4X4X4X4X4X",
"4X4X4X4X4X4X4X4X4X4X4X4X4X].-X2X<XXXXX].K.t.%.X.o.+.+.o.+.| 4X4X4X4X:.;.4X4X4X4X4X4X4X4X4X4X4X4X4X4X",
"4X4X4X4X4X4X4X4X4X4X4X4XOX*X1X2X>XXXL.G.y.0.$.> $.1.>.*.4X4X4X4X4X4X4X4X4X4X4X4X4X4X4X4X4X4X4X4X4X4X",
"4X4X4X4X4X4X4X4X4X4X4X4X1X2X2X1X-X XG.M.,.;.$.: X.$.| 4X4X4X4X4X4X4X4X4X4X4X4X4X4X4X4X4X4X4X4X4X4X4X",
"4X4X4X4X4X4X4X4X4X4X4XOXOX-X1X,X-X{.F.w.&.1.+.> =  .4X4X4X4X4X4X4X4X4X4X4X4X4X4X4X4X4X4X4X4X4X4X4X4X",
"4X4X4X4X4X4X4X4X4X4X4X4X;X;XOX%XOX].h.;.k.5.o.| 4X4X4X4X4X4X4X4X4X4X4X4X4X4X4X4X4X4X4X4X4X4X4X4X4X4X",
"4X4X4X4X4X4X4X4X4X4X4X4XOX].[.oX XW.A.5.k.:...4X4X4X4X4X4X4X4X4X4X4X4X4X4X4X4X4X4X4X4X4X4X4X4X4X4X4X",
"4X4X4X4X4X4X4X4X4X4X4X4X4XOXoXP.P.4X4Xs.4...4X4X4X4X4X4X4X4X4X4X4X4X4X4X4X4X4X4X4X4X4X4X4X4X4X4X4X4X",
"4X4X4X4X4X4X4X4X4X4X4X4X4X4X{.4X4X4X4Xx.;.* 4X4X4X4X4X4X4X4X4X4X4X4X4X4X4X4X4X4X4X4X4X4X4X4X4X4X4X4X",
"4X4X4X4X4X4X4X4X4X4X4X4X4X4X4X4X4X4Xb.5.+.* 4X4X4X4X4X4X4X4X4X4X4X4X4X4X4X4X4X4X4X4X4X4X4X4X4X4X4X4X",
"4X4X4X4X4X4X4X4X4X4X4X4X4X4X4X4X4X4Xs.:.6. . .#.4X4XI.4X4X4X4X4X4X4X4X4X4X4X4X4X4X4X4X4X4X4X4X4X4X4X",
"4X4X4X4X4X4X4X4X4X4X4X4X4X4X4X4X4X4Xa.%.9.#.> $ e.}.[.W.T P 4X4X4X4X4X4X4X4X4X4X4X4X4X4X4X4X4X4X4X4X",
"4X4X4X4X4X4X4X4X4X4X4X4X4X4X4X4X4X4X2.*.@.4X4X7.oX].XXW.J r J Y 4X4X4X4X4X4X4X4X4X4X4X4X4X4X4X4X4X4X",
"4X4X4X4X4X4X4X4X4X4X4X4X4X4X4X4X4X4X9.%.#.4X4X*X{.[.XXB.d h g T 4X4X4X4X4X4X4X4X4X4X4X4X4X4X4X4X4X4X",
"4X4X4X4X4X4X4X4X4X4X4X4X4X4X4X4X4X4X9.+.X.4XXXW.P.XXV.f h j g L 4X4X4X4X4X4X4X4X4X4X4X4X4X4X4X4X4X4X",
"4X4X4X4X4X4X4X4X4X4X4X4X4X4X4X4X4X4X4Xg.S. XL.P.P.V.R g r h g 4X4X4X4X4X4X4X4X4X4X4X4X4X4X4X4X4X4X4X",
"4X4X4X4X4X4X4X4X4X4X4X4X4X4X4X4X4X'.XXoXXXL.F.].XX{.;X|.P t f 4X4X4X4X4X4X4X4X4X4X4X4X4X4X4X4X4X4X4X",
"4X4X4X4X4X4X4X4X4X4X4X4X4X4X4X4X4XXX*X-XoX{.H.{.:X;X2X;X|.K H 4X4X4X4X4X4X4X4X4X4X4X4X4X4X4X4X4X4X4X",
"4X4X4X4X4X4X4X4X4X4X4X4X4X4X4X4X4X{.-X3X-XW.B.Q.:X;X<X:XoXQ.T 4X4X4X4X4X4X4X4X4X4X4X4X4X4X4X4X4X4X4X",
"4X4X4X4X4X4X4X4X4X4X4X4X4X4X4X#X;XOXC.Q Q J d J |.+X;X=XOXP.m.4X4X4X4X4X4X4X4X4X4X4X4X4X4X4X4X4X4X4X",
"4X4X4X4X4X4X4X4X4X4X4X4X4X4XY.3X2X2X).n k j r 0 R Q !.*XXXm.4X4X4X4X4X4X4X4X4X4X4X4X4X4X4X4X4X4X4X4X",
"4X4X4X4X4X4X4X4X4X4X4X4XW m m &X2X2X3XE j r w 9 H J s I C.N.4X4X4X4X4X4X4X4X4X4X4X4X4X4X4X4X4X4X4X4X",
"4X4X4X4X4X4X4X4X4X4X4XF b b M $X2X,X#XK t w w 9 G I 0 9 G 4X4X4X4X4X4X4X4X4X4X4X4X4X4X4X4X4X4X4X4X4X",
"4X4X4X4X4X4X4X4X4X4Xm l b b v Y.(.) ~ V w w q 8 3 T q y p 4X4X4X4X4X4X4X4X4X4X4X4X4X4X4X4X4X4X4X4X4X",
"4X4X4X4X4X4X4X4X4XM z c k k r D ! A C N e 0 q . . 4Xi 8 4X4X4X4X4X4X4X4X4X4X4X4X4X4X4X4X4X4X4X4X4X4X",
"4X4X4X4X4X4X4X4X4Xd x j h t t B A V.A u i a .   4X4X4X4X4X4X4X4X4X4X4X4X4X4X4X4X4X4X4X4X4X4X4X4X4X4X",
"4X4X4X4X4X4X4X4X4X4X4Xw w s s V Z Z S X   4X4X4X4X4X4X4X4X4X4X4X4X4X4X4X4X4X4X4X4X4X4X4X4X4X4X4X4X4X",
"4X4X4X4X4X4X4X4X4X4X4X4X4X4X4X4X4X4X4X4X4X4X4X4X4X4X4X4X4X4X4X4X4X4X4X4X4X4X4X4X4X4X4X4X4X4X4X4X4X4X"
};
