/* XPM */
static char *result[] = {
/* columns rows colors chars-per-pixel */
"50 50 199 2 ",
"   c #6B1614",
".  c #7C1E1B",
"X  c #780F0D",
"o  c #723719",
"O  c #7C5718",
"+  c #7C5E27",
"@  c #7F6122",
"#  c #7F6430",
"$  c #1D255E",
"%  c #151E68",
"&  c #0F1C78",
"*  c #1E2663",
"=  c #1F286A",
"-  c #1A246F",
";  c #1B2674",
":  c #182376",
">  c #222B6D",
",  c #242D74",
"<  c #242E7B",
"1  c #2A3376",
"2  c #26307C",
"3  c #2B347E",
"4  c #323A7A",
"5  c #494951",
"6  c #7F4343",
"7  c #51527F",
"8  c #767178",
"9  c #6C6576",
"0  c #8A1514",
"q  c #951514",
"w  c #971717",
"e  c #A51A19",
"r  c #AB1919",
"t  c #A71717",
"y  c #B41917",
"u  c #B41A19",
"i  c #BB1A19",
"p  c #B81717",
"a  c #8F2E1A",
"s  c #822320",
"d  c #922422",
"f  c #982B28",
"g  c #9E3834",
"h  c #96312E",
"j  c #A72925",
"k  c #B62423",
"l  c #A73734",
"z  c #B03230",
"x  c #C51B1B",
"c  c #CC1B1A",
"v  c #D71D1C",
"b  c #E61A19",
"n  c #CE2B28",
"m  c #D12320",
"M  c #CF322D",
"N  c #C93936",
"B  c #E73430",
"V  c #864C1A",
"C  c #856218",
"Z  c #805725",
"A  c #A8433A",
"S  c #866628",
"D  c #E0433E",
"F  c #895A57",
"G  c #AD5F5D",
"H  c #B2524F",
"J  c #816950",
"K  c #9C615E",
"L  c #9A7B79",
"P  c #AD7472",
"I  c #D64C47",
"U  c #C54A45",
"Y  c #C17F7D",
"T  c #CA6D6A",
"R  c #E1726E",
"E  c #E37C79",
"W  c #97835B",
"Q  c #8E836E",
"!  c #9C8971",
"~  c #A48D64",
"^  c #A99262",
"/  c #B79D68",
"(  c #AD9878",
")  c #BDA36B",
"_  c #C6A96B",
"`  c #CEB170",
"'  c #DDBF74",
"]  c #D5BC7F",
"[  c #C1AB78",
"{  c #E3C278",
"}  c #1A2689",
"|  c #232E82",
" . c #202C8A",
".. c #263183",
"X. c #293385",
"o. c #2A358C",
"O. c #2D388C",
"+. c #283489",
"@. c #323E8E",
"#. c #273391",
"$. c #2B3693",
"%. c #2D3995",
"&. c #2B3799",
"*. c #2D3A9C",
"=. c #323D9D",
"-. c #343F97",
";. c #2F3CA2",
":. c #2F3DAA",
">. c #313EA5",
",. c #323FA9",
"<. c #3A448B",
"1. c #3A448B",
"2. c #3C4493",
"3. c #39449B",
"4. c #3441AC",
"5. c #3743A4",
"6. c #3543B4",
"7. c #3D4AB2",
"8. c #3645B9",
"9. c #3847BE",
"0. c #3B49B8",
"q. c #535589",
"w. c #5E5E90",
"e. c #484F8D",
"r. c #635F81",
"t. c #6D6784",
"y. c #716E8E",
"u. c #787588",
"i. c #616493",
"p. c #6C6993",
"a. c #434EA1",
"s. c #4A54A3",
"d. c #4552A6",
"f. c #4A56BA",
"g. c #535BB3",
"h. c #444FB5",
"j. c #5863BA",
"k. c #5F66A9",
"l. c #666AB0",
"z. c #3847C1",
"x. c #3A49C4",
"c. c #3B4ACA",
"v. c #3847C5",
"b. c #3D4DD3",
"n. c #4957C9",
"m. c #4454D6",
"M. c #5864C6",
"N. c #727BC1",
"B. c #867F9B",
"V. c #7C81AA",
"C. c #989598",
"Z. c #958D80",
"A. c #A79797",
"S. c #B0A18C",
"D. c #9B99A7",
"F. c #8E8CAF",
"G. c #A9A8A9",
"H. c #B4A9A7",
"J. c #B5B5B5",
"K. c #BCBCBD",
"L. c #B7B3B7",
"P. c #C88A87",
"I. c #C79A98",
"U. c #D69994",
"Y. c #CBB588",
"T. c #CCB690",
"R. c #D4ACAA",
"E. c #C7BABA",
"W. c #CAB0AE",
"Q. c #D2C394",
"!. c #EDD38C",
"~. c #F0DA9F",
"^. c #DFD1AD",
"/. c #D6CCAB",
"(. c #A7AAC8",
"). c #B8B9C3",
"_. c #B1B7DB",
"`. c #BFC3D8",
"'. c #C3C3C3",
"]. c #CCCCCC",
"[. c #CAC8C5",
"{. c #DAC8C7",
"}. c #CCCDD5",
"|. c #D4D4D4",
" X c #DCDCDC",
".X c #EEDFDE",
"XX c #F2DEDE",
"oX c #E1DACC",
"OX c #D8DAE7",
"+X c #CACCE5",
"@X c #E3E3E3",
"#X c #EDEDEC",
"$X c #E8E7E8",
"%X c #F5E6E5",
"&X c #F0F0EF",
"*X c #F4F5F5",
"=X c #F8F9F7",
"-X c #FDFDFD",
";X c None",
/* pixels */
";X;X;X;X;X;X;X;X;X;X;X;X;X;X3.s.s.5.5.7.h.f.M.j.n.;X;X;X;X;X;X;X;X;X;X;X;X;X;X;X;X;X;X;X;X;X;X;X;X;X",
";X;X;X;X;X;X;X;X;X;X;XO.+.%.$.&.*.;.>.,.4.6.6.9.9.n.n.f.;X;X2.2.;X;X;X;X;X;X;X;X;X;X;X;X;X;X;X;X;X;X",
";X;X;X;X;X;X;X;X;XX.O.o.$.%.%.*.&.%.*.*.*.;.4.6.6.8.8.6.5.O.-.8 y.;X;X;X;X;X;X;X;X;X;X;X;X;X;X;X;X;X",
";X;X;X;X;X;X;X;X: | | X.+.o.O.o.+.O.*.*.:.4.6.0.8.6.4.%.$.&.w.^ p.;X;X;X;X;X;X;X;X;X;X;X;X;X;X;X;X;X",
";X;X;X;X;X;X;X;X;X; % % , < < o.*.>.6.8.9.z.x.c.x.9.6.>.*.=.! ( g.l.;X;X;X;X;X;X;X;X;X;X;X;X;X;X;X;X",
";X;X;X;X;X;X;X;X;X;X;X;X> , $.>.4.4.6.8.8.9.z.z.9.8.6.4.>.s.B.g.c.m.M.;X;X;X;X;X;X;X;X;X;X;X;X;X;X;X",
";X;X;X;X;X;X;X;X;X;X;X3 X.$.>.,.6.6.6.8.8.8.8.8.8.8.6.6.6.6.x.x.c.b.m.;X;X;X;X;X;X;X;X;X;X;X;X;X;X;X",
";X;X;X;X;X;X;X;X;X;XX.+.*.,.4.6.6.6.6.6.8.8.6.8.8.8.8.6.6.8.9.z.f.h.z.n.;X;X;X;X;X;X;X;X;X;X;X;X;X;X",
";X;X;X;X;X;X;X;X;X| o.=.,.4.6.6.6.6.,.6.6.,.,.6.6.8.8.6.8.8.8.l.OXOXk.0.;X;X;X;X;X;X;X;X;X;X;X;X;X;X",
";X;X;X;X;X;X;X;X+.o.;.,.,.4.4.4.,.>.>.=.=.$.>.>.6.6.6.6.8.6.0.OX-X-X`.5.j.;X;X;X;X;X;X;X;X;X;X;X;X;X",
";X;X;X;X;X;X;X;X#.*.,.>.>.>.*.$.$.o.| < > > , o.,.6.6.6.8.8.f.OX-X=X Xd.j.;X;X;X;X;X;X;X;X;X;X;X;X;X",
";X;X;X;X;X;X;X#.*.;.*.$.o..., > * * * $ $ * > O.,.6.6.6.:.:.h.OX-X&X}.3.j.;X;X;X;X;X;X;X;X;X;X;X;X;X",
";X;X;X;X;X;X2.&.$.| 3 1 = = * > > , , 1 , , $.,.6.4.6.6.6.6.4._.=X#XD.<.s.;X;X;X;X;X;X;X;X;X;X;X;X;X",
";X;X;X;X;X;X$.%.;X;X;X; 4 > , < 2 X.1 > X.=.,.4.4.4.,.,.6.,.:.F.#X|.u.i.;X;X;X;X;X;X;X;X;X;X;X;X;X;X",
";X;X;X;X;X;X;X;X;X;X;X;X1 1 ..X.o.< , o.=.,.4.4.4.,.,.,.,.,.i.T.~.^.Q./.8 5 ;X;X;X;X;X;X;X;X;X;X;X;X",
";X;X;X;X;X;X;X;X;X;X;X;X; +.+.+.X., o.&.4.4.4.4.4.4.,.,.,.e.( ' { { ] Y.;X;X;X;X;X;X;X;X;X;X;X;X;X;X",
";X;X;X;X;X;X;X;X;X;X;X: X.+.+.X., X.=.,.4.4.4.4.5.>.4.4.>.q._ _ / / ) ;X;X;X;X;X;X;X;X;X;X;X;X;X;X;X",
";X;X;X;X;X;X;X;X;X;X..X.o.X.| , < &.,.,.4.4.,.>.,.>.>.,.<.7 ~ ^ ~ ;X;X;X;X;X;X;X;X;X;X;X;X;X;X;X;X;X",
";X;X;X;X;X;X;X;X;X;X| | < , , 4 X.>.,.4.4.4.,.$.>.>.>.>.9 ^ r.( ;X;X;X;X;X;X;X;X;X;X;X;X;X;X;X;X;X;X",
";X;X;X;X;X;X;X;X;X;X; < ;X;X;XO.$.,.,.4.,.6.8.>.o.>.>.9 _ Y.l.T.;X;X;X;X;X;X;X;X;X;X;X;X;X;X;X;X;X;X",
";X;X;X;X;X;X;X;X;X;X;X;X;X;X;X| &.>.,.,.>.>.6.,.O.*.*.t.{ A.D.!.oX[.;X;X;X;X;X;X;X;X;X;X;X;X;X;X;X;X",
";X;X;X;X;X;X;X;X;X;X;X;X;X;X;XX.$.,.,.,.%.X.,.,.$.%.$.q.` Q.!.] [.|.}.&X*X|.|.;X;X;X;X;X;X;X;X;X;X;X",
";X;X;X;X;X;X;X;X;X;X;X;X;X;X@.+.o.*.,.,.%.X.%.=.$.$.$.-.t./ ' [ [. X#X=X#X X].;X;X;X;X;X;X;X;X;X;X;X",
";X;X;X;X;X;X;X;X;X;X;X;X;XX.X.X.+.$.,.,.>.$.o.@.1.X.$.$.>.p.~ ! ].].=X-X-X&X X|.;X;X;X;X;X;X;X;X;X;X",
";X;X;X;X;X;X;X;X;X;X;X;X;X& | | X.+.*.:.*...%.(.}.e.+.o.;.B.Q C.K.|.*X-X-X-X-X*X;X;X;X;X;X;X;X;X;X;X",
";X;X;X;X;X;X;X;X;X;X;X;X;X;X: & : } o.4.;.X.6._.}.7 2 *.;.t.Q C.G.K.@X=X-X-X-X$XK.;X;X;X;X;X;X;X;X;X",
";X;X;X;X;X;X;X;X;X;X;X;X;X;X;X;X;X;X;X*.4.o.*.s.<.= ..*.*.i.;X;X;XK.|.#X-X-X*X X@X;X;X;X;X;X;X;X;X;X",
";X;X;X;X;X;X;X;X;X;X;X;X;X;X;X;X;X;X;X;X} } ;X1.2 1 3 ;.8.j.;X;X;X;X;X X$X=X$X@X'.;X;X;X;X;X;X;X;X;X",
";X;X;X;X;X;X;X;X;X;X;X;X;X;X;X;X;X;X;X;X;X;X;X;X;X;XX.&.c.n.;X;X;X;X;X;X'. X'.|.].;X;X;X;X;X;X;X;X;X",
";X;X;X;X;X;X;X;X;X;X;X;X;X;X;X;X;X;X;X;X;X;X;X;X;X;X;X} 8.b.M.;X;X;X;X;X;XJ. XJ.K.;X;X;X;X;X;X;X;X;X",
";X;X;X;X;X;X;X;X;X;X;X;X;X;X;X;X;X;X;X;X;X;X;X;X;X;X;X#.*.c.M.;X;X;X;X;X;X;XC.C.;X;X;X;X;X;X;X;X;X;X",
";X;X;X;X;X;X;X;X;X;X;X;X;X;X;X;X;X;X;X;X;X;X;X;X;X;X;X;X#.z.n.;X;X;X;X;X;X;X;X;X;X;X;X;X;X;X;X;X;X;X",
";X;X;X;X;X;X;X;X;X;X;X;X;X;X;X;X;X;X;X;X;X;X;X;X;X;X;X;X-.,.c.;X;X;X;X;X;X;X;X;X;X;X;X;X;X;X;X;X;X;X",
";X;X;X;X;X;X;X;X;X;X;X;X;X;X;X;X;X;X;X;X;X;X;XK.;X;X;X3.5.,.4.;X;X;X;X;X;X;X;X;X;X;X;X;X;X;X;X;X;X;X",
";X;X;X;X;X;X;X;X;X;X;X;X;X;X;X;X;X;Xd k n N E.|.].(.2.o.o.o.O.;X;X;X;X;X;X;X;X;X;X;X;X;X;X;X;X;X;X;X",
";X;X;X;X;X;X;X;X;X;X;X;X;X;X;X;X;X. e i c M R. X/.@XV.1.@.< @.;X;X;X;X;X;X;X;X;X;X;X;X;X;X;X;X;X;X;X",
";X;X;X;X;X;X;X;X;X;X;X;X;X;X;X;X  w e u x c P. X}.). X).q.< ;X;X;X;X;X;X;X;X;X;X;X;X;X;X;X;X;X;X;X;X",
";X;X;X;X;X;X;X;X;X;X;X;X;X;X;X;X  w e r i c U E. XG.).@X).;X;X;X;X;X;X;X;X;X;X;X;X;X;X;X;X;X;X;X;X;X",
";X;X;X;X;X;X;X;X;X;X;X;X;X;X;X;X  w e r u i x G G.J.G.[.}.).L.;X;X;X;X;X;X;X;X;X;X;X;X;X;X;X;X;X;X;X",
";X;X;X;X;X;X;X;X;X;X;X;X;X;X;X;X  0 w w z H U.{.H.K A.[. X|.K.;X;X;X;X;X;X;X;X;X;X;X;X;X;X;X;X;X;X;X",
";X;X;X;X;X;X;X;X;X;X;X;X;X;X;X;Xo O V + H..X*X=XE.k j K H.L.|.;X;X;X;X;X;X;X;X;X;X;X;X;X;X;X;X;X;X;X",
";X;X;X;X;X;X;X;X;X;X;X;X;X;X;X;X+ S Z # '.$X&X#XU.u T .X-X=XXXE R ;X;X;X;X;X;X;X;X;X;X;X;X;X;X;X;X;X",
";X;X;X;X;X;X;X;X;X;X;X;X;X;X;X;X# # O W  X#X#X$XP.t R.*X=X-X%XD b B ;X;X;X;X;X;X;X;X;X;X;X;X;X;X;X;X",
";X;X;X;X;X;X;X;X;X;X;X;X;X;X;X;X@ C S S.{.R.P.P l q I.$X$X*X#XI m b B I ;X;X;X;X;X;X;X;X;X;X;X;X;X;X",
";X;X;X;X;X;X;X;X;X;X;X;X;X;X;X;X;Xo a A z k p t h q P |. X.X{.z x c c n ;X;X;X;X;X;X;X;X;X;X;X;X;X;X",
";X;X;X;X;X;X;X;X;X;X;X;X;X;X;X;X;X. w e i i y g F F L J.K.).H.H l j j j ;X;X;X;X;X;X;X;X;X;X;X;X;X;X",
";X;X;X;X;X;X;X;X;X;X;X;X;X;X;X;X;XX 0 t p i r g ;X;X;XC.G.A.! ;X;X;X;X;X;X;X;X;X;X;X;X;X;X;X;X;X;X;X",
";X;X;X;X;X;X;X;X;X;X;X;X;X;X;X;X;X;X0 w y p r ;X;X;X;X;X;X;X;X;X;X;X;X;X;X;X;X;X;X;X;X;X;X;X;X;X;X;X",
";X;X;X;X;X;X;X;X;X;X;X;X;X;X;X;X;X;XX q t e ;X;X;X;X;X;X;X;X;X;X;X;X;X;X;X;X;X;X;X;X;X;X;X;X;X;X;X;X",
";X;X;X;X;X;X;X;X;X;X;X;X;X;X;X;X;X;X;Xs d f ;X;X;X;X;X;X;X;X;X;X;X;X;X;X;X;X;X;X;X;X;X;X;X;X;X;X;X;X"
};
