/* XPM */
static char *result[] = {
/* columns rows colors chars-per-pixel */
"50 50 206 2 ",
"   c #740807",
".  c #6C1815",
"X  c #7F1819",
"o  c #7A3A1A",
"O  c #692F16",
"+  c #753433",
"@  c #754616",
"#  c #7C5E1C",
"$  c #725419",
"%  c #765921",
"&  c #725A37",
"*  c #1C245F",
"=  c #0E1766",
"-  c #171E66",
";  c #121C72",
":  c #1F2662",
">  c #19236A",
",  c #1E297B",
"<  c #1A2478",
"1  c #222B6E",
"2  c #202767",
"3  c #27306F",
"4  c #232C73",
"5  c #242E7A",
"6  c #273174",
"7  c #26307C",
"8  c #29337F",
"9  c #353E7B",
"0  c #363C77",
"q  c #5E4748",
"w  c #645F6B",
"e  c #766663",
"r  c #757074",
"t  c #831414",
"y  c #861C1B",
"u  c #8C1414",
"i  c #951515",
"p  c #9B1513",
"a  c #9D1C1A",
"s  c #9A1816",
"d  c #950D0A",
"f  c #A31614",
"g  c #AD1716",
"h  c #A31917",
"j  c #AB1918",
"k  c #A31A18",
"l  c #B21B19",
"z  c #BB1C19",
"x  c #9F201C",
"c  c #8A221F",
"v  c #8C2927",
"b  c #92312F",
"n  c #973632",
"m  c #9D2824",
"M  c #A52927",
"N  c #B32E2B",
"B  c #A2312E",
"V  c #A33937",
"C  c #B13933",
"Z  c #C41A19",
"A  c #C51717",
"S  c #D61B1C",
"D  c #E41618",
"F  c #C72825",
"G  c #D5302E",
"H  c #80611A",
"J  c #94403E",
"K  c #A1413D",
"L  c #806837",
"P  c #C6443F",
"I  c #94514F",
"U  c #B24845",
"Y  c #AE534C",
"T  c #8F6553",
"R  c #896B6A",
"E  c #936060",
"W  c #867C79",
"Q  c #AD7672",
"!  c #BB7B79",
"~  c #CF5552",
"^  c #E84946",
"/  c #E25A56",
"(  c #CD726D",
")  c #E76A67",
"_  c #8F887E",
"`  c #AB9563",
"'  c #A69478",
"]  c #B69E69",
"[  c #BDA576",
"{  c #DB807C",
"}  c #D0B26E",
"|  c #D5B976",
" . c #C7AD6E",
".. c #ECCA7C",
"X. c #0F1D82",
"o. c #1E2A83",
"O. c #1A2683",
"+. c #232E82",
"@. c #222E8C",
"#. c #263183",
"$. c #293485",
"%. c #27328B",
"&. c #29358C",
"*. c #2E398A",
"=. c #323B84",
"-. c #313D89",
";. c #2A3692",
":. c #2C3995",
">. c #2A379B",
",. c #2D3A9B",
"<. c #263395",
"1. c #303D9C",
"2. c #313C91",
"3. c #2E3CA2",
"4. c #313EA5",
"5. c #313FAA",
"6. c #3A4492",
"7. c #34409B",
"8. c #364191",
"9. c #39438D",
"0. c #3341A7",
"q. c #3441AD",
"w. c #3C48A8",
"e. c #3543B3",
"r. c #3B49B1",
"t. c #3645B9",
"y. c #3847BC",
"u. c #3A49BE",
"i. c #444B97",
"p. c #535993",
"a. c #484E8C",
"s. c #626391",
"d. c #64628A",
"f. c #444EA7",
"g. c #414CAB",
"h. c #4955AB",
"j. c #4852A8",
"k. c #575FA9",
"l. c #424EB9",
"z. c #4C59B4",
"x. c #4856B9",
"c. c #515DB5",
"v. c #5762B7",
"b. c #666BAD",
"n. c #3A49C3",
"m. c #3949C8",
"M. c #414EC0",
"N. c #4051D4",
"B. c #5360C6",
"V. c #6671C1",
"C. c #817B87",
"Z. c #8C868C",
"A. c #958C85",
"S. c #958888",
"D. c #969185",
"F. c #888597",
"G. c #948C96",
"H. c #9B9797",
"J. c #A79A98",
"K. c #B19D82",
"L. c #BEAB84",
"P. c #B1AB9C",
"I. c #9598B7",
"U. c #888EB7",
"Y. c #A6A4A4",
"T. c #ADAAAC",
"R. c #A9A4A6",
"E. c #B3B4B4",
"W. c #BBB4B4",
"Q. c #BDBCBC",
"!. c #B6B3BA",
"~. c #A7A9B6",
"^. c #C69492",
"/. c #C0AF8D",
"(. c #CBBC9B",
"). c #C4B6B5",
"_. c #D3B5B3",
"`. c #DEC786",
"'. c #E8CD85",
"]. c #F0D084",
"[. c #EBD28C",
"{. c #C0C0BF",
"}. c #D8C9A8",
"|. c #BEBEC0",
" X c #B8BCD9",
".X c #BFC0C1",
"XX c #C4C4C4",
"oX c #CBCBCC",
"OX c #D6CAC9",
"+X c #D0CED0",
"@X c #D3D4D4",
"#X c #DCDCDC",
"$X c #D9D8D5",
"%X c #CACCD4",
"&X c #E6D9D9",
"*X c #EED2D0",
"=X c #E1E0DF",
"-X c #DFDFE1",
";X c #DFE2E2",
":X c #E4E5E5",
">X c #EBEBEB",
",X c #E8E8E7",
"<X c #EFF2F1",
"1X c #F4F4F4",
"2X c #FCFCFC",
"3X c None",
/* pixels */
"3X3X3X3X3X3X3X3X3X3X3X3X3X3X3X3Xw.h.v.v.z.x.r.3X3X3X3X3X3X3Xk.3X3X3X3X3X3X3X3X3X3X3X3X3X3X3X3X3X3X3X",
"3X3X3X3X3X3X3X3X3X3X3X3X:.;.:.,.,.3.4.q.e.e.y.u.u.B.x.3X6.2.p.s.3X3X3X3X3X3X3X3X3X3X3X3X3X3X3X3X3X3X",
"3X3X3X3X3X3X3X3X3X*.%.&.;.>.,.>.,.3.3.,.3.0.q.e.q.5.3.:.&.1.W C.3X3X3X3X3X3X3X3X3X3X3X3X3X3X3X3X3X3X",
"3X3X3X3X3X3X3X3X#.&.;.>.,.:.:.:.:.:.>.3.3.q.t.e.t.0.>.>.3.p.` Z.3X3X3X3X3X3X3X3X3X3X3X3X3X3X3X3X3X3X",
"3X3X3X3X3X3X3X; +.+.#.&.&.&.&.&.:.4.e.t.y.n.m.n.n.t.5.5.4.Z.S.x.V.3X3X3X3X3X3X3X3X3X3X3X3X3X3X3X3X3X",
"3X3X3X3X3X3X3X3X3X> - 6 6 7 &.,.0.e.e.y.y.n.n.n.y.n.5.5.q.k.l.N.m.B.3X3X3X3X3X3X3X3X3X3X3X3X3X3X3X3X",
"3X3X3X3X3X3X3X3X3X3X3X6 7 ;.3.q.e.e.t.t.t.t.t.y.y.t.5.y.5.n.n.n.n.m.3X3X3X3X3X3X3X3X3X3X3X3X3X3X3X3X",
"3X3X3X3X3X3X3X3X3X3X3X5 >.4.q.e.e.t.t.t.t.t.t.t.t.y.y.y.y.y.y.x.z.0.M.3X3X3X3X3X3X3X3X3X3X3X3X3X3X3X",
"3X3X3X3X3X3X3X3X3X3XO.>.0.q.e.e.t.e.t.e.e.5.t.5.5.n.y.t.t.y.z.3X3X3X0.3X3X3X3X3X3X3X3X3X3X3X3X3X3X3X",
"3X3X3X3X3X3X3X3X3XO.>.0.e.e.e.e.5.5.4.4.1.,.4.4.t.5.e.t.t.5.V.3X3X3Xf.c.3X3X3X3X3X3X3X3X3X3X3X3X3X3X",
"3X3X3X3X3X3X3X3Xo.>.q.q.q.q.0.,.1.;.$.7 1 4 7 2.5.5.t.e.e.e.V.3X3X3Xh.z.3X3X3X3X3X3X3X3X3X3X3X3X3X3X",
"3X3X3X3X3X3X3X&.:.5.q.3.,.;.&.5 1 2 2 * * 2 1 4.t.t.e.e.e.5.c.3X3X3X6.h.3X3X3X3X3X3X3X3X3X3X3X3X3X3X",
"3X3X3X3X3X3X3X:.4.3.;.#.5 1 2 2 2 1 3 6 3 5 :.5.5.5.e.q.e.e.r.3X3X3X9 3X3X3X3X3X3X3X3X3X3X3X3X3X3X3X",
"3X3X3X3X3X3X7.,.&.*.9 4 4 1 1 5 #.8 6 4 $.1.5.5.t.r.5.e.e.5.j.J.J.Z.R.G.w 3X3X3X3X3X3X3X3X3X3X3X3X3X",
"3X3X3X3X3X3X3X3X3X3X5 6 0 4 8 #.$.#.4 #.4.5.5.5.5.r.5.q.5.w.K...].'.`.A.r 3X3X3X3X3X3X3X3X3X3X3X3X3X",
"3X3X3X3X3X3X3X3X3X3X3X3X5 +.&.&.&.5 #.1.5.5.t.r.5.5.t.5.5.f. .| }  .(.$X3X3X3X3X3X3X3X3X3X3X3X3X3X3X",
"3X3X3X3X3X3X3X3X3X3X3X5 #.&.;.&.#.7 1.5.e.q.e.q.5.q.5.r.5.f.] ] ` (.;X>X>X;X3X3X3X3X3X3X3X3X3X3X3X3X",
"3X3X3X3X3X3X3X3X3X3X3X, ;.;.&.&.5 &.5.5.q.q.q.1.4.q.5.r.t.q.R /.$X@X;X1X>X,X1X:X3X3X3X3X3X3X3X3X3X3X",
"3X3X3X3X3X3X3X3X3X3X#.%.%.#.5 6 5 1.q.e.q.e.y.4.*.4.5.4.q.j.d.}.;X@X,X2X2X2X2X1X3X3X3X3X3X3X3X3X3X3X",
"3X3X3X3X3X3X3X3X3X3Xo.#., < 3X3X+.4.q.q.5.q.t.n.5.1.4.4.0.G.G./.D.{.>X2X2X2X2X1X@X3X3X3X3X3X3X3X3X3X",
"3X3X3X3X3X3X3X3X3X3X, 3X3X3X3X3X@.4.5.5.5.:.5.y.n.0.&.3.i.| [.'. .J.@X;X1X2X2X1X:X3X3X3X3X3X3X3X3X3X",
"3X3X3X3X3X3X3X3X3X3X3X3X3X3X3X*.&.4.t.t.e.1.%.5.n.y.&.>.i.' | | ` _ E.@X>X1X2X1XXXXX3X3X3X3X3X3X3X3X",
"3X3X3X3X3X3X3X3X3X3X3X3X3X%.7.;.%.>.4.y.q.q.$.5 0.y.3.:.3.d./.P.e C.R.Q.oX#X:X:XoX3X3X3X3X3X3X3X3X3X",
"3X3X3X3X3X3X3X3X3X3X3X3X3X< 5 5 1 &.>.5.e.e.f.I.U.g.3.&.>.A.}.).T..X@X@XoX$X#XXXE.3X3X3X3X3X3X3X3X3X",
"3X3X3X3X3X3X3X3X3X3X3X3X3X3X3X= > 4 &.>.e.e.r. X%Xa.;.%.8.' P.E.@X#X#X$XXX+X@X3X3X3X3X3X3X3X3X3X3X3X",
"3X3X3X3X3X3X3X3X3X3X3X3X3X3X3X3X= - 5 &.3.e.5.c.p., $.&.-.D.3XT.E.oX$X#X+X+XoX3X3X3X3X3X3X3X3X3X3X3X",
"3X3X3X3X3X3X3X3X3X3X3X3X3X3X3X3X3X3X= +.;.3.e.5.9.9 :.,.=.b.3X3X3X.XXX@X,X,X3X3X3X3X3X3X3X3X3X3X3X3X",
"3X3X3X3X3X3X3X3X3X3X3X3X3X3X3X3X3X3X3X; O.%.5.5.3Xi.7.&.#.r.3X3X3X3X3XoXoX3X3X3X3X3X3X3X3X3X3X3X3X3X",
"3X3X3X3X3X3X3X3X3X3X3X3X3X3X3X3X3X3X3X3X3XX.o.3X3X1.r.9.7 %.r.3X3X3X3X3X3X3X3X3X3X3X3X3X3X3X3X3X3X3X",
"3X3X3X3X3X3X3X3X3X3X3X3X3X3X3X3X3X3X3X3X3X3X3X3X3X,.g.3X3X, >.x.3X3X3X3X3X3X3X3X3X3X3X3X3X3X3X3X3X3X",
"3X3X3X3X3X3X3X3X3X3X3X3X3X3X3X3X3X3X3X3X3X3X3X3X;.3.g.3X3X3Xo.r.3X3X3X3X3X3X3X3X3X3X3X3X3X3X3X3X3X3X",
"3X3X3X3X3X3X3X3X3X3X3X3X3X3X3X3X3X3X3X3X3X3X3X3X1.5.3X3X3X3X3X:.r.3X3X3X3X3X3X3X3X3X3X3X3X3X3X3X3X3X",
"3X3X3X3X3X3X3X3X3X3X3X3X3X3X3X3X3X3X3X3X3X3X3X3.0.>.3X3X3X3X3X-.>.f.3X3X3X3X3X3X3X3X3X3X3X3X3X3X3X3X",
"3X3X3X3X3X3X3X3X3X3X3X3X3X3X3X3X3XJ.T.3X3X6.,.>.<.3X3X3X3X3X3X7 <.h.3X3X3X3X3X3X3X3X3X3X3X3X3X3X3X3X",
"3X3X3X3X3X3X3X3X3X3X3X3X3X3Xb C Y ).XX@XI.%.%.%.3X3X3X3X3X3X3X#.%.j.3X3X3X3X3X3X3X3X3X3X3X3X3X3X3X3X",
"3X3X3X3X3X3X3X3X3X3X3X3X. v l Z G ).$XXX-Xp.=.3X3X3X3X3X3X3X3X9 7 8.3X3X3X3X3X3X3X3X3X3X3X3X3X3X3X3X",
"3X3X3X3X3X3X3X3X3X3X3X3X  i j z Z ^.$XXXXX3X3X3X3X3X3X3X3X3XF.~.I.U.3X3X3X3X3X3X3X3X3X3X3X3X3X3X3X3X",
"3X3X3X3X3X3X3X3X3X3X3X3XX s k j z ~ ).+XT.R.3X3X3X3X3X3X3X3XH.E.oX$XoX!.3X3X3X3X3X3X3X3X3X3X3X3X3X3X",
"3X3X3X3X3X3X3X3X3X3X3X3Xy s k j l Z U R.E.R.3X3X3X3X3X3X3X3XR.Q.@X,X,X+X3X3X3X3X3X3X3X3X3X3X3X3X3X3X",
"3X3X3X3X3X3X3X3X3X3X3X. X u i a M ~ _.Q.W.3X3X3X3X3X3X3X3X3XH.E.XXW.J.W.@X3X3X3X3X3X3X3X3X3X3X3X3X3X",
"3X3X3X3X3X3X3X3X3X3X3XO o o @ T ).&X<X-X3X3X3X3X3X3X3X3X3Xn b J V Q &X1X2X*X3X3X3X3X3X3X3X3X3X3X3X3X",
"3X3X3X3X3X3X3X3X3X3X3X@ # # # D.-X,X,X#X3X3X3X3X3X3X3X3X3Xv i f N OX2X2X2X*X/ ) 3X3X3X3X3X3X3X3X3X3X",
"3X3X3X3X3X3X3X3X3X3X3X% & $ L ).;X:X;X$X3X3X3X3X3X3X3X3X+ y i h N OX2X2X2X2X) D ^ / 3X3X3X3X3X3X3X3X",
"3X3X3X3X3X3X3X3X3X3X3X3X$ # ' oXOX^.! 3X3X3X3X3X3X3X3X3X+ n p s a ( >X1X1X2X( S S G ^ 3X3X3X3X3X3X3X",
"3X3X3X3X3X3X3X3X3X3X3X3XO v T K N l k 3X3X3X3X3X3X3X3X3Xq R V B a V OX:X,X>X( A Z Z F 3X3X3X3X3X3X3X",
"3X3X3X3X3X3X3X3X3X3X3X3X. t f z l g k 3X3X3X3X3X3X3X3X3X3Xe R R E E J.Q.XX).Q V B m 3X3X3X3X3X3X3X3X",
"3X3X3X3X3X3X3X3X3X3X3X3X3XX p g l f x 3X3X3X3X3X3X3X3X3X3X3X3X3X3X3X3XY.T.J.3X3X3X3X3X3X3X3X3X3X3X3X",
"3X3X3X3X3X3X3X3X3X3X3X3X3X  u h j s 3X3X3X3X3X3X3X3X3X3X3X3X3X3X3X3X3X3X3X3X3X3X3X3X3X3X3X3X3X3X3X3X",
"3X3X3X3X3X3X3X3X3X3X3X3X3X3X  p d 3X3X3X3X3X3X3X3X3X3X3X3X3X3X3X3X3X3X3X3X3X3X3X3X3X3X3X3X3X3X3X3X3X",
"3X3X3X3X3X3X3X3X3X3X3X3X3X3X3Xt 3X3X3X3X3X3X3X3X3X3X3X3X3X3X3X3X3X3X3X3X3X3X3X3X3X3X3X3X3X3X3X3X3X3X"
};
