/* XPM */
static char *result[] = {
/* columns rows colors chars-per-pixel */
"40 40 176 2 ",
"   c #050504",
".  c #111212",
"X  c #15211C",
"o  c #18261F",
"O  c #1C2B24",
"+  c #202222",
"@  c #20342A",
"#  c #233E2F",
"$  c #303333",
"%  c #254132",
"&  c #294737",
"*  c #2B4E3B",
"=  c #34443F",
"-  c #2C513E",
";  c #4A3F4F",
":  c #364340",
">  c #394A45",
",  c #3C4C48",
"<  c #2E5541",
"1  c #2F5943",
"2  c #335444",
"3  c #385147",
"4  c #325B46",
"5  c #3B514A",
"6  c #365B48",
"7  c #395E4D",
"8  c #33634A",
"9  c #346C4D",
"0  c #36704F",
"q  c #366E50",
"w  c #367352",
"e  c #387554",
"r  c #377A55",
"t  c #397B56",
"y  c #3A7E58",
"u  c #454A49",
"i  c #484D4B",
"p  c #40544B",
"a  c #4D4654",
"s  c #464950",
"d  c #4A4E55",
"f  c #524657",
"g  c #534B5B",
"h  c #4C5454",
"j  c #475B56",
"k  c #56505F",
"l  c #545B5C",
"z  c #595F5F",
"x  c #515555",
"c  c #466F5D",
"v  c #4B6F5E",
"b  c #49645B",
"n  c #44715C",
"m  c #5B4E62",
"M  c #5D5265",
"N  c #555B63",
"B  c #5E5668",
"V  c #5C5C69",
"C  c #565561",
"Z  c #62556B",
"A  c #625B6C",
"S  c #5D6463",
"D  c #5C656B",
"F  c #57776C",
"G  c #5F6D70",
"H  c #5F7476",
"J  c #61646F",
"K  c #646572",
"L  c #6B6576",
"P  c #616C71",
"I  c #666E78",
"U  c #6B6B79",
"Y  c #657079",
"T  c #6B747C",
"R  c #6B7B7E",
"E  c #3A835B",
"W  c #3C8A5E",
"Q  c #3D8D61",
"!  c #448262",
"~  c #5D8C79",
"^  c #78807F",
"/  c #737B87",
"(  c #727D88",
")  c #6F8286",
"_  c #6E8C86",
"`  c #73838A",
"'  c #79838E",
"]  c #7A8A8E",
"[  c #74888B",
"{  c #768D91",
"}  c #7B8D92",
"|  c #7B9296",
" . c #7D9599",
".. c #7D9B9C",
"X. c #769193",
"o. c #818A95",
"O. c #84949C",
"+. c #88959F",
"@. c #81999E",
"#. c #949E9C",
"$. c #98A09F",
"%. c #8A96A2",
"&. c #839EA3",
"*. c #8B9AA5",
"=. c #8E9EAA",
"-. c #919DA9",
";. c #84A4A4",
":. c #8CA3A6",
">. c #85A9A6",
",. c #85A7A9",
"<. c #8CA2AA",
"1. c #85A9A9",
"2. c #8DACAD",
"3. c #92A4AD",
"4. c #93ABAD",
"5. c #9CA6A4",
"6. c #8AB2AF",
"7. c #8DACB0",
"8. c #90A6B0",
"9. c #92ACB2",
"0. c #9BACB3",
"q. c #8DB4B3",
"w. c #8FBAB9",
"e. c #93B2B4",
"r. c #9AB4B3",
"t. c #90B8B7",
"y. c #98BAB7",
"u. c #91B6B8",
"i. c #96BDBC",
"p. c #A0ABAA",
"a. c #A7B1B0",
"s. c #ADB5B4",
"d. c #A3BDBD",
"f. c #AEBCBC",
"g. c #B3BEBC",
"h. c #99BEC1",
"j. c #A3C4C5",
"k. c #AAC4C5",
"l. c #A4C9CA",
"z. c #AACACB",
"x. c #B4C7C5",
"c. c #B3CACB",
"v. c #BBCDCC",
"b. c #BED0CE",
"n. c #B5CFD0",
"m. c #AAD3D7",
"M. c #B5D3D3",
"N. c #BCD4D4",
"B. c #B6D8DA",
"V. c #BCDBDB",
"C. c #C3D3D1",
"Z. c #CDD7D6",
"A. c #C2D8D7",
"S. c #C7DBDA",
"D. c #CDDDDB",
"F. c #D2DEDC",
"G. c #CDE1DF",
"H. c #D4E1DF",
"J. c #CDE4E4",
"K. c #CFEAEA",
"L. c #D4E5E4",
"P. c #D9E6E4",
"I. c #DBE9E6",
"U. c #D3EBEA",
"Y. c #DCEEEB",
"T. c #D4EAE7",
"R. c #D7F0EE",
"E. c #DDF1EE",
"W. c #DEF3F1",
"Q. c #E1EFED",
"!. c #E2F1EE",
"~. c #E4F5F2",
"^. c #E7F8F5",
"/. c #E9FAF6",
"(. c #EAFBF8",
"). c None",
/* pixels */
").).).).).).).).).).).).).).).).).).).).).).).).).).).).).).).).).).).).).).).).",
").).).).).).).).).).).).).).).).).).).).).).).).).).).).).).).).).).).).).).).).",
").).).).).).).).).).).).).).).).).).).).).).).).).).).).).).).).).).).).).).).).",
").).).).).).).).).).).).).).).).).).).).).).).).).).).).).).).).).).).).).).).).",
").).).).).).).).).).).).).).).).).).Q.P.H.C.:.).).).).).).).).).).).).).).).).).",
").).).).).).).).).).).).).).).).).H.F././.~.Y.r.).).).).).).).).).).).).).).).).",
").).).).).).).).).).).).).).).).!.F.C.^.!.C.Q.J.&.).).).).).).).).).).).).).).).",
").).).).).).).).).).).).).).).Z.Q.x S ^.g.#.~.!.j.).).).).).).).).).).).).).).).",
").).).).).).).).).).).).).).).I.Z.. i !.i O H.(.B.).).).).).).).).).).).).).).).",
").).).).).).).).).).).).).).).Q.P.z p.!.u $ I.(.V.).).).).).).).).).).).).).).).",
").).).).).).).).).).).).).).s.^.!.5.F./.a.a./.E.B.).).Z.g.).).).).).).).).).).).",
").).).).).).).).).#.F.Z.s.).F././.^ $ x J F.(.Y.M.f.P./.E.).).).).).).).).).).).",
").).).).).).).).).a.!.(.^.!././.(.G.l u g./././.~.~.(.J.k.).).).).).).).).).).).",
").).).).).).).).).).).D./././.^././.~.!././.~.U.W.^.U.:.).).).).).).).).).).).).",
").).).).).).).).).).).).C.~.^.E././././.!.E./.T.z.j.9.).).).).).).).).).).).).).",
").).).).).).).).).).).).).c.N.J./.~././.Y.J././.M.i.).).).).).).).).).).).).).).",
").).).).).).).).).).).).).).A.K.!.T././.~.N.!./.V.h.<.).).).).).).).).).).).).).",
").).).).).).r.l.j.).).).).).b.J.T.G.T././.G.v./.T.e.l.;.).).).y.i.q.H ).).).).).",
").).).).). .w.w.q.y.).).).).x.T.N.E.C.E./.^.c.C.(.n.q.m.;.).;.q.w.w.1.D ).).).).",
").).).).V ;.1.u.6.2.2.).).).S.~.l.E.E.x.~./.W.d.L.^.k.;.).).>. .2.w.q.{ g ).).).",
").).).).N ..7.q.1...9.).).4.~.Y.j.R.(.c.v.(./.L.r.T.D.).).:.| X.....7.` a ).).).",
").).).).m ....{ | { 2.).).d.W.S.z.E.c.;.e.J.W.W.4.).).).).3.@...| | ,.I f ).).).",
").).).).g / ..] @.&.9.4.).).k.4.l.k.Y ,.w.9.e.e...).).).).9.2.2.<.8.@.V ).).).).",
").).).).).K *.<.<.<.4.0.).).).).).).D ,.q.;.).).).).).).).3.3.;.<.<.( m ).).).).",
").).).).).B +.<.=.8.=.8.).).).).).).A  .e.:.).).).).).).0.+.*.<.-.*.U g ).).).).",
").).).).).m / *.*.*.O./ N ).).).).4.o./ 8.*.o.).).).).p R P ' %.-.o.B ).).).).).",
").).).).).; U ( T G S 2 7 8 c _ :.O.d C *.+.S ) e.q.>.v 6 8 b P P K g ).).).).).",
").).).).).O : u < 8 8 w ! ~ ;.e.9.*.J U o.O.T ) ;.1.[ c W t 8 8 8 6 5 ).).).).).",
").).).).O 8 q w E Q Q W F {  .} | *.3.-.+.+.=.<.] J k 8 E t 8 e 9 r E 8 ).).).).",
").).).  # t q 9 W W E W j Z Z Z Z A U L L U T J Z m p - 4 E 0 e q r e * ).).).).",
").).).).O 1 e Q E t r * , g M g g Z Z M M m a s d , * 2 8 r e t q 2 ).).).).).).",
").).).).).. < t w 0 9 - 4 2 5 6 2 h h = > > 2 6 2 - - 9 w w 9 E q - ).).).).).).",
").).).).).).O 1 t 9 8 E y 9 r E w E r q e 9 w q w t E W E 8 9 y e 8 ).).).).).).",
").).).).).).).X < q t t e 9 r Q E W Q Q Q w r 0 E W 9 W W r 9 * ).).).).).).).).",
").).).).).).).).).).% % - 8 4 1 < < 4 q q r E y t t w 1 - 1 ).).).).).).).).).).",
").).).).).).).).).).).).).).).).).).).).@ & & % ).).).).).).).).).).).).).).).).",
").).).).).).).).).).).).).).).).).).).).).).).).).).).).).).).).).).).).).).).).",
").).).).).).).).).).).).).).).).).).).).).).).).).).).).).).).).).).).).).).).).",
").).).).).).).).).).).).).).).).).).).).).).).).).).).).).).).).).).).).).).).).",
").).).).).).).).).).).).).).).).).).).).).).).).).).).).).).).).).).).).).).).)."
};
