/* XPM */
static char *result[] = {
/* columns rows colors chars-per-pixel */
"50 50 201 2 ",
"   c #352533",
".  c #3A2634",
"X  c #362936",
"o  c #3C2935",
"O  c #362D39",
"+  c #3B2C3B",
"@  c #3D323D",
"#  c #771929",
"$  c #66172A",
"%  c #4D2736",
"&  c #432E3C",
"*  c #4B2C3B",
"=  c #5E2932",
"-  c #41313E",
";  c #4C323D",
":  c #5B313D",
">  c #57303E",
",  c #6E2435",
"<  c #6C2A35",
"1  c #642C3C",
"2  c #7C2C35",
"3  c #722E3E",
"4  c #7D2B3A",
"5  c #742635",
"6  c #6F323D",
"7  c #6A353B",
"8  c #74333C",
"9  c #7C333B",
"0  c #7D3A3E",
"q  c #783237",
"w  c #3F3441",
"e  c #3F3942",
"r  c #423542",
"t  c #4A3342",
"y  c #423B44",
"u  c #4A3C44",
"i  c #463C4A",
"p  c #4D3D4A",
"a  c #543642",
"s  c #543A44",
"d  c #5B3D46",
"f  c #583644",
"g  c #563E50",
"h  c #643D41",
"j  c #6B3B45",
"k  c #663844",
"l  c #723441",
"z  c #7B3640",
"x  c #763C44",
"c  c #7A3C41",
"v  c #743748",
"b  c #4C454C",
"n  c #4B494E",
"m  c #51464F",
"M  c #5D444C",
"N  c #4D4C53",
"B  c #574251",
"V  c #5C4554",
"C  c #534B53",
"Z  c #5A4C5A",
"A  c #4F5156",
"S  c #545256",
"D  c #565458",
"F  c #5C545D",
"G  c #6E434C",
"H  c #634148",
"J  c #754145",
"K  c #7A474A",
"L  c #614553",
"P  c #654A5C",
"I  c #624A50",
"U  c #774C54",
"Y  c #7A4951",
"T  c #61535D",
"R  c #67595F",
"E  c #684E63",
"W  c #645761",
"Q  c #6C5464",
"!  c #6A5A66",
"~  c #6B5E69",
"^  c #675864",
"/  c #755C6C",
"(  c #795D6D",
")  c #775565",
"_  c #7B5F71",
"`  c #775F70",
"'  c #6F606B",
"]  c #73646F",
"[  c #7C6373",
"{  c #776271",
"}  c #98172A",
"|  c #851F32",
" . c #871328",
".. c #AA1327",
"X. c #A31628",
"o. c #AC152A",
"O. c #AE1C2A",
"+. c #A71428",
"@. c #B41F2B",
"#. c #89202F",
"$. c #862333",
"%. c #892434",
"&. c #8A2B37",
"*. c #9D2432",
"=. c #922B36",
"-. c #9B2C33",
";. c #952E3B",
":. c #952530",
">. c #85333B",
",. c #8C323B",
"<. c #8D383F",
"1. c #81393B",
"2. c #94313B",
"3. c #9A3538",
"4. c #953B3D",
"5. c #993739",
"6. c #A5222D",
"7. c #AC222E",
"8. c #B4232D",
"9. c #BA252E",
"0. c #B9282F",
"q. c #A62630",
"w. c #AA2C32",
"e. c #A52D33",
"r. c #B32B33",
"t. c #BA2A31",
"y. c #BC2730",
"u. c #A53335",
"i. c #AC3034",
"p. c #A13D3C",
"a. c #AC3B3A",
"s. c #A9373B",
"d. c #B33435",
"f. c #BD3432",
"g. c #B53A37",
"h. c #B93B37",
"j. c #B63B38",
"k. c #C02F31",
"l. c #C33333",
"z. c #C73935",
"x. c #CB3C36",
"c. c #D13E37",
"v. c #D03F38",
"b. c #A4433D",
"n. c #BB4137",
"m. c #BA433A",
"M. c #B5453E",
"N. c #C44137",
"B. c #CE4237",
"V. c #C5433B",
"C. c #CB433A",
"Z. c #CE493B",
"A. c #D34437",
"S. c #D54539",
"D. c #D84839",
"F. c #813C41",
"G. c #973546",
"H. c #824141",
"J. c #8D4243",
"K. c #9A4443",
"L. c #934848",
"P. c #81535C",
"I. c #A84844",
"U. c #914D62",
"Y. c #8B5868",
"T. c #816576",
"R. c #8C6174",
"E. c #836679",
"W. c #85697B",
"Q. c #8B6D7E",
"!. c #916D7F",
"~. c #88717F",
"^. c #94707E",
"/. c #8D6E82",
"(. c #916F83",
"). c #8E7084",
"_. c #927285",
"`. c #997486",
"'. c #947589",
"]. c #9A7689",
"[. c #957A8C",
"{. c #9A7B8D",
"}. c #9D7E92",
"|. c #A07E95",
" X c #9E8292",
".X c #A38295",
"XX c #A58499",
"oX c #A9869C",
"OX c #A78C9A",
"+X c #AA899E",
"@X c #AF8CA2",
"#X c #B08DA3",
"$X c #B292A5",
"%X c #B595A9",
"&X c #B997AD",
"*X c #B99AAE",
"=X c #BF9EB2",
"-X c #C2A2B5",
";X c #C8A8BB",
":X c #D3B3C6",
">X c None",
/* pixels */
">X>X>X>X>X>X>X>X>X>X>X>X>X>X>X>X>X>X>X>X>X>X>X>X>X>X>X>X>X>X>X>X>X>X>X>X>X>X>X>X>X>X>X>X>X>X>X>X>X>X",
">X>X>X>X>X>X>X>X>X>X>X>X>X>X>X>X>X>X>X>X>X>X&X-X;X;X-X-X>X>X>X>X>X>X>X>X>X>X>X>X>X>X>X>X>X>X>X>X>X>X",
">X>X>X>X>X>X>X>X>X>X>X>X>X>X>X>X>X>X>X>X>X'.[.}.@X*X@X#X=X:X>X>X>X>X>X>X>X>X>X>X>X>X>X>X>X>X>X>X>X>X",
">X>X>X>X>X>X>X>X>X>X>X>X>X>X>X>X>X>X>X(.)./._./.[.#X@X@X#X-X:X>X>X>X>X>X>X>X>X>X>X>X>X>X>X>X>X>X>X>X",
">X>X>X>X>X>X>X>X>X>X>X>X>X>X>X>X>X>X/./.).)./.).'.+X@X@X#X#X&X=X>X>X>X>X>X>X>X>X>X>X>X>X>X>X>X>X>X>X",
">X>X>X>X>X>X>X>X>X>X>X>X>X>X>X>X>XE.Q.).).).).).(.|.#X#X#X#X#X@X@X@X>X>X>X>X>X>X>X>X>X>X>X>X>X>X>X>X",
">X>X>X>X>X>X>X>X>X>X>X>X>X>X>X( E.).W.).)./.)././ E }.+X#X#X@X@X.X}..X>X>X>X>X>X>X>X>X>X>X>X>X>X>X>X",
">X>X>X>X>X>XC u >X>X>X>X>X>X/ / / ).Q.W._./._ g & . a ( |.#X#XXX'.)._..X>X>X>X>X>X>X* S >X>X>X>X>X>X",
">X>X>X>X>X>XA k $ >X>X>X>X>X( ( / E.{.T._ L ; o >X>X. & V '..X/./.).).'.@X>X>X>X>X>X, C D >X>X>X>X>X",
">X>X>X>X>X>XA 3  .>X>X>X>X/ ( / / / ).~ t & r - @ r @ @ & t V E.)./.).).}.>X>X>X>X# | C D >X>X>X>X>X",
">X>X>X>X>X>XN 3 X.>X>X>X/ / ` / / / E.B   . + + @ @ @ @ @ . o Q /././.).).XX>X>X>X} | C D >X>X>X>X>X",
">X>X>X>X>X>XA 3 ..# >X>X/ ` / / / / V t >X>X+ >X>X>X>X@ >X>X. t / /.)./.).'.@X>X# } $.C D >X>X>X>X>X",
">X>X>X>X>X>XA l ..} R.'.( / / / / g & >X>X>X- >X>X>X>X@ >X>X>Xo t / /././.'.$X@X#.o.$.C D >X>X>X>X>X",
">X>X>X>X>X>XA 3 o.+.Y.=X[./ / / V r >X>X>X>X@ >X>X>X>X@ >X>X>X>X& s E.(./.}.%X`.} o.%.C D >X>X>X>X>X",
">X>X>X>X>X>XA 3 o.o.G.@X-X}.Q V t t >X>X>X>Xr >X>X>X>X- >X>X>X>X& & V E.'.@X@XU.X.o.%.C D >X>X>X>X>X",
">X>X>X>X>X>XA 6 o.o.*.].#X&X` & & r + + + + r e w y r y y y y y i r r Z  X@X@XG.+.O.%.C D >X>X>X>X>X",
">X>X>X>X>X>XN l G.z 5 R.#X#X! o   X   >X>X  O O >X>XX O @ >X>X>X@ @   - {.$X{.3 $.F.%.Z D >X>X>X>X>X",
">X>X>X>X>X>XN k k r w E @X'.p >X>X@ >X>X>X>X@ >X>X>X>X+ >X>X>X>X+ r >X. Q +XE.& y m v C D >X>X>X>X>X",
">X>X>X>X>X>XN k f w + g |.E + >X>Xw >X>X>X>X@ >X>X>X>X@ >X>X>X>X@ i >X>X; ).Q + r u 3 C D >X>X>X>X>X",
">X>X>X>X>X>XN l $., , l ) t >X>X>Xw >X>X>X>X@ >X>X>X>X+ >X>X>X>X+ i >X>Xo M v 5 , 5 &.C S >X>X>X>X>X",
">X>X>X>X>X>XN z @.@.@.6.: + >X>X+ y >X>X>X>Xr >X>X>X>Xr i >X>X>Xy i >X>X>X& :.8.@.@.=.C S >X>X>X>X>X",
">X>X>X>X>X>XN z 8.@.@.@.1 X . . . + o o + + r + w + @ w w w y e y i y y y ; 6.8.@.8.=.C S >X>X>X>X>X",
">X>X>X>X>X>XC v 8.@.@.8.$.>X>X>X>X+ >X>X>X>X+ >X>X>X>X+ >X>X>X>XO @ >X>X>X< 7.8.8.8.=.m S >X>X>X>X>X",
">X>X>X>X>X>XN z 8.8.8.8.*.>X>X>X>X- >X>X>X>Xr >X>X>X>X@ >X>X>X>X>X>X>X>X>X>X8.8.8.8.;.C S >X>X>X>X>X",
">X>X>X>X>X>XA z 0.8.9.9.q.>X>X>X>X>X>X>X>X>X>X>X>X>X>X>X>X>X>X>X>X>X>X>X>X*.9.8.8.9.=.C D >X>X>X>X>X",
">X>X>X>X>X>XN z y.8.r.t.w.>X>X>X>X>X>X>X>X>X>X>X>X>X>X>X>X>X>X>X>X>X>X>X>Xq.8.8.8.9.;.C D >X>X>X>X>X",
">X>X>X>X>X^ N z y.9.t.r.e.>X>X>X>X>X>X>X>X>X>X>X>X>X>X>X>X>X>X>X>X>X>X>X>X-.w.8.8.k.2.C W >X>X>X>X>X",
">X>X>X>X>X/ A z s.F.l k * >X>X>X>X>X>X>X>X>X>X>X>X>X>X>X>X>X>X>X>X>X>X>X>X* f 6 9 G.2.b ! >X>X>X>X>X",
">X>X>X>X>XW N x G y e + o >X>X>X>X>X>X>X>X>X>X>X>X>X>X>X>X>X>X>X>X>X>X>X>XX + @ y M F.C W >X>X>X>X>X",
">X>X>X>X{.] N x d y w & % >X>X>X>X>X>X>X>X>X>X>X>X>X>X>X>X>X>X>X>X>X>X>X>X% * ; y u x m '  X X>X>X>X",
">X>X>X~.[ ! N 0 ,.q =.e.u.>X>X>X>X>X>X>X>X>X>X>X>X>X>X>X>X>X>X>X>X>X>X>X>X-.w.=.2 9 ,.b ! W.).>X>X>X",
">X>X>X_ / ^ N x 2.;.f.l.d.>X>X>X>X>X>X>X>X>X>X>X>X>X>X>X>X>X>X>X>X>X>X>X>Xi.k.f.i.,.<.m F / [ >X>X>X",
">X>X>X( / ^ C h B ^ 3.l.d.>X>X>X>X>X>X>X>X>X>X>X>X>X>X>X>X>X>X>X>X>X>X>X>Xi.l.d.U Z j N F / / >X>X>X",
">X>X>X/ / ^ N M B b 9 l.h.>X>X>X>X>X>X>X>X>X>X>X>X>X>X>X>X>X>X>X>X>X>X>X>Xu.z.3.p B M b T / / >X>X>X",
">X>X>X/ / T b G d = F.l.g.>X>X>X>X>X>X>X>X>X>X>X>X>X>X>X>X>X>X>X>X>X>X>X>Xu.z.G.1 a x b Z Q Q >X>X>X",
">X>X>X>X>X>Xn J F.=.<.l.j.>X>X>X>X>X>X>X>X>X>X>X>X>X>X>X>X>X>X>X>X>X>X>X>Xi.z.5.,.1.c m D >X>X>X>X>X",
">X>X>X>X>XR n F.3.6 u.z.g.>X>X>X>X>X>X>X>X>X>X>X>X>X>X>X>X>X>X>X>X>X>X>X>Xa.x.g.8 >.4.b W >X>X>X>X>X",
">X>X>X>X>XR n H.z.f.x.x.g.>X>X>X>X>X>X>X>X>X>X>X>X>X>X>X>X>X>X>X>X>X>X>X>Xa.z.z.f.x.p.b F >X>X>X>X>X",
">X>X>X>X>XT n 0 x.x.x.x.g.>X>X>X>X>X>X>X>X>X>X>X>X>X>X>X>X>X>X>X>X>X>X>X>Xa.x.x.x.c.5.C F >X>X>X>X>X",
">X>X>X>X>X~.n H.x.C.A.x.h.>X>X>X>X>X>X>X>X>X>X>X>X>X>X>X>X>X>X>X>X>X>X>X>Xa.x.x.x.c.p.n ~ >X>X>X>X>X",
">X>X>X%X$X[.n H.x.A.C.a.1.>X>X>X>X>X>X>X>X>X>X>X>X>X>X>X>X>X>X>X>X>X>X>X>X8 p.N.c.c.p.b ~ {.{.>X>X>X",
">X>X>X#X@X[.n H.C.I.x t + >X>X>X>X>X>X>X>X>X>X>X>X>X>X>X>X>X>X>X>X>X>X>X>Xo & j K.V.b.n ~ (.).>X>X>X",
">X>X>X@X@X[.n H.L.b w + + >X>X>X>X>X>X>X>X>X>X>X>X>X>X>X>X>X>X>X>X>X>X>X>Xo X @ i U K.n ! ).).>X>X>X",
">X>X>XOX+X[.n J I i w > 8 >X>X>X>X>X>X>X>X>X>X>X>X>X>X>X>X>X>X>X>X>X>X>X>X>X7 ; r b H.N ! _.).>X>X>X",
">XOX+X X{.).N 0 h h 4.n.m.>X>X>X>X>X>X>X>X>X>X>X>X>X>X>X>X>X>X>X>X>X>X>X>X>XV.5.h > 0 b ~ '.{..X.XOX",
"_.)._./.).[ n K n.N.S.S.I.>X>X>X>X>X>X>X>X>X>X>X>X>X>X>X>X>X>X>X>X>X>X>X>Xb.Z.A.Z.n.b.b ! _.).)._.[.",
")._.).).).[ b H.D.S.C.p.P.^.`.`.`.`.`.|.@X#X#X#X#X#X#X#X@X+X!._.`.`.].`.^.Y.J.n.A.D.b.b ! ).).).)._.",
").).)._._.[ n K Z.b.Y { Q.^.`.`.`.`.].oX+XoXoXoXoX+X+X+X+X+X|.`.].].].].].`.Q.) 4.Z.b.b W ).).Q.).Q.",
").).)._._.{ n 7 c V ~ ( ( ( ( ( [ ( E._.).).).)./.Q./.)._._.'.'._./._.(.(./.(././ x 0 b D E.E.[ [ [ ",
">X>X>X>X>X>X>X>X>X>X>X>X>X>X>X>X>X>X>X>X>X>X>X>X>X>X>X>X>X>X>X>X>X>X>X>X>X>X>X>X>X>X>X>X>X>X>X>X>X>X"
};
