/* XPM */
static char *result[] = {
/* columns rows colors chars-per-pixel */
"50 50 248 2 ",
"   c #390304",
".  c #490704",
"X  c #590A07",
"o  c #57130D",
"O  c #5A1713",
"+  c #461A07",
"@  c #640604",
"#  c #6A0605",
"$  c #6B0B0A",
"%  c #690B09",
"&  c #7D0505",
"*  c #730B08",
"=  c #7A0A08",
"-  c #661714",
";  c #781815",
":  c #75130C",
">  c #5C251B",
",  c #4D2E11",
"<  c #772219",
"1  c #682B14",
"2  c #7B1F22",
"3  c #7A2B26",
"4  c #78332A",
"5  c #713232",
"6  c #3D410F",
"7  c #524613",
"8  c #475918",
"9  c #5F551E",
"0  c #4D4410",
"q  c #654723",
"w  c #775A2B",
"e  c #784D31",
"r  c #55712A",
"t  c #767935",
"y  c #6E6E31",
"u  c #7C3C4A",
"i  c #784A46",
"p  c #7D6D4D",
"a  c #830404",
"s  c #840907",
"d  c #8A0908",
"f  c #950B09",
"g  c #970706",
"h  c #8B120E",
"j  c #94110B",
"k  c #9C150F",
"l  c #8A1914",
"z  c #971913",
"x  c #A80C08",
"c  c #B50F09",
"v  c #B8130B",
"b  c #AB1E14",
"n  c #A61815",
"m  c #B41D1B",
"M  c #B81914",
"N  c #852218",
"B  c #982518",
"V  c #8C3616",
"C  c #AB2415",
"Z  c #A7281A",
"A  c #B8261A",
"S  c #A83418",
"D  c #B73515",
"F  c #B82C0E",
"G  c #852928",
"H  c #972C28",
"J  c #853838",
"K  c #94382F",
"L  c #AC2B24",
"P  c #AB2A27",
"I  c #B62926",
"U  c #AA3529",
"Y  c #B83326",
"T  c #B73A3A",
"R  c #A53935",
"E  c #C60D06",
"W  c #C3130B",
"Q  c #C9170B",
"!  c #DB1B05",
"~  c #D81A09",
"^  c #C61D16",
"/  c #D82708",
"(  c #C22314",
")  c #CB2413",
"_  c #C82E1A",
"`  c #D72516",
"'  c #CC331B",
"]  c #C83C18",
"[  c #D53718",
"{  c #CC200A",
"}  c #E43608",
"|  c #E5370B",
" . c #E43816",
".. c #E02E15",
"X. c #C72B28",
"o. c #C2322E",
"O. c #DA3326",
"+. c #C73836",
"@. c #D8332D",
"#. c #934C15",
"$. c #B8441B",
"%. c #AF4A19",
"&. c #89483D",
"*. c #95463A",
"=. c #8A5232",
"-. c #B64728",
";. c #AB4438",
":. c #B8493C",
">. c #AD5332",
",. c #896A33",
"<. c #B6683B",
"1. c #A6783A",
"2. c #AB6F36",
"3. c #CA491A",
"4. c #D2561E",
"5. c #CD511B",
"6. c #E84A18",
"7. c #EC5619",
"8. c #EC4E15",
"9. c #C74627",
"0. c #CA5727",
"q. c #D65824",
"w. c #DB4937",
"e. c #D55838",
"r. c #CB4E37",
"t. c #E74829",
"y. c #E85426",
"u. c #E44836",
"i. c #E65234",
"p. c #F05F21",
"a. c #CA642B",
"s. c #DB6728",
"d. c #C76839",
"f. c #DB6932",
"g. c #DB7236",
"h. c #C87535",
"j. c #E86828",
"k. c #E97327",
"l. c #ED6637",
"z. c #E67938",
"x. c #F27432",
"c. c #F16A2C",
"v. c #B03C40",
"b. c #8D4745",
"n. c #984D4B",
"m. c #965548",
"M. c #87595A",
"N. c #995A54",
"B. c #8C4E50",
"V. c #A84847",
"C. c #B74949",
"Z. c #A5574A",
"A. c #B8544A",
"S. c #AB5A55",
"D. c #B65956",
"F. c #BA4C50",
"G. c #89664B",
"H. c #986357",
"J. c #8B7748",
"K. c #B9675A",
"L. c #AC6A53",
"P. c #865962",
"I. c #957262",
"U. c #A66A68",
"Y. c #B66864",
"T. c #BB7767",
"R. c #AE7B72",
"E. c #BB7C78",
"W. c #A86D70",
"Q. c #CA4544",
"!. c #C84846",
"~. c #CA5649",
"^. c #DB5746",
"/. c #CC4F51",
"(. c #C85657",
"). c #D9534E",
"_. c #E2594D",
"`. c #C96946",
"'. c #D77845",
"]. c #C8685A",
"[. c #D76358",
"{. c #C77959",
"}. c #D46E47",
"|. c #E96749",
" X c #E87945",
".X c #E87953",
"XX c #EB734E",
"oX c #C86664",
"OX c #D86965",
"+X c #C3736C",
"@X c #C87B65",
"#X c #C87976",
"$X c #D87876",
"%X c #DC736C",
"&X c #E87568",
"*X c #E47B75",
"=X c #E36F6C",
"-X c #798135",
";X c #8A803F",
":X c #F08639",
">X c #9B8F70",
",X c #BA8579",
"<X c #AA8579",
"1X c #838752",
"2X c #D58557",
"3X c #D58249",
"4X c #E78646",
"5X c #E58855",
"6X c #F18F51",
"7X c #C8867D",
"8X c #D48D75",
"9X c #ED8E6E",
"0X c #E88679",
"qX c #EE9578",
"wX c #F3AD7A",
"eX c #F2AA76",
"rX c #B78F89",
"tX c #BDA097",
"yX c #C68983",
"uX c #D88886",
"iX c #CA988B",
"pX c #D3978D",
"aX c #C79C94",
"sX c #D79691",
"dX c #E68885",
"fX c #E99489",
"gX c #E99A99",
"hX c #C8A69B",
"jX c #D4A694",
"kX c #E9A594",
"lX c #F2BB94",
"zX c #EEAF8D",
"xX c #EC9FA0",
"cX c #C9ABA4",
"vX c #D8A7A1",
"bX c #DBB6AD",
"nX c #DABBB4",
"mX c #CCB7AD",
"MX c #E7ADA2",
"NX c #ECB4AA",
"BX c #E7BCB3",
"VX c #F4C597",
"CX c #F6C084",
"ZX c #DDC3BC",
"AX c #F6D4A9",
"SX c #F5CBA0",
"DX c #E9CAC2",
"FX c None",
/* pixels */
"FXFXFXFXFXFXFXFXFXFXFXFXFXFXFXFXFXFXFXFXFXFXFXFXFXFXFXFXFXFXFXFXFXFXFXFXFXFXFXFXFXFXFXFXFXFXFXFXFXFX",
"FXFXFXFXFXFXFXFXFXFXFXFXFXFXFXFXFXFXFXFXFXFXFXFXFXFXFXFXFXFXFXFXFXFXFXFXFXFXFXFXFXFXFXFXFXFXFXFXFXFX",
"FXFXFXFXFXFXFXFXFXFXFXFXFXFXFXFXFXFXFXFXFXFXFXFXFXFXFXFXFXFXFXFXFXFXFXFXFXFXFXFXFXFXFXFXFXFXFXFXFXFX",
"FXFXFXFXFXFXFXFXFXFXFXFXFXFXFXFXFXFXFXFXFXFXFXFXFXFXFXFXFXFXFXFXFXFXFXFXFXFXFXFXFXFXFXFXFXFXFXFXFXFX",
"FXFXFXFXFXFXFXFXFXFXFXFXFXFXFXFXFXFXFXFXFXFXFXFXFXFXFXFXFXFXFXFXFXFXFXFXFXFXFXFXFXFXFXFXFXFXFXFXFXFX",
"FXFXFXFXFXFXFXFXFXFXFXFXFXFXFXFXFXFXFXFXFXFXFXFXFXFXFXFXFXFXFXFXFXFXFXFXFXFXFXFXFXFXFXFXFXFXFXFXFXFX",
"FXFXFXFXFXFXFXFXFXFXFXFXFXFXFXFXFXFXFXFXFXFXFXFXFXFXFXFXFXFXFXFXFXF.(.(.FXFXFXFXFXFXFXFXFXFXFXFXFXFX",
"FXFXFXFXFXFXFXFXFXFXFXFXFXFXFXFXFXFXFXFXFXFXFXFXFXFXFXFXFXFXFXFXFXF./.!.o.FXFXFXFXFXFXFXFXFXFXFXFXFX",
"FXFXFXFXFXFXFXFXFXFXFXFXFXFXFXFXFXFXFXFXFXFXFXFXFXFXFXFXFXFX$XiX@XT L m m FXFXFXFXFXFXFXFXFXFXFXFXFX",
"FXFXFXFXFXFXFXFXFXFXFXFXFXFXFXFXFXFXFXFXFXFXOX=X0X*X0X*X&X=X).{.A.Z f f n FXFXC.OXQ.FXFXFXFXFXFXFXFX",
"FXFXFXFXFXFXFXFXFXFXFXFXFXFXFXFXFXFXFXFX!.=XfXNXMX0X|.u.u.+.m Z U Z P R FXFXFXV.(.(.Q.Q.FXFXFXFXFXFX",
"FXFXFXFXFXFXFXFXFXFXFXFXFXFXFXFXFXFXFXFXQ.=XfX*X|.u.O.@.Q.Q.I I FXFXFXFXFXFXFXrXY.I n H FXFXFXFXFXFX",
"FXFXFXFXFXFXFXFXFXFXFXFXFXFXFXFXFXFXFXoX).|.|.u.t.u._._.[._.u.` FXFXFXFXFXFXcXcXC.k f z FXFXFXFXFXFX",
"FXFXFXFXFXFXFXFXFXFXFXFXFXFXI U FXFX[._.l.l.l.l.|.*X0XfX9X|.i.~ Q FXFXFXFX@X8X7XU l z FXFXFXFXFXFXFX",
"FXFXFXFXFXFXFXFXFXFXFXFXFXP P !.!.u.y.c. X.X0XxXkXzXlXVXwX.X^.~ W I FXOX%X[.e.:.FXFXFXFXFXFXFXFXFXFX",
"FXFXFXFXFXFXFXFXFXFXFXFXT v.+.[ 6.l.6X.X_.|.fXlXVXAXVXwX6Xu.@.M A X.).dXfX_.X.L FXFXFXFXFXFXFXFXFXFX",
"FXFXFXFXFXFXFXFXFXFXFXC.!.+.O.6.x. X|.q.w.9XVXAXAXlX6Xl.t.O.@.o.!.=XkXNX&X .W n FXFXFXFXFXFXFXFXFXFX",
"FXFXFXFXFXFXFXFXFXFXW.D.+. .| p.p.i.t.y..XVXAXVXwX X6./ ` X.X.).0XBXZXqXt.~ M FXFXFXFXFXFXFXFXFXFXFX",
"FXFXFXFXFXFXFXFXFXZ.U.C.' / } 6./ [ y.x.eXVXCX6Xc.| / Q M X...|.kXNXqXp.! W m FXFXFXFXFXFXFXFXFXFXFX",
"FXFXFXFXFXFXFXFXJ.Z.V.Y Q / ! ~ ! 6.:X6XwXwX6Xp.} ! Q v n X.~ t.XXXX6./ W c b m FX,.-XFXFXFXFXFXFXFX",
"FXFXFXFXFXFXFXFXp M.*.M E E c E / 7.k.:X:Xx.7.| ~ E c g f c E ~ `  ./ c g z I W >.w FXFXFXFXFXFXFXFX",
"FXFXFXFXFXFXFXL.H.P.H n k f c ^ } 7.k.k.c.7.} ! E ^ g a d g x x c c x g d Z Y ) 0.1.,.FXFXFXFXFXFXFX",
"FXFXFXFXFXFX'.d.Z.P.G l h l P ) } 8.7.7.7.8./ E Q X.h * * & & & s a a s l Z _ ^ q.d.1.;X-XFXFXFXFXFX",
"FXFXFXFXFX{.'.>.K u 2 $ 2 J P ^ } | 7.6.} / E c ^ ^ d # # * $ $ $ $ $ ; B C F A 3.q.h.1.t FXFXFXFXFX",
"FXFXFXFXL.d.1.w , : * # 5 B.P ^ / / [ ] ~ E c A [ ) f # @ * : ; ; ; ; B C M A F 5.s.:X3X,.FXFXFXFXFX",
"FXFXFXFXm.,.t r 6 , X @ 5 B.P x v Q ) W x g n A [ ) k * @ * l l G l k b b b Z -.2Xg.4X6X`.Z.FXFXFXFX",
"FXFXFXFX=.,.r r 8 , o X 2 J j g x M x x g d C [ ) Q k X . @ = l B n x x x j B ;.{.a.s.:X5XK.FXFXFXFX",
"FXFXFX*.Z.2.y t ,.4 3 - - 2 h d f f g g a j A ' ^ M *     . @ $ : s = # = z Y F.].U 5.k.g.`.A.FXFXFX",
"FXFXFXn.K.g.2.1.Z.:.A.b.J N h s a a a a d F ] _ ( n % o X X X - - O . + - P ).OXoXR 0.k.s.].A.FXFXFX",
"FXFXFXn.L.z.z.'.e.(.$XaXrXm.l d d a & s B ' [ ' _ n B U Y A H H.I.i , 8 e A.[.=X%Xr.a.z. X[.(.FXFXFX",
"FXFXFXb.*.D q.s.d.].iXZXmX<X3 d g d a = F 3.[ ' ' w.^.i.t.^.pXbXnXmX>Xr p ,X#XoX+.Y 9.j.z.uX+XFXFXFX",
"FXFXFXb.*.d.s.j.g.2XiXmXbXaXm.N & a & s F / ) ) ' q.q.[ 9.8XBXDXDXDXZX>X,XyX$X/.m Z e.z.q.].(.FXFXFX",
"FXFXFXb.m.`.'.z.z.z.2X8X,X7XZ.>.H ; # # x E Q v S #.#.#.*.R.hXbXnXnXZX,X8X2X`.P b r.5X4Xq.].(.FXFXFX",
"FXFXFXJ B.>.}.4Xz.k.g.5X3X>.T !.T ; . o k M ^ Z 1 0 8 0 1 G.R.rXiXiXjX2X4Xg.$.z T '.4Xg.^.%XD.FXFXFX",
"FXFXFX3 e &.-.f.4X X:X6X4X0.Y M ( z O 5 C././.V.9 8 8 9 w w G.L.{.2X3Xk.s.q.S %.h.s.4.0.~.%X/.FXFXFX",
"FXFXFXFX3 5 H S $.0.s.z.4Xk.] W Q Y A.OX*XdXdXdX,X1Xr w =.=.,.<.g.g.q.q.4.q.a.q.5.-.<.T.8XoXFXFXFXFX",
"FXFXFXFXFX> - : z S D 3.5.3.S B I !.$XdXgXgXgXxXkX>Xq ; C B =.<.g.g.z.4Xz.s.0.$.Z ;.+XsX7XFXFXFXFXFX",
"FXFXFXFXFXo o o - ; j B Z B < < z F.#XdXgXgXgXxXgXT.b.H ^ n Z r.f.s.s.f.a.`.{.T.D.Y.uXuX+XFXFXFXFXFX",
"FXFXFXFXFXFXO O O O % : N 4 > > 3 b.W.+X$XdXsXuX$X(.T.+X/.I ^ U %.%.$.D D ].cXbXpXyX#X+XFXFXFXFXFXFX",
"FXFXFXFXFXFXFXFX- X o O 5 i i e 5 i P.n.S.D.K.K.F.T $XxXuXC.z 1 9 e m.;.+.$XNXMXpX7XFXFXFXFXFXFXFXFX",
"FXFXFXFXFXFXFXFXFX- ; G S.uXsX#XN.i 5 B.b.B.H.H.B.H U T V.G > , y >XZXMXdXdXsXyXE.FXFXFXFXFXFXFXFXFX",
"FXFXFXFXFXFXFXFXFXFXFXH Z.Y.+XoXS.n.i 5 4 &.H.<XrXU.n.V.V.K 3 e >XtXZXvXiXyX,XFXFXFXFXFXFXFXFXFXFXFX",
"FXFXFXFXFXFXFXFXFXFXFXFXFXFXD.D.K.S.S.m.n.n.U.aXmXtXR.Y.Y.D.S.U.,XiXaXrXFXFXFXFXFXFXFXFXFXFXFXFXFXFX",
"FXFXFXFXFXFXFXFXFXFXFXFXFXFXFXFXFXK.Y.K.W.Y.+XiXcXtXyXE.E.E.yXE.FXFXFXFXFXFXFXFXFXFXFXFXFXFXFXFXFXFX",
"FXFXFXFXFXFXFXFXFXFXFXFXFXFXFXFXFXFXFXFXFXFXFXFXFXFXFXFXFXFXFXFXFXFXFXFXFXFXFXFXFXFXFXFXFXFXFXFXFXFX",
"FXFXFXFXFXFXFXFXFXFXFXFXFXFXFXFXFXFXFXFXFXFXFXFXFXFXFXFXFXFXFXFXFXFXFXFXFXFXFXFXFXFXFXFXFXFXFXFXFXFX",
"FXFXFXFXFXFXFXFXFXFXFXFXFXFXFXFXFXFXFXFXFXFXFXFXFXFXFXFXFXFXFXFXFXFXFXFXFXFXFXFXFXFXFXFXFXFXFXFXFXFX",
"FXFXFXFXFXFXFXFXFXFXFXFXFXFXFXFXFXFXFXFXFXFXFXFXFXFXFXFXFXFXFXFXFXFXFXFXFXFXFXFXFXFXFXFXFXFXFXFXFXFX",
"FXFXFXFXFXFXFXFXFXFXFXFXFXFXFXFXFXFXFXFXFXFXFXFXFXFXFXFXFXFXFXFXFXFXFXFXFXFXFXFXFXFXFXFXFXFXFXFXFXFX",
"FXFXFXFXFXFXFXFXFXFXFXFXFXFXFXFXFXFXFXFXFXFXFXFXFXFXFXFXFXFXFXFXFXFXFXFXFXFXFXFXFXFXFXFXFXFXFXFXFXFX"
};
