/* XPM */
static char *result[] = {
/* columns rows colors chars-per-pixel */
"50 50 207 2 ",
"   c #77231D",
".  c #682C1D",
"X  c #7A2825",
"o  c #783B39",
"O  c #66302C",
"+  c #78551C",
"@  c #1D235B",
"#  c #131D69",
"$  c #1E2664",
"%  c #17206D",
"&  c #1D256B",
"*  c #1A2579",
"=  c #192373",
"-  c #222A6C",
";  c #202767",
":  c #242C74",
">  c #242E7B",
",  c #26307D",
"<  c #2A347E",
"1  c #32397B",
"2  c #71514F",
"3  c #60635E",
"4  c #5A5865",
"5  c #56597D",
"6  c #7A6965",
"7  c #8A1A18",
"8  c #8F1B15",
"9  c #981716",
"0  c #AA1A19",
"q  c #A71816",
"w  c #BB1A1A",
"e  c #B4191A",
"r  c #972419",
"t  c #A3231A",
"y  c #8F2C28",
"u  c #992E2B",
"i  c #89302F",
"p  c #94362F",
"a  c #A82724",
"s  c #B72B29",
"d  c #A73A38",
"f  c #B83C39",
"g  c #AF3524",
"h  c #C31D1B",
"j  c #CA1C1A",
"k  c #D81F1E",
"l  c #E61C1C",
"z  c #F41D1C",
"x  c #C2211E",
"c  c #F4201E",
"v  c #EC221E",
"b  c #CC3330",
"n  c #F52D29",
"m  c #F1312D",
"M  c #E32C29",
"N  c #865B1A",
"B  c #8D621A",
"V  c #9D671C",
"C  c #8B682B",
"Z  c #906E22",
"A  c #8C6E31",
"S  c #95702C",
"D  c #AC7F3C",
"F  c #F0403B",
"G  c #9D5652",
"H  c #865454",
"J  c #A0534F",
"K  c #B35957",
"L  c #B04744",
"P  c #9F7855",
"I  c #966F70",
"U  c #907F70",
"Y  c #887C77",
"T  c #B86967",
"R  c #BC7D7B",
"E  c #D45651",
"W  c #ED4B45",
"Q  c #ED605C",
"!  c #D5716E",
"~  c #98845E",
"^  c #97846C",
"/  c #998979",
"(  c #A48E68",
")  c #B29C75",
"_  c #BDA165",
"`  c #BBA379",
"'  c #C7A968",
"]  c #C5AC79",
"[  c #DCBD73",
"{  c #D5B46E",
"}  c #E7C57C",
"|  c #111E87",
" . c #1E2A84",
".. c #1C2887",
"X. c #232E84",
"o. c #222F8B",
"O. c #263183",
"+. c #293385",
"@. c #27318B",
"#. c #2A358C",
"$. c #2D3A8D",
"%. c #2F3884",
"&. c #333B8B",
"*. c #343D87",
"=. c #2B3692",
"-. c #2D3894",
";. c #2A369A",
":. c #2D3A9B",
">. c #323D9E",
",. c #303C94",
"<. c #2F3CA1",
"1. c #2B37A0",
"2. c #313EA4",
"3. c #323FAA",
"4. c #333FB2",
"5. c #3D458D",
"6. c #3F4995",
"7. c #3B4697",
"8. c #3440AC",
"9. c #3A46A9",
"0. c #3642B3",
"q. c #3645BA",
"w. c #3847BE",
"e. c #3A48B9",
"r. c #57598A",
"t. c #424C98",
"y. c #4A5396",
"u. c #555A96",
"i. c #404986",
"p. c #6F6D96",
"a. c #4651AC",
"s. c #4B55AB",
"d. c #414CB1",
"f. c #4955B6",
"g. c #4A55AB",
"h. c #5B65B7",
"j. c #5F69AC",
"k. c #666CAF",
"l. c #3C4AC2",
"z. c #3B4BCB",
"x. c #3D4ED7",
"c. c #3F50D3",
"v. c #4452C3",
"b. c #4A57C8",
"n. c #4355D8",
"m. c #5B66C2",
"M. c #5563D2",
"N. c #9C9D9D",
"B. c #9C9297",
"V. c #948B8E",
"C. c #A68A89",
"Z. c #AE9D9E",
"A. c #9DA09E",
"S. c #BEAC89",
"D. c #AAA09F",
"F. c #B6A795",
"G. c #868BB8",
"H. c #9A9CAB",
"J. c #ACACAD",
"K. c #A5A5A6",
"L. c #B6A9A5",
"P. c #BAB7AB",
"I. c #B2B2B2",
"U. c #BBBBBB",
"Y. c #B8B5B5",
"T. c #AFACBB",
"R. c #CA9491",
"E. c #EF8E8B",
"W. c #EA9696",
"Q. c #CEA09F",
"!. c #D3BF96",
"~. c #C7B8B8",
"^. c #D0B3AD",
"/. c #DFC891",
"(. c #EFCD81",
"). c #E3CE9F",
"_. c #CDC4B9",
"`. c #EFDEB3",
"'. c #9399C6",
"]. c #BCBCC2",
"[. c #B7B5C1",
"{. c #ACB1D0",
"}. c #C1BCC1",
"|. c #C4C4C4",
" X c #CCCBCB",
".X c #C9C8C8",
"XX c #D3CCC6",
"oX c #CDCDD1",
"OX c #CFD2D2",
"+X c #D4D4D4",
"@X c #DCDCDC",
"#X c #D8D5D6",
"$X c #E5DED9",
"%X c #F7C9C8",
"&X c #EDE4CC",
"*X c #E3E1DE",
"=X c #D4D6E8",
"-X c #E0DFE0",
";X c #E5E4E4",
":X c #EAEAEB",
">X c #E7E8E8",
",X c #F0EDED",
"<X c #F4F4F4",
"1X c #FDFDFD",
"2X c #F6F6F7",
"3X c #EDEEF5",
"4X c None",
/* pixels */
"4X4X4X4X4X4X4X4X4X4X4X4X4X4X4X4X4X4X4X4X4Xy.4X4X4X4X4X9.a.g.a.7.,.4X4X4X4X4X4X4X4X4X4X4X4X4X4X4X4X4X",
"4X4X4X4X4X4X4X4X4X4X4X4X4X4X4X4X4X4X4X4Xp.r.5.s.f.q.e.4.3.2.:.;.=.=.X.X.O.4X4X4X4X4X4X4X4X4X4X4X4X4X",
"4X4X4X4X4X4X4X4X4X4X4X4X4X4X4X4X4X4Xm.k./ / ,.X.;.2.2.2.>.=.$.=.=.#.#.@.+.* > 4X4X4X4X4X4X4X4X4X4X4X",
"4X4X4X4X4X4X4X4X4X4X4X4X4X4X4X4X4X4Xc.v.U _ r.#.#.=.2.3.3.2.-.=.#.+.+.+.+.+.X.> > 4X4X4X4X4X4X4X4X4X",
"4X4X4X4X4X4X4X4X4X4X4X4X4X4X4X4X4XM.n.c.p.) Y -.$.2.8.0.0.q.0.3.2.=.+.< , > : : # # 4X4X4X4X4X4X4X4X",
"4X4X4X4X4X4X4X4X4X4X4X4X4X4X4X4X4Xn.c.z.q.f.j.7.2.3.0.0.0.0.0.0.3.2.:.#.> - - 4X4X4X4X4X4X4X4X4X4X4X",
"4X4X4X4X4X4X4X4X4X4X4X4X4X4X4X4Xn.x.l.w.q.q.q.8.4.4.0.0.0.0.0.0.8.8.2.2.-.$.: 4X4X4X4X4X4X4X4X4X4X4X",
"4X4X4X4X4X4X4X4X4X4X4X4X4X4X4Xb.z.a.'.{.h.0.0.0.0.8.0.0.0.0.0.0.0.8.8.2.2.;.#.* 4X4X4X4X4X4X4X4X4X4X",
"4X4X4X4X4X4X4X4X4X4X4X4X4X4X4Xv.8.{.1X1X=Xf.0.0.0.0.9.4.4.3.3.4.3.3.8.3.3.2.:.@.* 4X4X4X4X4X4X4X4X4X",
"4X4X4X4X4X4X4X4X4X4X4X4X4X4X4Xw.s.:X1X1X2Xm.4.0.8.0.3.3.>.-.=.,.>.2.2.2.2.2.2.:.#. .4X4X4X4X4X4X4X4X",
"4X4X4X4X4X4X4X4X4X4X4X4X4X4X4X9.k.>X1X1X3Xh.4.3.4.4.3.2.O.- ; - > +.=.-.>.>.2.<.;...4X4X4X4X4X4X4X4X",
"4X4X4X4X4X4X4X4X4X4X4X4X4X4X4X;.i..X2X1X=Xd.4.3.9.3.3.2.+.; @ @ @ @ ; - : X.@.=.:.=.X.4X4X4X4X4X4X4X",
"4X4X4X4X4X4X4X4X4X4X4X4X4X4X4Xu.5 A.<X<X'.4.3.3.8.8.3.3.>.#.- - - - ; $ - - # * +.#.@.-.4X4X4X4X4X4X",
"4X4X4X4X4X4X4X4X4X4X4X4X4X4 3 K.+XP.&X`.B.t.2.3.3.2.2.2.2.>.$.: - : - ; ; 4X4X4X4X, +.@.4X4X4X4X4X4X",
"4X4X4X4X4X4X4X4X4X4X4X4X4X4XI.U.@X).(.} [ Y >.2.2.2.2.3.3.2.2.#.: : , : # 4X4X4X4X4X4X4X4X4X4X4X4X4X",
"4X4X4X4X4X4X4X4X4X4X4X4X4X.X>X>XP._ ' ' { ( *.2.2.2.2.2.2.2.2.>.$.: , O.: : 4X4X4X4X4X4X4X4X4X4X4X4X",
"4X4X4X4X4X4X4X4X4X4X4X4X@X@X#X#X_.~.S.S.' ^ $.> ;.8.<.2.2.8.<.8.:.+.> , O.% 4X4X4X4X4X4X4X4X4X4X4X4X",
"4X4X4X4X4X4X4X4X4X4X4X4X+X@X+XOXU. X+X*XB.6 4 @ @ : $.-.#.>.8.:.2.-.> > O.> > 4X4X4X4X4X4X4X4X4X4X4X",
"4X4X4X4X4X4X4X4X4X4X4X4X|..X.X|.U.Y._./.p.p.` / 5 < : : , :.7.<.2.<.+.: : > * 4X4X4X4X4X4X4X4X4X4X4X",
"4X4X4X4X4X4X4X4X4X4X4X4XU.U.U.U.I.U._.} F.f.V.} ` 5.$.O.- O.=.1.2.2.$.< 4X4X% 4X4X4X4X4X4X4X4X4X4X4X",
"4X4X4X4X4X4X4X4X4X4X4X4X4XN.N.Y.U.+XU./.&XG.F.[ ^ 7.:.:.#.: : < #.+.@.&.4X4X4X4X4X4X4X4X4X4X4X4X4X4X",
"4X4X4X4X4X4X4X4X4X4X4X4X4X4XU.>X2X>X.X*X:X+X] ^ 5.-.-.:.:.$., O.+.: o.9.4X4X4X4X4X4X4X4X4X4X4X4X4X4X",
"4X4X4X4X4X4X4X4X4X4X4X4X4X4X X X<X2X@X+X@XOXJ.6.-.@.O.+.#.=.@.=.4X4X4X9.1.4X4X4X4X4X4X4X4X4X4X4X4X4X",
"4X4X4X4X4X4X4X4X4X4X4X4X4X4XOX@X<X2X*X.X XI.N.t.=.< =.#.$.@.....4X4X4X4X4X4X4X4X4X4X4X4X4X4X4X4X4X4X",
"4X4X4X4X4X4X4X4X4X4X4X4X4X<X<X2X1X<X@X|.J.N.y.2.#.: #.2.8.;.4X4X4X4X4X4X4X4X4X4X4X4X4X4X4X4X4X4X4X4X",
"4X4X4X4X4X4X4X4X4X4X4X4X4X;X;X:X<X>X+XU.I.H.$.<.$.& O...| 4X4X4X4X4X4X4X4X4X4X4X4X4X4X4X4X4X4X4X4X4X",
"4X4X4X4X4X4X4X4X4X4X4X4X4X+X@X>X;X@X XI.[.h.0.0.@.#...4X4X4X4X4X4X4X4X4X4X4X4X4X4X4X4X4X4X4X4X4X4X4X",
"4X4X4X4X4X4X4X4X4X4X4X4X4X4X@X|. X+X_.Y.G.0.z.3., ..4X4X4X4X4X4X4X4X4X4X4X4X4X4X4X4X4X4X4X4X4X4X4X4X",
"4X4X4X4X4X4X4X4X4X4X4X4X4X4XoXOXOXU.U.4XG.l.l.@.+.4X4X4X4X4X4X4X4X4X4X4X4X4X4X4X4X4X4X4X4X4X4X4X4X4X",
"4X4X4X4X4X4X4X4X4X4X4X4X4X4X4X4X].T.4X4X4Xl.2.* 4X4X4X4X4X4X4X4X4X4X4X4X4X4X4X4X4X4X4X4X4X4X4X4X4X4X",
"4X4X4X4X4X4X4X4X4X4X4X4X4X4X4X4X4X4X4X4Xm.l.#.* 4X4X4X4X4X4X4X4X4X4X4X4X4X4X4X4X4X4X4X4X4X4X4X4X4X4X",
"4X4X4X4X4X4X4X4X4X4X4X4X4X4X4X4X4X4X4X4Xf.8.&.+.< 4X4X4X4X4X4X4X4X4X4X4X4X4X4X4X4X4X4X4X4X4X4X4X4X4X",
"4X4X4X4X4X4X4X4X4X4X4X4X4X4X4X4X4X4X4X4X3.6.t.> , 1 4X4X4X4X4X4X4X4X4X4X4X4X4X4X4X4X4X4X4X4X4X4X4X4X",
"4X4X4X4X4X4X4X4X4X4X4X4X4X4X4X4X4X4X4X4X<.@.4X4X* & r.T.U.L.4X4X4X4X4X4X4X4X4X4X4X4X4X4X4X4X4X4X4X4X",
"4X4X4X4X4X4X4X4X4X4X4X4X4X4X4X4X4X4X4X4X<.=.4X4X4Xr.@X|..XY.K K 4X4X4X4X4X4X4X4X4X4X4X4X4X4X4X4X4X4X",
"4X4X4X4X4X4X4X4X4X4X4X4X4X4X4X4X4X4X4X4X-.o.&.4X4X+X.X|.+XC.s w J H 4X4X4X4X4X4X4X4X4X4X4X4X4X4X4X4X",
"4X4X4X4X4X4X4X4X4X4X4X4X4X4X4X4X4X4X4X4X4X&.4X4X].U.|.#XD.L x x L 4X4X4X4X4X4X4X4X4X4X4X4X4X4X4X4X4X",
"4X4X4X4X4X4X4X4X4X4X4X4X4X4X4X4X4X4X4X4X4X4X[.U.N.I.U.C.d w x x L 4X4X4X4X4X4X4X4X4X4X4X4X4X4X4X4X4X",
"4X4X4X4X4X4X4X4X4X4X4X4X4X4X4X4X4X4X4X}. X+XoX].J. X].XXR.b e s d 4X4X4X4X4X4X4X4X4X4X4X4X4X4X4X4X4X",
"4X4X4X4X4X4X4X4X4X4X4X4X4X4X4X4X4X4X4X@X<X2X:X|.D.+X<X1X2X^.a d 4X4X4X4X4X4X4X4X4X4X4X4X4X4X4X4X4X4X",
"4X4X4X4X4X4X4X4X4X4X4X4X4X4X4X4X4X4X$XU.Q.Q.R.T d ! :X1X,X;XR G 4X4X4X4X4X4X4X4X4X4X4X4X4X4X4X4X4X4X",
"4X4X4X4X4X4X4X4X4X4X4X4X4X4X4X4X4X*X<X<X~.b j j e 9 ^.1X>X@X|.C.4X4X4X4X4X4X4X4X4X4X4X4X4X4X4X4X4X4X",
"4X4X4X4X4X4X4X4X4X4X4X4X4X4X4X4XW.2X1X1X1X! h e q 9 G ;X>X#XJ.4X4X4X4X4X4X4X4X4X4X4X4X4X4X4X4X4X4X4X",
"4X4X4X4X4X4X4X4X4X4X4X4X4X4XQ F m %X1X1X1XR.0 0 q 8 X T ^.U.K.4X4X4X4X4X4X4X4X4X4X4X4X4X4X4X4X4X4X4X",
"4X4X4X4X4X4X4X4X4X4X4X4X4XW n n z E.1X>XL.P t q 9 8 o y u I 4X4X4X4X4X4X4X4X4X4X4X4X4X4X4X4X4X4X4X4X",
"4X4X4X4X4X4X4X4X4X4X4X4XW n z z l E _.( Z N r q 9 7 2 i y 4X4X4X4X4X4X4X4X4X4X4X4X4X4X4X4X4X4X4X4X4X",
"4X4X4X4X4X4X4X4X4X4X4X4XM z k k h g D S C B 9 9 7 o 2 y X 4X4X4X4X4X4X4X4X4X4X4X4X4X4X4X4X4X4X4X4X4X",
"4X4X4X4X4X4X4X4X4X4X4X4Xh j w w e t V ~ ^ N     . O o   4X4X4X4X4X4X4X4X4X4X4X4X4X4X4X4X4X4X4X4X4X4X",
"4X4X4X4X4X4X4X4X4X4X4X4X4Xq q t a p C A C + . 4X4X4X4X4X4X4X4X4X4X4X4X4X4X4X4X4X4X4X4X4X4X4X4X4X4X4X",
"4X4X4X4X4X4X4X4X4X4X4X4X4X4X4X4X4X4X4X4X4X4X4X4X4X4X4X4X4X4X4X4X4X4X4X4X4X4X4X4X4X4X4X4X4X4X4X4X4X4X"
};
