/* XPM */
static char *result[] = {
/* columns rows colors chars-per-pixel */
"50 50 206 2 ",
"   c #740807",
".  c #6C1815",
"X  c #7F1819",
"o  c #7A3A1A",
"O  c #692F16",
"+  c #753433",
"@  c #754616",
"#  c #7C5E1C",
"$  c #725419",
"%  c #765921",
"&  c #725A37",
"*  c #1C245F",
"=  c #0E1766",
"-  c #171E66",
";  c #121C72",
":  c #1F2662",
">  c #19236A",
",  c #1E297B",
"<  c #1A2478",
"1  c #222B6E",
"2  c #202767",
"3  c #27306F",
"4  c #232C73",
"5  c #242E7A",
"6  c #273174",
"7  c #26307C",
"8  c #29337F",
"9  c #353E7B",
"0  c #363C77",
"q  c #5E4748",
"w  c #645F6B",
"e  c #766663",
"r  c #757074",
"t  c #831414",
"y  c #861C1B",
"u  c #8C1414",
"i  c #951515",
"p  c #9B1513",
"a  c #9D1C1A",
"s  c #9A1816",
"d  c #950D0A",
"f  c #A31614",
"g  c #AD1716",
"h  c #A31917",
"j  c #AB1918",
"k  c #A31A18",
"l  c #B21B19",
"z  c #BB1C19",
"x  c #9F201C",
"c  c #8A221F",
"v  c #8C2927",
"b  c #92312F",
"n  c #973632",
"m  c #9D2824",
"M  c #A52927",
"N  c #B32E2B",
"B  c #A2312E",
"V  c #A33937",
"C  c #B13933",
"Z  c #C41A19",
"A  c #C51717",
"S  c #D61B1C",
"D  c #E41618",
"F  c #C72825",
"G  c #D5302E",
"H  c #80611A",
"J  c #94403E",
"K  c #A1413D",
"L  c #806837",
"P  c #C6443F",
"I  c #94514F",
"U  c #B24845",
"Y  c #AE534C",
"T  c #8F6553",
"R  c #896B6A",
"E  c #936060",
"W  c #867C79",
"Q  c #AD7672",
"!  c #BB7B79",
"~  c #CF5552",
"^  c #E84946",
"/  c #E25A56",
"(  c #CD726D",
")  c #E76A67",
"_  c #8F887E",
"`  c #AB9563",
"'  c #A69478",
"]  c #B69E69",
"[  c #BDA576",
"{  c #DB807C",
"}  c #D0B26E",
"|  c #D5B976",
" . c #C7AD6E",
".. c #ECCA7C",
"X. c #0F1D82",
"o. c #1E2A83",
"O. c #1A2683",
"+. c #232E82",
"@. c #222E8C",
"#. c #263183",
"$. c #293485",
"%. c #27328B",
"&. c #29358C",
"*. c #2E398A",
"=. c #323B84",
"-. c #313D89",
";. c #2A3692",
":. c #2C3995",
">. c #2A379B",
",. c #2D3A9B",
"<. c #263395",
"1. c #303D9C",
"2. c #313C91",
"3. c #2E3CA2",
"4. c #313EA5",
"5. c #313FAA",
"6. c #3A4492",
"7. c #34409B",
"8. c #364191",
"9. c #39438D",
"0. c #3341A7",
"q. c #3441AD",
"w. c #3C48A8",
"e. c #3543B3",
"r. c #3B49B1",
"t. c #3645B9",
"y. c #3847BC",
"u. c #3A49BE",
"i. c #444B97",
"p. c #535993",
"a. c #484E8C",
"s. c #626391",
"d. c #64628A",
"f. c #444EA7",
"g. c #414CAB",
"h. c #4955AB",
"j. c #4852A8",
"k. c #575FA9",
"l. c #424EB9",
"z. c #4C59B4",
"x. c #4856B9",
"c. c #515DB5",
"v. c #5762B7",
"b. c #666BAD",
"n. c #3A49C3",
"m. c #3949C8",
"M. c #414EC0",
"N. c #4051D4",
"B. c #5360C6",
"V. c #6671C1",
"C. c #817B87",
"Z. c #8C868C",
"A. c #958C85",
"S. c #958888",
"D. c #969185",
"F. c #888597",
"G. c #948C96",
"H. c #9B9797",
"J. c #A79A98",
"K. c #B19D82",
"L. c #BEAB84",
"P. c #B1AB9C",
"I. c #9598B7",
"U. c #888EB7",
"Y. c #A6A4A4",
"T. c #ADAAAC",
"R. c #A9A4A6",
"E. c #B3B4B4",
"W. c #BBB4B4",
"Q. c #BDBCBC",
"!. c #B6B3BA",
"~. c #A7A9B6",
"^. c #C69492",
"/. c #C0AF8D",
"(. c #CBBC9B",
"). c #C4B6B5",
"_. c #D3B5B3",
"`. c #DEC786",
"'. c #E8CD85",
"]. c #F0D084",
"[. c #EBD28C",
"{. c #C0C0BF",
"}. c #D8C9A8",
"|. c #BEBEC0",
" X c #B8BCD9",
".X c #BFC0C1",
"XX c #C4C4C4",
"oX c #CBCBCC",
"OX c #D6CAC9",
"+X c #D0CED0",
"@X c #D3D4D4",
"#X c #DCDCDC",
"$X c #D9D8D5",
"%X c #CACCD4",
"&X c #E6D9D9",
"*X c #EED2D0",
"=X c #E1E0DF",
"-X c #DFDFE1",
";X c #DFE2E2",
":X c #E4E5E5",
">X c #EBEBEB",
",X c #E8E8E7",
"<X c #EFF2F1",
"1X c #F4F4F4",
"2X c #FCFCFC",
"3X c None",
/* pixels */
"3X3X3X3X3X3X3X3X3X3X3X3X3X3X3X3X3X3X3Xk.3X3X3X3X3X3X3Xl.x.c.v.v.h.w.3X3X3X3X3X3X3X3X3X3X3X3X3X3X3X3X",
"3X3X3X3X3X3X3X3X3X3X3X3X3X3X3X3X3X3Xs.p.*.i.3Xx.x.n.u.t.e.q.5.4.3.3.,.:.*.:.3X3X3X3X3X3X3X3X3X3X3X3X",
"3X3X3X3X3X3X3X3X3X3X3X3X3X3X3X3X3X3Xd._ 1.;.:.4.q.q.e.e.5.3.,.3.3.,.,.,.>.;.:.%.*.3X3X3X3X3X3X3X3X3X",
"3X3X3X3X3X3X3X3X3X3X3X3X3X3X3X3X3X3XZ.] p.,.:.,.q.t.e.e.q.0.,.,.:.:.:.>.>.:.:.<.&.#.3X3X3X3X3X3X3X3X",
"3X3X3X3X3X3X3X3X3X3X3X3X3X3X3X3X3Xb.B.S.C.4.4.5.t.n.n.m.n.y.t.e.3.>.$.$.&.$.&.#.#.+.; 3X3X3X3X3X3X3X",
"3X3X3X3X3X3X3X3X3X3X3X3X3X3X3X3XB.N.m.l.k.w.5.e.t.t.n.n.n.y.t.t.q.0.3.&.#.4 3 - > 3X3X3X3X3X3X3X3X3X",
"3X3X3X3X3X3X3X3X3X3X3X3X3X3X3X3Xm.m.m.n.m.t.e.t.t.y.t.t.t.t.t.t.e.q.q.3.;.7 6 3X3X3X3X3X3X3X3X3X3X3X",
"3X3X3X3X3X3X3X3X3X3X3X3X3X3X3XM.q.z.x.u.t.t.t.t.t.t.t.t.t.t.t.t.t.t.t.q.0.:.+.3X3X3X3X3X3X3X3X3X3X3X",
"3X3X3X3X3X3X3X3X3X3X3X3X3X3X3X0.3X3X3Xx.t.t.t.t.t.t.t.e.e.e.e.t.t.e.t.e.q.0.>.O.3X3X3X3X3X3X3X3X3X3X",
"3X3X3X3X3X3X3X3X3X3X3X3X3X3Xc.w.3X3X3XV.e.e.e.t.e.e.4.1.,.:.4.4.q.q.q.e.q.e.q.>.O.3X3X3X3X3X3X3X3X3X",
"3X3X3X3X3X3X3X3X3X3X3X3X3X3Xc.h.3X3X3XV.5.t.e.e.e.q.:.7 4 1 7 $.:.,.3.0.5.q.e.q.>.o.3X3X3X3X3X3X3X3X",
"3X3X3X3X3X3X3X3X3X3X3X3X3X3Xj.6.3X3X3Xc.5.e.e.e.e.q.,.1 * : : : : 4 5 $.:.,.3.0.5.:.&.3X3X3X3X3X3X3X",
"3X3X3X3X3X3X3X3X3X3X3X3X3X3X3X9 3X3X3Xl.e.q.q.e.q.e.0.,.5 4 3 4 1 2 2 2 4 4 #.&.3.4.;.3X3X3X3X3X3X3X",
"3X3X3X3X3X3X3X3X3X3X3X3X3Xw G.Y.Z.J.J.j.q.5.e.5.q.q.e.0.,.$.4 6 8 #.6 1 1 4 4 9.$.*.,.1.3X3X3X3X3X3X",
"3X3X3X3X3X3X3X3X3X3X3X3X3Xr A.`.'.]...[ w.e.w.q.q.q.q.e.q.,.$.4 #.$.$.#.4 0 6 5 3X3X3X3X3X3X3X3X3X3X",
"3X3X3X3X3X3X3X3X3X3X3X3X3X3X$X(. .} | [ g.e.5.q.q.q.q.e.e.0.,.#.5 &.$.&.+.4 3X3X3X3X3X3X3X3X3X3X3X3X",
"3X3X3X3X3X3X3X3X3X3X3X3X=X>X>X=X(.` ] ] f.q.e.q.q.q.q.q.e.e.0.,.7 #.&.;.;.#.5 3X3X3X3X3X3X3X3X3X3X3X",
"3X3X3X3X3X3X3X3X3X3X:X1X,X>X2X:X%X$XL.W q.e.q.q.q.0.,.q.q.q.q.0.;.5 $.&.&.;., 3X3X3X3X3X3X3X3X3X3X3X",
"3X3X3X3X3X3X3X3X3X3X1X2X2X2X2X>X@X-X}.d.f.q.0.0.0.&.3.y.e.e.e.q.,.5 6 5 #.&.%.#.3X3X3X3X3X3X3X3X3X3X",
"3X3X3X3X3X3X3X3X3X@X<X2X2X2X1X<X|.D.L.G.F.0.0.0.:.q.n.y.0.0.q.q.4.+.3X3X< < &.o.3X3X3X3X3X3X3X3X3X3X",
"3X3X3X3X3X3X3X3X3X:X1X2X2X1X:X+XJ. .'.[.| 6.0.$.0.m.y.0.;.0.e.q.4.@.3X3X3X3X3X5 3X3X3X3X3X3X3X3X3X3X",
"3X3X3X3X3X3X3X3XXXXX2X2X1X,X+XE._ ` } | ' w.,.%.t.n.5.$.,.e.e.t.3.&.*.3X3X3X3X3X3X3X3X3X3X3X3X3X3X3X",
"3X3X3X3X3X3X3X3X3XoX:X:X#XoXQ.R.Z.e P.[ d.0.:.,.n.4.7 $.q.e.y.3.,.%.:.7.%.3X3X3X3X3X3X3X3X3X3X3X3X3X",
"3X3X3X3X3X3X3X3X3XE.XX#X#XoX@X@XQ.T.|.}.D.7.&.0.h.U.I.w.q.t.q.>.%.4 5 , < 3X3X3X3X3X3X3X3X3X3X3X3X3X",
"3X3X3X3X3X3X3X3X3X3X3X@X@XXX@X#X#X@XE.P.' 2.&.&.9.%X Xr.e.e.:.;.4 : = 3X3X3X3X3X3X3X3X3X3X3X3X3X3X3X",
"3X3X3X3X3X3X3X3X3X3X3XoXoX@X#X#XoXE.T.3XD.=.;.#.1 p.z.q.e.,.&.5 - = 3X3X3X3X3X3X3X3X3X3X3X3X3X3X3X3X",
"3X3X3X3X3X3X3X3X3X3X3X3X,X:X@XXX|.3X3X3Xb.=.,.:.9 6.0.t.3.;.+.= 3X3X3X3X3X3X3X3X3X3X3X3X3X3X3X3X3X3X",
"3X3X3X3X3X3X3X3X3X3X3X3X3XoXoX3X3X3X3X3Xr.$.*.3.i.3Xq.3.%.O.; 3X3X3X3X3X3X3X3X3X3X3X3X3X3X3X3X3X3X3X",
"3X3X3X3X3X3X3X3X3X3X3X3X3X3X3X3X3X3X3Xr.%.5 9.r.1.3X3Xo.X.3X3X3X3X3X3X3X3X3X3X3X3X3X3X3X3X3X3X3X3X3X",
"3X3X3X3X3X3X3X3X3X3X3X3X3X3X3X3X3X3Xx.,., 3X3Xg.3.3X3X3X3X3X3X3X3X3X3X3X3X3X3X3X3X3X3X3X3X3X3X3X3X3X",
"3X3X3X3X3X3X3X3X3X3X3X3X3X3X3X3X3X3Xr.o.3X3X3Xg.3.<.3X3X3X3X3X3X3X3X3X3X3X3X3X3X3X3X3X3X3X3X3X3X3X3X",
"3X3X3X3X3X3X3X3X3X3X3X3X3X3X3X3X3Xr.:.3X3X3X3X3X5.1.3X3X3X3X3X3X3X3X3X3X3X3X3X3X3X3X3X3X3X3X3X3X3X3X",
"3X3X3X3X3X3X3X3X3X3X3X3X3X3X3X3Xf.>.*.3X3X3X3X3X3.0.3.3X3X3X3X3X3X3X3X3X3X3X3X3X3X3X3X3X3X3X3X3X3X3X",
"3X3X3X3X3X3X3X3X3X3X3X3X3X3X3X3Xj.<.7 3X3X3X3X3X3X<.>.,.2.3X3XT.J.3X3X3X3X3X3X3X3X3X3X3X3X3X3X3X3X3X",
"3X3X3X3X3X3X3X3X3X3X3X3X3X3X3X3Xj.%.8 3X3X3X3X3X3X3X%.&.#.I.@XXX).Y C n 3X3X3X3X3X3X3X3X3X3X3X3X3X3X",
"3X3X3X3X3X3X3X3X3X3X3X3X3X3X3X3X9.#.9 3X3X3X3X3X3X3X3X=.p.:XXX$X).G A j v . 3X3X3X3X3X3X3X3X3X3X3X3X",
"3X3X3X3X3X3X3X3X3X3X3X3X3X3X3X3XU.I.~.F.3X3X3X3X3X3X3X3X3XXXXX#X^.S z j i   3X3X3X3X3X3X3X3X3X3X3X3X",
"3X3X3X3X3X3X3X3X3X3X3X3X3X3X!.oX#XoXE.H.3X3X3X3X3X3X3X3XT.T.@X).~ Z l h s X 3X3X3X3X3X3X3X3X3X3X3X3X",
"3X3X3X3X3X3X3X3X3X3X3X3X3X3X+X>X>X@XQ.Y.3X3X3X3X3X3X3X3XY.E.Y.U z z g k s t 3X3X3X3X3X3X3X3X3X3X3X3X",
"3X3X3X3X3X3X3X3X3X3X3X3X3X@XE.J.W.).E.H.3X3X3X3X3X3X3X3X3XW.Q._.Y M s i u X . 3X3X3X3X3X3X3X3X3X3X3X",
"3X3X3X3X3X3X3X3X3X3X3X3X*X2X2X&XQ n n b I 3X3X3X3X3X3X3X3X3X#X<X&X_.T @ o o O 3X3X3X3X3X3X3X3X3X3X3X",
"3X3X3X3X3X3X3X3X3X3X) / *X2X2X2X*XN j i c 3X3X3X3X3X3X3X3X3X#X,X,X=X_ # # # $ 3X3X3X3X3X3X3X3X3X3X3X",
"3X3X3X3X3X3X3X3X/ ^ D ) 2X2X2X2XOXN k i y + 3X3X3X3X3X3X3X3X#X;X;X;X{.L $ & # 3X3X3X3X3X3X3X3X3X3X3X",
"3X3X3X3X3X3X3X~ G D S ( 2X1X<X>X! s p p n + 3X3X3X3X3X3X3X3X3X! (._.oX' # % 3X3X3X3X3X3X3X3X3X3X3X3X",
"3X3X3X3X3X3X3XF Z Z A ( >X:X:XOXV h M K R q 3X3X3X3X3X3X3X3X3Xk l N U Y v O 3X3X3X3X3X3X3X3X3X3X3X3X",
"3X3X3X3X3X3X3X3Xm B V Q Q.XX).J.E E R R e 3X3X3X3X3X3X3X3X3X3Xx j l g p t . 3X3X3X3X3X3X3X3X3X3X3X3X",
"3X3X3X3X3X3X3X3X3X3X3X3XJ.T.Y.3X3X3X3X3X3X3X3X3X3X3X3X3X3X3X3Xk f l f i X 3X3X3X3X3X3X3X3X3X3X3X3X3X",
"3X3X3X3X3X3X3X3X3X3X3X3X3X3X3X3X3X3X3X3X3X3X3X3X3X3X3X3X3X3X3X3Xp g f u   3X3X3X3X3X3X3X3X3X3X3X3X3X",
"3X3X3X3X3X3X3X3X3X3X3X3X3X3X3X3X3X3X3X3X3X3X3X3X3X3X3X3X3X3X3X3X3Xd i   3X3X3X3X3X3X3X3X3X3X3X3X3X3X",
"3X3X3X3X3X3X3X3X3X3X3X3X3X3X3X3X3X3X3X3X3X3X3X3X3X3X3X3X3X3X3X3X3X3Xt 3X3X3X3X3X3X3X3X3X3X3X3X3X3X3X"
};
