/* XPM */
static char *result[] = {
/* columns rows colors chars-per-pixel */
"50 50 156 2 ",
"   c #6C2146",
".  c #364451",
"X  c #474F5B",
"o  c #535A63",
"O  c #5A6168",
"+  c #696D71",
"@  c #90234F",
"#  c #98234E",
"$  c #D91F55",
"%  c #DD1F56",
"&  c #DE1F56",
"*  c #DE2056",
"=  c #DF2057",
"-  c #E02057",
";  c #E12057",
":  c #E22057",
">  c #E12058",
",  c #E22058",
"<  c #E32058",
"1  c #E22158",
"2  c #E0215A",
"3  c #E42058",
"4  c #E42059",
"5  c #E52059",
"6  c #E52159",
"7  c #E6215A",
"8  c #E7215A",
"9  c #E5225A",
"0  c #E7225A",
"q  c #E8225B",
"w  c #E9225B",
"e  c #E9235B",
"r  c #EA225B",
"t  c #EC205B",
"y  c #ED205B",
"u  c #EA225C",
"i  c #EA235C",
"p  c #EB235C",
"a  c #EB235D",
"s  c #ED215C",
"d  c #EE205C",
"f  c #EC235D",
"g  c #EA255D",
"h  c #EB255E",
"j  c #EC245D",
"k  c #ED245D",
"l  c #ED245E",
"z  c #EC255E",
"x  c #ED255E",
"c  c #EE245E",
"v  c #EF245E",
"b  c #EE255E",
"n  c #EF255E",
"m  c #EE255F",
"M  c #EF255F",
"N  c #EF265F",
"B  c #F0205C",
"V  c #F0205D",
"C  c #F0215D",
"Z  c #F1215D",
"A  c #F1225D",
"S  c #F3205E",
"D  c #F0225E",
"F  c #F1225E",
"G  c #F1235E",
"H  c #F1235F",
"J  c #F2225E",
"K  c #F2235F",
"L  c #F7215E",
"P  c #F1245F",
"I  c #F0255F",
"U  c #F1255F",
"Y  c #F2245F",
"T  c #F2255F",
"R  c #F0265F",
"E  c #F1265F",
"W  c #F12560",
"Q  c #F22560",
"!  c #F12660",
"~  c #F22660",
"^  c #F32660",
"/  c #F22761",
"(  c #F42660",
")  c #F42661",
"_  c #7E807F",
"`  c #828683",
"'  c #8F8F8B",
"]  c #999891",
"[  c #9C9B93",
"{  c #9FA197",
"}  c #ABA89D",
"|  c #AEACA0",
" . c #B1ADA1",
".. c #B5B1A3",
"X. c #B3B2A4",
"o. c #C1BCAC",
"O. c #C9C3B2",
"+. c #CAC8B4",
"@. c #D2CBB8",
"#. c #D4CCB8",
"$. c #DDD3BB",
"%. c #DDD5BF",
"&. c #E0D7C1",
"*. c #E4DAC1",
"=. c #E5DBC1",
"-. c #E4DBC3",
";. c #E7DDC5",
":. c #E9DFC7",
">. c #EBE1C8",
",. c #ECE2C9",
"<. c #EEE3C9",
"1. c #EBE5CA",
"2. c #EFE4C9",
"3. c #EFE4CA",
"4. c #F0E5CA",
"5. c #F0E5CB",
"6. c #F0E6CB",
"7. c #F1E7CC",
"8. c #F2E7CC",
"9. c #F2E7CD",
"0. c #F2E8CD",
"q. c #F3E8CD",
"w. c #F2E8CE",
"e. c #F3E8CE",
"r. c #F3E9CE",
"t. c #F3EBCF",
"y. c #F4E9CD",
"u. c #F4E9CE",
"i. c #F4E9CF",
"p. c #F5EACE",
"a. c #F4EACF",
"s. c #F5EACF",
"d. c #F4EBCF",
"f. c #F5EBCF",
"g. c #F6EBCF",
"h. c #F7EBCF",
"j. c #F2ECCF",
"k. c #F4EAD0",
"l. c #F5EAD0",
"z. c #F4EBD0",
"x. c #F5EBD0",
"c. c #F5EBD1",
"v. c #F3ECD0",
"b. c #F4ECD0",
"n. c #F5ECD0",
"m. c #F5ECD1",
"M. c #F4EDD1",
"N. c #F7ECD0",
"B. c #F4EED1",
"V. c #F4EED2",
"C. c #F4EFD2",
"Z. c #F5EFD2",
"A. c #F4F0D3",
"S. c #F4F3D5",
"D. c #F8F2D5",
"F. c None",
/* pixels */
"F.F.F.F.F.F.F.F.F.F.F.F.F.F.F.F.F.F.F.F.F.F.F.F.F.F.F.F.F.F.F.F.F.F.F.F.F.F.F.F.F.F.F.F.F.F.F.F.F.F.",
"F.F.F.F.F.F.F.F.F.F.F.F.F.F.F.F.F.F.F.F.F.F.F.F.F.F.F.F.F.F.F.F.F.F.F.F.F.F.F.F.F.F.F.F.F.F.F.F.F.F.",
"F.F.F.F.F.F.F.F.F.F.F.F.F.F.F.F.F.F.F.F.F.F.F.F.F.F.F.F.< F.F.F.F.F.F.F.F.F.F.F.F.F.F.F.F.F.F.F.F.F.",
"F.F.F.F.F.F.F.F.F.F.F.F.F.F.F.F.F.F.F.F.F.F.F.F.F.F.F.F.4 3 F.F.F.F.F.F.F.F.F.F.F.F.F.F.F.F.F.F.F.F.",
"F.F.F.F.F.F.F.F.F.F.F.F.F.F.F.F.F.F.F.F.F.F.F.F.F.F.F.F.F.< < F.F.F.F.F.F.F.F.F.F.F.F.F.F.F.F.F.F.F.",
"F.F.F.F.F.F.F.F.F.F.F.F.F.F.< F.F.F.F.F.F.F.F.F.F.F.F.F.F.< < < F.F.F.F.F.F.F.F.F.F.F.F.F.F.F.F.F.F.",
"F.F.F.F.F.F.F.F.F.F.F.F.F.< < F.F.F.F.F.F.< F.F.F.F.F.F.F.; < < F.F.F.F.F.F.F.F.F.F.F.F.F.F.F.F.F.F.",
"F.F.F.F.F.F.F.F.F.F.F.F.F.< < 3 F.F.F.F.F.< < F.F.F.F.F.F.< < < < F.F.F.F.F., F.F.F.F.F.F.F.F.F.F.F.",
"F.F.F.F.F.F.F.F.F.F.F.F.F.< < < F.F.F.F.F.< < < F.F.F.F.F.< < < < F.F.F.< < < F.F.F.F.F.F.F.F.F.F.F.",
"F.F.F.F.F.F.F.F.F.F.F.F.F.< < < < < , < < , , < F.F.F.F.3 < < < < F.F.< < < F.F.F.F.F.F.F.F.F.F.F.F.",
"F.F.F.F.F.F.F.F.F.F.F.F.F.< < < < < < < < < < < 4 F.F.< < 3 p 0 < , < < < 4 F.F.F.F.F.F.F.F.F.F.F.F.",
"F.F.F.F.F.F.F.F.F.F.F.F.F.5 < 3 q 7 6 6 q i < < < < < < 3 e m c 3 < < 3 4 F.F.F.F.F.F.F.F.F.F.F.F.F.",
"F.F.F.F.F.F.< , F.F.F.F.F.F.3 < p W I I ~ I 7 < , < < 7 k R m U 7 < 7 f 7 F.F.F.F.F.F.F.F.F.F.F.F.F.",
"F.F.F.F.F.F.F.< < < < F.F.F.F., 8 ! ~ ~ ~ ~ M i q r k U ~ ~ ~ ~ q 8 I k 3 F.F.F.F.F.F.F.F.F.F.F.F.F.",
"F.F.F.F.F.F.F.F.3 < < < ; F.3 < 6 I ~ ~ ~ ~ ~ ~ ~ ~ ~ ~ ~ ~ ~ ~ f n ! q < F.F.F.F.F.F.F.F.F.F.F.F.F.",
"F.F.F.F.F.F.F.F.F.4 < < < < < < 6 I ~ ~ ~ ~ ~ ~ ~ ~ ~ ~ ! ! ~ ~ ! ! c 4 3 F.F.F.F.F.3 F.F.F.F.F.F.F.",
"F.F.F.F.F.F.F.F.F.F.< , < < < < w ~ ~ ~ ~ ~ ~ ~ ~ ^ ) ~ E x M ! ! ! l < < 4 F.F.F.; = F.F.F.F.F.F.F.",
"F.F.F.F.F.F.F.F.F.F., , , < 4 q I ~ ~ ~ ~ Y A G F.F.@ F.F.C U ~ ~ ~ M 6 < < < , < < < F.F.F.F.F.F.F.",
"F.F.F.F.F.F.F.F.F.F.< < < q n ! ~ ~ ~ Y F.F.F.M.+.. { j.F.F.F.F.Y ~ ~ c 8 3 < < 4 ; * F.F.F.F.F.F.F.",
"F.F.F.F.F.< F.F.F.F.3 < < q ~ ~ ~ ~ F.F.B.t.u.u.%.+ ] ,.u.u.z.Z.F.F.Q ~ ! M c c f - F.F.F.F.F.F.F.F.",
"F.F.F.F.4 , > F.F.3 < < < u ~ ~ Q F.F.d.u.u.u.u.g.;.o ' g.u.u.u.d.F.F.Q ~ ~ ~ ~ f - F.F.3 , F.F.F.F.",
"F.F.F.F.4 < < ; - < < < 4 v ~ Q F.F.r.u.u.u.u.8.7.[ O O.s.u.u.u.u.u.F.F.~ ~ ~ ~ p < < , < F.F.F.F.F.",
"F.F.F.F.F.3 < * < < < 6 f ~ ~ F.F.u.u.u.u.u.u.s.&._ @.N.u.u.u.u.u.u.a.F.F.~ ~ ~ f < < < , F.F.F.F.F.",
"F.F.F.F.F.F.< < 4 0 i n ~ ~ K F.d.u.u.u.u.u.u.u.q.8.s.u.u.u.q.q.u.u.u.a.F.Y ~ ~ U w 6 3 ; F.F.F.F.F.",
"F.F.F.F.F.F.< < 4 v ~ ~ ~ ~ F.A.u.u.u.u.u.u.u.u.q.u.u.u.u.u.u.u.u.u.u.u.Z.F.~ ~ ~ ~ U w < F.F.F.F.F.",
"F.F.F.F.F.F.F.< < f ~ ~ ~ Y F.z.u.u.u.u.i.q.u.q.9.u.u.u.u.a.r.i.a.u.u.u.d.F.P ~ ~ ~ ~ v 4 4 F.F.F.F.",
"F.F.F.F.F.F.< < < k ~ ~ ~ J F.u.u.u.s.F.F.F.F.F.a.u.u.u.c.F.F.F.F.c.u.u.a.F.F ~ ~ ~ ~ ~ q < F.F.F.F.",
"F.F.F.F.F.F.< < 6 I ~ ~ ~ S F.u.u.a.F.F.F.F.F.F.F.a.u.c.F.F.F.F.F.F.x.u.u.F.d ~ ! ~ ~ ~ c 3 < F.F.F.",
"F.F.F.F.F.4 < < p ~ ~ ~ ~ B F.u.u.x.F.F.F.F.F.F.F.l.u.F.F.F.F.F.F.F.F.u.u.F.y z m ~ ~ ~ I 6 < F.F.F.",
"F.F.F.F.F.< < 6 I ~ ~ ~ ~ V F.u.u.l.F.F.F.F.F.F.F.l.r.F.F.F.F.F.F.F.F.u.u.F.t m ! ~ ~ ~ R q < , F.F.",
"F.F.F.F.F.< < q ~ ~ ~ ~ ~ F.F.u.u.s.F.F.F.F.F.F.F.a.u.m.F.F.F.F.F.F.x.u.u.F.F.~ ~ ~ ~ ~ ~ p < : F.F.",
"F.F.F.F.F.< < u ~ ~ ! ! F.F.a.u.u.u.x.F.F.F.F.F.l.u.8.r.F.F.F.F.F.F.a.u.u.s.F.F.~ ~ ~ ~ ~ j < ; F.F.",
"F.F.F.F.F.< < w ~ ~ h 9 F.a.u.u.u.u.u.a.a.i.a.i.u.u.4.8.u.k.i.i.l.u.u.u.u.u.z.F.U ~ ~ ~ ~ k < < F.F.",
"F.F.F.F.F.< < w ~ ~ b s F.q.u.u.u.u.u.u.u.u.u.q.u.l.k.0.u.u.u.u.u.u.u.u.u.u.u.F.Z ~ ~ ~ ~ k < , F.F.",
"F.F.F.F.F.< , 7 ! ~ ~ D F.u.u.u.u.u.u.u.u.0.$.*.x.F.F.F.u.u.u.u.u.u.u.u.u.u.u.F.J ~ ~ ~ ~ p < F.F.F.",
"F.F.F.F.F.< , 4 I ~ ~ Q F.M.u.u.u.q.2.9.u.3.=.>.F.F.F.F.w.u.u.u.u.5.8.u.u.u.b.F.T ~ ~ ~ ~ q ; F.F.F.",
"F.F.F.F.F.3 < < j ~ ~ ~ G F.b.u.u.u.y.g.p.u.q.6.F.x.x.F.x.u.u.u.g.h.N.N.u.n.F.K ~ ~ ~ ~ I 6 , F.F.F.",
"F.F.F.F.F.F.< < 8 ! ~ ~ ~ G F.F.C.1... .:.p.u.8.<.u.u.u.u.u.u.s.#.} | X.F.F.H ~ ~ ~ ~ ~ p < F.F.F.F.",
"F.F.F.F.F.F.< < 3 l ~ ! ! ~ Y V F.F.F.` -.s.u.q.7.q.8.q.u.u.u.s.o.X   # 2 P R ! ~ ~ ~ I 6 3 F.F.F.F.",
"F.F.F.F.F.F.F.< < 8 U ~ ~ ~ ~ ~ ! U F.D.p.u.i.u.u.u.u.u.u.u.i.u.f.F.L ( ~ ~ ~ ! ~ ~ ! q < F.F.F.F.F.",
"F.F.F.F.F.F.F.F.; , i ~ ~ ~ ~ ~ ~ E F.v.u.F.F.a.u.F.F.i.e.F.F.u.q.F.J ~ ~ ~ ~ ~ ~ ~ i < F.F.F.F.F.F.",
"F.F.F.F.F.F.F.F.F.$ 3 a ~ M g ~ ~ R F.S.d.F.F.V.b.F.F.F.b.F.F.V.b.F.P ~ ~ ~ ~ ~ ! u 3 F.F.F.F.F.F.F.",
"F.F.F.F.F.F.F.F.F.F.< 3 p m N ~ ~ ~ Q F.F.F.Q F.F.F.Q F.F./ ~ F.F.F.! ! ~ ~ ~ I q 3 F.F.F.F.F.F.F.F.",
"F.F.F.F.F.F.F.F.F.F.F.3 < w I ~ ~ ~ ~ T Y ~ ~ Q P ~ ~ I I ~ ~ U U ~ ~ ~ ~ ~ k 7 < F.F.F.F.F.F.F.F.F.",
"F.F.F.F.F.F.F.F.F.F.F.F.< < 6 f U R ~ ~ ~ ~ ~ ~ ~ ~ ~ ~ ~ ~ ~ ~ ~ ~ ~ ~ v q 3 3 F.F.F.F.F.F.F.F.F.F.",
"F.F.F.F.F.F.F.F.F.F.F.F.F.F.< < 6 e M ! ~ ~ ~ ~ ~ ~ ~ ~ ~ ~ ~ ~ ~ I k q 4 < F.F.F.F.F.F.F.F.F.F.F.F.",
"F.F.F.F.F.F.F.F.F.F.F.F.F.F.F.F.< , < 8 i k n I U ! ! U I I c f q 6 < < < F.F.F.F.F.F.F.F.F.F.F.F.F.",
"F.F.F.F.F.F.F.F.F.F.F.F.F.F.F.F.F.F.% < , < 4 < 1 7 7 7 6 4 3 < , < F.F.F.F.F.F.F.F.F.F.F.F.F.F.F.F.",
"F.F.F.F.F.F.F.F.F.F.F.F.F.F.F.F.F.F.F.F.F.F.F.= ; , & < < , F.F.F.F.F.F.F.F.F.F.F.F.F.F.F.F.F.F.F.F.",
"F.F.F.F.F.F.F.F.F.F.F.F.F.F.F.F.F.F.F.F.F.F.F.F.F.F.F.F.F.F.F.F.F.F.F.F.F.F.F.F.F.F.F.F.F.F.F.F.F.F."
};
