/* XPM */
static char *result[] = {
/* columns rows colors chars-per-pixel */
"50 50 79 1 ",
"  c #2B1B0F",
". c #341D0D",
"X c #241B16",
"o c #2A1E14",
"O c #331F11",
"+ c #39200E",
"@ c #2E2116",
"# c #26201C",
"$ c #2C231C",
"% c #342114",
"& c #3C2412",
"* c #32251B",
"= c #392619",
"- c #36281D",
"; c #3D291B",
": c #2C2622",
"> c #2D2C2B",
", c #312720",
"< c #342B24",
"1 c #3B2D24",
"2 c #322E2A",
"3 c #2F2F30",
"4 c #323232",
"5 c #432612",
"6 c #462914",
"7 c #4C2B15",
"8 c #432C1B",
"9 c #4C2E19",
"0 c #522E16",
"q c #522F18",
"w c #4D321C",
"e c #553017",
"r c #593217",
"t c #54321A",
"y c #5C341A",
"u c #5D391E",
"i c #62371A",
"p c #65391B",
"a c #6A3C1D",
"s c #463423",
"d c #4E3623",
"f c #483629",
"g c #543621",
"h c #5D3B21",
"j c #573C28",
"k c #653D21",
"l c #6A3F21",
"z c #6E401F",
"x c #5A4028",
"c c #654025",
"v c #6D4223",
"b c #664128",
"n c #684829",
"m c #734423",
"M c #794725",
"N c #764826",
"B c #7B4926",
"V c #744728",
"C c #754A29",
"Z c #7C4C29",
"A c #7E522D",
"S c #824E2A",
"D c #85522C",
"F c #8A542E",
"G c #85582E",
"H c #8C592F",
"J c #855730",
"K c #8C5630",
"L c #865930",
"P c #8E5931",
"I c #935C33",
"U c #985F35",
"Y c #966235",
"T c #9A6336",
"R c #9E6738",
"E c #9F6938",
"W c #A36C3A",
"Q c #A7703C",
"! c #A9723D",
/* pixels */
"d1@AGZAAn8nLPJFk2jTIPPFkootVC9&tk#XodVKPPLctvvxus>",
"PPwGYzMPZATUIKSKsJWZSFPItkTQWNvSBOdJPPTIGAHPVuZIG9",
"ZZyZWITHCUSSJlalCIDapaFWJkSWRIDyiFUFlBPIIDmMDmypp&",
"80eDYTUHmMalapplFmppaaW!UlyFPKkrDUIFBKIIEQTZmHV0et",
"8&raBFDmyqpyrr0uFBSSaSQ!RB0pli0aFFFUIISMBITIPDy.0u",
"HDeppaapi5rlZSSmBIIIIIUUIP65q&0aSKSaSmamazBSzi7aGh",
"UIpeapppi6ZIWQIKkSIPDSaamm&NRB50alKlilFKzpppr5aDEY",
"PHSarppi5hIUQ!UIkymlapi07. MQSir75papBIMapyrw7ppNP",
"kIITkt6uyvIIWTPIm050r76Vu9tvTTDFZp77iaMiq6APQAeppz",
"8ZIWUmwIZmPIFMzzi0rkucIRkMBSFUIFNptvp7tvutYMIP&7y&",
"ramDFDvTWvpSzppy7vWWTTUZVKkFIISi7yIQWmVFGkFPDa7hr#",
"eppppmlZIv5tppa77mSPFFVlETtlDSp57aDHMyZHZepBaraPHh",
"5ypppp5iaa5+77e&&ipzai7DWWlrai7lPpyyytiaar%0tepmZm",
"hk0api.7iy0zzzma%0rpi5imIPSr07tlLptATIpiypvhrtySHz",
"y0+e00r55yDWERWZyYDprqralapp6ypiruY!QYN7vUWQWIaip;",
"*7pplSS0pIQTIIl0NWIKKSq5ippi6qrreaIHmaplDBDIWWWS8>",
"%zUTIIDrzIPSmyrytw7yryye00ecPPyckhSaapiraiiplSSSh<",
"uT!WNmFyiai07mFZt;rPTTBmMSZvEIDImhDlpai000i05700y1",
"IQ!PipSa+7*wPQWZuDaTQQUUWWIyzSPSimWKMai7lKRvriilIj",
"cYWBppaFqyytIWKraDyDWWW!!!Tzialy5I!TIKaSWQQVlSFWWj",
"%lMappzHapBuhZt7aDkpFKPIURUk+0rNuSIPFa5SWWPlIWWWD1",
"*6ppapMFtaTHq&c0pDS0aaaaamBhoNYIiaaa0%&NSM0ySIFSt>",
"Sh0pppp77ZWTlDWkyMBr0appaiiitTWKyii6ohkpiygqplapt,",
"JPm0pr7yDQWZZQQV&ipp+5iappauBPKM065lkFktVIWV7irpBb",
"lMM5.0ilSISVRWPlO&erh*Oq007.ilaai7vIkDyBW!!C%hMIUZ",
"1yy700iapaiSIZay7yilIDwliri00ipa0vWWhaiITYIvKQ!WJ8",
":O0aapeeii7plprqpaKWWWZVFSBSSurr7KQWv0ymmlpvWQIltt",
"=uSUUSai0qq00O6SaaUW!WKZQQISPSrDNpIQU9rppp0SIDyrDY",
"MIQ!TIKFaDWSSqiKlaIWWWKBIWDalMZIlaIW!Ikyp00alqrJRR",
"rI!QISKBaTWPKViSlaSIIIKyaSlppiMlrpMFURUMuVmr&6lDJI",
":qPIMpi&iMMlFKp0ppalMBS55ipr5ylpOipplmBVSWIJk.iklS",
";qpair.&0ppkSSM05eipyqrir07O&0r5&0ippppiSlalihMliq",
"7mlkVLkpcriir750rv97rrpapa07Jlilmmq00007iyiVTQWPV1",
";aSR!!HyAHci07ppSWuialamSlrlIWUIVKMalla0qaZDHDMvp1",
"$qlPEEVpY!TPBraDUWlrBIWWQFlaSRUKZWIKYWKyrripiyry9<",
"<OiaBa5aFYFMSrMTRTKrBWWWWUMialmlYQIU!WZtSlr750iNZd",
"*60iieyypapi07BUUDBSllkVSSqqpp0iWRDPWUmrMKImuaurq*",
"&lIc7HWkiiiy55mHBlpBkylq7rq7776iDZaBFl=&rlVlIWEZ8-",
"8lITvPQDOyJKSyrapppphJUmqJRKMBVraapai6gkrr7tFWEIl:",
"1qaFIVPvkIUWRIliapiiJQUvqkSIIIUlipiyMTWWUSSuaMZmt<",
"klrMPMDlVIWW!WK705.mIIvClpuMFWQIt6&rKUWWTIUM0ir0t2",
"larSSpKPklSUWUS7qg6paaiZpplrMUQWg%07pMFKKJKIqryaDf",
"q0qlqqalqqilMBilDISqippZapmpiSFM9vIm7iamlaMl0MDITj",
"o5rlVVv7kZq0iiqFJUPykiqMSMNp7r05tSRIu5ipaai5lUWWIt",
"6pFWJmSmipSVr=9KMKBPUKmiMzaryrpByaFPVmytri0lU!!WZr",
"plPIKKIJykUWKkwDlFmIGBSriirBMlUIyamarDIZg&qFUWQF7y",
"ipMSUQQUyrDIIIVZMBllppla757SKU!Jrai7ralMSl&lSSKl07",
"6ipplKKl5raMSl7ylp50appy0i0aaSDlrpy5pppppmrippaa5:",
"3*qppa77ir5ypr:1iro:0pirSl0ppppp0q;,tiipir&7pappr,",
"43*yi7:fMg:8r*32,o23$7=1y75760ir,1242-86=:>:;qrr0<"
};
