/* XPM */
static char *result[] = {
/* columns rows colors chars-per-pixel */
"40 40 220 2 ",
"   c #155803",
".  c #245B0A",
"X  c #335707",
"o  c #1B6C03",
"O  c #196704",
"+  c #087804",
"@  c #1E7103",
"#  c #137F06",
"$  c #187E04",
"%  c #246C0B",
"&  c #276B08",
"*  c #3B6E0B",
"=  c #227405",
"-  c #257A05",
";  c #2A7E06",
":  c #2A7709",
">  c #38740D",
",  c #337411",
"<  c #685E08",
"1  c #46690D",
"2  c #5D6A0C",
"3  c #54690B",
"4  c #57780C",
"5  c #597912",
"6  c #4A6F14",
"7  c #696B0D",
"8  c #766E07",
"9  c #76780A",
"0  c #6C7F1B",
"q  c #836D0C",
"w  c #96760A",
"e  c #A87A0A",
"r  c #1D8706",
"t  c #2E8306",
"y  c #2D810B",
"u  c #228506",
"i  c #338A07",
"p  c #35810A",
"a  c #3B850C",
"s  c #3A8C0A",
"d  c #338708",
"f  c #2B910A",
"g  c #3D940B",
"h  c #3B9B0B",
"j  c #3D8311",
"k  c #438D0E",
"l  c #4D8A0B",
"z  c #57830C",
"x  c #578B07",
"c  c #43940D",
"v  c #449B0D",
"b  c #49990E",
"n  c #54940A",
"m  c #4D8A14",
"M  c #448813",
"N  c #4C9414",
"B  c #4C9913",
"V  c #48971A",
"C  c #539C15",
"Z  c #519215",
"A  c #558919",
"S  c #648B1A",
"D  c #7A8811",
"F  c #4BA10F",
"G  c #4BA511",
"H  c #4EA911",
"J  c #52A312",
"K  c #56AC14",
"L  c #5BA41A",
"P  c #5CAA1C",
"I  c #57A917",
"U  c #59B112",
"Y  c #62AE1C",
"T  c #69AD1F",
"R  c #63B21C",
"E  c #6AB51F",
"W  c #6ABA1E",
"Q  c #67B91E",
"!  c #649625",
"~  c #7A982A",
"^  c #6D8F22",
"/  c #65AD22",
"(  c #68AA28",
")  c #76A72E",
"_  c #6AB321",
"`  c #6DBA21",
"'  c #6AB427",
"]  c #71BC26",
"[  c #72BD2B",
"{  c #77B12F",
"}  c #75C228",
"|  c #8C8709",
" . c #9F9409",
".. c #8B8913",
"X. c #AE8508",
"o. c #A98508",
"O. c #BC8605",
"+. c #A69409",
"@. c #AB9509",
"#. c #AB990C",
"$. c #B28C15",
"%. c #95AD0F",
"&. c #A4A10D",
"*. c #A9BE1B",
"=. c #B1A918",
"-. c #899C2B",
";. c #949C31",
":. c #98A223",
">. c #9AA437",
",. c #B8B233",
"<. c #CC8C0C",
"1. c #C28208",
"2. c #D38706",
"3. c #DC8C05",
"4. c #D28B09",
"5. c #D28808",
"6. c #CC9306",
"7. c #C79A0A",
"8. c #D59205",
"9. c #DC9206",
"0. c #D4940B",
"q. c #DA9B08",
"w. c #D59E12",
"e. c #E39205",
"r. c #EC9604",
"t. c #ED9B05",
"y. c #E79D06",
"u. c #F19B04",
"i. c #CFAD0A",
"p. c #D2AE09",
"a. c #D7A40B",
"s. c #DDBE0B",
"d. c #D8A913",
"f. c #CCAF14",
"g. c #EBA806",
"h. c #F3A204",
"j. c #FDA503",
"k. c #F5AA06",
"l. c #FEAC04",
"z. c #F6A808",
"x. c #EFBF07",
"c. c #ECBD0A",
"v. c #FEB305",
"b. c #F3BB06",
"n. c #FEBB04",
"m. c #F9B508",
"M. c #8CCF3A",
"N. c #93CC34",
"B. c #90CB38",
"V. c #8DD039",
"C. c #9BD93C",
"Z. c #A4DA3E",
"A. c #A7E23E",
"S. c #B9E53E",
"D. c #EDC309",
"F. c #FEC305",
"G. c #FEC708",
"H. c #FECC0A",
"J. c #F8C507",
"K. c #FED40B",
"L. c #FEDA0E",
"P. c #FFD006",
"I. c #FDCF12",
"U. c #FEDC13",
"Y. c #FEDB1F",
"T. c #E5CF14",
"R. c #FFE412",
"E. c #FFE31B",
"W. c #F9E918",
"Q. c #FFF21B",
"!. c #D5D826",
"~. c #DBDD3C",
"^. c #F1D829",
"/. c #D5E436",
"(. c #FFE722",
"). c #FDEC2C",
"_. c #FEE924",
"`. c #FEF927",
"'. c #FFEE32",
"]. c #FEF036",
"[. c #FEFC33",
"{. c #FEF13B",
"}. c #FFFF3A",
"|. c #E5E42D",
" X c #B3B944",
".X c #B0DD42",
"XX c #BBE243",
"oX c #B3EB40",
"OX c #BBE24A",
"+X c #BFF241",
"@X c #C5C94E",
"#X c #D2D45B",
"$X c #CBCD4E",
"%X c #E5D941",
"&X c #C9E949",
"*X c #C9F943",
"=X c #C7FA42",
"-X c #D3FE46",
";X c #C9E954",
":X c #D9F557",
">X c #FFFE43",
",X c #FFF74A",
"<X c #FEFE4D",
"1X c #FAF548",
"2X c #FEFB54",
"3X c #FDFC5C",
"4X c #F7F055",
"5X c #ECF45E",
"6X c #E9FC64",
"7X c #FEFD63",
"8X c #FEFE6C",
"9X c #F2F869",
"0X c #FEFE73",
"qX c #FFFF7C",
"wX c #F4FA79",
"eX c #EBF470",
"rX c #FEFE83",
"tX c #FEFF8B",
"yX c #FFFF93",
"uX c None",
/* pixels */
"uXuXuXuXuXuXuXuXuXuXuXuXuXuXuXuXuXuXuXuXuXuXuXuXuXuXuXuXuXuXuXuXuXuXuXuXuXuXuXuX",
"uXuXuXuXuXuXuXuXuXuXuXuXuXuXuXuXuXuXuXuXuXuXuXuXuXuXuXuXuXuXuXuXuXuXuXuXuXuXuXuX",
"uXuXuXuXuXuXuXuXuXuXuXuXuXuXuXuXuXuXuXuXuXuXuXuXuXuXuXuXuXuXuXuXuXuXuXuXuXuXuXuX",
"uXuXuXuXuXuXuXuXuXuXuXuXuXuXuX/ / _ ` ` W ` _ Q / uXuXuXuXuXuXuXuXuXuXuXuXuXuXuX",
"uXuXuXuXuXuXuXuXuXuXuXuXuXL L L Y R _ _ ] E P P P L L uXuXuXuXuXuXuXuXuXuXuXuXuX",
"uXuXuXuXuXuXuXuXuXuXuXB C C L / ' ] [ [ ] W ` _ R L C B B uXuXuXuXuXuXuXuXuXuXuX",
"uXuXuXuXuXuXuXuXuXM M m A S ^ ~ ~ ~ ~ ) { [ [ ` R R I B c k M uXuXuXuXuXuXuXuXuX",
"uXuXuXuXuXuXuXuXs 6 6 0 ;.,.@X$X#X#X@X X;.-.) ' W U K J b a p j uXuXuXuXuXuXuXuX",
"uXuXuXuXuXuXuX, 6 q ,.%X4X8X0XqXqXqXqXwXeX@X>.) ( Q U J F c p : , uXuXuXuXuXuXuX",
"uXuXuXuXuXuX1 7 =.^.1X3X7X0XqXtXtXtXrXrXqX0X5X,.~ ( P G F h d - % , uXuXuXuXuXuX",
"uXuXuXuXuXuXq d.Y.'.,X3X0XqXrXyXyXyXyXrXqX0X8X3X$X-.! L b g i ; o O uXuXuXuXuXuX",
"uXuXuXuXuXe q.I.(.].,X3X0XrXtXyXyXyXwX6X6X9X8X3X<X~.:.! V s t ; O . . uXuXuXuXuX",
"uXuXuXuX$.8.m.U.(.{.,X7X0XrXtXyXyXwX-X-X*X-X6X3X2X>X|.:.S j y = o   X e uXuXuXuX",
"uXuXuXuX<.y.G.U.(.].,X2X8XqXrXtXyX:X=X=X=X=X:X3X<X}.[.|.&.0 , , %   < <.uXuXuXuX",
"uXuXuXuX4.k.H.U.(.'.1X2X7X0XqXrXtX;X+X+X+X+X&X2X<X}.[.`._.=...5 3 8 <.3.uXuXuXuX",
"uXuXuX<.3.v.K.U.E._.].,X2X7X0XqXwX;XoXoXoXoX&X2X>X}.`.`.Q.W.T.f.i.c.m.3.<.uXuXuX",
"uXuXuX4.e.n.H.U.Y.(.'.{.,X2X3X8XeXOXZ.A.A.A.XX1X>X[.`.Q.W.W.R.L.K.P.n.e.<.uXuXuX",
"uXuXuX4.t.n.G.K.U.W._.'./.OXOXOXOXZ.C.C.C.C.Z.XXXXS.S./.W.R.R.L.K.G.n.r.4.uXuXuX",
"uXuXuX5.t.F.G.P.L.U.E.!.M.M.V.V.M.V.M.B.V.V.V.V.M.M.M.M.!.R.L.P.P.F.n.t.2.uXuXuX",
"uXuXuX5.u.n.F.P.P.L.Y.*.[ } } } } } } } } } } } [ } } ] *.L.L.P.P.F.n.u.2.uXuXuX",
"uXuXuX5.u.v.F.F.H.K.K.%.U U U U U U U U U U U U U U U U %.P.P.H.F.F.v.u.2.uXuXuX",
"uXuXuX4.u.v.n.F.G.H.K.&.b H H H J G G G G G G H H H H n &.P.P.G.F.n.v.t.4.uXuXuX",
"uXuXuX4.r.v.v.n.F.G.G.p.9 4 z z z c h h h h h z z z z 9 p.G.G.F.n.n.l.r.4.uXuXuX",
"uXuXuXw.e.l.v.n.n.n.G.D.p.@.+.#. .n f f f f l  .+.+.@.p.D.F.n.n.n.v.l.e.0.uXuXuX",
"uXuXuXw.9.j.v.v.v.n.n.n.J.c.D.D.s.n r r r r x s.D.D.x.b.F.F.n.v.v.v.j.9.w.uXuXuX",
"uXuXuXuXq.u.0.X.X.7.g.n.n.F.F.G.x.l # r # # x c.G.F.F.F.n.v.v.v.l.v.h.9.uXuXuXuX",
"uXuXuXuXd.X.3 * > 2 w q.m.n.n.n.b.x + + + + x b.F.n.n.v.v.v.v.l.l.l.y.d.uXuXuXuX",
"uXuXuXuXf.5 y u - : * 8 <.m.n.n.v.| - $ $ - | n.n.n.v.v.v.l.l.l.l.z.q.d.uXuXuXuX",
"uXuXuXuXuXm ; ; = @ - : 7 O.z.l.l.6.8 3 3 8 6.v.v.l.l.l.l.l.l.l.l.g.a.uXuXuXuXuX",
"uXuXuXuXuXM p p - @ o o & 7 e u.l.h.8.O.O.8.h.l.l.l.l.l.l.j.l.v.k.i.=.uXuXuXuXuX",
"uXuXuXuXuXuXk p t - @ O O % 3 w 9.j.j.h.u.j.l.j.j.j.j.j.l.v.v.m.i...uXuXuXuXuXuX",
"uXuXuXuXuXuXuXk i t - @ O O O * q 1.r.j.j.j.j.j.j.j.l.l.l.b.g.+.S uXuXuXuXuXuXuX",
"uXuXuXuXuXuXuXuXk s i t = o O o & 2 w 1.e.u.h.j.j.k.k.g.a.#.D m uXuXuXuXuXuXuXuX",
"uXuXuXuXuXuXuXuXuXc c g d t = = @ % > 2 9 w e X.o.o...D S Z c uXuXuXuXuXuXuXuXuX",
"uXuXuXuXuXuXuXuXuXuXZ B v c s i t t ; t p M M m m m B B B N uXuXuXuXuXuXuXuXuXuX",
"uXuXuXuXuXuXuXuXuXuXuXuXC J G F v v g g g h c v G J J J uXuXuXuXuXuXuXuXuXuXuXuX",
"uXuXuXuXuXuXuXuXuXuXuXuXuXuX/ E E Y Y R Y R Y E _ T uXuXuXuXuXuXuXuXuXuXuXuXuXuX",
"uXuXuXuXuXuXuXuXuXuXuXuXuXuXuXuXN.N.N.N.N.N.N.N.uXuXuXuXuXuXuXuXuXuXuXuXuXuXuXuX",
"uXuXuXuXuXuXuXuXuXuXuXuXuXuXuXuXuXuXuXuXuXuXuXuXuXuXuXuXuXuXuXuXuXuXuXuXuXuXuXuX",
"uXuXuXuXuXuXuXuXuXuXuXuXuXuXuXuXuXuXuXuXuXuXuXuXuXuXuXuXuXuXuXuXuXuXuXuXuXuXuXuX"
};
