/* XPM */
static char *result[] = {
/* columns rows colors chars-per-pixel */
"40 40 205 2 ",
"   c #000000",
".  c #081A19",
"X  c #141C1C",
"o  c #15191A",
"O  c #24160E",
"+  c #27190E",
"@  c #231A11",
"#  c #2B1A11",
"$  c #0D2B2B",
"%  c #1E2224",
"&  c #1C292A",
"*  c #173536",
"=  c #212527",
"-  c #272B2D",
";  c #2A2D2F",
":  c #232729",
">  c #292E31",
",  c #252E31",
"<  c #2E3433",
"1  c #40220E",
"2  c #552409",
"3  c #4B2B18",
"4  c #512D17",
"5  c #562E17",
"6  c #742B03",
"7  c #7A2F05",
"8  c #7E340A",
"9  c #7E3106",
"0  c #6B3615",
"q  c #7D3612",
"w  c #773B1D",
"e  c #523E30",
"r  c #503A2C",
"t  c #534A32",
"y  c #784726",
"u  c #303E42",
"i  c #184544",
"p  c #1D5A5B",
"a  c #1C5454",
"s  c #2F5C5E",
"d  c #3E5F63",
"f  c #2A7778",
"g  c #226262",
"h  c #4E5350",
"j  c #6E5E54",
"k  c #746557",
"l  c #7E644F",
"z  c #465D63",
"x  c #486369",
"c  c #58767D",
"v  c #4F7172",
"b  c #6B6B63",
"n  c #736A61",
"m  c #737675",
"M  c #82350C",
"N  c #84360C",
"B  c #853B15",
"V  c #8B3C15",
"C  c #843C18",
"Z  c #923E11",
"A  c #8D421B",
"S  c #87431D",
"D  c #964215",
"F  c #994316",
"G  c #93431A",
"H  c #99451A",
"J  c #954C1F",
"K  c #A3491A",
"L  c #AB4D1D",
"P  c #A14818",
"I  c #AE511F",
"U  c #B0501F",
"Y  c #834727",
"T  c #964721",
"R  c #994C27",
"E  c #9F512D",
"W  c #9A5535",
"Q  c #814A31",
"!  c #A2522D",
"~  c #AD542C",
"^  c #AB5526",
"/  c #B55422",
"(  c #B85624",
")  c #BC5A27",
"_  c #B0552B",
"`  c #BC5C2B",
"'  c #B7592E",
"]  c #AA5A34",
"[  c #B25B32",
"{  c #A84E20",
"}  c #9D603F",
"|  c #BF612C",
" . c #BD653C",
".. c #BA6239",
"X. c #B46E3A",
"o. c #C25D2A",
"O. c #CC632D",
"+. c #C4612C",
"@. c #C46231",
"#. c #CC6633",
"$. c #C3663E",
"%. c #CE6A3D",
"&. c #C5693E",
"*. c #D56A34",
"=. c #D26C3D",
"-. c #DC6E38",
";. c #D36B34",
":. c #EA763C",
">. c #F1793E",
",. c #9D5E41",
"<. c #9A6549",
"1. c #8C6955",
"2. c #8B7756",
"3. c #AB6B4C",
"4. c #AD6546",
"5. c #BD6B46",
"6. c #AB7259",
"7. c #BC7455",
"8. c #B26F50",
"9. c #BD7D62",
"0. c #CC6E43",
"q. c #C76E47",
"w. c #D26F41",
"e. c #C3724D",
"r. c #CA744C",
"t. c #CE7246",
"y. c #DB7546",
"u. c #D2764C",
"i. c #D47245",
"p. c #C57C5B",
"a. c #C97853",
"s. c #E37745",
"d. c #E67845",
"f. c #E97944",
"g. c #F57D41",
"h. c #558478",
"j. c #CD8B4B",
"k. c #D69553",
"l. c #D28D4F",
"z. c #FE8346",
"x. c #FF8548",
"c. c #FF8E4E",
"v. c #F68447",
"b. c #E09659",
"n. c #FD9453",
"m. c #FE9A57",
"M. c #ED8044",
"N. c #F8A15C",
"B. c #DBA96A",
"V. c #ECAE6B",
"C. c #E3AA69",
"Z. c #F4AA66",
"A. c #F4B26C",
"S. c #F8B26C",
"D. c #2F7E80",
"F. c #5B7C83",
"G. c #2A8686",
"H. c #318E8F",
"J. c #2E9595",
"K. c #2F9897",
"L. c #2F9998",
"P. c #349495",
"I. c #3BABAC",
"U. c #37A8A9",
"Y. c #5B8389",
"T. c #59888F",
"R. c #5A848A",
"E. c #588B92",
"W. c #539197",
"Q. c #54959A",
"!. c #569A9E",
"~. c #4F9498",
"^. c #678986",
"/. c #6D939B",
"(. c #669A9B",
"). c #529EA3",
"_. c #6D99A1",
"`. c #4DA6AA",
"'. c #51A6AA",
"]. c #55A7AB",
"[. c #4EBDBF",
"{. c #5AB9BD",
"}. c #5BB6BA",
"|. c #5DAFB4",
" X c #6AA3AA",
".X c #65A6AB",
"XX c #67ADB3",
"oX c #69ABB2",
"OX c #64B2B6",
"+X c #66B5BB",
"@X c #64B9BE",
"#X c #45BFC0",
"$X c #5CBDC2",
"%X c #63BDC2",
"&X c #49C7C9",
"*X c #5FC7CB",
"=X c #5FCACE",
"-X c #5DC0C6",
";X c #5FCDD1",
":X c #5ADADD",
">X c #5BD3D6",
",X c #61C1C6",
"<X c #61C4C9",
"1X c #5ADDE0",
"2X c None",
/* pixels */
"2X2X2X2X2X2X2X2X2X2X2X2X2X2X2X2Xi p p p p i 2 H ^ S D G 2X2X2X2X2X2X2X2X2X2X2X2X",
"2X2X2X2X2X2X2X2X2X2X2X2Xi g P.P.&X>X}.|.(.2.-.n.k.J O.$.M Z 2X2X2X2X2X2X2X2X2X2X",
"2X2X2X2X2X2X2X2X2X* f J.&X$X_. X_.#X).l ..g.N.N.y.A ;.%.D *.T 2X2X2X2X2X2X2X2X2X",
"2X2X2X2X2X2X2Xa I.#X.XXXOX$X~.d u , : q >.n.k.| y.D ;.%.D d.! t a 2X2X2X2X2X2X2X",
"2X2X2X2X2X2Xf ].XX%X}.v z < * = = - 5 #.z.m.j.( d.G *.%.F s.! 0 h.D.2X2X2X2X2X2X",
"2X2X2X2X$ I.{._._.F.d & % > > > ; ; C :.c.Z.] / f.D *.%.D f._ M l |.I.$ 2X2X2X2X",
"2X2X2X. H.$X,XXXz , : > > > > > ; 5 *.z.n.V.E / f.H *. .F f.~ U ^ ^.-XJ.. 2X2X2X",
"2X2X2Xf {._./.d % , > > > > > > ; 0 -.z.n.Z.! / d.H *.&.D f._ ( / n (.-Xf 2X2X2X",
"2X2Xp #X,XOXv % - > > > > > > , 3 ) z.c.A.u.~ / s.G *.=.F f._ / w.Q (.$X[.p 2X2X",
"2X  U.+XXXW.& : , > > > > > > > 4 O.x.c.A.r.~ / y.A *.=.F f._ / s.A v .XOXU.  2X",
"2X$ `.XX/.z o > > > > > > > > > 4 #.x.f.k...R / y.A *.&.Z f._ / s.V O F.oX`.* 2X",
"  H.:X*X'.% : > > > > > > > > > 4 O.+.@.@.| { K _ B +.[ F f.! / y.B + `.<X:XJ.  ",
"  J.<X XE.X , > > > > > > > > > 4 +.L *.0.5.p.0.0.' ( ^ Z ) A U 0.B O T. X<XL.  ",
"  J.%X_.Y.X - > > > > > > > > , 4 O.:.) V S W ! 3.a.q.a.%.%.` I / M 1 Y._.%XL.  ",
"  J.1X=X'.X - > > > > > > > > > 4 O.x.c.l.! M M V C C <.] 4.9.0.a.0.A ].*X:XL.  ",
"  J.%X_.Y.X - > > > > > ; > > > 4 O.x.c.A.r.~ / #.B L V 8 V A A ,.4.w ^._.%XL.  ",
"  J.,X XT.X - > , > > > > > > > 4 O.x.c.S.u.! / y.V *.[ F #.V Z H 6 # T._.<XL.  ",
"  P.:X<X'.X - > > > > > > > > > 4 O.x.c.A.7.Q / y.G #.0.F d.! ) w.q @ ].<X1XL.  ",
"  J.%X/.F.X - > > > > > > > > > 4 O.x.c.B.k m ,.y.A *.=.F s.! ( y.V O F._.%XJ.  ",
"  J.;XoXQ.X - > > > > > > > > > 4 O.x.c.B.n m ,.y.G *.%.F d.! ( s.V @ W.XX*XL.  ",
"  J.>X%X].o - > > > > > > > > > 4 O.x.c.A.<.t U d.G *.%.F f._ / d.V @ ).%X>XL.  ",
"  J.@X/.F.o - > > > > > > > > > 4 O.x.c.S.3.r / d.F *.$.D f._ / s.C O F./.+XK.  ",
"  J.>X%X).X - > > > > > > > > > 4 O.x.c.S.3.r / f.T *.$.D s.! ( y.V @ !.@X>XK.  ",
"  J.;XXX!.X - > > > > > > > > , 4 O.x.c.A.1.t ~ f.H *.%.F d.E ( d.V @ Q.OX=XK.  ",
"  J.%X/.F.o - > > > > > > > > > 4 O.x.c.B.b m <.s.V *.%.Z f._ ( d.V O F./.+XK.  ",
"  J.:X<X'.X - > ; > > > > > > > 4 O.x.c.V.1.j ] y.T *.0.Z f._ ( y.V @ ).,X:XK.  ",
"  J.<X XE.X - > > > > > > > > > 4 O.x.c.A.e.! / y.Z =.q.Z d.! ( w.B O E. X,XK.  ",
"  J.%X_.F.X - > > > > > > > ; > 4 O.x.n.A.u.~ / d.H -.[ H -.T K o.P 0 b /.%XK.  ",
"  J.1X=X'.X - > > > > > > > > > 4 O.x.c.S.u.! / =.V ) _ P ` @.@.q.r.~ y OX1XL.  ",
"  J.,X_.T.X > > > > > > > > > > 4 O.x.M.b...T K o.` @.r.i.a.9. .3.W Y n /.%XK.  ",
"  J.<X_.T.X - > > > > > > > > > 4 O.;.o.o...0.w.p.7.5.6.R R S 8 M 6 # T. X,XK.  ",
"  J.1X=X'.X - > > > > > > > > > 4 o.L *.q.e.6.E W V M M 8 H N L %.B + `.<X:XL.  ",
"  J.%X/.Y.o - > > < > > > > < > 4 O.:.) B B 8 N D 9 ) ' D f.~ ( d.V @ Y._.%XL.  ",
"2XG.~.c x o % = = : = = : = : = 2 O.x.v.j.[ G U s.G *.%.D f._ ( y.B O x c W.G.2X",
"2X2X2X2X2X2X2X2X2X2X2X2X2X2X2X2X2 O.x.c.A.u.~ / d.H *. .D d.~ L @.q 2X2X2X2X2X2X",
"2X2X2X2X2X2X2X2X2X2X2X2X2X2X2X2X7 +.x.c.A.r.~ / d.H *. .D *.T M 2X2X2X2X2X2X2X2X",
"2X2X2X2X2X2X2X2X2X2X2X2X2X2X2X2X6 +.x.c.A.e.~ / y.G O.[ M Z 2X2X2X2X2X2X2X2X2X2X",
"2X2X2X2X2X2X2X2X2X2X2X2X2X2X2X2X6 O.x.c.A.e.E / =.S D 2X2X2X2X2X2X2X2X2X2X2X2X2X",
"2X2X2X2X2X2X2X2X2X2X2X2X2X2X2X2X6 O.x.c.A.5.R Z P 2X2X2X2X2X2X2X2X2X2X2X2X2X2X2X",
"2X2X2X2X2X2X2X2X2X2X2X2X2X2X2X2X2XI o.+.X.R 2X2X2X2X2X2X2X2X2X2X2X2X2X2X2X2X2X2X"
};
