/* XPM */
static char *_d1cb3e4206441e3ca1d3d4790918b63uAgWHGJlTTRq95BI[] = {
/* columns rows colors chars-per-pixel */
"40 40 83 1 ",
"  c #47704C",
". c gray1",
"X c black",
"o c None",
"O c black",
"+ c black",
"@ c black",
"# c black",
"$ c black",
"% c black",
"& c black",
"* c black",
"= c #020202",
"- c black",
"; c black",
": c black",
"> c black",
", c black",
"< c #1E1008",
"1 c #361B0E",
"2 c #63321C",
"3 c #A2532D",
"4 c #894626",
"5 c #100904",
"6 c black",
"7 c #2B3234",
"8 c #170D06",
"9 c #271309",
"0 c #33383A",
"q c #4F595C",
"w c #646F74",
"e c #819096",
"r c #151718",
"t c #060402",
"y c #7F4123",
"u c #0F1011",
"i c #552B18",
"p c #2C2500",
"a c #1B1F20",
"s c #202426",
"d c #2F170C",
"f c #6B371E",
"g c #5D2F1A",
"h c #251F00",
"j c #A08A00",
"k c #2A2F32",
"l c #080809",
"z c #495255",
"x c #3D1F11",
"c c #4E2716",
"v c #927C00",
"b c #C4A800",
"n c #9A8300",
"m c #566165",
"M c #DBBE00",
"N c #F2CC02",
"B c #8B7800",
"V c #3F4649",
"C c #393F42",
"Z c #7E8C92",
"A c #753B20",
"S c #707E83",
"D c #834325",
"F c #24292B",
"G c #AB9300",
"H c #BFA101",
"J c #716200",
"K c #758388",
"L c #69767B",
"P c #9D502B",
"I c #5F696E",
"U c #382D00",
"Y c #D1B101",
"T c #434B4E",
"R c #954C2A",
"E c #524200",
"W c #5F311B",
"Q c #453A00",
"! c #231B01",
"~ c #FFE300",
"^ c #FFE200",
"/ c #524800",
"( c #877500",
/* pixels */
"               @*O+,,+O*@               ",
"             @*>=r7rrku=>*@             ",
"            $O=azSZkkZLVr=O$            ",
"           X%oTSeSmrrmSZw0o%X           ",
"          -+trLKza5tt5azKIu6+-          ",
"         X+sqasst1yddAdtssaVr+X         ",
"        $%rwZV6<5231132556VKzu%$        ",
"        OomemuxA<231132<2dumSCoO        ",
"       -.CZwr5D4<231132<Df5rwIF.X       ",
"      @OlmKk6844<231132<4D86kLClO       ",
"      #.urF8d<44<231132<44<98sul.#      ",
"      ;omzl1g<4y<231132<44<cdlCCo;      ",
"      :sKLuf2<c9tx2<<2x5ii5d9lIqr:      ",
"     @+CZz<42t5QUppppppppppph5zIs+@     ",
"     $&TeC9R26EMGHMGGMHnYYnHHUCwk&$     ",
"     #.ze7dP2tBNJb~vv~bJNNJbNE7w0.#     ",
"     X.0qa1326pHjnjvvjnBjjBnnUaVs.X     ",
"     X.urt13258<5585585588558tlul.X     ",
"     X.TSF132<fc5i4dd4i8AA8cf<Fm7.X     ",
"     X.qe7132<44<231132<44<gy97w0.X     ",
"     X.qe713DgR4<231132<44<gy97w0.X     ",
"     X.qe71PR4P4<231132<44<gy97w0.X     ",
"     X.qe71f9<xf<231132<44<gy97w0.X     ",
"     X.TLF8</Bp9<231132<44<gy9Fqk.X     ",
"     X.url6!Y~B85231132<44<gy9lrl.X     ",
"     X.0qa5<(Y/88231132<44<gy9aVs.X     ",
"     X.qe7dc<!<i<231132<44<gy97w0.X     ",
"     X.qe71PAf44<231132<44<gy97w0.X     ",
"     X.qe713RyP4<231132<44<gy97w0.X     ",
"     X.qe713f94y<231132<44<WD97w0.X     ",
"     X.qe7132<c9tx2<<2x5ii51c87w0.X     ",
"     X.aku132t5QUhhhhhhhhhhh!5usu.X     ",
"     X.a7u1326EMGbMGGMbjMMjbYQuFr.X     ",
"     X.zZk132tBNJb^vv^bJNNJbNEkI0.X     ",
"     X.qe71326pHjnjvvjnBjjBnvUkw0.X     ",
"     X.qe713258<88988985<<58<t7w0.X     ",
"     X.qe7132<fc5i4dd4i8AA8cf<7w0.X     ",
"     X.qe7132<44<231132<44<WD97w0.X     ",
"     X.0ma<fx5ii5xf99fx5ii5xi8aVs.X     ",
"     #&66666666666666666666666666&#     "
};
