/* XPM */
static char *result[] = {
/* columns rows colors chars-per-pixel */
"80 80 72 1 ",
"  c #5EC2F7",
". c #5FC3F8",
"X c #5EC1F6",
"o c #5CBEF2",
"O c #5BBCF1",
"+ c #5DC0F4",
"@ c #5FC3F7",
"# c #5EC2F6",
"$ c #5ABAEF",
"% c #59B7EC",
"& c #59B7EB",
"* c #58B7EB",
"= c #5CBDF1",
"- c #5BBBF0",
"; c #5CBDF2",
": c #5CBEF3",
"> c #5BBBEF",
", c #5BBDF1",
"< c #5ABAEE",
"1 c #5AB9ED",
"2 c #5EC1F5",
"3 c #5CBFF3",
"4 c #5AB9EE",
"5 c #5BBCF0",
"6 c #5DBFF4",
"7 c #5FC2F7",
"8 c #5EC1F7",
"9 c #5FC2F8",
"0 c #60C4F9",
"q c #5EC2F8",
"w c #60C5FA",
"e c #5FC3F9",
"r c #60C4FA",
"t c #5FC1F8",
"y c #5EC1F8",
"u c #5EC2F9",
"i c #5FC1F7",
"p c #60C2F9",
"a c #60C1F8",
"s c #60C0F7",
"d c #5FBFF7",
"f c #5EC0F7",
"g c #5FC0F8",
"h c #5EBFF6",
"j c #60BFF7",
"k c #62BFF8",
"l c #63C0F8",
"z c #62C3FA",
"x c #5FC0F7",
"c c #5DC0F6",
"v c #5DC0F5",
"b c #5FC4F9",
"n c #60C0F9",
"m c #60BFF8",
"M c #65C2FA",
"N c #6BC6FA",
"B c #68C0FA",
"V c #63C0F9",
"C c #61C1FA",
"Z c #63C2FA",
"A c #6CCAFA",
"S c #76D2FB",
"D c #6CC4FA",
"F c #5EBEF6",
"G c #5EBFF7",
"H c #5FBFF8",
"J c #63C1FA",
"K c #6BC9FA",
"L c #75D2FB",
"P c #6BC4FA",
"I c #61BEF7",
"U c white",
/* pixels */
"                                                                      ..........",
"                                              XoOOOO+                 @@........",
"                                             #+$%%&*=                  @........",
"                                             o-;::>*=                  @........",
"                                             ,<o++=1:                  @........",
"                                             23>4456X                   7@......",
"                                              X,$$o                      @......",
"                                               XXX#                        @....",
"                                                                           @@@@@",
"                                                                                ",
"                                                                                ",
"                                                                                ",
"                                                                                ",
"                                                                                ",
"                                                                                ",
"XXXXXXXXXXXXXXXXXXXX                                                            ",
"XXXXXXXXXXXXXXXXXXXXX                                                           ",
"XXXXXXXXXXXXXXXXXXXXX                                                           ",
"XXXXXXXXXXXXXXXXXXXXX                                                           ",
"XXXXXXXXXXXXXXXXXXXXX                                                           ",
"XXXXXXXXXXXXXXXXXXXXX                                                           ",
"XXXXXXXXXXXXXXXXXXXXX                                                           ",
"XXXXXXXXXXXXXXXXXXXXX                                                           ",
"XXXXXXXXXXXXXXXXXXXXX                                                           ",
"XXXXXXXXXXXXXXXXXXXXX                                                           ",
"XXXXXXXXXXXXXXXXXXXXX                                                           ",
"XXXXXXXXXXXXXXXXXXXXX                                                           ",
"XXXXXXXXXXXXXXXXXXXXX                                                           ",
"XXXXXXXXXXXXXXXXXXXXX                                                           ",
"XXXXXXXXXXXXXXXXXXXXX                                                           ",
"XXXXXXXXXXXXXXXXXXXXX                                                           ",
"XXXXXXXXXXXXXXXXXXXXX                                                           ",
"XXXXXXXXXXXXXXXXXXXXX                                                           ",
"XXXXXXXXXXXXXXXXXXXXX                                                           ",
"XXXXXXXXXXXXXXXXXXXXX                                                           ",
"XXXXXXXXXXXXXXXXXXXXX                                                           ",
"XXXXXXXXXXXXXXXXXXXXX                                                           ",
"XXXXXXXXXXXXXXXXXXXXX                                                           ",
"XXXXXXXXXXXXXXXXXXXXX                                                           ",
"XXXXXXXXXXXXXXXXXXXXX                                                           ",
"XXXXXXXXXXXXXXXXXXXXX                                                           ",
"XXXXXXXXXXXXXXXXXXXXX                                                           ",
"XXXXXXXXXXXXXXXXXXXXX                                                           ",
"XXXXXXXXXXXXXXXXXXXXX                                                           ",
"XXXXX888888888888888                                                            ",
"XXXXX                                                                           ",
"XXXXX                                                                           ",
"XXXXX                                                                           ",
"XXXXX                                                                           ",
"XXXXX                                                                           ",
"XXXXX                                                                           ",
"XXXXX                                                                           ",
"XXXXX                                                                           ",
"XXXXX                                                                           ",
"XXXXX                                                                           ",
"XXXXX                                                                           ",
"XXXXXXXXXX8                                                                     ",
"XXXXXXXXXX8                                                                     ",
"XXXXXXXXXX8                                                                     ",
"XXXXXXXXXXX88888888888888888888888888                                           ",
"XXXXXXXXXXXXXXXXXXXXXXXXXXXXXXXXXXXXX                                           ",
"XXXXXXXXXXXXXXXXXXXXXXXXXXXXXXXXXXXX8                                           ",
"XXXXXXXXXXXXXX                                                                  ",
"XXXXXXXXXXXXXXXXXXXXXXXXXXXXXXXXXXXXXXXX8                                       ",
"XXXXXXXXXXXXXXXXXXXXXXXXXXXXXXXXXXXXXXXX8                                       ",
"XXXXXXXXXXXXXXXXXXXXXXXXXXXXXXXXXXXXXXXXXX                                      ",
"XXXXXXXXXXXXXXXXXXXXXXXXXXXXXXXXXXXXXXXXXX88                                    ",
"XXXXXXXXXXXXXXXXXXXXXXXXXXXXXXXXXXXXXXXXXXXX                                    ",
"XXXXXXXXXXXXXXXXXXXXXXXXXXXXXXXXXXXXXXXXXXXXX8                                  ",
"XXXXXXXXXXXXXXXXXXXXXXXXXXXXXXXXXXXXXXXXXXXXXX                                  ",
"XXXXXXXXXXXXXXXXXXXXXXXXXXXXXXXXXXXXXXXXXXXXXX                                  ",
"XXXXXXXXXXXXXXXXXXXXXXXXXXXXXXXXXXXXXXXXXXXXXX                 .9   88          ",
"XXXXXXXXXXXXXXXXXXXXXXXXXXXXXXXXXXXXXXXXXXXXXXX8              ...7.098 qqqqq    ",
"XXXXXXXXXXXXXXXXXXXXXXXXXXXXXXXXXXXXXXXXXXXXXXXX8            @....0weqqqqqqqq   ",
"XXXXXXXXXXXXXXXXXXXXXXXXXXXX8888     8888XXXXXXXX8             X7rretyyquuuqqq  ",
"XXXXXXXXXXXXXXXXXXXXXXXXXXX8    9....     XXXXXXX8            8Xipasdtfyuuuqqq  ",
"XXXXXXXXXXXXXXXXXXXXXXXXXX8 99..eeeee..99  XXXXXX8            8tghjklzx8uuuqqq  ",
"XXXXXXXXXXXXXXXXXXXXcvcXXX8 ...eb000bb...7 XXXXXXX8          8fgnmMNBVhfuuuqqq  ",
"XXXXXXXXXXXXXXXXXXXXvvvXXX8 ..bb0rww0bbe.7 XXXXXXXX          8fgCZASDkFfuuuqqq  ",
"XXXXXXXXXXXXXXXXXXXXcvcXXX8  ....eee....7  8XXXXXX8          8GHnJKLPIFfquuqqq  "
};
