/* XPM */
static char *result[] = {
/* columns rows colors chars-per-pixel */
"50 50 210 2 ",
"   c #2D1B2D",
".  c #321C2E",
"X  c #3C1E2D",
"o  c #2F1E31",
"O  c #3B1F30",
"+  c #3C202F",
"@  c #2F2032",
"#  c #352233",
"$  c #3A2433",
"%  c #3C2836",
"&  c #3D2B3B",
"*  c #3A273A",
"=  c #3D313F",
"-  c #5A0F1F",
";  c #750C1B",
":  c #7D0D1E",
">  c #77101C",
",  c #471B2C",
"<  c #531626",
"1  c #5C1325",
"2  c #531B2B",
"3  c #5B1E2E",
"4  c #551929",
"5  c #421E31",
"6  c #680D21",
"7  c #651929",
"8  c #761A26",
"9  c #442632",
"0  c #4A2432",
"q  c #432D3C",
"w  c #4C2E3B",
"e  c #432739",
"r  c #532C3A",
"t  c #572735",
"y  c #45313E",
"u  c #4C313E",
"i  c #54333D",
"p  c #5C323F",
"a  c #50212F",
"s  c #682735",
"d  c #752533",
"f  c #742935",
"g  c #7C2C39",
"h  c #66363F",
"j  c #7E313C",
"k  c #76262E",
"l  c #3F2E40",
"z  c #3F3241",
"x  c #443342",
"c  c #4A3442",
"v  c #423C45",
"b  c #4A3B43",
"n  c #4F3B4A",
"m  c #513642",
"M  c #5B3541",
"N  c #553A43",
"B  c #5C3A44",
"V  c #533C4B",
"C  c #5A3C4A",
"Z  c #603C46",
"A  c #673F49",
"S  c #7D3E44",
"D  c #753E45",
"F  c #434149",
"G  c #474249",
"H  c #56424B",
"J  c #5B434A",
"K  c #5F4449",
"L  c #544453",
"P  c #5B4253",
"I  c #574C5B",
"U  c #4C4551",
"Y  c #624149",
"T  c #6B454C",
"R  c #7B424A",
"E  c #644A5B",
"W  c #6A4D5E",
"Q  c #614657",
"!  c #68505F",
"~  c #6C5464",
"^  c #675260",
"/  c #725668",
"(  c #755C6D",
")  c #7A5E6E",
"_  c #725767",
"`  c #7B5F71",
"'  c #7D6273",
"]  c #830F1F",
"[  c #820E21",
"{  c #8A1623",
"}  c #8B1A25",
"|  c #861723",
" . c #9B1C26",
".. c #981827",
"X. c #960E24",
"o. c #A31426",
"O. c #A91C27",
"+. c #A21429",
"@. c #AB152A",
"#. c #AA1C29",
"$. c #A71C27",
"%. c #B41F2C",
"&. c #B0172A",
"*. c #86292C",
"=. c #93242A",
"-. c #9F262B",
";. c #93282C",
":. c #97252B",
">. c #822B32",
",. c #9C2C31",
"<. c #982A35",
"1. c #84353B",
"2. c #87383D",
"3. c #95363A",
"4. c #9E3D39",
"5. c #97383A",
"6. c #9B302D",
"7. c #A4242D",
"8. c #AB222B",
"9. c #A42B2C",
"0. c #AB2A2D",
"q. c #B4232D",
"w. c #B9242F",
"e. c #BB2C2E",
"r. c #B52C2D",
"t. c #AA2331",
"y. c #A32E33",
"u. c #AB2B32",
"i. c #A52231",
"p. c #BC2630",
"a. c #B62D34",
"s. c #BC2A32",
"d. c #B92F38",
"f. c #A43334",
"g. c #AB3335",
"h. c #A43B3A",
"j. c #AA393A",
"k. c #AA373A",
"l. c #B43335",
"z. c #BC3232",
"x. c #BB3B34",
"c. c #B53B38",
"v. c #AE352E",
"b. c #C12C32",
"n. c #C43433",
"m. c #C93634",
"M. c #C63A35",
"N. c #CB3C36",
"B. c #CE3D38",
"V. c #D03F38",
"C. c #D03F37",
"Z. c #8D403F",
"A. c #9C423B",
"S. c #A4433D",
"D. c #A9463F",
"F. c #BC443D",
"G. c #BA403A",
"H. c #CC4236",
"J. c #C3443B",
"K. c #CA463B",
"L. c #C7483F",
"P. c #D34339",
"I. c #D6493A",
"U. c #DC4B3B",
"Y. c #D44337",
"T. c #863843",
"R. c #A23A41",
"E. c #854447",
"W. c #954145",
"Q. c #AA4640",
"!. c #AC4841",
"~. c #A24A46",
"^. c #BE4640",
"/. c #816576",
"(. c #836779",
"). c #85697B",
"_. c #896C7E",
"`. c #886679",
"'. c #C34740",
"]. c #8D6F82",
"[. c #916E82",
"{. c #8E7084",
"}. c #917286",
"|. c #957589",
" X c #9A778B",
".X c #95798B",
"XX c #9A7A8D",
"oX c #9D7D92",
"OX c #A17F94",
"+X c #9F8094",
"@X c #A28296",
"#X c #A58499",
"$X c #A9869C",
"%X c #A7889C",
"&X c #AB899E",
"*X c #AF8CA2",
"=X c #B08DA3",
"-X c #B391A6",
";X c #B594A9",
":X c #BB99AE",
">X c #BA97AC",
",X c #BF9DB2",
"<X c #C09EB2",
"1X c #C3A2B6",
"2X c #C6A5B9",
"3X c #CCABBF",
"4X c #C7AABB",
"5X c #CEAFC1",
"6X c #D5B5C8",
"7X c None",
/* pixels */
"7X7X7X7X7X7X7X7X7X7X7X7X7X7X7X7X7X7X7X7X7X7X7X2X2X5X5X7X7X7X7X7X7X7X7X7X7X7X7X7X7X7X7X7X7X7X7X7X7X7X",
"7X7X7X7X7X7X7X7X7X7X7X7X7X7X7X7X7X7X7X7X7X X#X*X:X,X-X;X2X7X7X7X7X7X7X7X7X7X7X7X7X7X7X7X7X7X7X7X7X7X",
"7X7X7X7X7X7X7X7X7X7X7X7X7X7X7X7X7X7X7X7X].}.].{.oX-X*X*X-X3X6X7X7X7X7X7X7X7X7X7X7X7X7X7X7X7X7X7X7X7X",
"7X7X7X7X7X7X7X7X7X7X7X7X7X7X7X7X7X7X].].{.{.{.{.|.*X*X*X*X-X2X5X7X7X7X7X7X7X7X7X7X7X7X7X7X7X7X7X7X7X",
"7X7X7X7X7X7X7X7X7X7X7X7X7X7X7X7X7X/.{.{.{.{.{.{.[.$X=X=X*X*X*X-X-X7X7X7X7X7X7X7X7X7X7X7X7X7X7X7X7X7X",
"7X7X7X7X7X7X7X7X7X7X7X7X7X7X7X7X{._.).{.{.{.].{.].[.*X=X=X*X*X=X*X%X7X7X7X7X7X7X7X7X7X7X7X7X7X7X7X7X",
"7X7X7X7X7X7X7X7X7X7X7X7X7X7X7X( ` {.(.{.{.{.].` V c ( oX*X=X*X*XoX}.oX7X7X7X7X7X7X7X7X7X7X7X7X7X7X7X",
"7X7X7X7X7X7X7X7X7X7X7X7X7X7X( ( ( ].}.(.].(.E y % # q C _.&X*XoX{.{.].oX7X7X7X7X7X7X7X7X7X7X7X7X7X7X",
"7X7X7X7X7X7X7X7X7X7X7X7X7X( ( ' ( `  X' W m e , 1 - , # c ( _._.{.{.{.}.#X7X7X7X7X7X7X7X7X7X7X7X7X7X",
"7X7X7X7X7X7X7X7X7X7X7X7X7X( ( ( ( ( ].~ * O , 6 : ; ; < X e c /.}.].{.{..X*X7X7X7X7X7X7X7X7X7X7X7X7X",
"7X7X7X7X7X7X7X7X7X7X7X7X( ( ( ( ( ( ` n * 7 : : : ; : ; - X $ Q ].].{.].{.oX7X7X7X7X7X7X7X7X7X7X7X7X",
"7X7X7X7X7X7X7X7X7X7X7X~ ( ( ( ( ( / n c 7 +.o.X.[ ; : ; : 7 X e E ].{.}.{.}.*X7X7X7X7X7X7X7X7X7X7X7X",
"7X7X7X7X7X7X7X7X7X7X7X@X' ( ( ' / n q d  .o.@.@.o.] ] ] : ; 6 + q ~ ].].{.}.;X4X7X7X7X7X7X7X7X7X7X7X",
"7X7X7X7X7X7X7X7X7X7X=X,X&X/ / / L q s +.O.@.@.@.#.X.X.[ ] ; : 6 O c ` ].}.+X-X;X5X7X7X7X7X7X7X7X7X7X",
"7X7X7X7X7X7X7X7X7X&X=X-X1X%X/ L c t +.@.#.@.@.@.#.o.@.X.[ ; : 8 1 * V ' .X*X*X*X2X7X7X7X7X7X7X7X7X7X",
"7X7X7X7X7X7X7X7X7X*X=X*X*X>X' & r +.&.&.#.@.@.@.#.o.&.@.+.] ] ] : 2 $ L +X*X*X*X<X6X7X7X7X7X7X7X7X7X",
"7X7X7X7X7X7X7X7X*X*X*X*X*X=X~ * r g g T.S T.<.@.#.o.&.i.T.g t 3 3 2   x |.=X=X*X-X3X7X7X7X7X7X7X7X7X",
"7X7X7X7X7X7X7X7X*X*X*X*X=X|.n & x l x x v v C <.#.#.t.A v v l * #     $ W #X*X=X=X>X7X7X7X7X7X7X7X7X",
"7X7X7X7X7X7X7X7X*X*X*X*X$XE * * l l l l v v m <.#.#.t.h v v v * # .     q _.=X=X*X=X:X7X7X7X7X7X7X7X",
"7X7X7X7X7X7X7X&X*X*X*X*X].c s d 7 d d f d f <.%.%.$.%.i.g d f f 7 4 4 < X Q #X=X*X*X=X7X7X7X7X7X7X7X",
"7X7X7X7X7X7X7XoX$X=X=X$XC M @.%.#.w.%.%.#.%.%.w.%.#.%.%.%.o.%.%.#. .| | 4 q _.=X*X*X=X7X7X7X7X7X7X7X",
"7X7X7X7X7X7X7X*X*XOX*X`.c >.w.%.@.w.w.%.#.%.w.w.q.#.w.w.w.#.q.w.w.8.| { 8 X E #X*X&X#X&X7X7X7X7X7X7X",
"7X7X7X7X7X7X].XX=X=X XC r t.w.w.$.w.w.w.O.q.w.w.q.#.w.w.w.O.q.w.w.q. .} { 2 y ' |.}.}.@X7X7X7X7X7X7X",
"7X7X7X7X7X7X{.{.|.oX].l f t.w.q.8.w.p.p.#.w.w.w.q.O.p.p.p.O.q.w.w.8.8...{ 8 # n _.}.].oX7X7X7X7X7X7X",
"7X7X7X7X7X7X}.].{.}.).x -.p.p.w.8.p.e.w.O.w.w.b.q.8.p.s.b.#.q.p.w.q.8.q.} } , n ).{.{.XX7X7X7X7X7X7X",
"7X7X7X7X7X7X[.{.{.}./ M t.p.b.p.8.p.b.s.8.w.w.s.q.O.s.s.p.#.q.s.p.8.q.r. .} 3 x ' {.{.}.+X7X7X7X7X7X",
"7X7X7X7X7X[.{.{.{.{.E r u.a.a.a.0.a.d.d.0.a.s.b.r.8.b.b.d.t.u.d.d.8.u.a.:.} 3 q ) ].{.{.}.7X7X7X7X7X",
"7X7X7X7X7X[.}.{.{.].P q M r M Z B Z Z Y Y Y E.s.w.q.b.h.T K Z Y Z N M M 0 5 O q / }.{.{.{.7X7X7X7X7X",
"7X7X7X7X7X`.].].{.).V y * & x & & x z v v v G 3.a.q.l.K F F v x x z & & @     q W ].].[.{.7X7X7X7X7X",
"7X7X7X7X7X_._.}.{.' c & e e e e y x y c b b A l.r.q.d.1.b b b x y y y e X . @ % ^ (.].{.{.7X7X7X7X7X",
"7X7X7X.X_.' ).{.{.{.L w <.y.y.y.<.f.6.f.,.f.z.m.s.q.n.n.g.;.6.y.,.6.,.9.*.8 0 & ~ ' ).|..X.X+X7X7X7X",
"7X7X7X' ( ( ( ( ( ' P r l.m.m.n.r.m.r.n.e.d.3.3.l.r.k.1.u.r.e.m.n.e.e.n.-. .a y ~ ( ( ( ( ( ' 7X7X7X",
"7X7X7X( ( ' ( ( ( ' P w l.m.n.m.e.m.z.n.e.j I I 3.y.K I h 0.e.m.n.z.e.n.-.=.a q ! ( ( ( ( ( ( 7X7X7X",
"7X7X7X( ( ( ( ( ( / V r j.N.n.n.e.m.n.m.r.p U U 1.6.V I c ,.n.m.m.n.n.n.-.=.a q ! ( ( ( ( ( ' 7X7X7X",
"7X7X7X( ( ( ( ( ( ( v c g.B.m.n.e.N.N.N.f.h u i S 5.C u N 1.n.N.N.M.m.M.-.=.0 q E ( ( ( ( ( ( 7X7X7X",
"7X7X7X7X7X/ ' ' ' ( v q k.B.B.m.s.N.N.B.h.R j.W.E.5.E.j.R.1.m.N.B.H.M.M.9.=.0 % ! _.{._.' ! 7X7X7X7X",
"7X7X7X7X7X7X}..X.X XP q j.V.B.B.z.B.B.B.z.S R D h.z.S R R g.N.C.B.N.M.M.9.;.9 y .X;X;X;X:X7X7X7X7X7X",
"7X7X7X7X7X}.{.{.{.{.P w h.V.B.m.n.H.B.B.M.M.f.l.H.M.M.f.x.n.N.V.B.M.m.N.9.;.9 u XX=X=X=X-X7X7X7X7X7X",
"7X7X7X7X7X}.{.{.].].P c h.V.B.B.n.B.P.B.M.B.H.H.M.M.Y.H.H.m.H.C.B.N.M.N.9.;.9 u XX=X-X&X-X7X7X7X7X7X",
"7X7X7X7X7X7X{.{.].].V x h.P.B.P.n.V.P.P.H.B.Y.I.M.M.Y.Y.P.m.B.H.V.m.N.B.9.;.9 y [.=X&X&X%X7X7X7X7X7X",
"7X7X7X<X:X;X*X-X*X*XE q T.F.F.F.D.J.J.J.F.F.L.I.H.M.I.K.L.F.F.F.J.G.c.F.6.*.9 x }.@XOX@X#X*X*X7X7X7X",
"7X7X7X-X=X*X-X-X-X>X/.x r i m m i H H J J L E.L.Y.H.I.~.J J J J V N m c % . * H }.}.[.}.}.}.|.7X7X7X",
"7X7X7X=X*X=X*X*X*X*X' x & * q * = = = y F F G S.I.H.L.J F F F = = = & & o   $ b _.{.{.].{.[.[.7X7X7X",
"7X7X7X&X*X*X*X*X*X*X( x w r r r i i i N i H Z.J.Y.H.I.A.K N i i i i r 0 5 . $ u (.{.{.{.{.].].7X7X7X",
"7X7X7X&X&X%X@X&X&X%XE & 2.H.J.J.v.H.H.L.G.F.I.U.H.H.U.I.K.x.J.H.J.x.x.G.6.*.% y ' {.].].].{.{.7X7X7X",
"7X#X#XXXXX#XXX_..XXX( x E.U.U.U.M.U.U.U.Y.I.U.U.H.K.U.U.U.H.U.U.U.H.H.I.v.*.% N ' ' ' ].|.|.XX+X@X%X",
"{.].{.{.{.}._.( ( ) ! y j D.S.S.4.D.D.D.S.S.D.D.A.S.D.D.D.h.D.D.D.S.h.S.>.s * b ( ( ( ( {.{.{.{.}..X",
"{.{.{.{.{..X' ( ) ( Q W ) /.) /./.) /._._._._.}._.}._.}._._.) ) ' ) ) ) / W P n / ( ( ( ].{.{.{.{.{.",
"].}.}.}.}.].' ` ( / ` [.}.[.}.|.|.|. X$X&X&X&X$X&X&X&X&X&X&X@X X X.X X X X X X`./././.) /.}.{.{._._.",
"_.].].}.{.}.}.).( ( ( ` ) ( ( ( ) ) ' [.}.].].[._._._.}.}.}.|.}._.}._.}.}._._.}.}.}.|./.) ' /.' ' ' "
};
