/* XPM */
static char *result[] = {
/* columns rows colors chars-per-pixel */
"50 50 202 2 ",
"   c #32212E",
".  c #342332",
"X  c #3A2636",
"o  c #372E36",
"O  c #3A2B36",
"+  c #392738",
"@  c #362E38",
"#  c #3B2C3A",
"$  c #3D333D",
"%  c #39353C",
"&  c #7A1A2B",
"*  c #6A162B",
"=  c #4C2A37",
"-  c #422D3C",
";  c #4B2B3A",
":  c #5C2834",
">  c #42323E",
",  c #48313F",
"<  c #5C313E",
"1  c #57363F",
"2  c #6D2A33",
"3  c #662A37",
"4  c #732532",
"5  c #7D2634",
"6  c #792738",
"7  c #742A39",
"8  c #7C2C3A",
"9  c #752D36",
"0  c #6F333B",
"q  c #64363C",
"w  c #7B353C",
"e  c #76383B",
"r  c #3D2F40",
"t  c #3E3440",
"y  c #3F3941",
"u  c #422F41",
"i  c #423542",
"p  c #4C3543",
"a  c #433B45",
"s  c #4D3A46",
"d  c #463C49",
"f  c #4C3C4A",
"g  c #5C3C43",
"h  c #543E4B",
"j  c #523947",
"k  c #6E2F40",
"l  c #6D3241",
"z  c #633C43",
"x  c #6B3D44",
"c  c #633F48",
"v  c #643041",
"b  c #723641",
"n  c #733B43",
"m  c #7B3C43",
"M  c #454047",
"N  c #47434A",
"B  c #49434C",
"V  c #4B494E",
"C  c #5C424C",
"Z  c #58484E",
"A  c #4D4451",
"S  c #4D4C53",
"D  c #574453",
"F  c #5B4553",
"G  c #514E56",
"H  c #5E4858",
"J  c #515058",
"K  c #5E535D",
"L  c #64464F",
"P  c #6A454A",
"I  c #754142",
"U  c #7B4143",
"Y  c #74434C",
"T  c #7C484C",
"R  c #634759",
"E  c #62495B",
"W  c #77515C",
"Q  c #665661",
"!  c #6C5564",
"~  c #675964",
"^  c #6C5A66",
"/  c #6F5869",
"(  c #755C6C",
")  c #795E6D",
"_  c #735767",
"`  c #7B5F71",
"'  c #6D606B",
"]  c #74626E",
"[  c #79626E",
"{  c #756471",
"}  c #7C6474",
"|  c #7A6973",
" . c #88172B",
".. c #9D1429",
"X. c #961629",
"o. c #A81327",
"O. c #A61428",
"+. c #AB1529",
"@. c #AE1B29",
"#. c #A41327",
"$. c #B21E2B",
"%. c #8D2531",
"&. c #8C2B33",
"*. c #862A36",
"=. c #9B2531",
"-. c #9D2C34",
";. c #952C39",
":. c #84333D",
">. c #8D3339",
",. c #84393E",
"<. c #8B353A",
"1. c #92343C",
"2. c #9B3538",
"3. c #933C3D",
"4. c #963437",
"5. c #AD212C",
"6. c #A7232F",
"7. c #B4232C",
"8. c #B9252E",
"9. c #BC292F",
"0. c #B1282F",
"q. c #A62D32",
"w. c #AA2A32",
"e. c #A02034",
"r. c #BA2931",
"t. c #B92A31",
"y. c #A7353A",
"u. c #AC3B3B",
"i. c #A73735",
"p. c #B43335",
"a. c #BD3433",
"s. c #B23A37",
"d. c #BC3B37",
"f. c #B33A3B",
"g. c #C43232",
"h. c #C53C36",
"j. c #CB3B36",
"k. c #C93F39",
"l. c #D13E37",
"z. c #94413F",
"x. c #9A423F",
"c. c #A4423C",
"v. c #BE423A",
"b. c #B8433B",
"n. c #CE4136",
"m. c #C24138",
"M. c #CB443C",
"N. c #CD483B",
"B. c #C44237",
"V. c #D24537",
"C. c #D44438",
"Z. c #D7483A",
"A. c #833A42",
"S. c #873A40",
"D. c #913643",
"F. c #A33940",
"G. c #934341",
"H. c #9B4A49",
"J. c #8A4853",
"K. c #80535C",
"L. c #AA4743",
"P. c #914F62",
"I. c #895A69",
"U. c #885E72",
"Y. c #816677",
"T. c #856779",
"R. c #85697B",
"E. c #8B6D7F",
"W. c #8B717F",
"Q. c #99667A",
"!. c #8D6E82",
"~. c #906F84",
"^. c #8E7084",
"/. c #8E7986",
"(. c #927285",
"). c #997386",
"_. c #96758A",
"`. c #99758A",
"'. c #977B8C",
"]. c #9A7A8D",
"[. c #9D7E91",
"{. c #A27F95",
"}. c #9E8292",
"|. c #A38295",
" X c #A58598",
".X c #AA879C",
"XX c #AB899E",
"oX c #B18B9F",
"OX c #AE8CA2",
"+X c #B18DA2",
"@X c #AF90A2",
"#X c #B596AA",
"$X c #B996AB",
"%X c #BA99AC",
"&X c #B592A6",
"*X c #BF9FB2",
"=X c #C29FB3",
"-X c #C3A2B6",
";X c #C6A5B9",
":X c #CCACBF",
">X c #D3B5C6",
",X c None",
/* pixels */
",X,X,X,X,X,X,X,X,X,X,X,X,X,X,X,X,X,X,X,X,X,X,X,X,X,X,X,X,X,X,X,X,X,X,X,X,X,X,X,X,X,X,X,X,X,X,X,X,X,X",
",X,X,X,X,X,X,X,X,X,X,X,X,X,X,X,X,X,X,X,X,X,X%X-X-X>X;X;X,X,X,X,X,X,X,X,X,X,X,X,X,X,X,X,X,X,X,X,X,X,X",
",X,X,X,X,X,X,X,X,X,X,X,X,X,X,X,X,X,X,X,X,X_.'.[.OX$XOX+X*X>X,X,X,X,X,X,X,X,X,X,X,X,X,X,X,X,X,X,X,X,X",
",X,X,X,X,X,X,X,X,X,X,X,X,X,X,X,X,X,X,X(.^.^.!.!.].OXOXOX+X;X>X,X,X,X,X,X,X,X,X,X,X,X,X,X,X,X,X,X,X,X",
",X,X,X,X,X,X,X,X,X,X,X,X,X,X,X,X,X,X^.^.^.^.^.^._.OXOXOXOX+X$X-X,X,X,X,X,X,X,X,X,X,X,X,X,X,X,X,X,X,X",
",X,X,X,X,X,X,X,X,X,X,X,X,X,X,X,X,XY.E.^.^.^.!.!.~.{.+XOXOXOXOXOX+XOX,X,X,X,X,X,X,X,X,X,X,X,X,X,X,X,X",
",X,X,X,X,X,X,X,X,X,X,X,X,X,X,X) R.^.R.!.^.^.^.!./ / ].OX+XOXOXOX|.[. X,X,X,X,X,X,X,X,X,X,X,X,X,X,X,X",
",X,X,X,X,X,XJ s ,X,X,X,X,X,X( ( ( ^.W.R.^.!.` h - + f `  X+XOX|.(.^._. X,X,X,X,X,X,Xp G ,X,X,X,X,X,X",
",X,X,X,X,X,XJ v * ,X,X,X,X,X( ( ( Y.'.} ` R , # ,X,XX - E `.{.!.!.~.(.`.OX,X,X,X,X,X3 J ,X,X,X,X,X,X",
",X,X,X,X,X,XJ k  .,X,X,X,X( ( ( ( ( ^./ , - > ,X,X,X,X# - j H R.(.^.!.(.|.,X,X,X,X& 6 G ,X,X,X,X,X,X",
",X,X,X,X,X,XJ k ..,X,X,X) ( ( ( ( ) R.D X X i ,X,X,X,X# i X - _ !.!.!.~.(. X,X,X,XX.6 G ,X,X,X,X,X,X",
",X,X,X,X,X,XJ k #. .,X,X) ( ( ( ) ( F p ,X,Xi ,X,X,X,X$ ,X,XX p ( ^.^.!.!.`.OX,X& #.6 G ,X,X,X,X,X,X",
",X,X,X,X,X,XJ l o.X.U.`.) ) ( ( / h i u ,Xi d d ,X,Xa a B ,Xd > p } !.!.!.`.$X{. .o.6 J ,X,X,X,X,X,X",
",X,X,X,X,X,XJ l +.O.P.$X]._ ( ( H p O + O O # # $ $ $ > t i a i - h R.(.^.{.$XQ...@.8 S ,X,X,X,X,X,X",
",X,X,X,X,X,XG l +.+.D.OX=X[._ H p i ,X,X,X,X$ ,X,X,X,X$ ,X,X,X,XO - E R.[.OXOXJ.O.+.8 S ,X,X,X,X,X,X",
",X,X,X,X,X,XS b +.$.e.).&X%X} - - d ,X,X,X,X$ ,X,X,X,X$ ,X,X,X,X# i - H  XOX{.;.O.+.8 S ,X,X,X,X,X,X",
",X,X,X,X,X,XJ l ;.:.6 U.+X+X/ O O a ,X,X,X,Xi ,X,X,X,X$ ,X,X,X,XO d   s }.@X~.6 8 D.8 S ,X,X,X,X,X,X",
",X,X,X,X,X,XS x L d u E +X'.j ,X,Xd ,X,X,X,Xa ,X,X,X,X> ,X,X,X,X# B ,X# ) XX) - a D n S ,X,X,X,X,X,X",
",X,X,X,X,X,XG z j i r f {.Q - # r a t r r r a i i a i a d a a a d N M a j _.E # i a v S ,X,X,X,X,X,X",
",X,X,X,X,X,XG l %.4 4 7 _ p . . . # + + + + # $ $ @ $ @ $ $ t $ % y % $ - L b 4 7 *.8 S ,X,X,X,X,X,X",
",X,X,X,X,X,XG b 7.$.$.5.g ,X,X,X,Xa ,X,X,X,Xt ,X,X,X,X$ ,X,X,X,X% a ,X,X,X= =.8.@.$.8 S ,X,X,X,X,X,X",
",X,X,X,X,X,XS n 7.$.7.@.2 ,X,X,X,Xa ,X,X,X,Xi ,X,X,X,X$ ,X,X,X,X# d ,X,X,X: 6.8.$.8.8 S ,X,X,X,X,X,X",
",X,X,X,X,X,XS b 8.5.7.7.%.,X,X,X,Xd ,X,X,X,Xt ,X,X,X,X> ,X,X,X,X# N ,X,X,X5 5.0.$.8.:.S ,X,X,X,X,X,X",
",X,X,X,X,X,XS b 8.7.7.7.=.,X,X,X,Xd ,X,X,X,Xi ,X,X,X,Xa A ,X,X,Xi B ,X,X,X&.7.7.7.8.:.A ,X,X,X,X,X,X",
",X,X,X,X,X,XS n 8.7.r.7.=.# + + O > # # - # i $ $ $ $ a a t a a d d a M M &.7.7.7.8.:.S ,X,X,X,X,X,X",
",X,X,X,X,X,XS n 8.7.r.r.w.,X,X,X. # ,X,X,X,X# ,X,X,X,X% $ ,X,X,Xo $ ,X,X,X-.7.7.7.8.:.S ,X,X,X,X,X,X",
",X,X,X,X,X( G n r.8.r.p.q.,X,X,X,Xi ,X,X,X,X> ,X,X,X,X> ,X,X,X,Xo M ,X,X,X-.7.7.7.9.,.S ~ ,X,X,X,X,X",
",X,X,X,X,X[ G n y.A.b v ; ,X,X,X,Xa ,X,X,X,Xi ,X,X,X,Xi ,X,X,X,Xo N ,X,X,X; g l m F.,.S ^ ,X,X,X,X,X",
",X,X,X,X,X^ G n Y M t # O ,X,X,X,Xa ,X,X,X,Xi ,X,X,X,Xt ,X,X,X,Xo N ,X,X,XO # i a L m S ~ ,X,X,X,X,X",
",X,X,X,X'.| S x g a i - = ,X,X,Xi i ,X,X,Xi d f ,X,X,Xa V ,X,X,X> N ,X,X,X; ; , y h n S ] }.,X,X,X,X",
",X,X,X^.} / S n >.w &.q.;.- + + + # # # # # i t t % % t a y y y a a a M a <.w.&.9 :.S.S ( R.(.,X,X,X",
",X,X,X[ ( ^ S I 1.2.r.g.p.,X,X,X,Xi ,X,X,X,X# ,X,X,X,X# ,X,X,X,Xo % ,X,X,Xq.g.r.q.>.A.V Q ( | ,X,X,X",
",X,X,X( ( ^ S C C ! 2.g.p.,X,X,X,Xd ,X,X,X,Xt ,X,X,X,X$ ,X,X,X,Xo M ,X,X,Xq.g.q.W D c V Q ( [ ,X,X,X",
",X,X,X) ( ^ G g D A w g.p.,X,X,X,Xa ,X,X,X,Xi ,X,X,X,X> ,X,X,X,X# M ,X,X,Xq.g.1.f G L V Q ( ( ,X,X,X",
",X,X,X_ ( Q A P c : :.a.f.,X,X,X,Xa ,X,X,X,Xi ,X,X,X,Xi ,X,X,X,X# f ,X,X,Xp.j.D.3 g n V K ! ! ,X,X,X",
",X,X,X,X,X,XS x m >.<.h.y.; # u u a i u i r d a a a i i f M d N a B B B B 3.g.3.<.w m S K ,X,X,X,X,X",
",X,X,X,X,X,XS I 2.0 i.g.y.X . . + # O # # O # # # $ # $ t % % $ % a a a % 3.j.s.0 <.G.S { ,X,X,X,X,X",
",X,X,X,X,X,XS m h.d.k.j.d.,X,X,X,Xt ,X,X,X,X$ ,X,X,X,X# ,X,X,X,Xo a ,X,X,Xu.j.j.a.j.,.V { ,X,X,X,X,X",
",X,X,X,X,X,XS U j.j.j.j.h.,X,X,X,Xa ,X,X,X,X> ,X,X,X,X$ ,X,X,X,XO d ,X,X,Xu.j.j.j.V.z.V ' ,X,X,X,X,X",
",X,X,X,X,X/.S n j.h.l.j.d.,X,X,X,Xa ,X,X,X,Xi ,X,X,X,X$ ,X,X,X,XO N ,X,X,Xs.j.j.j.l.z.V | ,X,X,X,X,X",
",X,X,X$X&X].S U n.j.M.f.,.,X,X,X,Xa ,X,X,X,Xa ,X,X,X,Xi ,X,X,X,X$ B ,X,X,Xe u.B.j.V.z.V | ].}.,X,X,X",
",X,X,XOXOX'.S U M.L.U p # O X # # > $ $ u i i t a i i i a a a a a d M N M $ p I H.M.z.B ] ^.(.,X,X,X",
",X,X,XOX+X'.V U H.B a # O ,X,X,X  # ,X,X,X. o % ,X,X,XO $ ,X,X,Xo t ,X,X,XO X $ a J.G.B ] ^.^.,X,X,X",
",X,X,X.XOX'.V P L M i < 0 ,X,X,X,Xa ,X,X,X,X$ ,X,X,X,X$ ,X,X,X,X% ,X,X,X,X2 q > i Z T V ] (.^.,X,X,X",
",X.XXX|.].(.S I x 1 3.h.m.,X,X,X,X,X,X,X,X,Xi ,X,X,X,X,X,X,X,X,X,X,X,X,X,Xi.B.2.x 1 U V } _.].|. X,X",
"(.(.(.^.(.Y.V U v.v.V.V.L.,X,X,X,X,X,X,X,X,X,X,X,X,X,X,X,X,X,X,X,X,X,X,X,Xx.V.V.B.v.x.V { ~.!.(.(.].",
"W.~.!.~.W.Y.N I Z.Z.n.x.K.).).).).).).|.oX+XOX+X+X+X+XoXoX.X~.~.).).`.(.).I.z.B.V.Z.G.B { ^.^.!.^.^.",
",X^.^.(./.Y.N I N.c.J.) E.W.(.).).).)..XXX.XOX.X.X.XXX.X.XoX{.`.`.`.`.`.).).T.W x.N.G.B ( ^.^.^.!.E.",
",X~.^.(.(.} V g e L / } ( ) ) ) [ ) Y.(.(.(.(.^.!.E.!.~.(._.`._.(.~.~.~.~.~.~.!./ m I N ~ T.Y.} } } ",
",X,X,X,X,X,X,X,X,X,X,X,X,X,X,X,X,X,X,X,X,X,X,X,X,X,X,X,X,X,X,X,X,X,X,X,X,X,X,X,X,X,X,X,X,X,X,X,X,X,X"
};
