/* XPM */
static char *result[] = {
/* columns rows colors chars-per-pixel */
"40 40 197 2 ",
"   c #130802",
".  c #061717",
"X  c #091F1F",
"o  c #2C1304",
"O  c #351300",
"+  c #3C1500",
"@  c #33261C",
"#  c #3B2315",
"$  c #0B2323",
"%  c #0D2D2C",
"&  c #1D292C",
"*  c #133C3C",
"=  c #0F3131",
"-  c #39352D",
";  c #393A35",
":  c #471D05",
">  c #591F00",
",  c #49220A",
"<  c #542205",
"1  c #5B2202",
"2  c #522309",
"3  c #5B280E",
"4  c #432410",
"5  c #682A08",
"6  c #752D04",
"7  c #792F05",
"8  c #7B3107",
"9  c #7E340C",
"0  c #77300A",
"q  c #7B3914",
"w  c #773513",
"e  c #6A2E0F",
"r  c #2D3E41",
"t  c #174B4B",
"y  c #174848",
"u  c #1E5959",
"i  c #1C5555",
"p  c #2B4245",
"a  c #38494A",
"s  c #385355",
"d  c #226969",
"f  c #257676",
"g  c #3C7779",
"h  c #3B6E6E",
"j  c #455354",
"k  c #6D5549",
"l  c #625E5B",
"z  c #6C655A",
"x  c #796357",
"c  c #435E63",
"v  c #446066",
"b  c #42666B",
"n  c #4B686F",
"m  c #5D6866",
"M  c #4C6B72",
"N  c #497279",
"B  c #407E7F",
"V  c #527075",
"C  c #737472",
"Z  c #82360D",
"A  c #8B3B0F",
"S  c #8B3D14",
"D  c #843B14",
"F  c #933F10",
"G  c #8E421C",
"H  c #8F4016",
"J  c #934216",
"K  c #994315",
"L  c #92441D",
"P  c #9A461A",
"I  c #9E491D",
"U  c #A34A1B",
"Y  c #AA4E1D",
"T  c #A04718",
"R  c #AE511F",
"E  c #B0521F",
"W  c #8A4A28",
"Q  c #944720",
"!  c #9B4B24",
"~  c #9E4F29",
"^  c #974A21",
"/  c #925531",
"(  c #94512D",
")  c #A34D23",
"_  c #A84F24",
"`  c #A24F28",
"'  c #AB5124",
"]  c #A5522B",
"[  c #AA5329",
"{  c #A25027",
"}  c #B45422",
"|  c #B25628",
" . c #BA5826",
".. c #A55531",
"X. c #A95935",
"o. c #A75D3C",
"O. c #AE5D39",
"+. c #B45A32",
"@. c #B25E39",
"#. c #B4623E",
"$. c #BB633D",
"%. c #CB632D",
"&. c #C7602B",
"*. c #CF6937",
"=. c #CD6B3C",
"-. c #C96639",
";. c #D16A36",
":. c #D06938",
">. c #D86C38",
",. c #DC713D",
"<. c #E2733D",
"1. c #E9773F",
"2. c #885C48",
"3. c #915A41",
"4. c #9D6447",
"5. c #A66142",
"6. c #B66442",
"7. c #BB6642",
"8. c #BC6846",
"9. c #BB6B4A",
"0. c #B5765B",
"q. c #B47960",
"w. c #C36741",
"e. c #C36B46",
"r. c #CB6C46",
"t. c #C36C48",
"y. c #CC6D48",
"u. c #D16E46",
"i. c #D16F48",
"p. c #CD7346",
"a. c #C97248",
"s. c #D67244",
"d. c #DC7445",
"f. c #D27248",
"g. c #DE7648",
"h. c #D9794B",
"j. c #D37A50",
"k. c #E27642",
"l. c #E07847",
"z. c #E37948",
"x. c #E97947",
"c. c #D0825D",
"v. c #CF8561",
"b. c #457E84",
"n. c #2B8182",
"m. c #398285",
"M. c #338D8E",
"N. c #3D9497",
"B. c #3CBABB",
"V. c #3DA3A4",
"C. c #43888D",
"Z. c #5D858C",
"A. c #419195",
"S. c #4C9398",
"D. c #688D89",
"F. c #64968E",
"G. c #638A92",
"H. c #6D8F95",
"J. c #6D949C",
"K. c #659896",
"L. c #61A19C",
"P. c #5E9DA3",
"I. c #6C9BA3",
"U. c #48A6A9",
"Y. c #59A4A9",
"T. c #51AEB2",
"R. c #40BDBE",
"E. c #58BABE",
"W. c #53B1B5",
"Q. c #4DAEB1",
"!. c #6AA3AB",
"~. c #68A4AB",
"^. c #67AEB4",
"/. c #68A9B0",
"(. c #65B3B9",
"). c #63B9BF",
"_. c #67B1B7",
"`. c #40BFC0",
"'. c #48BFC0",
"]. c #59BEC2",
"[. c #62BDC3",
"{. c #3FC3C4",
"}. c #41C1C2",
"|. c #45CBCB",
" X c #48C9CA",
".X c #5ECACE",
"XX c #5AC7CA",
"oX c #4ACFD0",
"OX c #5ECED2",
"+X c #53CFD2",
"@X c #44D1D1",
"#X c #5DD1D5",
"$X c #5CD6DA",
"%X c #56D5D8",
"&X c #62C1C6",
"*X c #61C4C9",
"=X c None",
/* pixels */
"=X=X=X=X=X=X=X=X=X=X=X=X=X=X=X=X* y t t t t t * =X=X=X=X=X=X=X=X=X=X=X=X=X=X=X=X",
"=X=X=X=X=X=X=X=X=X=X=X=X=Xy n.n.B.+XE.E.E.E.+X}.n.n.i =X=X=X=X=X=X=X=X=X=X=X=X=X",
"=X=X=X=X=X=X=X=X=X=Xt d B.Q._._._.$X_.J.J.~.#X^._.^.T.B.f t =X=X=X=X=X=X=X=X=X=X",
"=X=X=X=X=X=X=X=Xf M.T.]..X&XJ.G.G.g s a a s B G.G.J.[.*X].E.M.f =X=X=X=X=X=X=X=X",
"=X=X=X=X=X=X* M.+X#X!.J.H.A.g @ @ 2 1 1 1 > : @ @ h A.G.J.I..X%XN.y =X=X=X=X=X=X",
"=X=X=X=X=Xu U./.I.(.T.s ; : < 6 6 U [ ~ ~ ` L 6 8 1 : - a Q.).I.~.U.d =X=X=X=X=X",
"=X=X=X=Xy oX_.J.J.V ; 1 5 D ! $.P %.f.8.8.8.X.U >.' S 5 < - n J.I.^.oXu =X=X=X=X",
"=X=X=X= V.[.*XY.j 4 6  .+.7.6.y.U %.f.8.8.8...Y z.r.e.+.' 6 , j I.*X].U.* =X=X=X",
"=X=X=Xf XXJ.I.s : 9 D 1.s.e.e.y.! %.f.6.e.8...Y g.r.u.u.=.S F : a I.J.].n.=X=X=X",
"=X=Xy +X^.I.n # 5 ..F <.p.r.e.r.Q %.f.r.r.8..._ g.8.r.u.-.J >.0 4 c I.^.+Xu =X=X",
"=X$ R._..XY.; > ~ 6.J <.r.r.r.y.Q %.f.r.u.e...Y g.8.t.y.#.J <.[ > - P..X(.'.% =X",
"=X$  XI.I.c o G 6.6.S <.t.r.y.8.Q %.s.r.u.8...Y g.8.8.p.$.J k.8.S : s I.I.oX% =X",
"=Xd XXI.Z.; < ~ 8.6.J <.e.e.r.8.Q %.f.r.r.e.] Y l.8.8.y.w.K k.t.` > ; b.I.].f =X",
". {.$X#XN.o T =.8.6.J <.e.8.8.8.Q %.l.r.e.r.X.Y l.8.8.y.=.K k.e.6.L O m.$X$X@X$ ",
". }.^.!.N o ' s.6.@.F >.8.6.6.6.L &.d.7.7.r.] U d.#.6.8.$.J ,.7.6.! O h I./.|.$ ",
". }.~.H.z D U ' ) ) P _ Y ) Y ) K Y R ) ) _ U T R ) Y ) U K R ) ) K Z x H.!. X$ ",
". }.#XL.! x.s.s.c.h.s.s.s.j.c.s.s.s.s.s.v.f.s.s.u.s.c.j.s.s.s.j.j.f.s.! K.OX@X$ ",
". }.[.F./ -.X.X.5.O.X.X.X.o.5.X.X.X.X.X.5.X.X.X.X.X.5.o.X.X.X.o.5.X.O.W D.].|.$ ",
". `.~.J.m 2 7 8 0 7 6 7 8 8 0 8 7 7 9 9 7 9 7 7 Z 8 7 8 0 6 8 8 9 7 > m J.I.|.$ ",
". }.&X_.C.o Y -.O.X.S ;.-.@.O.O.S  .-.O.O.@.[ T *.X.O.O.X.F %.$.@.Q O h (.[. X$ ",
". {..X&XC.o } l.6.6.L k.i.y.8.8.! %.z.r.8.e.+.Y g.8.8.8.#.J x.u.i.` O g [..X@X$ ",
". `.~.J.M o } t.x 2.S <.e.r.e.8.Q %.f.r.e.i.+.Y g.8.e.8.#.J 1.u.r._ O c I.I. X$ ",
". }.(.~.N o } 4.C l q <.e.r.r.8.Q %.u.r.y.u...Y l.8.r.e.#.J 1.u.e.[ O b I._. X$ ",
". }.$X#XN.o } h.k 2.S <.e.e.r.r.Q %.f.e.u.i...Y g.7.r.t.#.J 1.u.r.[ O m.OX$X@X$ ",
". }./.J.M o } g.k / J <.e.6.e.y.L %.f.8.u.u...Y l.8.r.e.#.J 1.s.i.` O c J.!.|.$ ",
". `./.I.M o } g.k 3.P <.e.8.e.y.^ %.f.8.u.y...Y g.8.r.e.#.J <.r.y.! O c I.!. X$ ",
". {.$XOXN.o } i.l 2.S <.e.8.8.y.) %.f.8.u.y...Y l.t.r.u.6.J k.e.i.) O m.OX$X@X$ ",
". }.(.!.N o } 4.C l q <.e.8.8.e.! %.f.7.u.u...Y l.r.u.u.7.J <.r.i.) O h !./. X$ ",
". }.~.J.M o } r.x 2.H <.t.8.8.r.U %.y.8.e.e...Y l.r.r.y.#.J k.e.y.! O c J.!. X$ ",
". }.OX*XC.o } d.6.6.J <.t.8.6.r.) %.f.6.8.8...Y x.r.e.y.$.J <.e.6.~ O B &X.X@X$ ",
". }.&X_.b.o } g.8.6.J <.t.8.8.y.! %.f.8.8.8...Y x.y.8.y.-.K k.e.8.~ O h (.).|.$ ",
". `.~.J.m 3 K [ ! ~ A } ] ~ ` ] F Y [ ~ ` ` L K  .[ { { ` S } { ` J 1 m H.!. X$ ",
". }.&XK./ >.:.:.p.r.:.*.;.p.p.*.;.;.;.:.f.=.:.;.*.*.p.=.*.;.*.p.p.*.;.( D.[. X$ ",
". {.$XK.~ l.7.7.0.9.7.7.7.9.0.7.8.6.7.6.q.8.7.8.7.7.0.9.7.7.7.9.0.7.$.W F.+X|.$ ",
". `.~.H.z w Z Z 9 9 9 9 9 9 9 9 Z Z 9 Z 9 9 9 9 9 Z q Z 9 9 9 9 Z Z e z H.I. X$ ",
". `.(.!.N o F | [ ! Z } ~ ` ] ! D U ` ` ] ` G F | { { { ~ Z } ~ ~ S O b !.^.|.$ ",
". {.$XOXN.o } g.r.8.J <.t.e.y.8.Q %.s.y.u.y.X.Y z.e.e.i.7.J k.e.8.~ O m.#X%X@X$ ",
". `./.I.M o } g.r.e.J <.t.r.e.8.Q %.f.i.e.u...Y l.8.r.y.6.J k.e.8.! O c I.~. X$ ",
". R.~.J.M o | s.8.-.J <.r.e.8.8.Q &.d.r.e.r.+.) g.6.8.8.@.J k.e.8.! O c J.I.|.$ ",
"=Xu p r &   e P Q D 2 J P L G L 3 w ) Q S L w 3 I G L L D 2 L L G e   & r p i =X"
};
