/* XPM */
static char *result[] = {
/* columns rows colors chars-per-pixel */
"40 40 182 2 ",
"   c #322B1D",
".  c #37311F",
"X  c #3A3322",
"o  c #5B1E2F",
"O  c #5C1E30",
"+  c #4E222A",
"@  c #52212B",
"#  c #5B262F",
"$  c #453E2B",
"%  c #5D2533",
"&  c #663337",
"*  c #6C3C3B",
"=  c #743E3C",
"-  c #77282D",
";  c #744638",
":  c #7B5737",
">  c #7C5738",
",  c #775436",
"<  c #585148",
"1  c #774B43",
"2  c #7D5145",
"3  c #715C51",
"4  c #666356",
"5  c #76715F",
"6  c #756F69",
"7  c #716B63",
"8  c #737565",
"9  c #75796A",
"0  c #7D7A68",
"q  c #7C7670",
"w  c #872D2C",
"e  c #952F2E",
"r  c #992F2F",
"t  c #9D2F30",
"y  c #8F3432",
"u  c #843A36",
"i  c #953232",
"p  c #9B3334",
"a  c #AB3639",
"s  c #A53538",
"d  c #8A4A3C",
"f  c #90453A",
"g  c #835C3B",
"h  c #895F3D",
"j  c #87603E",
"k  c #8C613E",
"l  c #AC3C41",
"z  c #B43C41",
"x  c #BA3E45",
"c  c #9F4F59",
"v  c #995555",
"b  c #AF484A",
"n  c #A45F5F",
"m  c #8D634F",
"M  c #8B6747",
"N  c #916642",
"B  c #986D47",
"V  c #98644C",
"C  c #8F714A",
"Z  c #9C764E",
"A  c #94764E",
"S  c #826D56",
"D  c #9E695C",
"F  c #996756",
"G  c #9C7857",
"H  c #8A725A",
"J  c #A1774E",
"K  c #A36B5C",
"L  c #A1655D",
"P  c #BF665F",
"I  c #A37D53",
"U  c #AA7C5E",
"Y  c #A37658",
"T  c #885F60",
"R  c #AB5C64",
"E  c #AA5465",
"W  c #B05768",
"Q  c #B55A6B",
"!  c #B95B6E",
"~  c #B05C67",
"^  c #BE5C71",
"/  c #A66160",
"(  c #AB7F60",
")  c #B66A77",
"_  c #B96D79",
"`  c #B37878",
"'  c #BD7669",
"]  c #CC424B",
"[  c #D5434E",
"{  c #DB444F",
"}  c #CA4B51",
"|  c #DB4450",
" . c #C55254",
".. c #C65F76",
"X. c #C1726C",
"o. c #C96278",
"O. c #D47271",
"+. c #C36A68",
"@. c #AC8357",
"#. c #AC8659",
"$. c #B48C5D",
"%. c #B88F5F",
"&. c #97896F",
"*. c #9E9279",
"=. c #938972",
"-. c #AD8162",
";. c #AD896D",
":. c #A5876F",
">. c #B38564",
",. c #B88C6B",
"<. c #B79060",
"1. c #BA9261",
"2. c #BA906F",
"3. c #A9987C",
"4. c #BD9371",
"5. c #BD9A79",
"6. c #B08674",
"7. c #C2897A",
"8. c #C3997A",
"9. c #3573BE",
"0. c #687F9A",
"q. c #4C74A2",
"w. c #B97880",
"e. c #CE6B80",
"r. c #C27E87",
"t. c #C47F89",
"y. c #C27783",
"u. c #D27386",
"i. c #D5798B",
"p. c #808B95",
"a. c #9D9895",
"s. c #B39E82",
"d. c #BEAA8B",
"f. c #B6A284",
"g. c #AEA190",
"h. c #B1ADAC",
"j. c #CC838D",
"k. c #CE8F99",
"l. c #D38793",
"z. c #DC8494",
"x. c #D68A96",
"c. c #D88B97",
"v. c #DD8D9A",
"b. c #D78D99",
"n. c #C9969D",
"m. c #E18E9D",
"M. c #E3919F",
"N. c #CAA784",
"B. c #C3AC8D",
"V. c #CEAC8B",
"C. c #C7A686",
"Z. c #CEAE90",
"A. c #CAB594",
"S. c #CEB897",
"D. c #D2B492",
"F. c #D4BE9C",
"G. c #D9BD9A",
"H. c #C69BA1",
"J. c #E89DA0",
"K. c #CABBA7",
"L. c #CDB5B9",
"P. c #C6A7AC",
"I. c #E9A2A5",
"U. c #D7C09E",
"Y. c #DBC19D",
"T. c #DDC5A2",
"R. c #DFC8A4",
"E. c #CCC1B4",
"W. c #E0C7A3",
"Q. c #E2CAA6",
"!. c #A6CEE2",
"~. c #D4C8C6",
"^. c #D7D2CF",
"/. c #DAD7D9",
"(. c #D9D5D7",
"). c #E5E2E5",
"_. c #EDE9EE",
"`. c #E9E5E9",
"'. c #F1EEF3",
"]. c #F4F2F7",
"[. c #F5F3F8",
"{. c None",
/* pixels */
"{.{.{.{.{.{.{.{.{.{.{.{.{.{.{.{.{.{.{.` i.v.m.m.m.v.t.{.{.{.{.{.{.{.{.{.{.{.{.{.",
"{.{.{.{.{.{.{.{.{.{.{.{.{.{.{.{.x.M.m.J.M.M.J.m.M.M.M.M.m.{.{.{.{.{.{.{.{.{.{.{.",
"{.{.{.{.{.{.{.{.{.{.{.{.{.{.v.z.M.M.M.M.M.M.M.M.M.M.M.M.M.M.l.{.{.{.{.{.{.{.{.{.",
"{.{.{.{.{.{.{.{.{.{.{.{.{.v...o.M.M.M.M.M.M.M.M.M.M.M.M.M.m.J.v.{.{.{.{.{.{.{.{.",
"{.{.{.{.{.A M #.<.{.{.{.z.....o.M.M.M.M.H.~.v.m.m.L.v.M.M.M.M.M.M.{.{.{.{.{.{.{.",
"{.{.{.{.A 1.1.Z I <.{.J.....! u.M.M.M.H.[.[.].H.'.[.'.M.M.M.m.M.M.m.{.C <.C {.{.",
"{.{.{.{.{.k <.1.g 1.` e...^ ..i.M.z.M.k._.[.[.[.[.[.L.M.M.M.m.M.M.M.{.k Z 1.{.{.",
"{.{.{.{.{.{.k 1.Z #.$.....^ ..u.M.M.M.M.M._.[.].[.'.b.M.M.M.M.M.c.M.{.{.k 1.@.G ",
"{.#.1.{.{.{., $.$.J 1...........M.M.M.v._.].].).).[.[.b.M.M.t.M.M.M.{.{.h 1.M 1.",
"{.k 1.{.{.{.{.@.<.B 1...........M.M.M.n.].]._.l.P.[._.M.M.M.M.M.M.M.{.{.N 1.k $.",
"> k $.{.{.{.{.@.%.B 1.......! ..v.t.t.b.m.M.v.J.m.v.t.w.l.m.M.M.l.M.{.{.J $.B #.",
"k k N {.{.{., $.$.Z 1.......^ y.M.M.M.M.M.M.J.m.J.m.M.M.M.M.v.t.M.M.> h 1.h 1.{.",
"g > k N > h k k N N B ....E M.M.M.M.M.M.m.M.m.m.M.M.m.J.M.M.M.M.v.j.N h M I #.{.",
"{.k g k k k k k k k c E ....i.J.M.z.) ! ..o.o.o.....^ Q ) l.M.M.M.M.D M I I {.{.",
"{.: k g k k k k k k v o.....u._ ......^ R L K K / R Q ........) M.M.M.F {.{.{.{.",
"{., h : k k k h {.F ..! ..! ....^ D >.>.>.>.>.>.-.;.>.>.( R ....^ x.v.M.{.{.{.{.",
"{.{.{.> g : {.{.{.....E W ..../ >.>.>.5.D.T.Y.Y.D.N.2.>.>.>.Y o.....w.J.j.{.{.{.",
"{.{.{.{.{.{.{.{.E ....W ....D >.>.5.d.R.Q.Q.Q.Q.Q.Q.Q.Q.Q.8.>.Y ....Q x.J.{.{.{.",
"{.{.{.{.{.{.{.{.....W ....~ >.;.h.6 ^.Y.R.Q.Q.R.Q.Q.Q.f.T.Q.Y.>.R ..o.j.m.{.{.{.",
"{.{.{.{.{.{.{.{...Q ......( >./.    < F.Q.Q.Q.R.Q.Q.Q.~.6 a.K.D.( T 8 ^ b.{.{.{.",
"{.{.{.{.{.{.{.{...Q ......>.>./.    q T.R.R.R.T.T.Q.T.7     (.R.G 9 9 Q 9 4 {.{.",
"{.{.{.{.{.{.{.{.........Q >.>.-.).^.L.Q.Q.R.g.9.!.p.T.a.    ).Q.8 0 9 X 9 8 {.{.",
"{.{.{.{.{.{.{.{.^ ..^ Q ~ >.>.>.T.Q.Q.Q.Q.R.R.0.q.R.Q.K./.).F.A.R.Q.Q.&.8 9 {.{.",
"{.{.{.{.{.{.{.{.^ ......^ >.>.2.R.Q.Q.Q.T.R.Q.T.R.Q.Q.Q.Q.Q.Q.d.T.s.Q.Q.Q.5 {.{.",
"{.{.{.{.{.{.{.{.Q ........Y >.,.Q.Q.Q.Q.Q.F.1 = = d.Z.Q.Q.Q.Q.B.W.*.Q.T.Q.A.{.{.",
"{.{.{.{.{.{.{.{.{.........~ >.>.Q.Q.Q.Q.Q.Q.X.O.+.Q.Q.Q.Q.Q.Q.A.Q.W.Q.=.d.{.{.{.",
"{.{.{.{.{.{.{.{.{.{.........~ >.8.Q.Q.Q.Q.Q.7.J.6.Q.Q.Q.Q.Q.A.Q.G.;.Y.T.s.{.{.{.",
"{.{.{.{.{.{.{.{.{.{.{.! ......c U 2.Q.Q.Q.Q.B.I.W.Q.Q.Q.Q.B.Q.Q.3.{.{.{.{.{.{.{.",
"{.{.{.{.{.{.{.{.{.{.{.{.{.4 3 r r d U ,.V.W.W.Y.Q.Q.Q.Q.A.F.S.{.{.{.{.{.{.{.{.{.",
"{.{.{.{.{.{.{.{.{.{.{.u 5.9 $ H V [ z y f D U U -.( F F.A.{.{.{.{.{.{.{.{.{.{.{.",
"{.{.{.{.{.{.{.{.{.l p d W.3.9 8 V.Q.G.[ [ x { l  .D.Q.T.y {.{.{.{.{.{.{.{.{.{.{.",
"{.{.{.{.{.{.{.{.b p y >.N.Q.3.S Y.Q.7.z i b s | T.Q.Q.C.p {.{.{.{.{.{.{.{.{.{.{.",
"{.{.{.{.{.{.{.{.z p r Y d m Y >.Y.Q.7.{ ' V.[ | Z.Q.Q.V.t t {.{.{.{.{.{.{.{.{.{.",
"{.{.{.{.{.{.{.] r t r a e & >.>.V.Q.Q.W.W.P | } 3.Q.A.K t t {.{.{.{.{.{.{.{.{.{.",
"{.{.{.{.{.{.{.z {.{.a a t o >.>.,.Q.Q.T.S.Q.D.Q.F.Q.Q.p t t e {.{.{.{.{.{.{.{.{.",
"{.{.{.{.{.{.{.{.{.{.{.r t - 1 >.>.8.Q.Q.Q.Q.Q.Q.Q.Q.:.r r t t {.{.{.{.{.{.{.{.{.",
"{.{.{.{.{.{.{.{.{.{.{.{.- e # * -.>.,.Y.Q.Q.Q.Q.Y.:.w {.{.{.s {.{.{.{.{.{.{.{.{.",
"{.{.{.{.{.{.{.{.{.{.{.{.{.{.F ; O # & 2 m m 1 % @ {.{.{.{.{.{.{.{.{.{.{.{.{.{.{.",
"{.{.{.{.{.{.{.{.{.{.{.{.{.{.X . . {.+ + @ @ {.{.{.{.{.{.{.{.{.{.{.{.{.{.{.{.{.{.",
"{.{.{.{.{.{.{.{.{.{.{.{.{.{.  . {.{.{.. . {.{.{.{.{.{.{.{.{.{.{.{.{.{.{.{.{.{.{."
};
