/* XPM */
static char *result[] = {
/* columns rows colors chars-per-pixel */
"50 50 207 2 ",
"   c #6A2F28",
".  c #723330",
"X  c #704622",
"o  c #1C245D",
"O  c #1B2155",
"+  c #151D68",
"@  c #111D75",
"#  c #1D2562",
"$  c #1C246B",
"%  c #1B246B",
"&  c #1C2575",
"*  c #1B257A",
"=  c #192474",
"-  c #222A6D",
";  c #202864",
":  c #242D74",
">  c #242E7B",
",  c #26307F",
"<  c #273075",
"1  c #2C346C",
"2  c #58595E",
"3  c #785552",
"4  c #4E4E7B",
"5  c #575477",
"6  c #66647A",
"7  c #786E77",
"8  c #861917",
"9  c #921313",
"0  c #9B1414",
"q  c #9C1A18",
"w  c #AB1B1A",
"e  c #A41817",
"r  c #BB1C1B",
"t  c #B31718",
"y  c #96201F",
"u  c #833B18",
"i  c #952422",
"p  c #82302E",
"a  c #8C3533",
"s  c #A62725",
"d  c #BA2928",
"f  c #A63E3B",
"g  c #B73A36",
"h  c #C41D1C",
"j  c #C91A1A",
"k  c #D81B1B",
"l  c #F91E1C",
"z  c #EE1B19",
"x  c #C8211E",
"c  c #EC211F",
"v  c #E1201F",
"b  c #F9211E",
"n  c #CB3330",
"m  c #F13934",
"M  c #EA302C",
"N  c #8A4419",
"B  c #A05219",
"V  c #94532A",
"C  c #97742B",
"Z  c #8F7134",
"A  c #9A7B3F",
"S  c #896829",
"D  c #AF6931",
"F  c #F1403C",
"G  c #894947",
"H  c #974B48",
"J  c #B54946",
"K  c #B6544E",
"L  c #AA5A57",
"P  c #BC5E5E",
"I  c #B8615E",
"U  c #937D60",
"Y  c #967573",
"T  c #A87B79",
"R  c #AB706D",
"E  c #CC5550",
"W  c #ED4F4B",
"Q  c #C36764",
"!  c #A78437",
"~  c #9E8040",
"^  c #AF935E",
"/  c #948378",
"(  c #9E8869",
")  c #AC9466",
"_  c #A08E73",
"`  c #B09971",
"'  c #BDA16C",
"]  c #C5A767",
"[  c #D5B46F",
"{  c #D7BA7D",
"}  c #E3C17A",
"|  c #1C2987",
" . c #232E83",
".. c #242E89",
"X. c #263184",
"o. c #283386",
"O. c #27328C",
"+. c #2A358C",
"@. c #2E398E",
"#. c #333C83",
"$. c #2B3693",
"%. c #2C3895",
"&. c #2D3A9C",
"*. c #273599",
"=. c #313B94",
"-. c #303B9E",
";. c #2E3BA2",
":. c #313EA4",
">. c #323FA9",
",. c #3B438C",
"<. c #3A4599",
"1. c #3441AC",
"2. c #3B47A7",
"3. c #3642B1",
"4. c #3544BB",
"5. c #3A48B9",
"6. c #474C8A",
"7. c #4C5387",
"8. c #5C5B85",
"9. c #414B98",
"0. c #4A5197",
"q. c #4E589F",
"w. c #565F9F",
"e. c #5D6293",
"r. c #6C6884",
"t. c #656998",
"y. c #787798",
"u. c #464FA6",
"i. c #4550AE",
"p. c #5157A5",
"a. c #434DB2",
"s. c #4754BA",
"d. c #5760AA",
"f. c #5A65BB",
"g. c #6F72A9",
"h. c #767AA7",
"j. c #767CB9",
"k. c #3A49C7",
"l. c #3C4DD3",
"z. c #3B4BD7",
"x. c #4956C7",
"c. c #4354D4",
"v. c #4D5DD5",
"b. c #5964C3",
"n. c #7C84C1",
"m. c #9E9D9D",
"M. c #949197",
"N. c #93908C",
"B. c #AA8D8B",
"V. c #A89A9A",
"C. c #B3918C",
"Z. c #B1A38F",
"A. c #8E92B1",
"S. c #9497B2",
"D. c #A19DA9",
"F. c #A5A5A4",
"G. c #AFAEAD",
"H. c #A5A6A8",
"J. c #BFB5A1",
"K. c #B4B4B4",
"L. c #BCBCBD",
"P. c #B7B8B7",
"I. c #B1A9B1",
"U. c #DC9B8F",
"Y. c #E78D8B",
"T. c #CAB38B",
"R. c #C8B284",
"E. c #D1BA88",
"W. c #C1BDBD",
"Q. c #C4B9B7",
"!. c #D1B2B0",
"~. c #DFC387",
"^. c #F0D38F",
"/. c #D2C0BE",
"(. c #D3CAB6",
"). c #EDD7A5",
"_. c #9097C9",
"`. c #B7BCDE",
"'. c #B1B2C7",
"]. c #C4C4C3",
"[. c #C9C9C6",
"{. c #CBCBCB",
"}. c #C3C3CB",
"|. c #D6CBC6",
" X c #CFCFD2",
".X c #C3C6D6",
"XX c #D4D4D4",
"oX c #DBDBDB",
"OX c #D7D6D8",
"+X c #DDD6C4",
"@X c #E7CAC8",
"#X c #E3D7D4",
"$X c #F8D0CF",
"%X c #E5E1DA",
"&X c #F1EAD9",
"*X c #DDDDE0",
"=X c #DEDFE9",
"-X c #E4E4E3",
";X c #EDEDED",
":X c #E6E6EA",
">X c #F1EFEA",
",X c #EFF0EF",
"<X c #EFF0F0",
"1X c #F4F4F5",
"2X c #FDFDFD",
"3X c #F8F3F3",
"4X c None",
/* pixels */
"4X4X4X4X4X4X4X4X4X4X4X4X4X4X4X4X4X4X4X=.<.i.i.2.3.4X4X4X4X4X4X4X4X4X4X4X4X4X4X4X4X4X4X4X4X4X4X4X4X4X",
"4X4X4X4X4X4X4X4X4X4X4X4X4X4X4X . ...$.$.*.&.:.>.3.5.5.s.0.6.8.4X4X4X4X4X4X4X4X4X4X4X4X4X4X4X4X4X4X4X",
"4X4X4X4X4X4X4X4X4X4X4X4X> & X.X.O.+.$.$.%.+.%.-.:.:.:.+...r.( g.b.x.4X4X4X4X4X4X4X4X4X4X4X4X4X4X4X4X",
"4X4X4X4X4X4X4X4X4X4X4X* X.X.o.o.o.o.+.o.o.%.-.:.:.$.X.o.,._ ^ p.z.v.4X4X4X4X4X4X4X4X4X4X4X4X4X4X4X4X",
"4X4X4X4X4X4X4X4X4X4X+ & > : > > > X.$.-.:.3.3.3.>.&.$.$.8.' / a.l.c.4X4X4X4X4X4X4X4X4X4X4X4X4X4X4X4X",
"4X4X4X4X4X4X4X4X4X4X4X% # 1 : , +.&.:.1.1.3.3.3.1.>.&.*.t.g.a.k.l.z.c.4X4X4X4X4X4X4X4X4X4X4X4X4X4X4X",
"4X4X4X4X4X4X4X4X4X4X4X4X4X& O.%.;.1.1.1.3.3.3.1.3.3.>.:.3.4.>.k.k.l.l.c.4X4X4X4X4X4X4X4X4X4X4X4X4X4X",
"4X4X4X4X4X4X4X4X4X4X4X4X= +.%.;.1.1.1.1.3.3.3.3.3.3.3.3.3.>.>.j._.d.4.l.4X4X4X4X4X4X4X4X4X4X4X4X4X4X",
"4X4X4X4X4X4X4X4X4X4X4X@ $.&.;.1.1.1.1.1.1.1.1.1.3.3.3.3.3.3.n.1X2X=Xd.4.x.4X4X4X4X4X4X4X4X4X4X4X4X4X",
"4X4X4X4X4X4X4X4X4X4X= O.%.&.:.>.:.:.:.:.;.&.1.1.>.3.3.1.1.1.`.2X2X2X'.:.s.4X4X4X4X4X4X4X4X4X4X4X4X4X",
"4X4X4X4X4X4X4X4X4X* O.*.:.:.:.&.&.%.$.o., , o.-.>.1.1.1.1.3.`.2X2X2X.X1.3.4X4X4X4X4X4X4X4X4X4X4X4X4X",
"4X4X4X4X4X4X4X4X4X| &.&.&.%.+.o., : ; o O o - &.:.1.1.1.1.1._.2X1X,XA.,.;.4X4X4X4X4X4X4X4X4X4X4X4X4X",
"4X4X4X4X4X4X4X4X .$.$.O.> & - ; o o # ; ; - +.&.:.1.1.1.1.1.f.:X1X:X6 7.q.4X4X4X4X4X4X4X4X4X4X4X4X4X",
"4X4X4X4X4X4X4X4X+.O.& = 4X4X4X+ $ - - - : +.-.1.1.:.:.1.1.:.u.L.&X[.N.+XN.2 4X4X4X4X4X4X4X4X4X4X4X4X",
"4X4X4X4X4X4X4XX.X.4X4X4X4X4X4X% : : - < $.&.:.1.:.:.:.:.:.<._ } ^.^.(.%XH.N.4X4X4X4X4X4X4X4X4X4X4X4X",
"4X4X4X4X4X4X4X4X4X4X4X4X4X4X$ : , : > @.%.:.:.:.:.:.:.:.&.5 ] [ [ ] ~.].*X-X4X4X4X4X4X4X4X4X4X4X4X4X",
"4X4X4X4X4X4X4X4X4X4X4X4X4X4X$ > > : +.%.:.:.:.:.:.:.:.-.X.4 ' ] ) ` J.[.:XXX].4X4X4X4X4X4X4X4X4X4X4X",
"4X4X4X4X4X4X4X4X4X4X4X4X4X& > , : X.%.:.:.:.-.%.=.$.> o # 5 U Z.&X-X X]. XOX%XoX4X4X4X4X4X4X4X4X4X4X",
"4X4X4X4X4X4X4X4X4X4X4X4X4X& : : : $.:.:.:.-.+.: : < < 4 7 Y 6.m.+X].L.L.{.{.XX{.4X4X4X4X4X4X4X4X4X4X",
"4X4X4X4X4X4X4X4X4X4X4X4X4X+ & 4X> %.:.:.:.=., - > X.8.{ E.M.p.R.~.[.G.P.L.].[.L.4X4X4X4X4X4X4X4X4X4X",
"4X4X4X4X4X4X4X4X4X4X4X4X4X4X4X4Xo.*.&.%.X.< : o.$.$.6 [ E.g.A.).R.[.L.H.G.H.P.4X4X4X4X4X4X4X4X4X4X4X",
"4X4X4X4X4X4X4X4X4X4X4X4X4X4X4X4Xo.@. .o., : +.%.&.*.<.7 ] E.*X;X[./.-XoXL.m.H.4X4X4X4X4X4X4X4X4X4X4X",
"4X4X4X4X4X4X4X4X4X4X4X4X4X4X2.s.<.4X4X| @.+.%.$.O.O.O.%.r./.OX*X*X-X2X<XoX4X4X4X4X4X4X4X4X4X4X4X4X4X",
"4X4X4X4X4X4X4X4X4X4X4X4X4X4X*.;.4X4X4X4X| +.o.$.O.o.X.$.t.K.W.OXXX,X2X-X[.4X4X4X4X4X4X4X4X4X4X4X4X4X",
"4X4X4X4X4X4X4X4X4X4X4X4X4X4X4X4X4X4X4X4X4X4X*.3.1.%., $.0.y.G.L.XX;X2X1X*XOX4X4X4X4X4X4X4X4X4X4X4X4X",
"4X4X4X4X4X4X4X4X4X4X4X4X4X4X4X4X4X4X4X4X4X4X4X| $.X.& $.1.,.N.G.{.:X1X2X1X1X4X4X4X4X4X4X4X4X4X4X4X4X",
"4X4X4X4X4X4X4X4X4X4X4X4X4X4X4X4X4X4X4X4X4X4X4X4X* * < @.1.&.w.H.{.-X,X1X-XOXOX4X4X4X4X4X4X4X4X4X4X4X",
"4X4X4X4X4X4X4X4X4X4X4X4X4X4X4X4X4X4X4X4X4X4X4X4X4X4X| o.4.k.<.h./.OX-XXX;X;X4X4X4X4X4X4X4X4X4X4X4X4X",
"4X4X4X4X4X4X4X4X4X4X4X4X4X4X4X4X4X4X4X4X4X4X4X4X4X4X4XX.1.k.5.A.'.XXoX[.[.OX4X4X4X4X4X4X4X4X4X4X4X4X",
"4X4X4X4X4X4X4X4X4X4X4X4X4X4X4X4X4X4X4X4X4X4X4X4X4X4X4X4X| 4.s.4X4XL.K.%XOX4X4X4X4X4X4X4X4X4X4X4X4X4X",
"4X4X4X4X4X4X4X4X4X4X4X4X4X4X4X4X4X4X4X4X4X4X4X4X4X4X4X4X= 1.x.4X4X4X4X}.4X4X4X4X4X4X4X4X4X4X4X4X4X4X",
"4X4X4X4X4X4X4X4X4X4X4X4X4X4X4X4X4X4X4X4X4X4X4X4X4X4X4X4X& $.5.f.4X4X4X4X4X4X4X4X4X4X4X4X4X4X4X4X4X4X",
"4X4X4X4X4X4X4X4X4X4X4X4X4X4X4X4X4X4X4X4X4X4X4XI.4X4X#.> * 6.2.s.4X4X4X4X4X4X4X4X4X4X4X4X4X4X4X4X4X4X",
"4X4X4X4X4X4X4X4X4X4X4X4X4X4X4X4X4X4X4X4XQ C.Q.[.}.t.& > ,.0.$.2.4X4X4X4X4X4X4X4X4X4X4X4X4X4X4X4X4X4X",
"4X4X4X4X4X4X4X4X4X4X4X4X4X4X4X4X4X4XY J j J P.XX].oX7.4X4X@.*.2.4X4X4X4X4X4X4X4X4X4X4X4X4X4X4X4X4X4X",
"4X4X4X4X4X4X4X4X4X4X4X4X4X4X4X4X4X4XY n j d B. X[.{.*X4X4Xo.*.2.4X4X4X4X4X4X4X4X4X4X4X4X4X4X4X4X4X4X",
"4X4X4X4X4X4X4X4X4X4X4X4X4X4X4X4X4X4XL g h h f V.XXP.L.XX4XX.$.,.4X4X4X4X4X4X4X4X4X4X4X4X4X4X4X4X4X4X",
"4X4X4X4X4X4X4X4X4X4X4X4X4X4X4X4X4X4X4Xg h r g R V.K.P.P.XXS.h.4X4X4X4X4X4X4X4X4X4X4X4X4X4X4X4X4X4X4X",
"4X4X4X4X4X4X4X4X4X4X4X4X4X4X4X4X4X4X4Xf t P |.,X{.XX].F.'.XX%XXX'.4X4X4X4X4X4X4X4X4X4X4X4X4X4X4X4X4X",
"4X4X4X4X4X4X4X4X4X4X4X4X4X4X4X4X4X4X4XH K |.,X2X;X:X}.H.{.%X*X*XOX4X4X4X4X4X4X4X4X4X4X4X4X4X4X4X4X4X",
"4X4X4X4X4X4X4X4X4X4X4X4X4X4X4X4X4X4X4XT L.oX:X1X>X-XQ.B.W.-X,X:X X4X4X4X4X4X4X4X4X4X4X4X4X4X4X4X4X4X",
"4X4X4X4X4X4X4X4X4X4X4X4X4X4X4X4X4X4X4XV.P.OX=X;X@X/.K d J Q Q C.XX>X#X4X4X4X4X4X4X4X4X4X4X4X4X4X4X4X",
"4X4X4X4X4X4X4X4X4X4X4X4X4X4X4X4X4X4X4X4Xm.XXoX!.Q T 0 r j k v @X2X2X3XY.4X4X4X4X4X4X4X4X4X4X4X4X4X4X",
"4X4X4X4X4X4X4X4X4X4X4X4X4X4X4X4X4X4X4X4XN.C.I s J H 9 w r j E 3X2X2X&Xm m W 4X4X4X4X4X4X4X4X4X4X4X4X",
"4X4X4X4X4X4X4X4X4X4X4X4X4X4X4X4X4X4X4X4X4XG 0 e I G 9 e w t K oX1X2X$Xb b b F 4X4X4X4X4X4X4X4X4X4X4X",
"4X4X4X4X4X4X4X4X4X4X4X4X4X4X4X4X4X4X4X4X4X. y i T 3 8 q w e V ! ) (.U.k c b l m 4X4X4X4X4X4X4X4X4X4X",
"4X4X4X4X4X4X4X4X4X4X4X4X4X4X4X4X4X4X4X4X4X4X8 i 4X. p 9 e e N C A ! D x j v c z m 4X4X4X4X4X4X4X4X4X",
"4X4X4X4X4X4X4X4X4X4X4X4X4X4X4X4X4X4X4X4X4X4X4X4X4X4X  . a i u A B.~ B t r r h x x 4X4X4X4X4X4X4X4X4X",
"4X4X4X4X4X4X4X4X4X4X4X4X4X4X4X4X4X4X4X4X4X4X4X4X4X4X4X4X4X  X S Z C V s s w w 4X4X4X4X4X4X4X4X4X4X4X",
"4X4X4X4X4X4X4X4X4X4X4X4X4X4X4X4X4X4X4X4X4X4X4X4X4X4X4X4X4X4X4X4X4X4X4X4X4X4X4X4X4X4X4X4X4X4X4X4X4X4X"
};
