/* XPM */
static char *result[] = {
/* columns rows colors chars-per-pixel */
"50 50 125 2 ",
"   c #010100",
".  c #0D0C0A",
"X  c #15130F",
"o  c #18130F",
"O  c #161310",
"+  c #1B1510",
"@  c #1E1813",
"#  c #201711",
"$  c #241C15",
"%  c #2A1E16",
"&  c #2B2017",
"*  c #2D2118",
"=  c #362417",
"-  c #3B2616",
";  c #342419",
":  c #39271A",
">  c #3C291B",
",  c #3B2C21",
"<  c #432D1D",
"1  c #4A2F1C",
"2  c #45301F",
"3  c #4C311E",
"4  c #52341F",
"5  c #5A371E",
"6  c #5B381F",
"7  c #613A1F",
"8  c #423124",
"9  c #4B3220",
"0  c #543620",
"q  c #583720",
"w  c #563922",
"e  c #5C3A21",
"r  c #563D2C",
"t  c #5C3F2A",
"y  c #513E30",
"u  c #633D23",
"i  c #693F22",
"p  c #5D422F",
"a  c #584639",
"s  c #664125",
"d  c #6C4224",
"f  c #6F4826",
"g  c #6C462A",
"h  c #6A482F",
"j  c #734525",
"k  c #784725",
"l  c #764827",
"z  c #7C4A26",
"x  c #704628",
"c  c #754929",
"v  c #7C4C29",
"b  c #7D502A",
"n  c #6D4B32",
"m  c #604B3C",
"M  c #714C33",
"N  c #7E5130",
"B  c #7D563C",
"V  c #604D40",
"C  c #66564A",
"Z  c #765A47",
"A  c #7E624E",
"S  c #756960",
"D  c #7C6B60",
"F  c #824D27",
"G  c #834E28",
"H  c #85512A",
"J  c #8B532A",
"K  c #8D592E",
"L  c #92562B",
"P  c #95592C",
"I  c #9B5C2D",
"U  c #815331",
"Y  c #875830",
"T  c #8B5A32",
"R  c #8C5F3C",
"E  c #925D31",
"W  c #9A5F30",
"Q  c #A15F2F",
"!  c #A35F30",
"~  c #9E602F",
"^  c #8D603C",
"/  c #9D6131",
"(  c #A3602F",
")  c #A56331",
"_  c #AB6532",
"`  c #AC6933",
"'  c #A1683E",
"]  c #B16732",
"[  c #B36B34",
"{  c #B86D35",
"}  c #B77037",
"|  c #BB7237",
" . c #B67238",
".. c #BB7539",
"X. c #BF7A3C",
"o. c #C17739",
"O. c #C47A3A",
"+. c #946847",
"@. c #977050",
"#. c #A96D40",
"$. c #A0714E",
"%. c #847164",
"&. c #86786E",
"*. c #8D7C6F",
"=. c #927967",
"-. c #857B74",
";. c #CD823E",
":. c #D0833E",
">. c #9F846C",
",. c #8D8077",
"<. c #86827F",
"1. c #A98466",
"2. c #988D83",
"3. c #97928E",
"4. c #9E9791",
"5. c #9A9894",
"6. c #AF9C8D",
"7. c #A69E97",
"8. c #A39E9A",
"9. c #A6A19D",
"0. c #B5A89E",
"q. c #A9AAAB",
"w. c #B3ABA4",
"e. c #BBBBBA",
"r. c #C2C1BE",
/* pixels */
"X @ & : 2 2 2 9 9 0 0 9 0 9 0 9 0 0 9 9 2 9 9 2 2 3 2 3 9 3 0 p e e e q e e q w 4 4 w 4 0 0 2 : + O ",
"@ < 2 3 d j d f j g g f f x f x x l v b b H H Y Y K P ~ / / ~ K L T K J J H H F H F H F l j e 2 > % ",
"$ g c t t u d l T / ) ) / ) / I ~ ~ / ' ) ` ) ` [ ....o.o.O.| } } [ [ [ _ ` ( I ( I I I L l e u q ; ",
"$ H ) v 2 9 s K ` X.O.O.O.O.o. .} ` ` ` / ~ ~ ~ / ) ` ` ` ` ) ` ` _ _ _ / P L P L P L J z 4 e c i ; ",
"$ H  .) g w H ` } | O.O.;.:.O...} ` ) ~ J J J H J H J H H J H H F G F z l j f j l j f s 0 8 g v u ; ",
"$ v #.$.+.c w s v K ) [ | | o.} ` ` ( ~ I I P P L P L P P L L J J K K J J H J J H J z t a -.%.B 6 ; ",
"% x 1.0.6.R s 9 9 e u d g d g d d s s s s s s s 7 7 p 7 7 e 6 7 q e e q q e q q 5 w 4 p D r.8.A 6 ; ",
"& f >.q.7.R l 3 ; < < < < > > ; ; 2 3 2 3 3 3 2 > > , 2 2 2 : > > : ; : : ; ; : ; * 2 g A 4.<.Z 6 ; ",
"$ c @.&.D b v 4 & : < < > ; ; % & > 3 < 3 3 3 < ; > 2 4 4 4 : > > & & ; * & * : * % q G x a m M 7 ; ",
"$ b / v 4 v H 4 * > 9 9 < < < ; & < 4 2 3 4 4 < ; 2 4 u i 4 2 4 < : ; < > : > < : * q J k 0 d z u ; ",
"$ b  .) z J H w ; < 3 0 3 < < ; ; < 4 2 3 w 4 2 ; 3 u i 7 4 > 4 2 : : < > > < < : * q J G z F z u ; ",
"$ b ..` H J H e < e d z d e e 1 : 5 l d j x k e , l ~ ~ P j p c u < > 6 w w u 6 3 ; 5 K J F F z e % ",
"$ b } ` v J H u 0 x G I G j l 0 > d I J J J P z 3 K  .;.[ K l J l 3 3 l d i k k s : 4 L L F F F 5 % ",
"$ b  .` v J H u q z L Q J k k 1 > l _ ( J P P v w P ;.:...~ b P F 4 4 F k k F F j : 5 J L G H z 4 @ ",
"$ b  .) z J H s q v L ! J k l ; : l [ _ J P P v 4 K X.:. ./ b I v 3 4 F k k F H j : 4 L L G G z 4 X ",
"$ b  ._ F J G u q H P ) L k j ; ; k { [ P P P c 3 K X.:. .K G P z 4 4 F z z H F d : 4 J L J J z 1 X ",
"$ b | _ v J U u e H I Q L z z < : j [ ` P J P l 9 Y X.:...E J W v 9 0 H z z H F u : 4 J L J J k 1 X ",
"$ v } ` H J H u e L I ) L F F q : j ] _ L J L l 1 Y O.:. .E L W v 9 w J F z H F q & 4 J L J J k 1 O ",
"$ b } ` H J G u u L W ! L F H u < x ] _ J J J j < Y X.;. .E I ) l 9 q J F v J F 9 & 3 J P J J z 1 X ",
"% v [ ` H J G u u I ! ! L F H i < d ] _ L J J j 2 Y ..O.[ L ) ) l 9 e J z F J F 3 & 3 J P J J z 1 X ",
"$ v [ _ J J G u u Q I I L H L u < d _ ( J J J j 2 H ..O.` L ` ) l 9 e L H F J v 0 * 3 J P J J z 1 X ",
"$ v [ _ J J z w u ) I I L H J i > u _ ) J J J j < F  .o.` L _ ) j 3 e L G H J F 0 ; 4 J P J J z 1 X ",
"% z [ ` J L d 9 u ) I I L H J i : u ) ) J H H i < F ` .._ L _ ) j 3 u L J G J F e ; 3 G P J J l 1 X ",
"$ l ` _ K L j 3 u ) P I L L L i > u ! ( F F J i < v _ | _ J ) I j 2 u I J J J F u > 3 H L J G l 1 + ",
"$ d ) ) L L l e s ` W P P P L i - u Q Q J F J d < l _ { ) J Q I d 9 t I J J J G i : 9 F L F z j 4 $ ",
"% d Q ) P J l w u _ I I P P P i > 7 Q Q F F F d < j Q [ Q J ! I d 9 u I J J L G u ; 0 F L k i i 0 % ",
"$ d I ) P J c q u ) L P I I P j > u I I J F F i < j Q ] I J I I d 9 u I L J L F i ; 1 l F i i i 5 ; ",
"% s I ( I F l q u Q F L Q Q P i > e P I F F F u > f I ` I G I L u 9 i ! P L L G i ; < l z i i i 0 % ",
"* d I Q P F j 0 s ! G J Q ! P d < e I P G z z u < d I ! L G L J u 1 i ! I P P H i ; < i j i i i 0 % ",
"; i I ! P z d 0 u ! J J Q _ P j - e L P F k k u , s J L F z H H u 1 i ! Q P P H i : : u i i i i 0 % ",
"% d Q ) P k d 0 i ) J L Q _ P c < e K L F j j u < u F G z j F F u 1 i _ Q P P J j ; ; e i u i i 0 % ",
"+ u Q _ L l d 0 u ) L L Q Q P k < q H J F i j u , u z F k i k z u 4 i ! Q I I J j : : u i u i i 3 % ",
"O u Q _ L j i 4 u _ I P I Q P z < 4 F J k i i u < u k F i i F F u 1 i ] ) ! ! L j ; < 7 i i i u 0 % ",
"X u Q _ L k i 5 i ] ! P I I P z < 4 F F i i i e < u G F F i k z e 1 M ] ` ! ! J j ; 1 i i i i u 9 % ",
"o 7 Q _ L i i 0 i [ ` Q I Q I F < 3 k H F i i 5 < u G H F i i F q 3 x _ _ ! ! J j = < 7 i i 7 u 0 % ",
"X u I _ L i i 4 u } _ Q I I I F < 4 i F i u u q < u G J F F i i q 9 x ] ! ! I F i : < u i i u e 9 % ",
"X 0 P _ L l i 4 u _ ) I P L I G 1 < i i i q u q , u F J F i i k 0 3 x ` ! K J k i : < u u i 7 e 9 % ",
". < J _ L j i 4 0 I Q I J J I J 3 < u i i q q q < e F J F F i i 4 9 c ] L G G j k : < u u i e 5 9 $ ",
"  - G ( J j u 1 0 I ! I H F I J 3 < q u u q e 0 : e i F F z i i 4 3 c ` G j k z z : > u i i 4 4 2 $ ",
"  - U ' T j i 1 4 P W I F z I J 3 < 4 u u q e 0 < q k F i z i i 3 3 x W c i j j j : > e e h t t 2 $ ",
"O 1 =.w.2.n u 1 : d x l g d J l 1 : 1 q q 3 9 3 > 0 i j j i 0 2 : < 9 d 0 0 q q q * - e t -.4.S 8 $ ",
"O , -.e.5.m u 0 9 u s d u d c g e 4 0 0 9 3 2 2 < 1 4 4 0 0 9 < 2 8 9 9 3 1 3 0 4 < < < y 8.e.-., $ ",
"O 3 +.-.S y t i l b v v G H H J J H G G F v v z l l l l j d d u i d s d i i i u u q 1 ; , S &.C , $ ",
"+ e G x r e l K ) / / ) ) ) ) _ ] ] [ [ [ { [ ] ] _ ( Q I P J F v G G G z F z k i i q < * : - < : $ ",
"$ j I K h J ) ` ` ` _ ` ` ] _ ] _ ] _ ] ] ] ] ] _ _ ) Q I G z l l j j i j i i i u u e q 0 : ; < < $ ",
"$ x L x 9 d c v v G J K P I P P P P I Q ) Q _ ) ) ) Q L G z k k j j j j i i i i u u u u u 3 1 < < $ ",
"$ e c c c v v v v v G H J J H J J J J L L L L J J J J z z k k k k i j j i k i i i i i i i i i 0 : + ",
"@ : w e d s u s u u u u u u i u u u u e e 5 5 q 4 4 1 4 4 4 5 4 4 4 1 4 4 4 4 4 4 4 1 1 4 3 3 < & X ",
". O $ % % % % % % % % % % % % % % # $ # # + o + + + + + + # # + o o + + + + + + + + o o + + # # o . ",
"                                                                                                    "
};
