/* XPM */
static char *result[] = {
/* columns rows colors chars-per-pixel */
"40 40 51 1 ",
"  c #291F17",
". c #855029",
"X c #9C5C2D",
"o c #8E552B",
"O c #6F4223",
"+ c #4D321F",
"@ c #221B15",
"# c #93572C",
"$ c #7D4A27",
"% c #312319",
"& c #653D22",
"* c #784826",
"= c #6A3F22",
"- c #3A281B",
"; c #895129",
": c #553620",
"> c #97592C",
", c #A66230",
"< c black",
"1 c #473120",
"2 c #402B1D",
"3 c #754524",
"4 c #8B532A",
"5 c #834D27",
"6 c #452E1D",
"7 c #A05F2F",
"8 c #613B22",
"9 c #5A3921",
"0 c #B26833",
"q c #AC6531",
"w c #7E4D29",
"e c #674126",
"r c #4F3521",
"t c #14120F",
"y c #6F4628",
"u c #BB7237",
"i c #B86E35",
"p c #A66733",
"a c #AD6B34",
"s c #915E32",
"d c #BE7638",
"f c #CF843F",
"g c #C87E3C",
"h c #513F32",
"j c #BAB7B4",
"k c #928C88",
"l c #A09F9C",
"z c #61554D",
"x c #806A5C",
"c c #9F714F",
"v c #DEE1E1",
/* pixels */
"t@%611rrrrrrrrr11111111+r999999:::::r6@t",
"@e1ww*wwwwww..os777pauddiap,7XX>###4w::%",
"@pw218sdddduaaaapppaiuuuuuuuia,77,X#89$%",
"@aierpudgfffdiaX4;.......ww$*OeOOOy:%$$%",
"@,ccy1y.,iuuia,7XXX>>>>>#####oooooehkx3%",
" sjjs8-+++++1+rrrrr1111666666666221xvkO%",
"@skkw* -22%%  +2++6%-6++%2%@%  % @.yzz3%",
"@p46.$ -++26%%:6r:+%19=92:-%6--2- 4$6**%",
"@pd5ow%2+:26%%:6+:+%r==:2:-%6-26- 4;$5*%",
"@puwow6e$4&O+-4$w5524ia.e;+2O9=O9 4o$53 ",
"@pu$ow+*#,35+2,Xo>>1pfg7*79+5O$5O ;#5.O@",
"@pu*ow+$#,3$ 200o##67fgsw7:+;O5;O ;#..=t",
"@pu$ow+w>,*$ -0io##2sfgsw7:+;35;& .#;;&t",
"@puw4w+;X,$.6-q0ooo2sfgs47r+o35;9@.#;48t",
"@pu.4w+o7,$49-q04oo-sfgs>7rr#*.4+@.>;4&t",
"@,u.4w+>7,$o8-,0;44-sgd#p7r:#*;;6@w>44&t",
"@,i;ow+,>75#8-7q;;;-oguoaX+:>$4.1 w>o4&t",
"@,i4oe6q>X5#8%7q.;.-4dio0X+:X$4.: $>44&t",
"@7io#:6q#X;>8%X,..5-.ui4q>+975o.8 *#4.8t",
"@#0o#y10>Xo>&%X,.55-wi0;,#1975o.8 *#.3&@",
"@oq>4y10>X#X&%>7555-*0q.,#19,.#.& *oO== ",
"@4,X5O1,5XXXe%#755$-*0,.7419,;#;&@yw===%",
" ;7X$O1,$>,Xe%oX5$*-yq75>;68qo>;=@e3==& ",
"%.,X*e1q5#qXO%o>w33-y>.$4568q#X4=@9O==& ",
" ;qX3e1q.>qXy%;#$33-e;$O$$680>XoO@:=&=& ",
"t.0>O=60o>7X*%$o$=O-e5$=*$6&0X7#O@9=&&8 ",
"t.0#O=60X>XX*%343&O-e;*O**6ei,,#O@&==&8 ",
"t40#==1iqXXXw%O;38=-eo$O336ei7,oO@===88 ",
"tw0#==6iqXX7w%=$=9&-&o;3OO2eiX,5O@&&O99 ",
"te0#O=2,7X4X.%8O&:&-&;;*OO2eioo33 &8O:9 ",
"<9q>O&->7>*7;-:&&:8-855*==2yi3***@983+9@",
"<:7o=&-X7Xy74-r8&:8-8$$*==2yp&***@89e+:@",
"tejle& 8y*9;3%6:96:-9OOO+--1e6:::@9:klh@",
"thjlh89eeeeyy&99r1161+++11+1+++r++22jjh@",
"t*yh+e#s>X77,qq000qq,XX>4.....5*O82@212@",
"@#7yoiaaa0000000000qq,7;*33OOO==&89:%%:@",
"@#w1eyww;o>#o#>X,,,,,X.$*333OO=&&888:2+@",
"@ey..5www......;.55w$33333OO33OOOO==O=6t",
"t 2222222222---%%      %%         @  % t",
"<<<<<<<<<<<<<<<<<<<<<<<<<<<<<<<<<<<<<<<<"
};
