/* XPM */
static char *result[] = {
/* columns rows colors chars-per-pixel */
"40 40 195 2 ",
"   c #A8356B",
".  c #964A6E",
"X  c #945373",
"o  c #AF427B",
"O  c #A94E7A",
"+  c #B24F7E",
"@  c #B94B7A",
"#  c #A25277",
"$  c #A15478",
"%  c #A75B7F",
"&  c #AB567D",
"*  c #B5527E",
"=  c #B94782",
"-  c #AD5C83",
";  c #AA5B88",
":  c #BC5082",
">  c #BA5C87",
",  c #BF5E8C",
"<  c #B7578A",
"1  c #BF5B91",
"2  c #AA6083",
"3  c #A06788",
"4  c #AA678A",
"5  c #A26380",
"6  c #B6668B",
"7  c #B36C8F",
"8  c #B9618B",
"9  c #BD6693",
"0  c #AF7792",
"q  c #BB7192",
"w  c #B47D96",
"e  c #BA7E9A",
"r  c #D04C86",
"t  c #C75287",
"y  c #C6558D",
"u  c #CA598B",
"i  c #C6598A",
"p  c #D7538F",
"a  c #DA508E",
"s  c #D4598F",
"d  c #C65690",
"f  c #C85892",
"g  c #C46592",
"h  c #CA6593",
"j  c #CB6399",
"k  c #C76F99",
"l  c #CC6C9B",
"z  c #CA6E95",
"x  c #D36499",
"c  c #DA639A",
"v  c #D36D9D",
"b  c #D96A9D",
"n  c #C47094",
"m  c #CC739A",
"M  c #C0749A",
"N  c #D3799F",
"B  c #D568A1",
"V  c #DA6FA3",
"C  c #CD7BA1",
"Z  c #D475A3",
"A  c #DB72A2",
"S  c #D47BA5",
"D  c #DB79A6",
"F  c #DF77A8",
"G  c #DA7BAA",
"H  c #DF7BB1",
"J  c #E06FA5",
"K  c #EA6DA7",
"L  c #E274A7",
"P  c #E075A9",
"I  c #EE72AE",
"U  c #E37CAA",
"Y  c #F672AE",
"T  c #E67DB0",
"R  c #EE7FB4",
"E  c #F07FB7",
"W  c #B18497",
"Q  c #BD849D",
"!  c #BC87A1",
"~  c #C3849F",
"^  c #C282A2",
"/  c #CF82A4",
"(  c #C38AA4",
")  c #CF88A6",
"_  c #C88DA9",
"`  c #D585A8",
"'  c #DC83AE",
"]  c #D38DAB",
"[  c #DC8BAE",
"{  c #C593AC",
"}  c #D193AC",
"|  c #D88EB1",
" . c #CC9AB3",
".. c #D595B5",
"X. c #DB93B4",
"o. c #D59BB6",
"O. c #DC9BBC",
"+. c #DB9BB6",
"@. c #E284AF",
"#. c #E583B2",
"$. c #EC82B4",
"%. c #E38CB5",
"&. c #EB8AB7",
"*. c #EC83B9",
"=. c #EB8EBC",
"-. c #F382B6",
";. c #F389B7",
":. c #F585BA",
">. c #FA86BC",
",. c #F48ABD",
"<. c #FA8BBC",
"1. c #E396BD",
"2. c #EA94BE",
"3. c #E49BBC",
"4. c #EE98BF",
"5. c #F391BE",
"6. c #CDA2B6",
"7. c #D5A4BC",
"8. c #DDA4BE",
"9. c #E3A4BE",
"0. c #F58DC3",
"q. c #FB8CC2",
"w. c #E69FC1",
"e. c #EB9DC3",
"r. c #F493C2",
"t. c #FC93C4",
"y. c #F59AC4",
"u. c #FA9AC6",
"i. c #FF95CC",
"p. c #F49CCA",
"a. c #FC9CCA",
"s. c #D8A8C0",
"d. c #DCB5C9",
"f. c #D9B9C8",
"g. c #E3A4C4",
"h. c #EDA3C7",
"j. c #E3AFC6",
"k. c #EFA6CA",
"l. c #E3AACA",
"z. c #ECADCD",
"x. c #F6A3CB",
"c. c #FBA4CC",
"v. c #F3ABCC",
"b. c #FCA8CC",
"n. c #E3B1C7",
"m. c #EFB0CF",
"M. c #E2BDCF",
"N. c #E2B0CB",
"B. c #F1B8CF",
"V. c #FFA5D4",
"C. c #F5ABD2",
"Z. c #FDADD4",
"A. c #FFA7DD",
"S. c #FFABDA",
"D. c #EDB5D1",
"F. c #ECBBD3",
"G. c #EFBDD8",
"H. c #F2B3D3",
"J. c #FAB3D6",
"K. c #F4B8D6",
"L. c #FFB4DA",
"P. c #FEBADC",
"I. c #FFADE1",
"U. c #FFAEE8",
"Y. c #FFB4E3",
"T. c #FFBDE3",
"R. c #FFB7E8",
"E. c #FFBBEB",
"W. c #DDC1CF",
"Q. c #E5C0D2",
"!. c #EAC3D6",
"~. c #EFC5DD",
"^. c #EFC8DB",
"/. c #FAC0D9",
"(. c #F5CADE",
"). c #FFC1E3",
"_. c #FACBE4",
"`. c #FFC4EA",
"'. c #FFCCEB",
"]. c #F6CCE4",
"[. c #F2D0E1",
"{. c #FBD1E6",
"}. c #F4D8E6",
"|. c #FED3EB",
" X c #FCDAEB",
".X c #FFCEF3",
"XX c #FFD5F2",
"oX c #FFDDF2",
"OX c #F3E3EE",
"+X c #FFE2F4",
"@X c #FFEAF7",
"#X c #FFE5FF",
"$X c #FFEDFB",
"%X c #FFF2FF",
"&X c None",
/* pixels */
"&X&X&X&X&X&X&X&X&X&X&X&X&X&X&X&X&X&X&X&X&X&X&X&X&X&X&X&X&X&X&X&X&X&X&X&X&X&X&X&X",
"&X&X&X&X&X&X&X&X&X&X&X&X&X&X&X&X&X&X&X&X&X&X&X&X&X&X&X&X&X&X&X&X&X&X&X&X&X&X&X&X",
"&X&X&X&X&X&X&X&X&X&X&X&X&X&X&X&X&X&X&X&X&X&X&X&X&X&X&X&X&X&X&X&X&X&X&X&X&X&X&X&X",
"&X&X&X&X&X&X&X&X&X&X&X&X&X&X&X&X&X&X&X&X&X&X&X&X&X&X&X&X&X&X&X&X&X&X&X&X&X&X&X&X",
"&X&X&X&X&X&X&X&X&X&X&X&X&X&X&X&X$X{.F.n.s.+.X.) &X&X&X&X&X&X&X&X&X&X&X&X&X&X&X&X",
"&X&X&X&X&X&X&X&X&X&X&X&X&X&X%X!.{ w o./.J.v.b.y.` 9.&X&X&X&X&X&X&X&X&X&X&X&X&X&X",
"&X&X&X&X&X&X&X&X&X&X&X&X&X&X!.n.'.H.m.J.l.O.v.T.b.n |.&X&X&X&X&X&X&X&X&X&X&X&X&X",
"&X&X&X&X&X&X&X&X&X&X&X&X&X+XQ m.H.P.h...l.z.O.3.a.z q +X&X&X&X&X&X&X&X&X&X&X&X&X",
"&X&X&X&X&X&X&X&X&X&X&X&X%Xs.z.x.J.1.O.D.D.T.z.w.m D n 8.&X&X&X&X&X&X&X&X&X&X&X&X",
"&X&X&X&X&X&X&X&X&X&X&X&X7.m.P.Y.c.%.Y.'.E.Z.K.O.n ` m ] $X&X&X&X&X&X&X&X&X&X&X&X",
"&X&X&X&X&X&X&X&X&X&X&X Xo.h.a.y.v 2..XT.P.S.T.C.h.T.P.+.f.&X&X&X&X&X&X&X&X&X&X&X",
"&X&X&X&X&X&X&X&X&X&X&X_.| %.l G &.Z.T.v.e.e.e.C.v.P.).v.! [.&X&X&X&X&X&X&X&X&X&X",
"&X&X&X&X&X&X&X&X&X&X&X8.C g H x.T.K.H.m.l.D.H.z.J.P.b.P.] o.&X&X&X&X&X&X&X&X&X&X",
"&X&X&X&X&X&X&X&X&X&X|.^ k i =.`.).F.K.F._.XX'.L.J.J.4.u.Z v.&X&X&X&X&X&X&X&X&X&X",
"&X&X&X&X&X&X&X&X&X&X(.X.Z.g 2.`.).H.J.J.|.K.m.J.Z.u.;.U h m.&X&X&X&X&X&X&X&X&X&X",
"&X&X&X&X&X&X&X&X&XOX7.`.L.g S V.`.Z.L.P.K.K.P.L.5.x c N D 7 %X&X&X&X&X&X&X&X&X&X",
"&X&X&X&X&X&X&X&X&XW.3.c.T.O.< G a.y.V.Y.h.1.Z.r.j < H A.p.7 ].&X&X&X&X&X&X&X&X&X",
"&X&X&X&X&X&X&X&X&Xf.[ y.`.).r.B S G Z #.5.&.T c j i.U.U.A.q '.&X&X&X&X&X&X&X&X&X",
"&X&X&X&X&X&X&X&X&X}.[ 5.1.P.E.C.S.C.' i u u t c *.U.0.i.,.& {.&X&X&X&X&X&X&X&X&X",
"&X&X&X&X&X&X&X&X&X&X/ U #.r.0.T p.T.).p.$.:.t.:.R E I K u - !.&X&X&X&X&X&X&X&X&X",
"&X&X&X&X&X&X&X&X&X&X+.h b v A L ,.S.L.).J.Z.S.:.c p a r @ q M.&X&X&X&X&X&X&X&X&X",
"&X&X&X&X&X&X&X&X&X&Xv.@.>.-.:.R x ,.c.g.v.Z.=.V E Y Y s m Q @X&X&X&X&X&X&X&X&X&X",
"&X&X&X&X&X&X&X&X&X&XD.c.q.>.q.,.L h L #.$.V , =.R.I.q.> X M.&X&X&X&X&X&X&X&X&X&X",
"&X&X&X&X&X&X&X&X&X&Xd.e.t.L E ,.t.;.b c c L a.Y.S.,.Z $ ~.&X&X&X&X&X&X&X&X&X&X&X",
"&X&X&X&X&X&X&X&X&X&X+X^ a.t.r.i.*.A r.0.*.0.A.i.>.U O ^ %X&X&X&X&X&X&X&X&X&X&X&X",
"&X&X&X&X&X&X&X&X&X&X&X6.% Z D h F t.i.V.0.B y x y : ; l.&X&X&X&X&X&X&X&X&X&X&X&X",
"&X&X&X&X&X&X&X&X&X&X&X X0 2 $ 8 a.a.i.r.q.= y j m 6 _  X&X&X&X&X&X&X&X&X&X&X&X&X",
"&X&X&X&X&X&X&X&X&X&X&X&X^.! 5 . > A 0.R f   1 9 4  . X&X&X&X&X&X&X&X&X&X&X&X&X&X",
"&X&X&X&X&X&X&X&X&X&X&X&X&X%X{.e 6 *     y l ; 3 oX&X&X&X&X&X&X&X&X&X&X&X&X&X&X&X",
"&X&X&X&X&X&X&X&X&X&X&X&X&X&X&X&XP.v.F : j &Xl.#X&X&X&X&X&X&X&X&X&X&X&X&X&X&X&X&X",
"&X&X&X&X&X&X&X&X&X&X&X&X&X&X&X&X&X&Xv.[ &X#X&X&X&X&X&X&X&X&X&X&X&X&X&X&X&X&X&X&X",
"&X&X&X&X&X&X&X&X&X&X&X&X&X&X&X&X&X&X&XX.( &X&X&X&X&X&X&X&X&X&X&X&X&X&X&X&X&X&X&X",
"&X&X&X&X&X&X&X&X&X&X&X&X&X&X&X&X&X&X&X1.~ &X&X&X&X&X&X&X&X&X&X&X&X&X&X&X&X&X&X&X",
"&X&X&X&X&X&X&X&X&X&X&X&X&X&X&X&X&X&XB.] ( &X&X&X&X&X&X&X&X&X&X&X&X&X&X&X&X&X&X&X",
"&X&X&X&X&X&X&X&X&X&X&X&X&X&X&X&X&X&Xn.} ( &X&X&X&X&X&X&X&X&X&X&X&X&X&X&X&X&X&X&X",
"&X&X&X&X&X&X&X&X&X&X&X&X&X&X&X&X&X&X&Xw W &X&X&X&X&X&X&X&X&X&X&X&X&X&X&X&X&X&X&X",
"&X&X&X&X&X&X&X&X&X&X&X&X&X&X&X&X&X&X&X6.&X&X&X&X&X&X&X&X&X&X&X&X&X&X&X&X&X&X&X&X",
"&X&X&X&X&X&X&X&X&X&X&X&X&X&X&X&X&X&X&X&X&X&X&X&X&X&X&X&X&X&X&X&X&X&X&X&X&X&X&X&X",
"&X&X&X&X&X&X&X&X&X&X&X&X&X&X&X&X&X&X&X&X&X&X&X&X&X&X&X&X&X&X&X&X&X&X&X&X&X&X&X&X",
"&X&X&X&X&X&X&X&X&X&X&X&X&X&X&X&X&X&X&X&X&X&X&X&X&X&X&X&X&X&X&X&X&X&X&X&X&X&X&X&X"
};
