/* XPM */
static char *result[] = {
/* columns rows colors chars-per-pixel */
"40 40 182 2 ",
"   c #322B1D",
".  c #37311F",
"X  c #3A3322",
"o  c #5B1E2F",
"O  c #5C1E30",
"+  c #4E222A",
"@  c #52212B",
"#  c #5B262F",
"$  c #453E2B",
"%  c #5D2533",
"&  c #663337",
"*  c #6C3C3B",
"=  c #743E3C",
"-  c #77282D",
";  c #744638",
":  c #7B5737",
">  c #7C5738",
",  c #775436",
"<  c #585148",
"1  c #774B43",
"2  c #7D5145",
"3  c #715C51",
"4  c #666356",
"5  c #76715F",
"6  c #756F69",
"7  c #716B63",
"8  c #737565",
"9  c #75796A",
"0  c #7D7A68",
"q  c #7C7670",
"w  c #872D2C",
"e  c #952F2E",
"r  c #992F2F",
"t  c #9D2F30",
"y  c #8F3432",
"u  c #843A36",
"i  c #953232",
"p  c #9B3334",
"a  c #AB3639",
"s  c #A53538",
"d  c #8A4A3C",
"f  c #90453A",
"g  c #835C3B",
"h  c #895F3D",
"j  c #87603E",
"k  c #8C613E",
"l  c #AC3C41",
"z  c #B43C41",
"x  c #BA3E45",
"c  c #9F4F59",
"v  c #995555",
"b  c #AF484A",
"n  c #A45F5F",
"m  c #8D634F",
"M  c #8B6747",
"N  c #916642",
"B  c #986D47",
"V  c #98644C",
"C  c #8F714A",
"Z  c #9C764E",
"A  c #94764E",
"S  c #826D56",
"D  c #9E695C",
"F  c #996756",
"G  c #9C7857",
"H  c #8A725A",
"J  c #A1774E",
"K  c #A36B5C",
"L  c #A1655D",
"P  c #BF665F",
"I  c #A37D53",
"U  c #AA7C5E",
"Y  c #A37658",
"T  c #885F60",
"R  c #AB5C64",
"E  c #AA5465",
"W  c #B05768",
"Q  c #B55A6B",
"!  c #B95B6E",
"~  c #B05C67",
"^  c #BE5C71",
"/  c #A66160",
"(  c #AB7F60",
")  c #B66A77",
"_  c #B96D79",
"`  c #B37878",
"'  c #BD7669",
"]  c #CC424B",
"[  c #D5434E",
"{  c #DB444F",
"}  c #CA4B51",
"|  c #DB4450",
" . c #C55254",
".. c #C65F76",
"X. c #C1726C",
"o. c #C96278",
"O. c #D47271",
"+. c #C36A68",
"@. c #AC8357",
"#. c #AC8659",
"$. c #B48C5D",
"%. c #B88F5F",
"&. c #97896F",
"*. c #9E9279",
"=. c #938972",
"-. c #AD8162",
";. c #AD896D",
":. c #A5876F",
">. c #B38564",
",. c #B88C6B",
"<. c #B79060",
"1. c #BA9261",
"2. c #BA906F",
"3. c #A9987C",
"4. c #BD9371",
"5. c #BD9A79",
"6. c #B08674",
"7. c #C2897A",
"8. c #C3997A",
"9. c #3573BE",
"0. c #687F9A",
"q. c #4C74A2",
"w. c #B97880",
"e. c #CE6B80",
"r. c #C27E87",
"t. c #C47F89",
"y. c #C27783",
"u. c #D27386",
"i. c #D5798B",
"p. c #808B95",
"a. c #9D9895",
"s. c #B39E82",
"d. c #BEAA8B",
"f. c #B6A284",
"g. c #AEA190",
"h. c #B1ADAC",
"j. c #CC838D",
"k. c #CE8F99",
"l. c #D38793",
"z. c #DC8494",
"x. c #D68A96",
"c. c #D88B97",
"v. c #DD8D9A",
"b. c #D78D99",
"n. c #C9969D",
"m. c #E18E9D",
"M. c #E3919F",
"N. c #CAA784",
"B. c #C3AC8D",
"V. c #CEAC8B",
"C. c #C7A686",
"Z. c #CEAE90",
"A. c #CAB594",
"S. c #CEB897",
"D. c #D2B492",
"F. c #D4BE9C",
"G. c #D9BD9A",
"H. c #C69BA1",
"J. c #E89DA0",
"K. c #CABBA7",
"L. c #CDB5B9",
"P. c #C6A7AC",
"I. c #E9A2A5",
"U. c #D7C09E",
"Y. c #DBC19D",
"T. c #DDC5A2",
"R. c #DFC8A4",
"E. c #CCC1B4",
"W. c #E0C7A3",
"Q. c #E2CAA6",
"!. c #A6CEE2",
"~. c #D4C8C6",
"^. c #D7D2CF",
"/. c #DAD7D9",
"(. c #D9D5D7",
"). c #E5E2E5",
"_. c #EDE9EE",
"`. c #E9E5E9",
"'. c #F1EEF3",
"]. c #F4F2F7",
"[. c #F5F3F8",
"{. c None",
/* pixels */
"{.{.{.{.{.{.{.{.{.{.{.{.{.j.v.M.m.m.b.j.w.{.{.{.{.{.{.{.{.{.{.{.{.{.{.{.{.{.{.{.",
"{.{.{.{.{.{.{.{.{.{.{.m.M.M.M.M.M.M.M.M.M.M.J.l.{.{.{.{.{.{.{.{.{.{.{.{.{.{.{.{.",
"{.{.{.{.{.{.{.{.{.j.M.M.M.J.m.M.M.M.M.M.M.M.M.M.z.v.{.{.{.{.{.{.{.{.{.{.{.{.{.{.",
"{.{.{.{.{.{.{.{.m.M.M.M.M.M.m.M.M.M.M.M.M.M.M.M.o...v.{.{.{.{.{.{.{.{.{.{.{.{.{.",
"{.{.{.{.{.{.{.m.M.M.M.M.J.v.L.M.M.v.~.H.M.M.M.M.o.....z.{.{.{.<.@.M A {.{.{.{.{.",
"{.{.C <.C {.v.M.M.m.M.M.v.'.[._.H.[.[.[.H.M.M.M.u.Q ....J.{.<.I Z 1.1.A {.{.{.{.",
"{.{.1.Z N {.J.m.M.m.M.M.J.L.[.[.].[.[._.b.M.x.M.i...! ..e.` 1.g 1.1.k {.{.{.{.{.",
"G I 1.k {.{.M.x.M.M.M.M.M.l.'.[.].]._.m.M.M.M.M.u...! o...#.$.Z 1.k {.{.{.{.{.{.",
"1.N 1.j {.{.J.M.M.r.M.M.b.[.[.).).[.[._.v.M.M.M.o.........1.J $.%.; {.{.{.1.#.{.",
"<.j 1.k {.{.m.M.M.M.M.M.M.`.].P.x._.[.[.n.M.M.M...........1.B <.@.{.{.{.{.1.k {.",
"#.B <.I {.{.M.l.M.M.M.l.w.j.b.M.M.M.M.m.x.t.j.v...Q ......1.B 1.@.{.{.{.{.$.k > ",
"{.<.j 1.M > M.M.r.v.M.M.M.M.M.M.M.M.M.M.M.M.M.M.y.........%.Z $.$., {.{.{.N k j ",
"{.#.I k k k t.m.M.M.J.m.M.M.M.M.M.M.M.M.M.M.M.M.M.m.W ....V N N k k h g N k > g ",
"{.{.I I k D M.M.M.M.l.) ! ^ o.o.........Q ) l.M.M.z.....W c k k k k k k k g k {.",
"{.{.{.{.F m.M.M._ ........Q / / K K L R ! o....._ u.......v k k k k k k g k : {.",
"{.{.{.{.J.x.c.......E U >.>.-.>.>.>.>.>.>.>.F ......Q ..! o.F {.h k k k > h , {.",
"{.{.{.l.M.w.......Y >.>.>.4.N.D.G.Y.Y.D.5.>.>.>./ ....W E ....{.{.{.: g > {.{.{.",
"{.{.{.m.l.^ ....Y >.8.Q.Q.Q.Q.Q.Q.Q.Q.Q.R.d.5.>.>.D ....E ....E {.{.{.{.{.{.{.{.",
"{.{.{.J.i.o...R >.T.Q.T.f.Q.Q.Q.Q.Q.Q.Q.F.^.7 h.;.>.~ ....W ....{.{.{.{.{.{.{.{.",
"{.{.{.b.Q 8 T ( D.K.a.6 ~.Q.Q.W.Q.Q.Q.Q.F.<     /.>.( ......Q ..{.{.{.{.{.{.{.{.",
"{.{.4 9 ! 9 9 G W.(.    7 T.W.R.Y.Q.Q.Q.U.q     /.>.>.^ ....! ..{.{.{.{.{.{.{.{.",
"{.{.9 9 X 9 0 8 Q.).    a.R.p.!.9.g.Q.Q.Q.E.^.).-.>.>.Q ........{.{.{.{.{.{.{.{.",
"{.{.8 8 =.Q.Q.Q.A.F.).(.K.Q.W.q.0.Q.Q.R.Q.Q.Q.Q.>.>.>.Q Q ! ....{.{.{.{.{.{.{.{.",
"{.{.8 R.Q.Q.s.T.d.Q.Q.Q.Q.Q.Q.W.U.Q.Q.U.Q.Q.Q.Q.4.>.>.^ ..^ ..^ {.{.{.{.{.{.{.{.",
"{.{.A.Q.R.Q.*.R.d.Q.Q.Q.Q.A.B.= ; 1 F.Q.Q.Q.Q.Q.,.>.G ........! {.{.{.{.{.{.{.{.",
"{.{.{.d.=.Q.R.Q.A.Q.Q.Q.Q.Q.Q.+.O.X.Q.Q.Q.Q.Q.Q.>.>.W ........{.{.{.{.{.{.{.{.{.",
"{.{.{.s.T.Y.;.G.Q.S.Q.Q.Q.Q.Q.6.J.7.Q.Q.Q.Q.Q.4.>.R ........{.{.{.{.{.{.{.{.{.{.",
"{.{.{.{.{.{.{.3.Q.Q.B.Q.Q.Q.Q.R.J.B.Q.Q.Q.Q.4.-.c ......! {.{.{.{.{.{.{.{.{.{.{.",
"{.{.{.{.{.{.{.{.{.S.F.B.Q.Q.Q.Q.F.Q.W.Z.,.#.f e i 3 4 {.{.{.{.{.{.{.{.{.{.{.{.{.",
"{.{.{.{.{.{.{.{.{.{.{.A.Y.F ( ( ( ( L f i a [ V H $ 9 5.u {.{.{.{.{.{.{.{.{.{.{.",
"{.{.{.{.{.{.{.{.{.{.{.y T.Q.A. .l | x [ { U.Q.N.9 9 3.R.d p l {.{.{.{.{.{.{.{.{.",
"{.{.{.{.{.{.{.{.{.{.{.t C.Q.Q.T.| s b t x 7.Q.G.5 3.R.C.>.i s l {.{.{.{.{.{.{.{.",
"{.{.{.{.{.{.{.{.{.{.t t B.Q.Q.Z.| [ V.' | 7.Q.Y.>.#.m ; Y r r x {.{.{.{.{.{.{.{.",
"{.{.{.{.{.{.{.{.{.{.t t K A.Q.3.} | P Q.T.Q.Q.V.>.>.& r a t r t ] {.{.{.{.{.{.{.",
"{.{.{.{.{.{.{.{.{.e t t p Q.Q.G.Q.D.Q.S.T.Q.Q.,.>.>.O t a a {.{.z {.{.{.{.{.{.{.",
"{.{.{.{.{.{.{.{.{.t t r r :.Q.Q.Q.Q.Q.Q.Q.Q.8.>.>.1 - t e {.{.{.{.{.{.{.{.{.{.{.",
"{.{.{.{.{.{.{.{.{.s {.{.{.w :.T.Q.Q.Q.Q.Y.,.>.>.* # y w {.{.{.{.{.{.{.{.{.{.{.{.",
"{.{.{.{.{.{.{.{.{.{.{.{.{.{.{.o % 1 m m 2 & O O ; F {.{.{.{.{.{.{.{.{.{.{.{.{.{.",
"{.{.{.{.{.{.{.{.{.{.{.{.{.{.{.{.{.{.@ @ + + {.    . {.{.{.{.{.{.{.{.{.{.{.{.{.{.",
"{.{.{.{.{.{.{.{.{.{.{.{.{.{.{.{.{.{.{.. . {.{.{.X   {.{.{.{.{.{.{.{.{.{.{.{.{.{."
};
