/* XPM */
static char *result[] = {
/* columns rows colors chars-per-pixel */
"40 40 206 2 ",
"   c #151F08",
".  c #15230A",
"X  c #182114",
"o  c #293816",
"O  c #2A3915",
"+  c #2C3721",
"@  c #323827",
"#  c #393A38",
"$  c #364315",
"%  c #2C421F",
"&  c #3A601F",
"*  c #374628",
"=  c #375827",
"-  c #394736",
";  c #3D5034",
":  c #2E4D2C",
">  c #3A6428",
",  c #386726",
"<  c #3F7226",
"1  c #415B1D",
"2  c #4B661E",
"3  c #485827",
"4  c #434D36",
"5  c #42453C",
"6  c #444B3C",
"7  c #4A5335",
"8  c #445D33",
"9  c #4B513C",
"0  c #455838",
"q  c #525C36",
"w  c #515B3D",
"e  c #486427",
"r  c #54652C",
"t  c #58672B",
"y  c #557927",
"u  c #4A6439",
"i  c #576039",
"p  c #5A6735",
"a  c #5B7934",
"s  c #637C2D",
"d  c #647132",
"f  c #375848",
"g  c #375C52",
"h  c #2D5644",
"j  c #4B4B4B",
"k  c #444949",
"l  c #4D5646",
"z  c #545948",
"x  c #465756",
"c  c #545454",
"v  c #545B5B",
"b  c #5D5D5D",
"n  c #595B54",
"m  c #605F5F",
"M  c #5B644D",
"N  c #536544",
"B  c #597444",
"V  c #5E6352",
"C  c #5A665A",
"Z  c #567557",
"A  c #606944",
"S  c #646B4F",
"D  c #6B784A",
"F  c #646B5D",
"G  c #656A5A",
"H  c #6A7755",
"J  c #456964",
"K  c #436C68",
"L  c #486764",
"P  c #596B67",
"I  c #546C69",
"U  c #5B6766",
"Y  c #47736D",
"T  c #55736E",
"R  c #4B7A75",
"E  c #477873",
"W  c #517975",
"Q  c #577A76",
"!  c #636463",
"~  c #656A61",
"^  c #6C6F65",
"/  c #6C6C6C",
"(  c #656A6A",
")  c #6F7266",
"_  c #69736C",
"`  c #71766B",
"'  c #747966",
"]  c #6C7373",
"[  c #667977",
"{  c #747474",
"}  c #7A7C75",
"|  c #757979",
" . c #7C7C7C",
".. c #777A75",
"X. c #578425",
"o. c #67872A",
"O. c #6A8132",
"+. c #76942F",
"@. c #5E864D",
"#. c #7B8A47",
"$. c #578D68",
"%. c #48827C",
"&. c #46817B",
"*. c #5C837F",
"=. c #55857D",
"-. c #67857C",
";. c #79837A",
":. c #6A9978",
">. c #619169",
",. c #74A276",
"<. c #81993E",
"1. c #87A23F",
"2. c #84887E",
"3. c #4A8780",
"4. c #4E8A84",
"5. c #558781",
"6. c #5B8580",
"7. c #548A84",
"8. c #5D8E8A",
"9. c #4F928B",
"0. c #53938C",
"q. c #59928A",
"w. c #559B94",
"e. c #5D9993",
"r. c #569F98",
"t. c #668A86",
"y. c #758483",
"u. c #7B8886",
"i. c #64938B",
"p. c #669A95",
"a. c #6A9A95",
"s. c #679A95",
"d. c #7B9A96",
"f. c #77918E",
"g. c #5CA49C",
"h. c #57A29A",
"j. c #66A59E",
"k. c #6AA39D",
"l. c #76A49C",
"z. c #7EAA82",
"x. c #5CABA2",
"c. c #5FB0A7",
"v. c #66ACA4",
"b. c #78A7A2",
"n. c #62B5AC",
"m. c #69B5AD",
"M. c #73B4AC",
"N. c #79B2A9",
"B. c #65BBB2",
"V. c #69BDB5",
"C. c #74BCB4",
"Z. c #79BAB3",
"A. c #6CC4BA",
"S. c #74C3BB",
"D. c #79C3BA",
"F. c #7CCCC4",
"G. c #77CEC4",
"H. c #7CD0C7",
"J. c #7CD2C9",
"K. c #848483",
"L. c #898787",
"P. c #858886",
"I. c #898A86",
"U. c #858A8A",
"Y. c #8B8B8B",
"T. c #908F8D",
"R. c #8D908C",
"E. c #91928F",
"W. c #839895",
"Q. c #939493",
"!. c #999798",
"~. c #959C9B",
"^. c #9C9C9C",
"/. c #999797",
"(. c #A09F9F",
"). c #A0A09E",
"_. c #A09FA0",
"`. c #88AAA6",
"'. c #89B1AA",
"]. c #A3A3A3",
"[. c #ABABAB",
"{. c #A1A8A7",
"}. c #B0AFAF",
"|. c #AFAFB0",
" X c #B4B4B4",
".X c #BCBCBC",
"XX c #B8B7B7",
"oX c #8CC7BA",
"OX c #84CBC4",
"+X c #8ECBC4",
"@X c #90CEC5",
"#X c #82D4CB",
"$X c #84D8CF",
"%X c #86D9D0",
"&X c #8CDDD5",
"*X c #95DCD4",
"=X c #96D2CB",
"-X c #90E0D7",
";X c #93E4DB",
":X c #9DE5DE",
">X c #A0E7DF",
",X c #9BEAE1",
"<X c #A4EEE6",
"1X c #A6F0E8",
"2X c #C1C1C1",
"3X c None",
/* pixels */
"3X3X3X3X3X3X3X3X3X3X3X3X3X3X3X3X3X3X3XY.T.v 3X3X3X3X3X3X3X3X3X3X3X3X3X3X3X3X3X3X",
"3X3X3X3X3X3X3X3X3X3X3X3X3X3X3X3X3X3X!.2X2XY. .3X3X3X3X3X3X3X3X3X3X3X3X3X3X3X3X3X",
"3X3X3X3X3X3X3X3X3X3X3X3X3X3X3X3X3X].[. X[.K.Q.Q.3X3X3X3X3X3X3X3X3X3X3X3X3X3X3X3X",
"3X3X3X3X3X3X3X3X3X3X3X3X3X3XY.( i.a.y.^.K.| [ [ T u._...3X3X3X3X3X3X3X3X3X3X3X3X",
"3X3X3X3X3X3X3X3X3X3X3X3X3X^.|.Q.d.OXA.q.*.j.OXN.U.[. XY.3X3X3X3X3X3X3X3X3X3X3X3X",
"3X3X3X3X3X3X3X3X3X3X3X3XV  .Y.K./ b.l.$.>.:.,.Z ;._.Y.Y.{ 3X3X3X3X3X3X3X3X3X3X3X",
"3X3X3X3X3X3X3X3X3X3X3Xm z 7  . .v i.Z B B a X., > } Y.K.Y./ 3X3X3X3X3X3X3X3X3X3X",
"3X3X3X3X3X3X3X3X3X3X3X^.[._ P T v.-.B a a X.< : = = 2.^.Y.{ j 3X3X3X3X3X3X3X3X3X",
"3X3X3X3X3X3X3XL.L.K.{ } _./ g.H.-XN.B O.X.: > ; > l N [.].K.{ / 3X3X3X3X3X3X3X3X",
"3X3X3X3X3X3X}.2XXX[.(.! / U 4.x.S.m.u e , : > 0 3 U - ' L.K./ K.{ 3X3X3X3X3X3X3X",
"3X3X3X3XO S ].Q.L.L. .! l 7.S.V.g.9.u V u g N ;.;.{ * + l  .5 z ;.b.s.3XK.3X3X3X",
"3X3X3X{ N 4 r 9 / m / / x D.;X;X#Xk.~.Y.v K ] /./.F 4 _ / P.C 7.C.<X:Xd.]. .3X3X",
"3X3XQ. X XR.i D { P E W *.*X:X@X'.{..XR.! k.s.*.*.T [ ..U L p.;X1X<X'.Q._.!.3X3X",
"3Xc ]. X X]. .N 8.OX&X-X*Xd._ F ^.}.}.Q.(.d.:X&X%XS.j.M.q.>.,.W.oX,Xk.R.[.[./ 3X",
"3Xc ^.].].K. .i.:X<X1X@X_ M d ' ).).^.).XXW.:X=X`.-.Z l.@.+.+.#.H '.&Xt.Q.^.m 3X",
"3X! /.^.^.K.] N.<X1X@Xu $ s t ) /.K.V F L.t.oX~..X[.2.^ e 1 M  .| M.H.6.L.P.m 3X",
"3X/ [.^.!./ 4.J.;X,X-.@ F H r q F b ( L i.a.d.~. X2X.X[.H O.1.r 5 Q G.5.K. .( 3X",
"3X .XX|. .v 0.G.G.D.f./.(.K.q 5 k Y e.M.N.~.|.[.[.^.^.].Y.* y <.* R c.R L. .{ # ",
"3XK..XY.! c 0.B.A.h.P.^.{ ! x q.C.*XOXu.]..X2X}.].K.Q._._.~ o 3 r 0 &.J L. . .m ",
"3XP.L.m U c E h.h.%.L. .! v v.,X<X:X`.].^.].].].].Y.P._._. .4 r 3 f w.W / K.K.c ",
"3X^.| / z 9 E 0.w.E P.E./ v v.%XOX`.XX2X X_.Q.[.[.]. .K. .u.T.P.z I C.v.I / / j ",
"3X^.K. .z l [ C.G.p.^.]. .l 9.n.e.!.2X2XXX X!.{.].(. .U / ^.]./.{ L *.W.k.Q j j ",
"3X!.K.K./.]./.y.C.i.].}.) 4 E 9.R Q.[.XX2X_.P.!.]./. . .T.Q./.K.{ L y.L.p.p.K. .",
" . X}.[.[.^.^.;.0.*./.Y.P.] K 4.K L.!.!.Q.K.Y.Y.E.K.Y.Y.[.Q.K./ ! L y.Q.5.7. .( ",
"Q.2XXX].Y.^.^.y.D.a.l l S c 5.v.-.^.D a e 8 = u l  .Y. .Q. X]. .L.u.Q | Y R K.b ",
"K.^.Q./.Y. ./ p.-XS.P 2.# Y S.%Xs.N o.2 X.> ; ; ; n /  .K.(.[.].Y.K.T b K K / # ",
"v Y./.^.).K./ e.%X-XZ.t.j.H.H.D.t.0 s 4 o.X.& % % k ~  .K.].[.^.E.K.7.0.r.E b ( ",
"3X..L._.].K.{ %.B.H.&X%X&X&Xk.f.{.R.O.8 O.q o.& % z / { T.[.!.E.^.Y.7.p.C.8.Q. .",
"m Q.A D ) ` / 7.n.n.A.A.J.#Xf.[.[.].D w s 7 s 3 = !  .K.Q.!.Q./.^.Q.R I i.5.Q. .",
"/ Q.S s e @ * E x.x.n.n.V.g.U.].].].Y.I.' ~ S ^ M { K.K. .^.^.^.].!.Q T Q Y !. .",
"m ..i r H ~ o Y 4.0.x.B.A.0.Y.].].^.T.P.E. .T.].Q.K.{ /  .]._.^._.!.W P L g / v ",
"3Xm 3 w Q.[.u.E %.&.4.h.n.e.P.^.^.].Y.7 / Y._.].{.Q.K.| { _.].].[.Q.K ] U g $ @ ",
"3X3X3X# T.^.T.P 0.4.%.4.w.=.{ Q.Q.Q.Y.F ` }.].).].Y.Y.Y. . .2./.I.S l U b 3X3X3X",
"3X3X3X3X( { 4 f h.9.4.%.%.Q ]..X2X2XXX].}.XX.X].Y.I.u.Y.L.{ q p p d h 3X3X3X3X3X",
"3X3X3X3X3X3XX h n.c.r.0.R [ (.[..X2X[.[.2X2X2X XK. . .T.L. .z r r 3 3X3X3X3X3X3X",
"3X3X3X3X3X3X3X3X3X3Xc.x.w.| ].].].[.Q.[..X2X2X{.K.K.K.Y.K.m c + 3X3X3X3X3X3X3X3X",
"3X3X3X3X3X3X3X3X3X3X3X3Xx.[ ^.T.^.^.Y.[.].[.}.K.K...F / c 3X3X3X3X3X3X3X3X3X3X3X",
"3X3X3X3X3X3X3X3X3X3X3X3X3X3Xz * M /.Y.].].].' 7 n b + 3X3X3X3X3X3X3X3X3X3X3X3X3X",
"3X3X3X3X3X3X3X3X3X3X3X3X3X3X3X. o 7 ^ T.Y. .* O O 3X3X3X3X3X3X3X3X3X3X3X3X3X3X3X",
"3X3X3X3X3X3X3X3X3X3X3X3X3X3X3X3X3X. 5 c 5 k . 3X3X3X3X3X3X3X3X3X3X3X3X3X3X3X3X3X"
};
